<?xml version="1.0" encoding="UTF-8" standalone="no"?>
<!-- Created with Inkscape (http://www.inkscape.org/) -->

<svg
   xmlns:dc="http://purl.org/dc/elements/1.1/"
   xmlns:cc="http://creativecommons.org/ns#"
   xmlns:rdf="http://www.w3.org/1999/02/22-rdf-syntax-ns#"
   xmlns:svg="http://www.w3.org/2000/svg"
   xmlns="http://www.w3.org/2000/svg"
   xmlns:sodipodi="http://sodipodi.sourceforge.net/DTD/sodipodi-0.dtd"
   xmlns:inkscape="http://www.inkscape.org/namespaces/inkscape"
   width="257.9845mm"
   height="235.26656mm"
   viewBox="0 0 914.1183 833.62165"
   id="svg2"
   version="1.1"
   inkscape:version="0.91 r13725"
   inkscape:export-filename="/home/zen/Desktop/llnmaps.png"
   inkscape:export-xdpi="214"
   inkscape:export-ydpi="214"
   sodipodi:docname="iconv2.svg">
  <defs
     id="defs4">
    <filter
       id="filter3337"
       style="color-interpolation-filters:sRGB"
       x="-0.25"
       y="-0.25"
       width="1.5"
       height="1.5"
       inkscape:menu-tooltip="Strongly raised border around a flat surface"
       inkscape:menu="Bevels"
       inkscape:label="Raised Border">
      <feGaussianBlur
         id="feGaussianBlur3339"
         result="result1"
         stdDeviation="4" />
      <feComposite
         id="feComposite3341"
         operator="in"
         result="result4"
         in2="result1"
         in="result1" />
      <feGaussianBlur
         id="feGaussianBlur3343"
         in="result4"
         result="result6"
         stdDeviation="2" />
      <feComposite
         id="feComposite3345"
         result="result8"
         in2="result4"
         in="result6"
         operator="xor" />
      <feComposite
         id="feComposite3347"
         in2="result8"
         in="result4"
         result="fbSourceGraphic"
         operator="atop" />
      <feSpecularLighting
         id="feSpecularLighting3349"
         in="fbSourceGraphic"
         result="result1"
         lighting-color="#ffffff"
         surfaceScale="3"
         specularConstant="1.29999995"
         specularExponent="10">
        <feDistantLight
           id="feDistantLight3351"
           elevation="55"
           azimuth="235" />
      </feSpecularLighting>
      <feComposite
         id="feComposite3353"
         in2="fbSourceGraphic"
         in="result1"
         result="result2"
         operator="atop" />
      <feComposite
         id="feComposite3355"
         in2="result2"
         in="fbSourceGraphic"
         result="result4"
         operator="arithmetic"
         k2="1"
         k3="1"
         k1="0"
         k4="0" />
      <feComposite
         id="feComposite3357"
         in2="SourceGraphic"
         in="result4"
         operator="over" />
      <feBlend
         id="feBlend3359"
         in2="result2"
         mode="multiply" />
    </filter>
    <filter
       id="filter3337-6"
       style="color-interpolation-filters:sRGB"
       x="-0.25"
       y="-0.25"
       width="1.5"
       height="1.5"
       inkscape:menu-tooltip="Strongly raised border around a flat surface"
       inkscape:menu="Bevels"
       inkscape:label="Raised Border">
      <feGaussianBlur
         id="feGaussianBlur3339-3"
         result="result1"
         stdDeviation="4" />
      <feComposite
         id="feComposite3341-0"
         operator="in"
         result="result4"
         in2="result1"
         in="result1" />
      <feGaussianBlur
         id="feGaussianBlur3343-2"
         in="result4"
         result="result6"
         stdDeviation="2" />
      <feComposite
         id="feComposite3345-2"
         result="result8"
         in2="result4"
         in="result6"
         operator="xor" />
      <feComposite
         id="feComposite3347-8"
         in2="result8"
         in="result4"
         result="fbSourceGraphic"
         operator="atop" />
      <feSpecularLighting
         id="feSpecularLighting3349-5"
         in="fbSourceGraphic"
         result="result1"
         lighting-color="#ffffff"
         surfaceScale="3"
         specularConstant="1.29999995"
         specularExponent="10">
        <feDistantLight
           id="feDistantLight3351-2"
           elevation="55"
           azimuth="235" />
      </feSpecularLighting>
      <feComposite
         id="feComposite3353-4"
         in2="fbSourceGraphic"
         in="result1"
         result="result2"
         operator="atop" />
      <feComposite
         id="feComposite3355-4"
         in2="result2"
         in="fbSourceGraphic"
         result="result4"
         operator="arithmetic"
         k2="1"
         k3="1"
         k1="0"
         k4="0" />
      <feComposite
         id="feComposite3357-6"
         in2="SourceGraphic"
         in="result4"
         operator="over" />
      <feBlend
         id="feBlend3359-8"
         in2="result2"
         mode="multiply" />
    </filter>
    <filter
       id="filter3337-2"
       style="color-interpolation-filters:sRGB;"
       x="-0.25"
       y="-0.25"
       width="1.5"
       height="1.5"
       inkscape:menu-tooltip="Strongly raised border around a flat surface"
       inkscape:menu="Bevels"
       inkscape:label="Raised Border">
      <feGaussianBlur
         id="feGaussianBlur3339-4"
         result="result1"
         stdDeviation="4" />
      <feComposite
         id="feComposite3341-4"
         operator="in"
         result="result4"
         in2="result1"
         in="result1" />
      <feGaussianBlur
         id="feGaussianBlur3343-8"
         in="result4"
         result="result6"
         stdDeviation="2" />
      <feComposite
         id="feComposite3345-21"
         result="result8"
         in2="result4"
         in="result6"
         operator="xor" />
      <feComposite
         id="feComposite3347-3"
         in2="result8"
         in="result4"
         result="fbSourceGraphic"
         operator="atop" />
      <feSpecularLighting
         id="feSpecularLighting3349-2"
         in="fbSourceGraphic"
         result="result1"
         lighting-color="rgb(255,255,255)"
         surfaceScale="3"
         specularConstant="1.3"
         specularExponent="10">
        <feDistantLight
           id="feDistantLight3351-1"
           elevation="55"
           azimuth="235" />
      </feSpecularLighting>
      <feComposite
         id="feComposite3353-2"
         in2="fbSourceGraphic"
         in="result1"
         result="result2"
         operator="atop" />
      <feComposite
         id="feComposite3355-6"
         in2="result2"
         in="fbSourceGraphic"
         result="result4"
         operator="arithmetic"
         k2="1"
         k3="1" />
      <feComposite
         id="feComposite3357-68"
         in2="SourceGraphic"
         in="result4"
         operator="over" />
      <feBlend
         id="feBlend3359-86"
         in2="result2"
         mode="multiply" />
    </filter>
  </defs>
  <sodipodi:namedview
     id="base"
     pagecolor="#ffffff"
     bordercolor="#666666"
     borderopacity="1.0"
     inkscape:pageopacity="0.0"
     inkscape:pageshadow="2"
     inkscape:zoom="0.24748737"
     inkscape:cx="-0.17551712"
     inkscape:cy="-13.704108"
     inkscape:document-units="px"
     inkscape:current-layer="g3395"
     showgrid="false"
     fit-margin-top="0"
     fit-margin-left="0"
     fit-margin-right="0"
     fit-margin-bottom="0"
     inkscape:window-width="928"
     inkscape:window-height="1028"
     inkscape:window-x="65"
     inkscape:window-y="24"
     inkscape:window-maximized="0" />
  <metadata
     id="metadata7">
    <rdf:RDF>
      <cc:Work
         rdf:about="">
        <dc:format>image/svg+xml</dc:format>
        <dc:type
           rdf:resource="http://purl.org/dc/dcmitype/StillImage" />
        <dc:title></dc:title>
      </cc:Work>
    </rdf:RDF>
  </metadata>
  <g
     inkscape:label="Layer 1"
     inkscape:groupmode="layer"
     id="layer1"
     transform="translate(111.01398,-71.14701)">
    <g
       id="g3395"
       transform="matrix(0.95614192,0,0,0.94615499,29.526173,2020.1729)">
      <path
         style="fill:#fbfbfb"
         d="m -13.049377,-1611.0981 0,-375 374.999997,0 375,0 0,375 0,375 -375,0 -374.999997,0 0,-375 z"
         id="path3411"
         inkscape:connector-curvature="0" />
      <path
         style="fill:#9ea2a8"
         d="m -13.009623,-1283.2856 c 0.02959,-35.1237 0.429054,-47.6938 1.5625,-49.1678 0.83751,-1.0891 8.272746,-4.2987 16.522746,-7.1325 8.25,-2.8337 20.34375,-7.0741 26.875,-9.4231 6.53125,-2.349 13.684908,-4.6644 15.897016,-5.1454 3.692465,-0.8029 4.170611,-0.5343 5.835533,3.2784 l 1.813516,4.1529 0.101962,-6.0013 c 0.121113,-7.1277 -2.211678,-5.8483 32.220134,-17.6702 12.928766,-4.4389 29.975586,-10.3152 37.881836,-13.0583 7.90625,-2.743 18.59375,-6.3946 23.75,-8.1145 5.15625,-1.72 21.46875,-7.3048 36.25,-12.4109 14.78125,-5.1061 35.3125,-12.1704 45.625,-15.6986 10.3125,-3.5281 22.125,-7.5917 26.25,-9.0301 4.125,-1.4384 21.28125,-7.4108 38.125,-13.272 16.84375,-5.8612 34.37372,-11.9637 38.95548,-13.5612 4.58176,-1.5974 10.29895,-3.2737 12.70487,-3.7251 7.35802,-1.3804 7.57837,-0.042 6.58155,39.9883 -1.68,67.4651 -1.98307,76.4845 -3.38295,100.6789 -0.77568,13.4063 -1.03833,30.7031 -0.58367,38.4375 0.93322,15.8752 -0.33174,43.0797 -1.95644,42.0755 -0.58786,-0.3633 -1.06884,-0.065 -1.06884,0.6632 0,2.0771 -285.925381,1.84 -287.951522,-0.2387 -1.07879,-1.1068 -1.585934,-8.8537 -1.7389,-26.5625 -0.118775,-13.75 -0.573671,-32.5938 -1.010889,-41.875 -0.437217,-9.2813 -0.959181,-20.8125 -1.159917,-25.625 -0.506688,-12.1474 -0.870284,-12.5811 -2.095972,-2.5 -1.706868,14.0388 -2.091966,17.9033 -3.363181,33.75 -0.66181,8.25 -1.511575,15.8437 -1.888367,16.875 -0.376792,1.0312 -1.007627,6.9375 -1.401855,13.125 -1.595755,25.0457 -2.324638,31.2388 -3.856888,32.7711 -1.206106,1.2061 -8.291956,1.6039 -28.56822,1.6039 l -26.964286,0 0.03975,-47.1875 z m 377.083413,45.5085 c -1.32478,-3.4523 -2.10968,-16.047 -2.81662,-45.196 -0.40016,-16.5 -0.98637,-39 -1.30268,-50 -0.31632,-11 -0.78438,-27.875 -1.04014,-37.5 -0.25576,-9.625 -0.88811,-32.1415 -1.40524,-50.0366 -0.51712,-17.8952 -0.55952,-34.5659 -0.0943,-37.0462 0.7881,-4.2009 1.58105,-4.8621 11.58851,-9.6641 5.90839,-2.835 12.22295,-5.504 14.03238,-5.931 1.80942,-0.427 5.82111,-2.0991 8.91486,-3.7158 9.69808,-5.0679 21.56736,-10.1978 43.47168,-18.7886 5.00317,-1.9622 10.62817,-4.8131 12.5,-6.3353 l 3.40333,-2.7675 -6.875,-0.1708 c -3.78125,-0.094 -14.1875,-0.3434 -23.125,-0.5544 -8.9375,-0.211 -43.53125,-1.0283 -76.875,-1.8162 -33.34375,-0.7878 -74.125,-2.0355 -90.625,-2.7725 -16.5,-0.7371 -36.1875,-1.4681 -43.75,-1.6246 -7.5625,-0.1565 -28.375,-0.6935 -46.25,-1.1933 -17.875,-0.4998 -41.78125,-1.102 -53.125,-1.3383 -11.343747,-0.2363 -37.781247,-0.8889 -58.749997,-1.4502 -20.96875,-0.5614 -43.46875,-1.0261 -50,-1.0326 -7.3832022,-0.01 -12.466026,-0.5693 -13.4375,-1.4852 -1.239153,-1.1684 -1.5625,-49.7351 -1.5625,-234.6875 l 0,-233.2143 374.999997,0 375,0 0,318.0532 0,318.0532 -2.6344,-0.5073 c -1.44892,-0.279 -6.2081,-3.1999 -10.57596,-6.4907 -4.36786,-3.2909 -9.36989,-6.994 -11.1156,-8.2293 -2.78476,-1.9704 -3.17404,-3.148 -3.17404,-9.6023 0,-6.6669 -0.33508,-7.5952 -3.5744,-9.9018 -3.4852,-2.4816 -3.57967,-2.8502 -3.78632,-14.7726 -0.2549,-14.7058 -0.32234,-7.5628 0.48937,-51.8387 0.66834,-36.4547 0.63423,-37.1543 -1.92782,-39.5412 -1.4345,-1.3365 -3.55716,-4.0426 -4.71701,-6.0137 -1.15985,-1.9711 -3.23382,-5.4614 -4.60882,-7.7562 -1.375,-2.2948 -6.06332,-8.4823 -10.41851,-13.75 -4.35519,-5.2677 -8.71055,-11.0888 -9.67861,-12.9358 -0.96805,-1.8471 -3.76424,-5.5033 -6.21374,-8.125 -2.4495,-2.6217 -5.32339,-6.3967 -6.3864,-8.3888 -1.06301,-1.9921 -5.10975,-7.8024 -8.99275,-12.9117 -3.88299,-5.1093 -9.39029,-12.7606 -12.23844,-17.003 -2.84815,-4.2423 -6.44457,-9.0785 -7.99207,-10.7472 l -2.81361,-3.0338 -4.3593,4.9088 c -2.39762,2.6999 -7.80124,8.5651 -12.00805,13.0339 -4.20682,4.4687 -9.8987,10.9117 -12.64864,14.3177 -2.74993,3.406 -6.48189,7.6248 -8.29323,9.375 -1.81133,1.7503 -9.40508,10.1215 -16.875,18.6027 -7.46991,8.4813 -15.95066,18.0438 -18.84612,21.25 -5.38533,5.9634 -6.37935,8.6858 -4.02948,11.0356 0.89335,0.8934 1.3166,16.0008 1.28714,45.9424 -0.0436,44.4006 -0.0574,44.6302 -2.89354,48.6065 -2.27917,3.1953 -2.87738,5.7769 -2.9882,12.8955 -0.0762,4.8952 -0.52891,9.532 -1.00603,10.304 -0.47712,0.772 -5.47728,5.4269 -11.11145,10.3442 -5.63418,4.9173 -17.61743,16.0305 -26.62944,24.696 -9.01201,8.6655 -24.73221,23.6304 -34.93376,33.2554 -15.57074,14.6907 -37.81899,36.0823 -71.11507,68.3767 -3.40136,3.2991 -6.91698,5.9983 -7.8125,5.9983 -0.89551,0 -1.6282,0.5625 -1.6282,1.25 0,2.0416 -25.83851,1.6253 -26.62683,-0.429 z m 261.24307,-382.9847 c -0.31692,-1.2162 -0.59707,-0.5238 -0.62255,1.5387 -0.0255,2.0625 0.23383,3.0576 0.57624,2.2113 0.3424,-0.8463 0.36324,-2.5338 0.0464,-3.75 z m 4.77921,-60.0238 c 4.60414,-5.231 3.49202,-14.0625 -1.77086,-14.0625 -3.42349,0 -8.87459,4.8124 -8.87459,7.8348 0,2.1759 5.55498,9.6652 7.16883,9.6652 0.2481,0 1.81259,-1.5469 3.47662,-3.4375 z"
         id="path3409"
         inkscape:connector-curvature="0" />
      <path
         style="fill:#2779fd;stroke:none;stroke-opacity:1;stroke-width:11.3033345;stroke-miterlimit:4;stroke-dasharray:none"
         d="m -12.75173,-1283.8751 0.327353,-47.7771 16.875,-5.8598 c 9.28125,-3.2229 22.489747,-7.8795 29.352216,-10.348 14.86431,-5.3467 18.149549,-5.6502 18.143511,-1.6756 -0.0024,1.5469 -1.377327,18 -3.055506,36.5625 -1.678177,18.5625 -3.674873,41.625 -4.437101,51.25 -0.762227,9.625 -1.662739,19.3281 -2.001135,21.5625 l -0.615267,4.0625 -27.458213,0 -27.458211,0 z m 72.053318,29.9645 c -0.02483,-9.7969 -0.573886,-33.8438 -1.220129,-53.4375 -1.402574,-42.5253 -1.202965,-50.008 1.369164,-51.3253 1.03125,-0.5282 6.9375,-2.7087 13.125,-4.8455 6.1875,-2.1369 12.9375,-4.4838 15,-5.2153 2.0625,-0.7315 6.789263,-2.1651 10.503916,-3.1859 3.714651,-1.0208 12.152151,-4.0089 18.750001,-6.6402 6.59785,-2.6313 17.05858,-6.3106 23.24608,-8.1761 15.21584,-4.5875 21.57742,-6.7531 27.5,-9.3616 2.75,-1.2112 13.4375,-5.0045 23.75,-8.4297 31.10102,-10.3297 49.77273,-16.7414 54.10492,-18.5791 2.2577,-0.9577 5.14082,-1.7413 6.40696,-1.7413 1.26612,0 5.32516,-1.3254 9.02009,-2.9453 3.69492,-1.62 17.96803,-6.7538 31.71803,-11.4085 13.75,-4.6547 28.65625,-9.8499 33.125,-11.5449 12.97794,-4.9225 24.2519,-7.8238 25.52133,-6.5678 0.69502,0.6876 0.50959,25.1407 -0.47101,62.1128 -2.67703,100.933 -3.4129,153.3041 -2.1894,155.817 0.78977,1.6221 0.71742,2.0781 -0.2362,1.4888 -0.75609,-0.4673 -1.37472,-0.254 -1.37472,0.4741 0,0.924 -43.42477,1.3238 -143.80195,1.3238 l -143.80194,0 z m 304.676302,-13.125 c -0.4771,-17.0156 -1.68272,-59.9063 -2.67913,-95.3125 -0.99641,-35.4063 -1.81987,-72.0283 -1.8299,-81.3824 l -0.0182,-17.0073 10.40775,-5.1802 c 5.72427,-2.849 11.41377,-5.1801 12.64334,-5.1801 1.22958,0 4.84296,-1.3633 8.02975,-3.0295 8.87091,-4.6382 21.11436,-10.1164 30.79416,-13.7786 19.7123,-7.4576 24.23279,-9.4207 28.74592,-12.4834 2.60037,-1.7647 5.21196,-3.2085 5.80352,-3.2085 0.59156,0 1.07556,-0.7538 1.07556,-1.6751 0,-1.7732 5.17978,-1.5743 -120,-4.6065 -28.53125,-0.6911 -68.46875,-1.822 -88.75,-2.5131 -47.19383,-1.6083 -228.71054,-6.1462 -247.187497,-6.1798 l -14.0625,-0.025 c 0,-155.8333 0,-311.6667 0,-467.5 249.999997,0 499.999997,0 749.999997,0 l 0,318.169 c 0,309.4255 -0.0636,318.1349 -2.31741,316.9287 -1.27457,-0.6821 -4.5654,-3.0925 -7.31294,-5.3565 -2.74753,-2.2639 -7.67722,-5.9795 -10.95486,-8.2568 -5.78355,-4.0184 -5.93602,-4.2864 -5.16877,-9.0845 1.06642,-6.669 -0.23182,-11.1113 -3.62414,-12.4011 -2.28143,-0.8674 -2.97693,-2.3942 -3.68981,-8.0999 -0.60089,-4.8094 -0.4041,-7.6027 0.62278,-8.84 1.17122,-1.4112 1.15732,-2.2233 -0.0632,-3.694 -1.05856,-1.2755 -1.29528,-3.8019 -0.73201,-7.8125 0.97076,-6.9121 0.97064,-6.9875 -0.0224,-13.1089 -0.41767,-2.5748 -0.36865,-5.6685 0.10887,-6.875 0.47758,-1.2064 0.86213,-14.2531 0.85458,-28.9926 -0.0131,-25.6191 -0.12752,-26.885 -2.59785,-28.75 -1.42128,-1.073 -3.57274,-3.6384 -4.78103,-5.7009 -1.2083,-2.0625 -3.3219,-5.642 -4.6969,-7.9545 -1.375,-2.3124 -6.29687,-8.653 -10.9375,-14.0901 -4.64062,-5.4371 -8.4375,-10.3642 -8.4375,-10.9491 0,-0.5849 -3.09375,-4.8377 -6.875,-9.4508 -3.78125,-4.6131 -6.875,-8.7748 -6.875,-9.2482 0,-0.9811 -9.65981,-14.3855 -16.37412,-22.7215 -2.47452,-3.0722 -5.55979,-7.5546 -6.85615,-9.9608 -1.29638,-2.4063 -3.7083,-5.8926 -5.35985,-7.7474 l -3.00283,-3.3724 0.86571,-42.2526 0.86573,-42.2526 3.20781,-2.8833 c 2.69254,-2.4202 3.08943,-3.613 2.47076,-7.4253 -0.94543,-5.826 -4.6018,-9.6206 -8.17688,-8.4859 -4.45365,1.4135 -10.14018,6.9712 -10.14018,9.9104 0,1.5302 1.98338,4.691 4.43381,7.0661 3.83904,3.7209 4.34693,4.8857 3.78609,8.6827 -0.35624,2.4119 -0.97137,21.4303 -1.36695,42.2632 l -0.71924,37.8778 -4.12186,5.2472 c -2.26702,2.8859 -7.65869,8.9033 -11.98146,13.3721 -4.32278,4.4687 -9.3237,10.0937 -11.11318,12.5 -1.78947,2.4062 -5.23103,6.354 -7.6479,8.7728 -2.41687,2.4188 -10.30056,11.051 -17.51931,19.1828 -7.21875,8.1318 -15.49401,17.4028 -18.38947,20.6022 -5.06424,5.5959 -6.97003,11.5499 -4.23753,13.2387 0.6293,0.3889 1.12776,20.0671 1.13384,44.7613 l 0.0113,44.0672 -3.18734,4.2131 c -2.81051,3.715 -3.15889,5.2879 -2.9467,13.3045 l 0.24063,9.0914 -11.62463,10.3185 c -6.39355,5.6752 -18.98606,17.4069 -27.98335,26.0705 -8.9973,8.6636 -24.7267,23.627 -34.95424,33.252 -10.22752,9.625 -28.46066,27.0625 -40.51807,38.75 -12.05741,11.6875 -25.84738,25.0469 -30.64438,29.6875 l -8.7218,8.4375 -12.01653,0 -12.01654,0 -0.86746,-30.9375 z"
         id="path3407"
         inkscape:connector-curvature="0"
         sodipodi:nodetypes="ccsscsssccccssccsssssssscsscsscsscscssccssssssssccccsccssssscsscssscssssssscccsssscsscsscssscccsscsssssccccc" />
      <path
         style="fill:#7a8290;stroke-width:13.2473259;stroke-linecap:round;stroke-miterlimit:4;stroke-dasharray:none"
         d="m 36.411558,-1238.9106 c 0.312066,-1.5469 0.82095,-5.9289 1.130854,-9.7379 1.687035,-20.7351 3.178214,-37.1134 5.685788,-62.4496 2.941078,-29.7163 2.971033,-31.1371 0.674992,-32.0182 -2.388307,-0.9165 -11.941624,1.8125 -33.0274,9.4344 -7.8099077,2.8231 -16.4202692,5.6318 -19.1341366,6.2416 -4.6056704,1.0348 -4.9087204,0.9312 -4.5501684,-1.5563 0.31902,-2.2132 3.2446821,-3.6575 17.259136,-8.5201 9.28125,-3.2204 22.489747,-7.8748 29.352216,-10.3433 14.86431,-5.3467 18.149549,-5.6502 18.143511,-1.6756 -0.0024,1.5469 -1.377327,18 -3.055506,36.5625 -1.678177,18.5625 -3.674873,41.625 -4.437101,51.25 -2.008996,25.3685 -2.065174,25.625 -5.612989,25.625 -2.442355,0 -2.891645,-0.5202 -2.429196,-2.8125 z m 22.89003,-15 c -0.02483,-9.7969 -0.573886,-33.8438 -1.220129,-53.4375 -1.402574,-42.5253 -1.202965,-50.008 1.369164,-51.3253 1.03125,-0.5282 6.9375,-2.7087 13.125,-4.8455 6.1875,-2.1369 12.9375,-4.4838 15,-5.2153 2.0625,-0.7315 6.789263,-2.1651 10.503916,-3.1859 3.714651,-1.0208 12.152151,-4.0089 18.750001,-6.6402 6.59785,-2.6313 17.05858,-6.3106 23.24608,-8.1761 15.21584,-4.5875 21.57742,-6.7531 27.5,-9.3616 2.75,-1.2112 13.4375,-5.0045 23.75,-8.4297 31.10102,-10.3297 49.77273,-16.7414 54.10492,-18.5791 2.2577,-0.9577 5.14082,-1.7413 6.40696,-1.7413 1.26612,0 5.32516,-1.3254 9.02009,-2.9453 3.69492,-1.62 17.96803,-6.7538 31.71803,-11.4085 13.75,-4.6547 28.65625,-9.8499 33.125,-11.5449 12.97794,-4.9225 24.2519,-7.8238 25.52133,-6.5678 0.69502,0.6876 0.50959,25.1407 -0.47101,62.1128 -2.67703,100.933 -3.4129,153.3041 -2.1894,155.817 0.78977,1.6221 0.71742,2.0781 -0.2362,1.4888 -0.75609,-0.4673 -1.37472,-0.254 -1.37472,0.4741 0,0.7281 -0.98437,1.3237 -2.1875,1.3236 -2.03952,-2e-4 -2.18288,-2.7273 -2.1193,-40.3125 0.0375,-22.1718 0.73824,-53.8123 1.55718,-70.3123 0.81892,-16.5 1.63199,-46.3125 1.80679,-66.25 l 0.31783,-36.25 -2.7373,-0.3896 c -2.29275,-0.3263 -20.04887,5.5487 -52.2627,17.2923 -3.4375,1.2531 -9.90625,3.506 -14.375,5.0063 -31.67737,10.6355 -72.77181,24.694 -91.25,31.2168 -12.03125,4.247 -26.375,9.1271 -31.875,10.8447 -5.5,1.7176 -14.78125,4.8255 -20.625,6.9065 -5.84375,2.081 -22.4375,7.8362 -36.874997,12.7892 -29.11768,9.9893 -31.418773,10.9952 -32.359186,14.145 -1.60574,5.3783 -0.69922,53.6377 1.061049,56.4859 0.495756,0.8022 0.492306,14.3666 -0.0076,30.1432 -0.857586,27.0598 -1.044016,28.6847 -3.291105,28.6847 -2.229147,0 -2.384922,-1.1432 -2.427167,-17.8125 z m 304.676302,-13.125 c -0.4771,-17.0156 -1.68272,-59.9063 -2.67913,-95.3125 -0.99641,-35.4063 -1.81987,-72.0283 -1.8299,-81.3824 l -0.0182,-17.0073 10.40775,-5.1802 c 5.72427,-2.849 11.41377,-5.1801 12.64334,-5.1801 1.22958,0 4.84296,-1.3633 8.02975,-3.0295 8.87091,-4.6382 21.11436,-10.1164 30.79416,-13.7786 19.7123,-7.4576 24.23279,-9.4207 28.74592,-12.4834 2.60037,-1.7647 5.21196,-3.2085 5.80352,-3.2085 0.59156,0 1.07556,-0.7538 1.07556,-1.6751 0,-1.7732 5.17978,-1.5743 -120,-4.6065 -28.53125,-0.6911 -68.46875,-1.822 -88.75,-2.5131 -47.19383,-1.6083 -228.71054,-6.1462 -247.187497,-6.1798 -12.990807,-0.024 -14.0625,-0.2071 -14.0625,-2.4089 0,-2.1131 1.333777,-2.4833 11.7669525,-3.2655 6.4718238,-0.4852 12.3377835,-0.5294 13.0354675,-0.098 0.697683,0.4312 16.636929,1.0875 35.420548,1.4585 46.062655,0.9099 74.758129,1.5492 109.777029,2.4457 16.15625,0.4137 38.375,0.9528 49.375,1.1982 11,0.2454 23.09375,0.7658 26.875,1.1565 3.78125,0.3907 35.5625,1.2908 70.625,2.0002 35.0625,0.7094 72.46875,1.5887 83.125,1.954 10.65625,0.3653 29.78125,0.8844 42.5,1.1536 24.27365,0.5138 38.19928,2.3922 39.31647,5.3036 0.36602,0.9538 -1.00372,3.2588 -3.04403,5.1223 -8.46184,7.7287 -24.72329,15.5326 -55.02244,26.4055 -23.1064,8.2917 -40.47406,16.1345 -43.60353,19.6902 -2.84514,3.2327 -2.94018,3.9183 -2.12217,15.309 0.95559,13.3064 1.40825,30.6404 3.22859,123.6338 0.69129,35.3149 1.61671,68.0805 2.0565,72.8125 0.79418,8.545 0.77849,8.6035 -2.30752,8.6035 l -3.10714,0 -0.86746,-30.9375 z m 21.71366,28.75 c -0.007,-1.9263 25.2359,-27.5569 54.49215,-55.3269 5.44056,-5.1642 16.36067,-15.5257 24.26692,-23.0255 7.90625,-7.4999 20.84375,-19.8714 28.75,-27.4922 7.90625,-7.6209 20.92775,-19.6531 28.93667,-26.7383 8.00891,-7.0852 14.89186,-14.1135 15.29543,-15.6184 0.40357,-1.5049 0.76053,-5.5487 0.79325,-8.9862 0.0328,-3.4375 1.1026,-8.4556 2.37752,-11.1513 1.77366,-3.7502 2.0358,-5.7109 1.11618,-8.3489 -0.80332,-2.3044 -0.75705,-4.2787 0.13955,-5.954 1.87044,-3.495 1.60535,-9.0918 -0.56661,-11.963 -1.60669,-2.1239 -1.60186,-2.7631 0.0398,-5.2685 2.41689,-3.6886 2.36319,-6.6764 -0.18537,-10.315 -1.90484,-2.7196 -1.90484,-3.1839 0,-6.4085 2.43882,-4.1286 2.61656,-7.8483 0.53435,-11.1825 -1.1968,-1.9164 -1.18389,-3.3603 0.0609,-6.8025 1.33045,-3.6793 1.27491,-4.9599 -0.35149,-8.105 -1.50745,-2.9151 -1.63621,-4.5055 -0.58638,-7.2431 0.73986,-1.9292 1.00696,-5.6521 0.59355,-8.273 -1.32507,-8.4007 1.27126,-14.4127 9.8039,-22.7018 10.42611,-10.1286 36.778,-39.8751 41.71307,-47.0865 2.1844,-3.192 7.29876,-8.817 11.36525,-12.5 11.92823,-10.8034 12.88039,-13.1707 13.3905,-33.2912 0.23923,-9.4353 0.70998,-26.8205 1.04614,-38.6337 0.61119,-21.4784 0.61117,-21.4785 -2.60996,-26.2251 -1.77164,-2.6107 -3.4935,-6.7771 -3.82635,-9.2587 -1.10939,-8.2711 9.7163,-17.002 18.90361,-15.2457 8.88889,1.6992 12.42575,14.85 6.55965,24.3901 l -2.87896,4.682 0.58857,39.068 0.58858,39.0679 3.53548,6.2733 c 1.94452,3.4503 5.94588,9.1179 8.8919,12.5947 2.94602,3.4768 8.1689,10.3941 11.6064,15.3718 3.4375,4.9776 8.51905,11.9662 11.29234,15.5302 2.7733,3.564 6.37549,8.73 8.00486,11.48 1.62939,2.75 5.06893,7.25 7.64343,10 2.5745,2.75 6.78659,8.375 9.3602,12.5 2.57361,4.125 6.48511,9.75 8.69222,12.5 5.64769,7.0369 8.48603,12.9611 7.39032,15.4253 -1.43313,3.223 -1.6229,23.047 -0.24563,25.6575 0.82853,1.5704 0.75616,4.0281 -0.22141,7.5196 -1.05975,3.785 -1.08553,6.1512 -0.0954,8.7555 0.99504,2.6171 0.96505,4.6521 -0.1125,7.6319 -1.03926,2.874 -1.10632,5.4933 -0.22912,8.9491 0.83284,3.2812 0.81944,5.8288 -0.0408,7.7566 -0.89325,2.0019 -0.84636,4.4956 0.1549,8.2392 1.07014,4.0011 1.07652,6.3204 0.0251,9.106 -1.22035,3.2331 -1.02272,4.2824 1.46427,7.7751 1.6552,2.3245 3.10073,6.5083 3.40703,9.8609 0.91633,10.0297 1.40477,10.9244 8.79638,16.1127 9.23931,6.4852 11.88956,9.475 11.37671,12.8345 -0.39782,2.606 -0.61511,2.5525 -5.93076,-1.4594 -3.0348,-2.2905 -8.6598,-6.4477 -12.5,-9.2382 -6.28776,-4.5691 -6.9614,-5.5015 -6.77313,-9.375 0.40048,-8.2391 -0.80168,-12.4759 -3.87103,-13.6428 -2.3873,-0.9077 -3.05842,-2.3515 -3.78097,-8.1346 -0.60088,-4.8094 -0.4041,-7.6027 0.62279,-8.84 1.17121,-1.4112 1.15731,-2.2233 -0.0632,-3.694 -1.05856,-1.2755 -1.29529,-3.8018 -0.73201,-7.8125 0.97076,-6.9121 0.97064,-6.9875 -0.0224,-13.1089 -0.41766,-2.5748 -0.36865,-5.6685 0.10888,-6.875 0.47757,-1.2064 0.86212,-14.2531 0.85457,-28.9926 -0.0131,-25.619 -0.12751,-26.885 -2.59785,-28.75 -1.42127,-1.073 -3.57273,-3.6384 -4.78102,-5.7009 -1.2083,-2.0625 -3.3219,-5.642 -4.6969,-7.9545 -1.375,-2.3124 -6.29688,-8.653 -10.9375,-14.0901 -4.64063,-5.4371 -8.4375,-10.3642 -8.4375,-10.9491 0,-0.5849 -3.09375,-4.8377 -6.875,-9.4508 -3.78125,-4.6131 -6.875,-8.7748 -6.875,-9.2482 0,-0.9811 -9.65981,-14.3855 -16.37413,-22.7215 -2.47451,-3.0722 -5.55978,-7.5545 -6.85615,-9.9608 -1.29637,-2.4062 -3.7083,-5.8926 -5.35985,-7.7474 l -3.00282,-3.3724 0.86571,-42.2526 0.86573,-42.2526 3.20781,-2.8833 c 2.69254,-2.4202 3.08942,-3.6129 2.47076,-7.4253 -0.94544,-5.826 -4.6018,-9.6206 -8.17689,-8.4859 -4.45365,1.4135 -10.14017,6.9712 -10.14017,9.9104 0,1.5302 1.98337,4.6911 4.43381,7.0661 3.83904,3.721 4.34693,4.8857 3.78609,8.6827 -0.35624,2.4119 -0.97138,21.4303 -1.36695,42.2632 l -0.71924,37.8778 -4.12186,5.2472 c -2.26703,2.8859 -7.65869,8.9033 -11.98146,13.3721 -4.32278,4.4687 -9.3237,10.0937 -11.11318,12.5 -1.78947,2.4062 -5.23104,6.354 -7.6479,8.7728 -2.41687,2.4188 -10.30056,11.051 -17.51931,19.1828 -7.21875,8.1318 -15.49401,17.4028 -18.38948,20.6022 -5.06423,5.5959 -6.97002,11.5499 -4.23752,13.2387 0.6293,0.3889 1.12776,20.0671 1.13384,44.7613 l 0.0113,44.0672 -3.18734,4.2131 c -2.81051,3.715 -3.15889,5.288 -2.9467,13.3045 l 0.24062,9.0914 -11.62462,10.3185 c -6.39355,5.6752 -18.98606,17.4069 -27.98335,26.0705 -8.9973,8.6636 -24.7267,23.627 -34.95424,33.252 -10.22752,9.625 -28.46066,27.0625 -40.51807,38.75 -12.05742,11.6875 -25.84738,25.0469 -30.64438,29.6875 -8.87347,8.5842 -11.89242,10.1687 -11.90867,6.25 z"
         id="path3405"
         inkscape:connector-curvature="0" />
      <path
         style="fill:#5f6f89;stroke-width:13.2473259;stroke-linecap:round;stroke-miterlimit:4;stroke-dasharray:none"
         d="m 36.411558,-1238.9106 c 0.312066,-1.5469 0.82095,-5.9289 1.130854,-9.7379 1.687035,-20.7351 3.178214,-37.1134 5.685788,-62.4496 2.941078,-29.7163 2.971033,-31.1371 0.674992,-32.0182 -2.388307,-0.9165 -11.941624,1.8125 -33.0274,9.4344 -7.8099077,2.8231 -16.4202692,5.6318 -19.1341366,6.2416 -4.4890104,1.0086 -4.8996384,0.8897 -4.5501684,-1.3169 0.302224,-1.9084 4.1157981,-3.7084 17.884136,-8.4412 9.625,-3.3086 23.610366,-8.1419 31.078593,-10.7407 15.301765,-5.3246 16.501265,-5.0286 15.058868,3.716 -0.453605,2.75 -1.036875,8.0937 -1.296155,11.875 -0.25928,3.7812 -0.684541,9.4062 -0.945025,12.5 -0.260483,3.0937 -0.817731,10.4062 -1.238327,16.25 -0.420596,5.8437 -1.153453,13.1562 -1.628569,16.25 -0.475117,3.0937 -1.021285,8.1562 -1.213707,11.25 -0.192423,3.0937 -0.633203,8.7187 -0.979512,12.5 -0.346308,3.7812 -0.902313,10.8125 -1.235565,15.625 -0.831132,12.0024 -0.788348,11.875 -3.987162,11.875 -2.285044,0 -2.733238,-0.5535 -2.277504,-2.8125 z m 23.017086,-25 c -0.04304,-15.2969 -0.408662,-35.125 -0.812497,-44.0625 -0.90881,-20.1134 -0.569234,-48.4696 0.593595,-49.5677 0.99849,-0.943 17.231001,-6.8844 24.615881,-9.0099 2.75,-0.7915 5.5625,-1.7883 6.25,-2.2152 0.6875,-0.4268 4.625,-1.721 8.75,-2.8759 4.124997,-1.155 11.718747,-3.8309 16.874997,-5.9465 9.49872,-3.8973 17.04603,-6.4362 30.625,-10.3022 8.50558,-2.4216 15.99607,-5.1912 20.72723,-7.6638 1.77497,-0.9277 5.43122,-2.2236 8.125,-2.8797 5.47491,-1.3336 17.5925,-5.3935 39.89777,-13.3675 8.25,-2.9493 19.78125,-6.8837 25.625,-8.7431 11.1619,-3.5515 42.53107,-14.4318 50,-17.3423 2.40625,-0.9377 11.125,-3.9515 19.375,-6.6974 8.25,-2.7459 18.80039,-6.4109 23.4453,-8.1446 4.64492,-1.7336 10.71268,-3.5352 13.48392,-4.0034 l 5.03862,-0.8512 -0.67391,37.3052 c -1.02109,56.5241 -1.80538,80.456 -3.31178,101.0552 -0.78387,10.7191 -0.9984,26.0856 -0.50086,35.8768 0.47866,9.4197 0.46579,23.9041 -0.0286,32.1875 -0.75718,12.6861 -1.21848,15.0607 -2.92579,15.0605 -1.82869,-2e-4 -2.02021,-3.9421 -1.95869,-40.3125 0.0375,-22.1718 0.73824,-53.8123 1.55718,-70.3123 0.81892,-16.5 1.63198,-46.3125 1.80678,-66.25 l 0.31784,-36.25 -2.7373,-0.3896 c -2.29275,-0.3263 -20.04887,5.5487 -52.2627,17.2923 -3.4375,1.2531 -9.90625,3.506 -14.375,5.0063 -31.67737,10.6355 -72.77181,24.694 -91.25,31.2168 -12.03125,4.247 -26.375,9.1271 -31.875,10.8447 -5.5,1.7176 -14.78125,4.8255 -20.625,6.9065 -5.84375,2.081 -22.4375,7.8362 -36.875,12.7892 -29.11768,9.9893 -31.418772,10.9952 -32.359186,14.145 -1.60574,5.3783 -0.69922,53.6377 1.061049,56.4859 0.495756,0.8022 0.492306,14.3666 -0.0076,30.1432 -0.846159,26.6996 -1.068371,28.6847 -3.21101,28.6847 -2.164605,0 -2.30661,-1.6593 -2.380194,-27.8125 z m 305.552476,23.125 c 0.015,-2.5781 -0.44655,-19.5938 -1.02571,-37.8125 -0.57916,-18.2188 -1.23337,-41 -1.45382,-50.625 -0.22044,-9.625 -0.69658,-27.625 -1.05808,-40 -1.5399,-52.714 -1.97154,-88.8454 -1.07711,-90.1624 1.20844,-1.7793 21.24766,-11.7126 23.62872,-11.7126 0.97235,0 5.55074,-1.8745 10.1742,-4.1655 4.62347,-2.291 12.3438,-5.725 17.1563,-7.6312 4.8125,-1.9061 10.15625,-4.1855 11.875,-5.0652 1.71875,-0.8797 5.09375,-2.0175 7.5,-2.5285 2.40625,-0.511 5.48454,-1.7009 6.84064,-2.6443 1.35609,-0.9434 3.38961,-1.7153 4.51893,-1.7153 1.12931,0 3.63826,-1.2467 5.57546,-2.7705 1.93719,-1.5238 5.21392,-3.6332 7.28164,-4.6875 7.23112,-3.6872 5.5941,-5.0318 -6.3,-5.1745 -20.56588,-0.2468 -74.64982,-1.5358 -124.79167,-2.9743 -10.3125,-0.2959 -35.90625,-0.9134 -56.875,-1.3722 -20.96875,-0.4589 -38.5926,-1.1065 -39.16412,-1.4392 -0.57151,-0.3327 -10.97776,-0.8035 -23.125,-1.0463 -12.14723,-0.2427 -35.02338,-0.7649 -50.83588,-1.1604 -15.8125,-0.3955 -38.875,-0.947 -51.25,-1.2254 -12.374997,-0.2784 -37.968747,-0.9375 -56.874997,-1.4648 -18.90625,-0.5272 -39.859375,-0.8079 -46.5625,-0.6239 -11.39527,0.313 -12.1875,0.175 -12.1875,-2.1215 0,-2.2052 1.20259,-2.5463 11.7669525,-3.3384 6.4718238,-0.4852 12.3377835,-0.5294 13.0354675,-0.098 0.697683,0.4312 16.636929,1.0875 35.420548,1.4585 46.062655,0.9099 74.758129,1.5492 109.777029,2.4457 16.15625,0.4137 38.375,0.9528 49.375,1.1982 11,0.2454 23.09375,0.7658 26.875,1.1565 3.78125,0.3907 35.5625,1.2908 70.625,2.0002 35.0625,0.7094 72.46875,1.5887 83.125,1.954 10.65625,0.3653 29.78125,0.8844 42.5,1.1536 24.27365,0.5138 38.19928,2.3922 39.31647,5.3036 0.36602,0.9538 -1.00372,3.2588 -3.04403,5.1223 -8.46184,7.7287 -24.72329,15.5326 -55.02244,26.4055 -23.1064,8.2917 -40.47406,16.1345 -43.60353,19.6902 -2.84514,3.2327 -2.94018,3.9183 -2.12217,15.309 0.95559,13.3064 1.40825,30.6404 3.22859,123.6338 0.69129,35.3149 1.61671,68.0805 2.0565,72.8125 0.79071,8.5078 0.76566,8.6035 -2.25329,8.6035 -2.69932,0 -3.04975,-0.5429 -3.0256,-4.6875 z m 20.71043,2.5 c -0.007,-1.9263 25.2359,-27.5569 54.49215,-55.3269 5.44056,-5.1642 16.36067,-15.5257 24.26692,-23.0255 7.90625,-7.4999 20.84375,-19.8714 28.75,-27.4922 7.90625,-7.6209 20.92775,-19.6531 28.93667,-26.7383 8.00891,-7.0852 14.89186,-14.1135 15.29543,-15.6184 0.40357,-1.5049 0.76053,-5.5487 0.79325,-8.9862 0.0328,-3.4375 1.1026,-8.4556 2.37752,-11.1513 1.77366,-3.7502 2.0358,-5.7109 1.11618,-8.3489 -0.80332,-2.3044 -0.75705,-4.2787 0.13955,-5.954 1.87044,-3.495 1.60535,-9.0918 -0.56661,-11.963 -1.60669,-2.1239 -1.60186,-2.7631 0.0398,-5.2685 2.41689,-3.6886 2.36319,-6.6764 -0.18537,-10.315 -1.90484,-2.7196 -1.90484,-3.1839 0,-6.4085 2.43882,-4.1286 2.61656,-7.8483 0.53435,-11.1825 -1.1968,-1.9164 -1.18389,-3.3603 0.0609,-6.8025 1.33045,-3.6793 1.27491,-4.9599 -0.35149,-8.105 -1.50745,-2.9151 -1.63621,-4.5055 -0.58638,-7.2431 0.73986,-1.9292 1.00696,-5.6521 0.59355,-8.273 -1.32507,-8.4007 1.27126,-14.4127 9.8039,-22.7018 10.42611,-10.1286 36.778,-39.8751 41.71307,-47.0865 2.1844,-3.192 7.29876,-8.817 11.36525,-12.5 11.92823,-10.8034 12.88039,-13.1707 13.3905,-33.2912 0.23923,-9.4353 0.70998,-26.8205 1.04614,-38.6337 0.61119,-21.4784 0.61117,-21.4785 -2.60996,-26.2251 -1.77164,-2.6107 -3.4935,-6.7771 -3.82635,-9.2587 -1.10939,-8.2711 9.7163,-17.002 18.90361,-15.2457 8.88889,1.6992 12.42575,14.85 6.55965,24.3901 l -2.87896,4.682 0.58857,39.068 0.58858,39.0679 3.53548,6.2733 c 1.94452,3.4503 5.94588,9.1179 8.8919,12.5947 2.94602,3.4768 8.1689,10.3941 11.6064,15.3718 3.4375,4.9776 8.51905,11.9662 11.29234,15.5302 2.7733,3.564 6.37549,8.73 8.00486,11.48 1.62939,2.75 5.06893,7.25 7.64343,10 2.5745,2.75 6.78659,8.375 9.3602,12.5 2.57361,4.125 6.48511,9.75 8.69222,12.5 5.64769,7.0369 8.48603,12.9611 7.39032,15.4253 -1.43313,3.223 -1.6229,23.047 -0.24563,25.6575 0.82853,1.5704 0.75616,4.0281 -0.22141,7.5196 -1.05975,3.785 -1.08553,6.1512 -0.0954,8.7555 0.99504,2.6171 0.96505,4.6521 -0.1125,7.6319 -1.03926,2.874 -1.10632,5.4933 -0.22912,8.9491 0.83284,3.2812 0.81944,5.8288 -0.0408,7.7566 -0.89325,2.0019 -0.84636,4.4956 0.1549,8.2392 1.07014,4.0011 1.07652,6.3204 0.0251,9.106 -1.22035,3.2331 -1.02272,4.2824 1.46427,7.7751 1.6552,2.3245 3.10073,6.5083 3.40703,9.8609 0.90274,9.881 1.38278,10.8464 7.53682,15.1583 9.21751,6.4584 12.84832,10.2432 12.84832,13.3932 0,2.574 -1.34954,1.8614 -12.5,-6.6003 l -12.5,-9.4859 0,-7.7585 c -9e-5,-7.9999 -1.33332,-10.7585 -5.19976,-10.7585 -1.61589,0 -2.14541,-0.9123 -1.99521,-3.4375 0.1125,-1.8906 -0.21053,-4.6439 -0.71775,-6.1183 -0.61332,-1.7828 -0.25995,-3.3431 1.05498,-4.658 1.41509,-1.4151 1.64019,-2.6075 0.79177,-4.1942 -0.70435,-1.3172 -1.00844,-18.8348 -0.74929,-43.1637 l 0.43617,-40.9468 -2.86333,-2.8032 c -1.57483,-1.5418 -5.59489,-7.0221 -8.93347,-12.1783 -3.33856,-5.1563 -8.82671,-12.4688 -12.19586,-16.25 -3.36916,-3.7813 -6.75489,-8.2813 -7.52384,-10 -0.76895,-1.7188 -3.85235,-5.9081 -6.85201,-9.3097 -2.99965,-3.4016 -6.51342,-8.1829 -7.80839,-10.625 -1.29496,-2.4422 -5.4617,-8.3778 -9.25943,-13.1903 -3.79773,-4.8125 -10.05503,-13.4624 -13.90512,-19.2221 l -7.00013,-10.472 0.0551,-17.9655 c 0.0304,-9.8809 0.08,-28.3768 0.11025,-41.1018 l 0.0552,-23.1364 3.58067,-3.7468 c 3.17113,-3.3183 3.47673,-4.3151 2.67201,-8.7157 -0.49975,-2.733 -1.61741,-5.823 -2.48371,-6.8668 -2.43988,-2.9399 -7.82807,-2.2577 -12.15922,1.5396 -6.02126,5.279 -6.23841,8.0827 -1.06921,13.8044 l 4.41351,4.8852 -0.7015,25.499 c -0.38583,14.0244 -0.79737,33.0926 -0.91452,42.3739 -0.17803,14.1025 -0.57334,17.2857 -2.40604,19.375 -1.20615,1.375 -6.4671,7 -11.69099,12.5 -5.22388,5.5 -11.07586,12.1223 -13.0044,14.7162 -3.55551,4.7822 -14.43421,16.9108 -36.59891,40.8039 -6.73052,7.2554 -12.55816,14.47 -12.9503,16.0324 -0.41442,1.6512 0.16089,4.1744 1.37394,6.0257 1.72962,2.6398 1.84472,3.9189 0.67234,7.4713 -0.77803,2.3575 -1.01799,5.5358 -0.53325,7.0631 1.37653,4.3371 1.66776,39.846 0.36962,45.0697 -0.79329,3.1922 -0.71431,5.5217 0.24818,7.3202 1.03562,1.935 1.04753,4.0843 0.0448,8.0668 -1.0142,4.0278 -0.99097,6.2545 0.09,8.627 1.27838,2.8057 0.99647,3.8481 -2.2991,8.5008 -3.48149,4.9151 -3.7144,5.9191 -3.18513,13.7288 l 0.57103,8.426 -7.93425,7.199 c -7.70502,6.9911 -15.94148,14.6467 -43.94849,40.849 -7.40738,6.93 -20.48708,19.3501 -29.06598,27.6001 -8.57891,8.25 -24.09,23.1562 -34.4691,33.125 -10.3791,9.9687 -23.56687,22.7656 -29.30616,28.4375 -10.62844,10.5036 -13.05874,12.0138 -13.07486,8.125 z"
         id="path3403"
         inkscape:connector-curvature="0" />
      <path
         style="fill:#566172;stroke-width:13.2473259;stroke-linecap:round;stroke-miterlimit:4;stroke-dasharray:none"
         d="m 36.411558,-1238.9106 c 0.312066,-1.5469 0.82095,-5.9289 1.130854,-9.7379 1.687035,-20.7351 3.178214,-37.1134 5.685788,-62.4496 2.941078,-29.7163 2.971033,-31.1371 0.674992,-32.0182 -2.388307,-0.9165 -11.941624,1.8125 -33.0274,9.4344 -7.8099077,2.8231 -16.4202692,5.6318 -19.1341366,6.2416 -4.5655384,1.0258 -4.9055954,0.916 -4.5501684,-1.4686 0.22856,-1.5335 1.492702,-2.744 3.1213241,-2.9889 4.1655984,-0.6264 27.0804909,-8.0795 28.5954159,-9.3006 1.735144,-1.3987 30.92557,-11.1832 31.537522,-10.5712 0.257358,0.2573 -0.119862,6.5606 -0.838278,14.0072 -0.718412,7.4466 -1.638552,18.0393 -2.044758,23.5393 -0.406206,5.5 -1.801984,21.25 -3.10173,35 -1.299745,13.75 -2.488006,29.0781 -2.64058,34.0625 -0.260754,8.5185 -0.448459,9.0625 -3.126821,9.0625 -2.289731,0 -2.737968,-0.5524 -2.282024,-2.8125 z m 23.519176,0.625 c 1.257204,-4.2402 0.134745,-79.852 -1.266466,-85.3125 -0.441045,-1.7188 -0.671294,-5.6563 -0.511664,-8.75 0.159629,-3.0938 0.376361,-10.0989 0.481626,-15.567 l 0.191393,-9.9419 4.978408,-1.0365 c 2.738125,-0.57 5.5225,-1.5805 6.1875,-2.2455 0.665001,-0.665 2.080967,-1.2126 3.146592,-1.2168 1.065625,0 3.548673,-0.848 5.517884,-1.875 1.969211,-1.027 4.415451,-1.8673 5.436088,-1.8673 1.020638,0 3.628216,-0.765 5.794617,-1.7 2.166401,-0.935 7.313911,-2.6732 11.438908,-3.8626 4.125,-1.1894 11.06984,-3.8243 15.43298,-5.8553 4.36314,-2.0311 9.70689,-4.0284 11.875,-4.4385 2.16811,-0.4102 5.05379,-1.317 6.41261,-2.0152 2.35924,-1.2122 5.06299,-2 16.27941,-4.7433 5.07574,-1.2414 11.71395,-3.8609 16.25,-6.4124 1.375,-0.7735 4.46875,-1.8285 6.875,-2.3445 5.66524,-1.2149 20.6941,-6.3068 38.75,-13.1289 17.33124,-6.5483 36.85964,-12.9993 39.35119,-12.9993 0.9977,0 3.94245,-0.9217 6.5439,-2.0483 8.24248,-3.5693 9.47018,-4.0488 22.22991,-8.6828 6.875,-2.4968 15.03125,-5.2635 18.125,-6.1483 3.09375,-0.8848 10.6875,-3.4182 16.875,-5.6298 22.37435,-7.9971 32.40734,-11.2717 33.46029,-10.9207 2.0929,0.6976 0.63128,119.0398 -1.57056,127.1626 -1.0428,3.847 -1.48651,16.9949 -1.41319,41.875 0.14248,48.3407 -0.0185,51.8941 -2.35154,51.8929 -1.6293,-9e-4 -1.86606,-5.2836 -1.8068,-40.3133 0.0375,-22.1718 0.73824,-53.8123 1.55718,-70.3123 0.81892,-16.5 1.63199,-46.3125 1.80679,-66.25 l 0.31783,-36.25 -2.7373,-0.3896 c -2.29275,-0.3263 -20.04887,5.5487 -52.2627,17.2923 -3.4375,1.2531 -9.90625,3.506 -14.375,5.0063 -31.67737,10.6355 -72.77181,24.694 -91.25,31.2168 -12.03125,4.247 -26.375,9.1271 -31.875,10.8447 -5.5,1.7176 -14.78125,4.8255 -20.625,6.9065 -5.84375,2.081 -22.4375,7.8362 -36.874997,12.7892 -29.11768,9.9893 -31.418773,10.9952 -32.359186,14.145 -1.60574,5.3783 -0.69922,53.6377 1.061049,56.4859 0.495756,0.8022 0.492306,14.3666 -0.0076,30.1432 -0.861973,27.1982 -1.034191,28.6847 -3.323393,28.6847 -1.713092,0 -2.225936,-0.6354 -1.765733,-2.1875 z m 305.108166,-18.1243 c -0.0353,-19.5132 -1.12564,-46.4768 -2.46423,-60.9382 -0.35,-3.7813 -0.0891,-10.18 0.5798,-14.2194 0.84014,-5.0736 0.79939,-8.1232 -0.13178,-9.8631 -0.83533,-1.5608 -1.5238,-15.6436 -1.81034,-37.0306 -0.2543,-18.9815 -0.65723,-44.0744 -0.89538,-55.7619 -0.23815,-11.6875 -0.1977,-22.375 0.0899,-23.75 0.53652,-2.5652 17.71139,-11.875 21.90714,-11.875 1.13965,0 5.88347,-1.9076 10.54185,-4.2392 14.8016,-7.4083 34.65238,-15.7608 37.45747,-15.7608 1.7636,0 18.35893,-7.5626 19.13731,-8.721 0.34375,-0.5116 2.59375,-1.9309 5,-3.154 4.34029,-2.2062 6.19404,-4.012 6.23087,-6.0698 0.01,-0.5884 -10.24649,-1.0658 -22.79337,-1.061 -12.54687,0.01 -32.65625,-0.2868 -44.6875,-0.6483 -12.03125,-0.3615 -33.96875,-0.9187 -48.75,-1.2384 -35.14737,-0.76 -86.47247,-2.3164 -133.125,-4.0367 -20.625,-0.7606 -48.1875,-1.6298 -61.25,-1.9317 -80.156773,-1.8523 -116.598587,-2.5141 -138.438074,-2.5141 -22.149548,0 -24.688018,-0.2129 -24.6875,-2.0709 4.79e-4,-1.7185 2.002126,-2.2209 11.7675295,-2.953 6.4718238,-0.4852 12.3377835,-0.5294 13.0354675,-0.098 0.697683,0.4312 16.636929,1.0875 35.420548,1.4585 46.062655,0.9099 74.758129,1.5492 109.777029,2.4457 16.15625,0.4137 38.375,0.9528 49.375,1.1982 11,0.2454 23.09375,0.7658 26.875,1.1565 3.78125,0.3907 35.5625,1.2908 70.625,2.0002 35.0625,0.7094 72.46875,1.5887 83.125,1.954 10.65625,0.3653 29.78125,0.8844 42.5,1.1536 24.27365,0.5138 38.19928,2.3922 39.31647,5.3036 0.36602,0.9538 -1.00372,3.2588 -3.04403,5.1223 -8.46184,7.7287 -24.72329,15.5326 -55.02244,26.4055 -23.1064,8.2917 -40.47406,16.1345 -43.60353,19.6902 -2.84514,3.2327 -2.94018,3.9183 -2.12217,15.309 0.95559,13.3064 1.40825,30.6404 3.22859,123.6338 0.69129,35.3149 1.61671,68.0805 2.0565,72.8125 0.78668,8.4643 0.75121,8.6035 -2.19239,8.6042 l -2.992,7e-4 -0.0368,-20.3132 z m 20.65265,18.1243 c -0.007,-1.9263 25.2359,-27.5569 54.49215,-55.3269 5.44056,-5.1642 16.36067,-15.5257 24.26692,-23.0255 7.90625,-7.4999 20.84375,-19.8714 28.75,-27.4922 7.90625,-7.6209 20.92775,-19.6531 28.93667,-26.7383 8.00891,-7.0852 14.89186,-14.1135 15.29543,-15.6184 0.40357,-1.5049 0.76053,-5.5487 0.79325,-8.9862 0.0328,-3.4375 1.1026,-8.4556 2.37752,-11.1513 1.77366,-3.7502 2.0358,-5.7109 1.11618,-8.3489 -0.80332,-2.3044 -0.75705,-4.2787 0.13955,-5.954 1.87044,-3.495 1.60535,-9.0918 -0.56661,-11.963 -1.60669,-2.1239 -1.60186,-2.7631 0.0398,-5.2685 2.41689,-3.6886 2.36319,-6.6764 -0.18537,-10.315 -1.90484,-2.7196 -1.90484,-3.1839 0,-6.4085 2.43882,-4.1286 2.61656,-7.8483 0.53435,-11.1825 -1.1968,-1.9164 -1.18389,-3.3603 0.0609,-6.8025 1.33045,-3.6793 1.27491,-4.9599 -0.35149,-8.105 -1.50745,-2.9151 -1.63621,-4.5055 -0.58638,-7.2431 0.73986,-1.9292 1.00696,-5.6521 0.59355,-8.273 -1.32507,-8.4007 1.27126,-14.4127 9.8039,-22.7018 10.42611,-10.1286 36.778,-39.8751 41.71307,-47.0865 2.1844,-3.192 7.29876,-8.817 11.36525,-12.5 11.92823,-10.8034 12.88039,-13.1707 13.3905,-33.2912 0.23923,-9.4353 0.70998,-26.8205 1.04614,-38.6337 0.61119,-21.4784 0.61117,-21.4785 -2.60996,-26.2251 -1.77164,-2.6107 -3.4935,-6.7771 -3.82635,-9.2587 -1.10939,-8.2711 9.7163,-17.002 18.90361,-15.2457 8.88889,1.6992 12.42575,14.85 6.55965,24.3901 l -2.87896,4.682 0.58857,39.068 0.58858,39.0679 3.53548,6.2733 c 1.94452,3.4503 5.94588,9.1179 8.8919,12.5947 2.94602,3.4768 8.1689,10.3941 11.6064,15.3718 3.4375,4.9776 8.51905,11.9662 11.29234,15.5302 2.7733,3.564 6.37549,8.73 8.00486,11.48 1.62939,2.75 5.06893,7.25 7.64343,10 2.5745,2.75 6.78659,8.375 9.3602,12.5 2.57361,4.125 6.48511,9.75 8.69222,12.5 5.64769,7.0369 8.48603,12.9611 7.39032,15.4253 -1.43313,3.223 -1.6229,23.047 -0.24563,25.6575 0.82853,1.5704 0.75616,4.0281 -0.22141,7.5196 -1.05975,3.785 -1.08553,6.1512 -0.0954,8.7555 0.99504,2.6171 0.96505,4.6521 -0.1125,7.6319 -1.03926,2.874 -1.10632,5.4933 -0.22912,8.9491 0.83284,3.2812 0.81944,5.8288 -0.0408,7.7566 -0.89325,2.0019 -0.84636,4.4956 0.1549,8.2392 1.07014,4.0011 1.07652,6.3204 0.0251,9.106 -1.22035,3.2331 -1.02272,4.2824 1.46427,7.7751 1.6552,2.3245 3.10073,6.5083 3.40703,9.8609 0.90274,9.881 1.38278,10.8464 7.53682,15.1583 9.36052,6.5586 12.84832,10.2371 12.84832,13.5507 0,2.9056 -0.29621,2.7925 -6.5625,-2.507 -3.60937,-3.0524 -9.2792,-7.3974 -12.59961,-9.6554 l -6.03711,-4.1055 0.80253,-5.8351 c 0.98482,-7.1605 -0.78802,-12.3255 -4.41905,-12.8744 -2.22026,-0.3357 -2.78341,-1.4085 -3.16706,-6.0333 -0.25665,-3.0937 0.16929,-6.8714 0.9465,-8.3949 1.0406,-2.0397 1.04544,-3.2129 0.0184,-4.4505 -0.95893,-1.1554 -1.20319,-8.1023 -0.78165,-22.2301 0.33723,-11.3022 0.68891,-29.7838 0.78151,-41.0701 l 0.16836,-20.5206 -3.32514,-2.6513 c -1.82893,-1.4583 -3.32525,-3.0652 -3.32525,-3.5709 0,-1.862 -12.46878,-19.6757 -17.2681,-24.6704 -2.72431,-2.8352 -6.00035,-7.2162 -7.2801,-9.7355 -1.27973,-2.5194 -4.7049,-7.0513 -7.61147,-10.0709 -2.90656,-3.0197 -5.65901,-6.6759 -6.11654,-8.125 -0.45752,-1.4491 -2.72005,-4.9427 -5.02782,-7.7635 -2.30778,-2.8209 -4.19597,-5.7011 -4.19597,-6.4007 0,-0.6995 -2.25108,-3.4541 -5.00241,-6.1213 -2.75132,-2.6671 -5.88614,-6.5368 -6.96624,-8.5993 -3.89981,-7.4468 -5.23032,-9.5184 -8.02116,-12.4892 l -2.83755,-3.0204 0.9171,-42.2452 c 0.55209,-25.4313 1.42441,-42.8671 2.19174,-43.8077 0.70105,-0.8594 2.04951,-1.5625 2.99657,-1.5625 2.63138,0 2.13777,-8.6777 -0.76435,-13.4375 -3.15781,-5.1792 -6.7362,-5.2595 -13.57615,-0.3047 -6.64642,4.8147 -6.97866,9.2065 -1.17483,15.5303 3.92368,4.2753 4.00487,4.602 3.65971,14.7296 -0.81103,23.7963 -1.21221,42.5771 -1.24134,58.1123 -0.0287,15.2938 -0.21994,16.6231 -2.60602,18.1132 -1.41629,0.8845 -2.57507,2.2846 -2.57507,3.1114 0,0.8268 -4.23991,5.6134 -9.42203,10.6368 -5.18213,5.0235 -10.94775,11.5232 -12.8125,14.4439 -1.86475,2.9206 -3.72898,5.3112 -4.14272,5.3125 -0.61866,0 -23.90206,25.7436 -40.81025,45.1193 -3.97108,4.5506 -5.33338,10.1999 -2.83238,11.7456 0.67656,0.4182 1.13558,4.2482 1.02006,8.5113 -0.1155,4.263 -0.15594,17.876 -0.0897,30.251 0.28575,53.4597 0.51765,49.5129 -3.19481,54.375 -3.0287,3.9666 -3.30022,5.2048 -2.90825,13.263 l 0.43231,8.8881 -10.43231,9.1272 c -10.19224,8.917 -36.33977,33.6037 -68.81643,64.9717 -8.8975,8.5937 -16.616,15.7852 -17.15222,15.9811 -0.53622,0.1958 -9.52518,8.743 -19.97547,18.9938 -10.45027,10.2508 -19.54246,19.0906 -20.20486,19.644 -0.66239,0.5533 -4.83667,4.803 -9.2762,9.4436 -8.30644,8.6827 -10.62549,10.0448 -10.64122,6.25 z"
         id="path3401"
         inkscape:connector-curvature="0" />
      <path
         style="fill:#20509d;stroke-width:13.2473259;stroke-linecap:round;stroke-miterlimit:4;stroke-dasharray:none"
         d="m 36.411558,-1238.9106 c 0.312066,-1.5469 0.82095,-5.9289 1.130854,-9.7379 1.687035,-20.7351 3.178214,-37.1134 5.685788,-62.4496 2.941078,-29.7163 2.971033,-31.1371 0.674992,-32.0182 -2.388307,-0.9165 -11.941624,1.8125 -33.0274,9.4344 -7.8099077,2.8231 -16.4202692,5.6318 -19.1341366,6.2416 -4.6191094,1.0378 -4.9097664,0.9365 -4.5501684,-1.5871 0.24351,-1.7088 1.145765,-2.5702 2.464605,-2.353 1.1442581,0.1885 12.1130085,-3.2538 24.375,-7.6495 28.606898,-10.2551 35.439462,-12.4649 36.197378,-11.707 0.338741,0.3387 0.04241,6.4429 -0.658507,13.5648 -0.700919,7.122 -1.602385,17.1677 -2.003258,22.324 -0.400873,5.1562 -1.846036,20.9062 -3.211473,35 -1.365438,14.0937 -2.449698,27.3125 -2.409465,29.375 0.04023,2.0625 -0.257933,6.1406 -0.662589,9.0625 -0.568748,4.1067 -1.269486,5.3125 -3.087374,5.3125 -1.773517,0 -2.212151,-0.6914 -1.784246,-2.8125 z m 23.574921,0.7191 c 0.867239,-2.26 0.982198,-54.064 0.138162,-62.2602 -1.092409,-10.6081 -1.720741,-46.5507 -0.906354,-51.8465 0.751509,-4.8869 1.320227,-5.6823 4.607336,-6.4438 2.0625,-0.4778 6.84375,-2.0958 10.625,-3.5954 3.78125,-1.4997 8.5625,-3.1912 10.625,-3.7589 2.0625,-0.5677 5.4375,-1.6323 7.5,-2.3657 30.995567,-11.0218 58.243547,-20.1361 60.198637,-20.1361 1.50375,0 4.09574,-1.038 16.13351,-6.4606 2.79519,-1.2592 6.47957,-2.2894 8.1875,-2.2894 1.70795,0 3.63973,-0.5239 4.29285,-1.1643 1.06787,-1.047 23.43815,-9.1514 36.1875,-13.1102 2.75,-0.8539 5.84375,-1.9089 6.875,-2.3444 5.13049,-2.1669 13.63392,-4.9345 17.91304,-5.8301 2.63343,-0.5511 5.4178,-1.6318 6.1875,-2.4015 0.76971,-0.7697 2.58655,-1.3995 4.03745,-1.3995 1.45089,0 6.26026,-1.4483 10.6875,-3.2184 4.42723,-1.7702 12.26826,-4.5747 17.42451,-6.2323 5.15625,-1.6577 10.5,-3.5274 11.875,-4.155 1.375,-0.6277 6.4375,-2.3683 11.25,-3.868 4.8125,-1.4998 15.21875,-5.1822 23.125,-8.1831 7.90625,-3.0009 16.4867,-5.8313 19.06767,-6.2898 l 4.69266,-0.8336 -0.64096,40.4526 c -0.35253,22.2489 -1.32678,54.5151 -2.165,71.7026 -0.83823,17.1875 -1.47432,48.5469 -1.41352,69.6875 0.0994,34.5518 -0.093,38.4375 -1.90266,38.4373 -1.81071,-2e-4 -2.00632,-4.0547 -1.94499,-40.3125 0.0375,-22.1718 0.73824,-53.8123 1.55718,-70.3123 0.81892,-16.5 1.63199,-46.3125 1.80679,-66.25 l 0.31783,-36.25 -2.7373,-0.3896 c -2.29275,-0.3263 -20.04887,5.5487 -52.2627,17.2923 -3.4375,1.2531 -9.90625,3.506 -14.375,5.0063 -31.67737,10.6355 -72.77181,24.694 -91.25,31.2168 -12.03125,4.247 -26.375,9.1271 -31.875,10.8447 -5.5,1.7176 -14.78125,4.8255 -20.625,6.9065 -5.84375,2.081 -22.4375,7.8362 -36.874997,12.7892 -29.11768,9.9893 -31.418773,10.9951 -32.359186,14.145 -1.60574,5.3782 -0.69922,53.6377 1.061048,56.4859 0.495757,0.8022 0.492307,14.3666 -0.0076,30.1432 -0.868477,27.4035 -1.019128,28.6847 -3.372895,28.6847 -1.790764,0 -2.244366,-0.5719 -1.660486,-2.0934 z m 306.505841,-5.7191 c -0.41225,-4.2969 -1.04727,-20.75 -1.41116,-36.5625 -0.3639,-15.8125 -0.97947,-32.6875 -1.36796,-37.5 -0.38848,-4.8125 -0.0927,-11.4448 0.65726,-14.7385 0.92524,-4.0633 0.95883,-6.7447 0.1045,-8.3411 -1.22314,-2.2855 -1.65459,-13.6947 -3.19714,-84.5433 l -0.7375,-33.8729 7.26768,-3.4614 c 3.99722,-1.9037 8.76071,-4.2391 10.58554,-5.1896 1.82482,-0.9505 4.11017,-1.7282 5.07856,-1.7282 0.96837,0 4.64609,-1.392 8.17267,-3.0932 5.51965,-2.6628 13.737,-5.9746 34.0559,-13.7256 25.48655,-9.7222 39.81995,-18.3273 35.24117,-21.1572 -0.55487,-0.3429 -15.32049,-0.9392 -32.8125,-1.3252 -17.49207,-0.3859 -42.20997,-0.9745 -54.92872,-1.3079 -12.71875,-0.3334 -34.375,-0.8915 -48.125,-1.2403 -94.21278,-2.3894 -122.36947,-3.2065 -130.625,-3.7907 -5.15625,-0.3649 -24.5625,-0.9459 -43.125,-1.2912 -44.61714,-0.8298 -74.951432,-1.5508 -110.624997,-2.6293 -30.271104,-0.9152 -47.743868,-0.8034 -51.5625,0.3299 -1.563827,0.4641 -2.1875,-0.054 -2.1875,-1.8184 0,-2.2196 1.1828,-2.5563 11.7669525,-3.3498 6.4718238,-0.4852 12.3377835,-0.5294 13.0354675,-0.098 0.697683,0.4312 16.636929,1.0875 35.420548,1.4585 46.062655,0.9099 74.758129,1.5492 109.777029,2.4457 16.15625,0.4137 38.375,0.9528 49.375,1.1982 11,0.2454 23.09375,0.7658 26.875,1.1565 3.78125,0.3907 35.5625,1.2908 70.625,2.0002 35.0625,0.7094 72.46875,1.5887 83.125,1.954 10.65625,0.3653 29.78125,0.8844 42.5,1.1536 24.27365,0.5138 38.19928,2.3922 39.31647,5.3036 0.36602,0.9538 -1.00372,3.2588 -3.04403,5.1223 -8.46184,7.7287 -24.72329,15.5326 -55.02244,26.4055 -23.1064,8.2917 -40.47406,16.1345 -43.60353,19.6902 -2.84514,3.2327 -2.94018,3.9183 -2.12217,15.309 0.95559,13.3064 1.40825,30.6404 3.22859,123.6338 0.69129,35.3149 1.61671,68.0805 2.0565,72.8125 0.67206,7.2311 0.49513,8.6035 -1.10926,8.6035 -1.42828,0 -2.0976,-1.967 -2.65843,-7.8125 z m 19.19923,5.625 c -0.007,-1.9263 25.2359,-27.5569 54.49215,-55.3269 5.44056,-5.1642 16.36067,-15.5257 24.26692,-23.0255 7.90625,-7.4999 20.84375,-19.8714 28.75,-27.4922 7.90625,-7.6209 20.92775,-19.6531 28.93667,-26.7383 8.00891,-7.0852 14.89186,-14.1135 15.29543,-15.6184 0.40357,-1.5049 0.76053,-5.5487 0.79325,-8.9862 0.0328,-3.4375 1.1026,-8.4556 2.37752,-11.1513 1.77366,-3.7502 2.0358,-5.7109 1.11618,-8.3489 -0.80332,-2.3044 -0.75705,-4.2787 0.13955,-5.954 1.87044,-3.495 1.60535,-9.0918 -0.56661,-11.963 -1.60669,-2.1239 -1.60186,-2.7631 0.0398,-5.2685 2.41689,-3.6886 2.36319,-6.6764 -0.18537,-10.315 -1.90484,-2.7196 -1.90484,-3.1839 0,-6.4085 2.43882,-4.1286 2.61656,-7.8483 0.53435,-11.1825 -1.1968,-1.9164 -1.18389,-3.3603 0.0609,-6.8025 1.33045,-3.6793 1.27491,-4.9599 -0.35149,-8.105 -1.50745,-2.9151 -1.63621,-4.5055 -0.58638,-7.2431 0.73986,-1.9292 1.00696,-5.6521 0.59355,-8.273 -1.32507,-8.4007 1.27126,-14.4127 9.8039,-22.7018 10.42611,-10.1286 36.778,-39.8751 41.71307,-47.0865 2.1844,-3.192 7.29876,-8.817 11.36525,-12.5 11.92823,-10.8034 12.88039,-13.1707 13.3905,-33.2912 0.23923,-9.4353 0.70998,-26.8205 1.04614,-38.6337 0.61119,-21.4784 0.61117,-21.4785 -2.60996,-26.2251 -1.77164,-2.6107 -3.4935,-6.7771 -3.82635,-9.2587 -1.10939,-8.2711 9.7163,-17.002 18.90361,-15.2457 8.88889,1.6992 12.42575,14.85 6.55965,24.3901 l -2.87896,4.682 0.58857,39.068 0.58858,39.0679 3.53548,6.2733 c 1.94452,3.4503 5.94588,9.1179 8.8919,12.5947 2.94602,3.4768 8.1689,10.3941 11.6064,15.3718 3.4375,4.9776 8.51905,11.9662 11.29234,15.5302 2.7733,3.564 6.37549,8.73 8.00486,11.48 1.62939,2.75 5.06893,7.25 7.64343,10 2.5745,2.75 6.78659,8.375 9.3602,12.5 2.57361,4.125 6.48511,9.75 8.69222,12.5 5.64769,7.0369 8.48603,12.9611 7.39032,15.4253 -1.43313,3.223 -1.6229,23.047 -0.24563,25.6575 0.82853,1.5704 0.75616,4.0281 -0.22141,7.5196 -1.05975,3.785 -1.08553,6.1512 -0.0954,8.7555 0.99504,2.6171 0.96505,4.6521 -0.1125,7.6319 -1.03926,2.874 -1.10632,5.4933 -0.22912,8.9491 0.83284,3.2812 0.81944,5.8288 -0.0408,7.7566 -0.89325,2.0019 -0.84636,4.4956 0.1549,8.2392 1.07014,4.0011 1.07652,6.3204 0.0251,9.106 -1.22035,3.2331 -1.02272,4.2824 1.46427,7.7751 1.6552,2.3245 3.10073,6.5083 3.40703,9.8609 0.90274,9.881 1.38278,10.8464 7.53682,15.1583 9.35038,6.5515 12.84832,10.2381 12.84832,13.5414 0,2.9364 -0.15041,2.8867 -4.6875,-1.5482 -2.57812,-2.5201 -7.61585,-6.5354 -11.19494,-8.9229 -8.08376,-5.3923 -8.35696,-5.8462 -8.01605,-13.3176 0.36357,-7.9678 -0.6578,-10.8559 -4.33347,-12.2534 -2.52398,-0.9596 -3.01813,-1.9997 -3.01813,-6.3531 0,-3.4999 0.71134,-5.7257 2.1709,-6.793 2.01083,-1.4703 2.02059,-1.757 0.13243,-3.8878 -1.61969,-1.8278 -2.03359,-5.0657 -2.01465,-15.7607 0.0131,-7.4032 0.51754,-13.7654 1.12095,-14.1384 0.60421,-0.3734 0.62746,-1.6267 0.0518,-2.7897 -1.29205,-2.6098 -1.12114,-44.032 0.19036,-46.1374 1.01731,-1.6332 -2.27036,-9.0992 -4.00684,-9.0992 -0.57248,0 -3.79242,-4.3441 -7.1554,-9.6535 -3.36297,-5.3095 -9.0691,-13.0414 -12.68028,-17.1821 -3.61119,-4.1407 -7.36799,-9.2185 -8.34847,-11.284 -0.98047,-2.0655 -4.354,-6.5556 -7.49672,-9.9782 -3.14271,-3.4225 -5.71403,-6.8646 -5.71403,-7.6492 0,-0.7845 -2.25,-4.2523 -5,-7.7062 -2.75,-3.4538 -5,-6.6655 -5,-7.137 0,-0.4714 -2.73103,-4.0472 -6.06897,-7.946 -3.33794,-3.8988 -7.12634,-9.0575 -8.41866,-11.4638 -1.29232,-2.4063 -3.48315,-5.7813 -4.86852,-7.5 -2.44192,-3.0296 -2.49976,-4.3992 -1.89385,-44.8491 0.62252,-41.5582 0.63619,-41.7315 3.4375,-43.5899 5.85134,-3.882 1.98079,-19.061 -4.8604,-19.061 -1.3703,0 -3.7201,0.6328 -5.22177,1.4062 -9.17618,4.726 -10.99408,11.848 -4.59029,17.9832 l 3.76505,3.6072 -0.6445,25.6892 c -0.35447,14.129 -0.66872,32.7204 -0.69834,41.3142 -0.0512,14.8786 -0.21527,15.8623 -3.43305,20.5915 -1.85856,2.7316 -6.80988,8.3849 -11.00295,12.5628 -4.19306,4.1779 -9.42937,10.0888 -11.63625,13.1353 -2.20687,3.0465 -8.46715,10.3308 -13.91172,16.1873 -40.68965,43.7679 -40.43184,43.41 -35.32779,49.0499 2.00174,2.2119 1.99698,2.5872 -0.0817,6.4471 -2.10745,3.9133 -2.1078,4.307 -0.008,8.7107 1.88099,3.9445 1.97374,5.2361 0.64069,8.9226 -1.12004,3.0974 -1.18833,5.0024 -0.24266,6.7694 1.65241,3.0876 1.69317,8.333 0.088,11.3322 -0.82185,1.5357 -0.76798,3.6141 0.16292,6.2845 1.03584,2.9713 1.01385,5.2484 -0.0861,8.9198 -1.15403,3.8518 -1.13474,5.8765 0.0881,9.2584 1.2637,3.4947 1.25181,5.1952 -0.0617,8.8277 -1.18381,3.2737 -1.2522,4.8739 -0.25111,5.875 2.25226,2.2522 1.58995,5.2626 -2.20979,10.0439 -3.36527,4.2347 -3.54704,5.0509 -2.95799,13.2837 l 0.62763,8.7719 -7.29439,6.5756 c -18.31549,16.5109 -50.8783,46.9317 -73.03965,68.235 -21.26197,20.4388 -51.06484,49.1447 -62.8125,60.5005 -5.32812,5.1504 -9.6875,10.0058 -9.6875,10.7898 0,0.784 -0.84375,1.4254 -1.875,1.4254 -1.03125,0 -1.87909,-0.9844 -1.88407,-2.1875 z"
         id="path3399"
         inkscape:connector-curvature="0" />
      <path
         style="fill:#003ea5;fill-opacity:1;stroke:#090f1d;stroke-width:13.2473259;stroke-linecap:round;stroke-miterlimit:4;stroke-dasharray:none;stroke-opacity:1"
         d="m 40.291969,-1242.9731 c 0.396909,-4.125 0.932478,-7.7344 1.190153,-8.0208 0.90967,-1.0113 0.204821,9.3133 -0.846251,12.3958 -0.69029,2.0245 -0.811404,0.4837 -0.343902,-4.375 z m 20.131867,-5.9363 c 0.548995,-20.2022 1.108919,-21.7854 1.326741,-3.7512 0.110025,9.1094 -0.221829,16.563 -0.737454,16.5637 -0.515625,7e-4 -0.780805,-5.7649 -0.589287,-12.8125 z m 284.026784,11.5613 c 0,-0.6875 0.5625,-1.25 1.25,-1.25 0.6875,0 1.25,0.5625 1.25,1.25 0,0.6875 -0.5625,1.25 -1.25,1.25 -0.6875,0 -1.25,-0.5625 -1.25,-1.25 z m 43.125,0 c 0.4249,-0.6875 1.0206,-1.25 1.32378,-1.25 0.30317,0 0.55122,0.5625 0.55122,1.25 0,0.6875 -0.5957,1.25 -1.32377,1.25 -0.72808,0 -0.97613,-0.5625 -0.55123,-1.25 z m -21.19318,-6.9318 c -0.47814,-3.1885 -0.5881,-6.0786 -0.24435,-6.4223 0.34375,-0.3438 1.01621,1.9838 1.49435,5.1723 0.47815,3.1885 0.58811,6.0785 0.24436,6.4223 -0.34375,0.3437 -1.01621,-1.9838 -1.49436,-5.1723 z m 38.69318,-11.1631 c 35.5251,-35.162 71.49209,-69.5878 69.97847,-66.9799 -1.05405,1.8161 -12.64184,13.1843 -48.06619,47.1554 -10.63575,10.1994 -21.88575,21.0759 -25,24.17 -3.11425,3.0941 -22.14061,30.4891 -24.20311,32.1701 -2.0625,1.6811 18.35333,-27.6694 27.29083,-36.5156 z m -59.80645,-3.4676 c -0.39747,-4.2969 -0.25871,-11.4688 0.30835,-15.9375 0.94013,-7.4085 1.04613,-6.7196 1.20208,7.8125 0.094,8.7656 -0.0448,15.9375 -0.30835,15.9375 -0.26366,0 -0.80459,-3.5156 -1.20208,-7.8125 z m -302.943967,-3.4375 c 0,-3.7813 0.234333,-5.3281 0.520737,-3.4375 0.286407,1.8906 0.286407,4.9844 0,6.875 -0.286404,1.8906 -0.520737,0.3437 -0.520737,-3.4375 z m 1.25,-15 c 0,-3.7813 0.234333,-5.3281 0.520737,-3.4375 0.286407,1.8906 0.286407,4.9844 0,6.875 -0.286404,1.8906 -0.520737,0.3437 -0.520737,-3.4375 z m 16.893122,-9.0403 c -0.461767,-14.8432 0.734064,-18.8062 1.911742,-6.3355 1.12226,11.8838 1.014921,17.6081 -0.34595,18.4492 -0.68391,0.4227 -1.331695,-4.5889 -1.565792,-12.1137 z m 304.149315,2.2278 c -0.0958,-4.2621 0.29523,-6.9305 0.91567,-6.25 0.59548,0.6531 0.67064,4 0.16701,7.4375 l -0.91566,6.25 z m -19.94373,-14.4375 c 0.0143,-7.9063 0.43471,-15.7813 0.93435,-17.5 0.49964,-1.7188 0.68203,4.1875 0.40531,13.125 -0.6402,20.677 -1.37337,23.0714 -1.33966,4.375 z m -299.86577,6.875 c 0.0094,-3.4375 0.252142,-4.6954 0.539459,-2.7953 0.287319,1.9001 0.27964,4.7126 -0.01706,6.25 -0.296703,1.5374 -0.53178,-0.017 -0.522399,-3.4547 z m 319.27957,-19.0094 c -0.41615,-9.4823 -0.32816,-19.2094 0.19553,-21.6156 0.66168,-3.0403 1.22816,1.884 1.85681,16.1405 0.50844,11.5306 0.42281,20.9973 -0.19554,21.6156 -0.63356,0.6336 -1.42107,-6.212 -1.8568,-16.1405 z m -318.046632,4.6344 c 0,-3.0938 0.24377,-4.3594 0.541711,-2.8125 0.297941,1.5469 0.297941,4.0781 0,5.625 -0.297941,1.5469 -0.541711,0.2812 -0.541711,-2.8125 z m 13.6611,-3.8739 c -0.138355,-4.5369 -0.508724,-12.6931 -0.82304,-18.125 l -0.571485,-9.8761 1.234344,8.75 c 0.678889,4.8125 1.049256,12.9687 0.82304,18.125 l -0.411304,9.375 z m -12.436326,-8.0011 c 0.01387,-2.75 0.269856,-3.7278 0.568847,-2.1729 0.298992,1.5549 0.28764,3.8049 -0.02522,5 -0.312866,1.1951 -0.557496,-0.077 -0.543627,-2.8271 z m 432.279388,-8.8862 c 1.66671,-1.7937 12.87005,-12.3405 24.89631,-23.4375 38.89726,-35.8916 35.48071,-32.0966 36.36515,-40.3934 l 5.00232,-15.824 -4.04217,15.8684 0.18377,7.3273 -7.12736,6.4227 c -11.21615,10.1072 -38.88882,35.8094 -48.41379,44.9664 -8.66333,8.3286 -12.58111,11.2224 -6.86423,5.0701 z m -430.970037,-6.7388 c 0,-3.7813 0.234333,-5.3281 0.520737,-3.4375 0.286407,1.8906 -9.221986,150.1834 -9.508393,152.074 -0.286404,1.8906 8.987656,-144.8553 8.987656,-148.6365 z m 297.849467,-1.875 c -0.71507,-4.8943 -0.54053,-13.4285 0.50235,-24.5641 0.87898,-9.3852 1.26539,-18.9477 0.85869,-21.25 -0.40669,-2.3022 -0.25604,-6.1547 0.33479,-8.5609 1.31246,-5.3453 1.41692,16.631 0.20796,43.75 -0.75189,16.8662 -0.88411,17.6041 -1.90379,10.625 z m -356.585282,3.8323 c 0.857287,0.329 4.8690663,-0.5408 8.9150655,-1.9328 4.0459995,-1.392 7.5767982,-2.3105 7.8462195,-2.0411 0.69631,0.6963 -14.6611728,5.7666 -17.466536,5.7666 0,0 -0.994975,-1.89 0.705251,-1.7927 z m 19.611235,-5.6095 c 2.349004,-1.3482 38.550156,-13.8478 40.105884,-13.8478 1.555111,0 1.460157,8.4071 -0.105888,9.375 -0.708947,0.4381 -1.25,-0.612 -1.25,-2.4262 4e-6,-2.7051 -0.566213,-3.1988 -3.668328,-3.1988 -2.017583,0 -10.803772,2.5312 -19.524863,5.625 -15.645825,5.5502 -19.2289125,6.5804 -15.556805,4.4728 z m 49.496376,-10.7228 c 0.887252,-10.2413 1.053559,-10.625 4.605528,-10.625 l 2.704361,0 -2.778133,1.9459 c -2.086846,1.4617 -2.799993,3.2501 -2.865988,7.1875 -0.04832,2.8829 3.612503,163.3096 2.970114,164.6846 -0.778635,1.6666 -5.141237,-157.3598 -4.635882,-163.193 z m 305.014571,6.1535 c -0.41608,-1.0843 -1.033,-15.0062 -1.37091,-30.9375 -0.53345,-25.1503 -0.38567,-28.5604 1.12174,-25.8873 1.32324,2.3465 1.77245,9.7039 1.88895,30.9375 0.0841,15.3223 -0.0803,27.8588 -0.36521,27.8588 -0.28493,0 -0.85848,-0.8872 -1.27457,-1.9715 z m 367.98905,-12.5768 c -2.40625,-2.3931 -7.32238,-6.3125 -10.92475,-8.7098 -7.86211,-5.232 -8.78372,-6.9261 -7.74748,-14.2419 l 0.79675,-5.625 0.18775,6.5366 0.18773,6.5366 9.6875,7.6386 c 5.32813,4.2012 10.46335,8.0728 11.41163,8.6035 0.94826,0.5307 67.01302,52.8074 66.75226,53.5355 -0.26078,0.7281 -67.94514,-51.8809 -70.35139,-54.2741 z m -662.499997,-6.0767 c 1.71875,-0.9825 3.96875,-1.7843 5,-1.7818 1.03125,0 -0.0177,0.8264 -2.331013,1.8307 -5.322932,2.311 -6.751426,2.2848 -2.668987,-0.049 z m 11.25,-4.375 c 1.03125,-0.6664 3,-1.1808 4.375,-1.143 2.5,0.069 2.5,0.069 0,1.143 -1.375,0.5909 -3.34375,1.1052 -4.375,1.143 -1.666666,0.061 -1.666666,-0.066 0,-1.143 z m 10,-3.125 c 1.71875,-0.9825 4.25,-1.7635 5.625,-1.7356 1.63698,0.033 0.989715,0.6324 -1.875,1.7356 -5.783684,2.2273 -7.646231,2.2273 -3.75,0 z m 9.999997,-3.125 c 1.03125,-0.6664 2.71875,-1.1808 3.75,-1.143 1.23632,0.045 1.02343,0.4346 -0.625,1.143 -3.43635,1.4767 -5.409955,1.4767 -3.125,0 z m 16.25,-5.4015 c 0,-1.0612 13.94313,-5.9927 15.48454,-5.4766 0.76475,0.256 -1.70329,1.484 -5.48454,2.7289 -3.78125,1.2448 -7.57812,2.5228 -8.4375,2.84 -0.85937,0.3172 -1.5625,0.2756 -1.5625,-0.092 z m 17.5,-6.3518 c 0,-0.7209 16.93268,-5.7667 18.94405,-5.6451 0.92453,0.056 -2.5378,1.4515 -7.69405,3.1014 -9.53777,3.0517 -11.25,3.4389 -11.25,2.5437 z m 577.5,-3.0693 c 0,-0.8191 -1.40625,-2.0239 -3.125,-2.6774 -2.64287,-1.0048 -3.125,-1.9913 -3.125,-6.3938 0,-3.4999 0.71134,-5.7257 2.1709,-6.793 2.01083,-1.4703 2.02059,-1.7571 0.13243,-3.8878 -1.61969,-1.8278 -2.03359,-5.0657 -2.01465,-15.7607 0.0131,-7.4032 0.51754,-13.7654 1.12095,-14.1384 0.60342,-0.3729 0.47392,-1.8425 -0.28778,-3.2658 -0.91595,-1.7114 -1.07103,-5.8127 -0.458,-12.1116 0.50982,-5.2381 1.2049,-8.6802 1.54465,-7.6489 0.33975,1.0312 1.40227,2.7787 2.36115,3.8833 1.4967,1.724 1.47362,2.2322 -0.16311,3.5905 -2.29079,1.9012 -2.54206,10.1407 -0.37534,12.3074 1.20827,1.2083 1.20827,2.0483 0,3.983 -1.93322,3.0956 -1.96483,8.9164 -0.071,13.073 1.23674,2.7143 1.11002,3.4608 -0.82802,4.878 -2.19481,1.6049 -2.20009,1.9426 -0.12946,8.2732 1.52651,4.6671 1.76902,6.9898 0.82802,7.9308 -2.2505,2.2505 -1.49702,8.6177 1.38251,11.6828 1.4923,1.5885 2.33605,3.2654 1.875,3.7264 -0.46103,0.461 -0.83825,0.1681 -0.83825,-0.651 z m -553.75,-4.5524 c 1.71875,-0.9825 3.96875,-1.7843 5,-1.7818 1.03125,0 -0.0177,0.8264 -2.33101,1.8307 -5.32294,2.311 -6.75142,2.2848 -2.66899,-0.049 z m 8.21302,-3.2674 c 0.80231,-1.2982 9.0306,-3.9014 10.638,-3.3656 0.73107,0.2437 -1.49205,1.3088 -4.94029,2.367 -3.44824,1.0581 -6.01221,1.5075 -5.69771,0.9986 z m 16.0884,-5.4136 c 1.33452,-1.0692 3.30327,-1.8996 4.375,-1.8453 1.68325,0.085 1.69326,0.1933 0.0736,0.7939 -1.03125,0.3824 -3,1.2127 -4.375,1.8453 -2.46,1.1316 -2.46117,1.1189 -0.0736,-0.7939 z m 10.07358,-3.814 c 4.2189,-1.9882 8.99089,-2.6335 5.625,-0.7607 -1.03125,0.5739 -3.5625,1.3774 -5.625,1.7857 l -3.75,0.7423 z m 169.24594,-5.005 c -0.72516,-10.5417 -0.57287,-34.431 0.20571,-32.2691 1.48403,4.1207 2.47092,29.6965 1.29339,33.5191 l -1.15515,3.75 z m 181.89794,1.9094 c 2.36139,-3.6839 2.55414,-7.7114 0.46886,-9.7967 -1.18302,-1.183 -1.02165,-2.3428 0.74118,-5.327 2.50685,-4.2438 1.95082,-9.0108 -1.49722,-12.8361 -1.93675,-2.1487 -1.92002,-2.4126 0.25365,-4.0021 2.9293,-2.1419 3.00125,-7.4105 0.1443,-10.5674 -2.13161,-2.3554 -1.8538,-6.2551 0.44562,-6.2551 2.56525,0 2.76695,-6.5123 0.32963,-10.6432 -2.12763,-3.6061 -2.22271,-4.459 -0.71831,-6.444 2.32584,-3.0688 2.25648,-7.8514 -0.15246,-10.5132 -1.78968,-1.9776 -1.77761,-2.5363 0.13464,-6.2342 1.80787,-3.4961 1.87945,-4.7318 0.51375,-8.8699 -0.87272,-2.6444 -1.21455,-5.1801 -0.75964,-5.635 0.45492,-0.455 0.82712,0.2067 0.82712,1.4702 0,1.2636 0.95647,3.3543 2.12549,4.6461 2.00174,2.2119 1.99698,2.5872 -0.0817,6.4471 -2.10745,3.9133 -2.1078,4.307 -0.008,8.7107 1.88099,3.9445 1.97374,5.2361 0.64069,8.9226 -1.12004,3.0974 -1.18833,5.0024 -0.24266,6.7694 1.65241,3.0876 1.69317,8.333 0.088,11.3322 -0.82185,1.5357 -0.76798,3.6141 0.16292,6.2845 1.03584,2.9713 1.01385,5.2484 -0.0861,8.9198 -1.15403,3.8518 -1.13474,5.8765 0.0881,9.2584 1.2637,3.4947 1.25181,5.1952 -0.0617,8.8277 -1.18381,3.2737 -1.2522,4.8739 -0.25111,5.875 2.24202,2.242 1.58657,5.5076 -1.85531,9.2436 -2.83108,3.073 -2.98584,3.1245 -1.25,0.4166 z m -331.76888,-3.7844 c 3.09375,-1.2982 6.75,-2.3734 8.125,-2.3893 1.375,-0.016 -0.59375,1.0592 -4.375,2.3893 -8.76763,3.0841 -11.1,3.0841 -3.75,0 z m 11.7669,-3.4375 c 1.23903,-1.2442 12.63533,-5.213 18.64614,-6.4936 2.63343,-0.561 5.4178,-1.6497 6.1875,-2.4194 0.76971,-0.7697 2.63493,-1.3995 4.14495,-1.3995 1.51001,0 6.88189,-1.6856 11.9375,-3.7457 10.19188,-4.1532 14.70225,-5.0658 6.39146,-1.2933 -5.20887,2.3645 -45.71795,16.289 -47.38775,16.289 -0.46935,0 -0.43326,-0.4219 0.0803,-0.9375 z m 124.95342,-0.8899 c -0.38569,-1.005 -0.15845,-5.3644 0.50495,-9.6875 l 1.20617,-7.8601 0.15929,9.6875 c 0.15384,9.3567 -0.40115,11.689 -1.87041,7.8601 z m -71.72032,-17.4001 c 0,-0.3719 2.39063,-1.3109 5.3125,-2.0867 2.92188,-0.7759 7,-2.1379 9.0625,-3.0268 6.67897,-2.8785 20.80508,-7.1456 21.46629,-6.4844 0.35373,0.3538 -1.23772,1.2065 -3.53657,1.895 -2.29884,0.6885 -8.67972,2.905 -14.17972,4.9257 -10.65985,3.9162 -18.125,5.8838 -18.125,4.7772 z m 71.74333,-11.3975 0.13167,-10 -4.38862,0.1161 c -2.41375,0.064 -9.93868,2.1952 -16.72206,4.7363 -6.78338,2.5411 -12.54854,4.4051 -12.81147,4.1422 -0.73782,-0.7379 25.82212,-10.602 31.10965,-11.5539 l 4.6875,-0.8439 -4.37383,269.5233 c -0.0814,4.3734 3.66347,-251.9325 3.15676,-249.8701 -0.60853,2.477 -0.87659,0.3552 -0.7896,-6.25 z m 12.15456,-8.2885 -0.14789,-8.2884 7.1875,-3.4209 c 3.95313,-1.8814 8.68054,-4.1985 10.50537,-5.149 1.82482,-0.9505 4.11017,-1.7282 5.07856,-1.7282 0.96837,0 4.64609,-1.392 8.17267,-3.0933 5.51965,-2.6627 13.737,-5.9746 34.0559,-13.7255 20.08754,-7.6627 35.72092,-16.023 36.65719,-19.6033 0.65991,-2.5235 3.41015,-2.7509 4.21105,-0.3482 0.47046,1.4114 -530.236423,198.2472 -536.947433,200.7458 -2.54982,0.9493 498.171763,-179.8404 487.743213,-176.0084 -10.42854,3.8319 -21.11604,8.0598 -23.75,9.3953 -2.63395,1.3354 -9.28902,4.1967 -14.78902,6.3584 -13.7161,5.3908 -12.42577,279.0233 -12.60342,283.8686 0,0 -3.74676,-266.5269 -4.27158,-264.4644 -0.74233,2.9173 -0.98705,1.9096 -1.10211,-4.5385 z m 345.40093,-19.178 c -1.09263,-5.8242 -0.32804,-6.4884 2.31615,-2.0121 1.81852,3.0785 1.86263,3.7736 0.32065,5.0533 -1.47908,1.2275 -1.93454,0.7022 -2.6368,-3.0412 z m 0.0614,-10.0335 c 0.44048,-2.0625 0.88515,-4.7032 0.98818,-5.8682 0.13957,-1.5786 0.59677,-1.7785 1.79445,-0.7845 2.22603,1.8475 -4.27126,22.5729 -4.00418,17.8468 l 0.42068,-7.4441 z m -3.29011,-13.4375 c -1.04923,-0.8594 -5.1005,-6.3437 -9.00281,-12.1875 -3.90232,-5.8438 -9.84787,-13.9057 -13.21235,-17.9154 -3.36448,-4.0098 -6.4086,-8.5098 -6.76473,-10 -0.59322,-2.4825 -0.52461,-2.5187 0.81864,-0.4317 0.80636,1.2529 5.8255,7.9055 11.15362,14.7836 5.32813,6.8781 9.6875,12.9514 9.6875,13.4963 0,0.5448 2.29785,3.8766 5.10634,7.4039 5.14589,6.463 5.72116,7.7235 2.21379,4.8508 z m -156.87339,-14.6875 c 1.13629,-1.7188 6.70376,-7.9823 12.37215,-13.9191 16.26624,-17.0363 28.80389,-31.0767 35.00973,-39.2059 5.70287,-7.4704 23.42143,-25.6944 23.42143,-24.0896 0,0.4639 -3.89372,4.7526 -8.65273,9.5306 -4.759,4.7779 -10.41613,11.1333 -12.57138,14.123 -2.15525,2.9898 -7.96464,9.6002 -12.90976,14.6897 -4.94511,5.0896 -9.83488,10.4898 -10.86613,12.0005 -1.03125,1.5107 -7.72371,8.8778 -14.87215,16.3713 -7.14842,7.4935 -12.06745,12.2182 -10.93116,10.4995 z m -132.35635,-1.3061 c -0.45099,-0.7297 3.78638,-1.1364 10.89839,-1.046 17.67799,0.2247 20.9392,1.6925 4.40695,1.9835 -8.20805,0.1445 -14.88958,-0.2648 -15.30534,-0.9375 z m -47.46534,-1.2337 c -4.76381,-1.1616 18.43398,-1.2559 23.75,-0.097 2.19587,0.4789 -1.17143,0.8579 -8.125,0.9144 -6.53125,0.053 -13.5625,-0.3149 -15.625,-0.8178 z m -54.375,-1.2102 c -4.36293,-0.6783 -2.96066,-0.8887 6.25,-0.9377 7.63055,-0.04 10.75804,0.2946 8.75,0.9377 -3.70186,1.1855 -7.37443,1.1855 -15,0 z m 20.33629,0.3838 c 1.21621,-0.317 2.90371,-0.2961 3.75,0.046 0.84629,0.3424 -0.14879,0.6018 -2.21129,0.5763 -2.0625,-0.025 -2.75492,-0.3057 -1.53871,-0.6226 z m -53.75,-1.25 c 1.21621,-0.317 2.90371,-0.2961 3.75,0.046 0.84629,0.3424 -0.14879,0.6018 -2.21129,0.5763 -2.0625,-0.025 -2.75492,-0.3057 -1.53871,-0.6226 z m -67.21129,-1.6338 -17.5,-0.7329 16.875,-0.134 c 9.28125,-0.074 18.28125,0.3165 20,0.8669 2.30194,0.7372 2.46655,0.9655 0.625,0.8669 -1.375,-0.074 -10.375,-0.4638 -20,-0.8669 z m 46.6044,0.327 c 3.63243,-0.2533 9.25743,-0.2506 12.5,0.01 3.24258,0.2566 0.2706,0.4638 -6.6044,0.4606 -6.875,0 -9.52802,-0.2132 -5.8956,-0.4665 z m -110.6669,-2.4958 c 3.26563,-0.2575 8.60938,-0.2575 11.875,0 3.26563,0.2575 0.59375,0.4682 -5.9375,0.4682 -6.53125,0 -9.20312,-0.2107 -5.9375,-0.4682 z m 25.02379,0.053 c 1.21621,-0.3169 2.90371,-0.2961 3.75,0.046 0.84629,0.3424 -0.14879,0.6017 -2.21129,0.5762 -2.0625,-0.025 -2.75492,-0.3056 -1.53871,-0.6225 z m -78.773787,-1.3026 c 3.265625,-0.2575 8.609377,-0.2575 11.874997,0 3.26563,0.2575 0.59375,0.4682 -5.937497,0.4682 -6.53125,0 -9.203125,-0.2107 -5.9375,-0.4682 z m 23.749997,0.057 c 1.20313,-0.3144 3.17188,-0.3144 4.375,0 1.20313,0.3144 0.21875,0.5717 -2.1875,0.5717 -2.40625,0 -3.39062,-0.2573 -2.1875,-0.5717 z m -185.249877,-5.9146 c 0,-1.0849 76.0243325,1.1966 77.0156738,2.1879 0.3579575,0.358 -1.7913463,0.9509 -4.7762313,1.3176 -11.5792527,1.4225 -72.2394425,-2.5951 -72.2394425,-3.5055 z m 118.350246,4.2566 c 8.408327,-0.5083 17.127077,-0.5289 19.375,-0.046 2.247924,0.4831 -4.631616,0.899 -15.287866,0.9242 l -19.375,0.046 z m -38.076576,-0.8461 c 1.216209,-0.3169 2.903709,-0.296 3.75,0.046 0.84629,0.3424 -0.14879,0.6017 -2.21129,0.5763 -2.0625,-0.025 455.760907,10.3707 456.977117,10.0538 z m 654.409857,-21.9462 c -3.78463,-4.6704 -6.64991,-9.6875 -5.5325,-9.6875 0.21187,0 3.00612,3.375 6.20947,7.5 6.57271,8.4638 5.97477,10.3959 -0.67697,2.1875 z m -11.0418,-15.9951 c -2.20315,-2.7818 -3.73511,-5.3283 -3.40435,-5.6591 0.53992,-0.5399 5.31009,5.1497 7.67484,9.1542 1.94571,3.2949 -0.43764,1.3442 -4.27049,-3.4951 z m -10.23976,-14.0049 c -5.6566,-6.7756 -9.71459,-12.7097 -9.71459,-14.2061 0,-0.8126 1.2631,0.7727 11.81694,14.8311 5.94328,7.9169 4.72696,7.5553 -2.10235,-0.625 z m -26.99744,-17.8125 c 1.94525,-4.8383 3.53285,-6.6981 3.53285,-4.1385 0,1.0926 -1.13411,3.3145 -2.52026,4.9375 l -2.52025,2.951 z m 14.2524,-0.5205 c -1.96925,-2.176 -2.1545,-6.0746 -2.02152,-42.5428 0.0805,-22.081 0.64455,-41.4576 1.25342,-43.059 0.60888,-1.6015 5.02792,-8.5541 6.16785,-8.9916 1.76509,-0.6773 -1.28912,5.0936 -3.43302,8.5625 -2.41038,3.9001 -2.49899,5.7559 -2.08338,43.633 0.28542,26.0101 0.91377,40.456 1.83458,42.1766 1.74511,3.2607 1.10712,3.3429 -1.71793,0.2213 z m -11.54928,-2.0107 c 0,-5.1563 0.22063,-21.6094 0.49032,-19.0313 0.26968,2.5781 1.76378,-65.6769 1.4941,-63.0988 -0.26969,2.5781 -1.98442,87.2863 -1.98442,82.1301 z m 1.25,-44.3438 c 0,-5.1563 0.22063,-7.2656 0.49032,-4.6875 0.26968,2.5781 0.26968,6.7969 0,9.375 -0.26969,2.5781 -0.49032,0.4687 -0.49032,-4.6875 z m -0.32158,-16.9792 c 0.06,-1.4562 0.35618,-1.7523 0.7552,-0.7552 0.36109,0.9024 0.31669,1.9805 -0.0986,2.3959 -0.41537,0.4153 -0.7108,-0.323 -0.65653,-1.6407 z m -1.3528,-20.8106 c -3.82442,-5.7532 -6.95522,-14.8052 -3.61426,-11.5869 1.88566,1.8164 6.20707,12.2356 5.95091,13.0041 -0.25617,0.7685 -1.30766,0.1308 -2.33665,-1.4172 z m 16.3528,-12.9394 c 0.06,-1.4562 0.35618,-1.7523 0.7552,-0.7552 0.36109,0.9024 0.31669,1.9805 -0.0986,2.3959 -0.41537,0.4153 -0.7108,-0.323 -0.65653,-1.6407 z m -16.65275,-7.7083 c 1.61891,-1.5469 3.61523,-2.7954 4.43626,-2.7745 12.21649,10.4828 0.3678,0.6622 -1.0072,1.425 -1.375,0.7628 -3.37131,2.0113 -4.43626,2.7745 -1.06494,0.7631 -0.6117,0.1218 1.0072,-1.425 z"
         id="path3397"
         inkscape:connector-curvature="0"
         sodipodi:nodetypes="sccsssssssssssssssscscssssscssssssssssssssssssccsccscssssssssscssssssscsscsssssssscccssssssssssssscscccsscsssssscsssssssssscsscccsscccccccscccsccscccccsccssssccsscsccsccscccccccssscscccccccccccscccccccssscscssscsssscsscscscssccsccssccccscccsscsscccscscscscscssccscscccssccsscssscscscssssssscsscscssccsssccsssscssscsssscccccsccsccccccccccsccccscccccsssscccccssssssssscssscscscccccssssccscssssssccsssccsscsssssssssccccccscccccccccscc" />
      <g
         transform="matrix(0.89311089,0,0,0.90253795,206.70403,-2876.7132)"
         id="layer1-4"
         inkscape:label="Layer 1"
         style="stroke:#00123d;stroke-opacity:1">
        <path
           sodipodi:nodetypes="cssscccccccsscccscsscccsscccccccccsssscccccccccss"
           inkscape:connector-curvature="0"
           id="path3445-8-7"
           d="m 157.78306,1343.561 c -5.55425,-12.1548 -13.9751,-32.4122 -18.71309,-45.017 -12.13762,-32.2902 -14.55566,-35.0183 -17.12729,-19.3244 -1.15144,7.0273 -2.172,28.6628 -2.2676,48.0787 l -0.17383,35.3026 -33.964181,-0.9254 -33.964077,-0.9259 0,-140.7815 0,-140.7809 33.836007,-0.9248 33.836221,-0.9242 5.13999,10.7462 c 2.82723,5.9109 12.31915,29.1625 21.09372,51.6711 l 15.95367,40.9245 0.92234,-52.3833 0.92231,-52.3837 32.96487,-0.9349 c 24.34082,-0.6904 33.60909,0.1683 35.42737,3.2742 2.81942,4.819 3.50955,274.3536 0.72252,282.2297 -1.50813,4.2619 -7.37941,5.1788 -33.1714,5.1788 l -31.33898,0 -10.09848,-22.0998 z m -495.86037,10.0531 c -0.79673,-2.2513 -1.09379,-65.9714 -0.66016,-141.5999 l 0.78853,-137.506 33.96424,-0.9258 33.96399,-0.9255 0,113.059 0,113.0599 49.81413,0 49.81407,0 0,29.4659 0,29.466 -83.11824,0 c -63.72026,0 -83.45622,-0.9553 -84.56656,-4.0936 z m 196.48194,2.8074 c -0.79659,-2.2513 -1.09362,-65.9714 -0.65996,-141.5999 l 0.78847,-137.506 33.96411,-0.9258 33.964126,-0.9255 0,113.059 0,113.0599 49.814008,0 49.814167,0 0,29.4659 0,29.466 -83.118236,0 c -63.720285,0 -83.456205,-0.9553 -84.566685,-4.0936 z"
           style="fill:#ffffff;fill-opacity:1;stroke:#00123d;stroke-width:13.79316044;stroke-miterlimit:9.5;stroke-dasharray:none;stroke-opacity:1"
           inkscape:transform-center-x="-807.2236"
           inkscape:transform-center-y="-1451.1592" />
      </g>
      <g
         transform="matrix(1.04587,0,0,1.0569094,-437.24239,-3076.3029)"
         id="layer1-7"
         inkscape:label="Layer 1"
         style="fill:#ff7f2a">
        <path
           sodipodi:nodetypes="cccccscss"
           inkscape:connector-curvature="0"
           id="path3445-1-8"
           d="M 910.00196,1246.4399 C 777.85308,1047.223 1087.9862,892.42168 1157.487,1098.6638 c 15.8813,49.7308 19.0752,98.139 -22.2972,149.6505 l -121.0244,156.8939 z m 139.81144,-66.2609 c 17.7231,-12.7925 20.376,-54.6455 4.6498,-73.3499 -24.5083,-29.1511 -82.12395,-4.9568 -82.12395,34.4864 0,41.4302 43.61005,63.307 77.47415,38.8635 z"
           style="fill:#ff7f2a;fill-opacity:1;stroke:#00034b;stroke-width:11.22998142;stroke-miterlimit:9.5;stroke-dasharray:none;stroke-opacity:1" />
      </g>
    </g>
  </g>
</svg>
