<?xml version="1.0" encoding="UTF-8" standalone="no"?>
<!-- Created with Inkscape (http://www.inkscape.org/) -->

<svg
   xmlns:dc="http://purl.org/dc/elements/1.1/"
   xmlns:cc="http://creativecommons.org/ns#"
   xmlns:rdf="http://www.w3.org/1999/02/22-rdf-syntax-ns#"
   xmlns:svg="http://www.w3.org/2000/svg"
   xmlns="http://www.w3.org/2000/svg"
   xmlns:sodipodi="http://sodipodi.sourceforge.net/DTD/sodipodi-0.dtd"
   xmlns:inkscape="http://www.inkscape.org/namespaces/inkscape"
   width="1024"
   height="1024"
   viewBox="0 0 1024 1024"
   id="svg2"
   version="1.1"
   inkscape:version="0.91 r13725"
   inkscape:export-filename="/Users/lsmb017/Developpement/Ionic/llnmaps-v2/resources/iconIOS.png"
   inkscape:export-xdpi="90"
   inkscape:export-ydpi="90"
   sodipodi:docname="iconv2.svg">
  <defs
     id="defs4">
    <filter
       id="filter3337"
       style="color-interpolation-filters:sRGB"
       x="-0.25"
       y="-0.25"
       width="1.5"
       height="1.5"
       inkscape:menu-tooltip="Strongly raised border around a flat surface"
       inkscape:menu="Bevels"
       inkscape:label="Raised Border">
      <feGaussianBlur
         id="feGaussianBlur3339"
         result="result1"
         stdDeviation="4" />
      <feComposite
         id="feComposite3341"
         operator="in"
         result="result4"
         in2="result1"
         in="result1" />
      <feGaussianBlur
         id="feGaussianBlur3343"
         in="result4"
         result="result6"
         stdDeviation="2" />
      <feComposite
         id="feComposite3345"
         result="result8"
         in2="result4"
         in="result6"
         operator="xor" />
      <feComposite
         id="feComposite3347"
         in2="result8"
         in="result4"
         result="fbSourceGraphic"
         operator="atop" />
      <feSpecularLighting
         id="feSpecularLighting3349"
         in="fbSourceGraphic"
         result="result1"
         lighting-color="#ffffff"
         surfaceScale="3"
         specularConstant="1.29999995"
         specularExponent="10">
        <feDistantLight
           id="feDistantLight3351"
           elevation="55"
           azimuth="235" />
      </feSpecularLighting>
      <feComposite
         id="feComposite3353"
         in2="fbSourceGraphic"
         in="result1"
         result="result2"
         operator="atop" />
      <feComposite
         id="feComposite3355"
         in2="result2"
         in="fbSourceGraphic"
         result="result4"
         operator="arithmetic"
         k2="1"
         k3="1"
         k1="0"
         k4="0" />
      <feComposite
         id="feComposite3357"
         in2="SourceGraphic"
         in="result4"
         operator="over" />
      <feBlend
         id="feBlend3359"
         in2="result2"
         mode="multiply" />
    </filter>
    <filter
       id="filter3337-6"
       style="color-interpolation-filters:sRGB"
       x="-0.25"
       y="-0.25"
       width="1.5"
       height="1.5"
       inkscape:menu-tooltip="Strongly raised border around a flat surface"
       inkscape:menu="Bevels"
       inkscape:label="Raised Border">
      <feGaussianBlur
         id="feGaussianBlur3339-3"
         result="result1"
         stdDeviation="4" />
      <feComposite
         id="feComposite3341-0"
         operator="in"
         result="result4"
         in2="result1"
         in="result1" />
      <feGaussianBlur
         id="feGaussianBlur3343-2"
         in="result4"
         result="result6"
         stdDeviation="2" />
      <feComposite
         id="feComposite3345-2"
         result="result8"
         in2="result4"
         in="result6"
         operator="xor" />
      <feComposite
         id="feComposite3347-8"
         in2="result8"
         in="result4"
         result="fbSourceGraphic"
         operator="atop" />
      <feSpecularLighting
         id="feSpecularLighting3349-5"
         in="fbSourceGraphic"
         result="result1"
         lighting-color="#ffffff"
         surfaceScale="3"
         specularConstant="1.29999995"
         specularExponent="10">
        <feDistantLight
           id="feDistantLight3351-2"
           elevation="55"
           azimuth="235" />
      </feSpecularLighting>
      <feComposite
         id="feComposite3353-4"
         in2="fbSourceGraphic"
         in="result1"
         result="result2"
         operator="atop" />
      <feComposite
         id="feComposite3355-4"
         in2="result2"
         in="fbSourceGraphic"
         result="result4"
         operator="arithmetic"
         k2="1"
         k3="1"
         k1="0"
         k4="0" />
      <feComposite
         id="feComposite3357-6"
         in2="SourceGraphic"
         in="result4"
         operator="over" />
      <feBlend
         id="feBlend3359-8"
         in2="result2"
         mode="multiply" />
    </filter>
    <filter
       id="filter3337-2"
       style="color-interpolation-filters:sRGB"
       x="-0.25"
       y="-0.25"
       width="1.5"
       height="1.5"
       inkscape:menu-tooltip="Strongly raised border around a flat surface"
       inkscape:menu="Bevels"
       inkscape:label="Raised Border">
      <feGaussianBlur
         id="feGaussianBlur3339-4"
         result="result1"
         stdDeviation="4" />
      <feComposite
         id="feComposite3341-4"
         operator="in"
         result="result4"
         in2="result1"
         in="result1" />
      <feGaussianBlur
         id="feGaussianBlur3343-8"
         in="result4"
         result="result6"
         stdDeviation="2" />
      <feComposite
         id="feComposite3345-21"
         result="result8"
         in2="result4"
         in="result6"
         operator="xor" />
      <feComposite
         id="feComposite3347-3"
         in2="result8"
         in="result4"
         result="fbSourceGraphic"
         operator="atop" />
      <feSpecularLighting
         id="feSpecularLighting3349-2"
         in="fbSourceGraphic"
         result="result1"
         lighting-color="#ffffff"
         surfaceScale="3"
         specularConstant="1.29999995"
         specularExponent="10">
        <feDistantLight
           id="feDistantLight3351-1"
           elevation="55"
           azimuth="235" />
      </feSpecularLighting>
      <feComposite
         id="feComposite3353-2"
         in2="fbSourceGraphic"
         in="result1"
         result="result2"
         operator="atop" />
      <feComposite
         id="feComposite3355-6"
         in2="result2"
         in="fbSourceGraphic"
         result="result4"
         operator="arithmetic"
         k2="1"
         k3="1"
         k1="0"
         k4="0" />
      <feComposite
         id="feComposite3357-68"
         in2="SourceGraphic"
         in="result4"
         operator="over" />
      <feBlend
         id="feBlend3359-86"
         in2="result2"
         mode="multiply" />
    </filter>
  </defs>
  <sodipodi:namedview
     id="base"
     pagecolor="#ffffff"
     bordercolor="#666666"
     borderopacity="1.0"
     inkscape:pageopacity="0.0"
     inkscape:pageshadow="2"
     inkscape:zoom="0.2237432"
     inkscape:cx="368.22192"
     inkscape:cy="-63.832677"
     inkscape:document-units="px"
     inkscape:current-layer="g3395"
     showgrid="false"
     fit-margin-top="0"
     fit-margin-left="0"
     fit-margin-right="0"
     fit-margin-bottom="0"
     inkscape:window-width="1852"
     inkscape:window-height="1107"
     inkscape:window-x="209"
     inkscape:window-y="59"
     inkscape:window-maximized="0"
     units="px" />
  <metadata
     id="metadata7">
    <rdf:RDF>
      <cc:Work
         rdf:about="">
        <dc:format>image/svg+xml</dc:format>
        <dc:type
           rdf:resource="http://purl.org/dc/dcmitype/StillImage" />
        <dc:title></dc:title>
      </cc:Work>
    </rdf:RDF>
  </metadata>
  <g
     inkscape:label="Layer 1"
     inkscape:groupmode="layer"
     id="layer1"
     transform="translate(111.01398,119.23134)">
    <g
       id="g3395"
       transform="matrix(0.95614192,0,0,0.94615499,29.526173,2020.1729)">
      <rect
         style="opacity:1;fill:#2779fd;fill-opacity:1;stroke:none;stroke-width:1.05137503;stroke-opacity:1"
         id="rect4184"
         width="1077.3615"
         height="1095.9222"
         x="-151.41437"
         y="-2267.9553" />
      <path
         style="fill:#fbfbfb"
         d="m 33.937594,-1632.5011 -9.15146,-482.1332 367.082646,0 367.08267,0 -6.47108,654.3863 73.06991,58.545 1.34728,84.7323 -423.36545,-0.6535 -11.66333,28.0955 -313.69721,0.3421 -3.95355,-173.2085 -106.983785,38.2087 0.71434,-209.5345 z"
         id="path3411"
         inkscape:connector-curvature="0"
         sodipodi:nodetypes="cccccccccccccc" />
      <path
         style="fill:#9ea2a8"
         d="m 24.825049,-1392.8726 c 0.02897,-36.0707 0.419995,-48.9797 1.529511,-50.4934 0.819828,-1.1185 8.098083,-4.4147 16.173901,-7.3248 8.07582,-2.9102 19.914234,-7.2649 26.307592,-9.6772 6.393356,-2.4123 13.395979,-4.7901 15.56138,-5.2842 3.614512,-0.8244 4.082558,-0.5487 5.712328,3.3669 l 1.77523,4.2648 0.09985,-6.1631 c 0.118555,-7.3198 -2.164983,-6.006 31.539869,-18.1466 12.65581,-4.5586 29.34272,-10.5934 37.08204,-13.4103 7.73934,-2.817 18.20118,-6.5671 23.24857,-8.3335 5.04739,-1.7662 21.01548,-7.5016 35.48466,-12.7454 14.46917,-5.2439 34.56695,-12.4985 44.66173,-16.1219 10.09476,-3.6232 21.65787,-7.7963 25.69577,-9.2735 4.03792,-1.4772 20.83195,-7.6106 37.32008,-13.6298 16.48813,-6.0193 33.648,-12.2863 38.13301,-13.9269 4.48502,-1.6404 10.08151,-3.362 12.43664,-3.8255 7.20267,-1.4177 7.41837,-0.043 6.44259,41.0664 -1.64454,69.2841 -1.9412,78.5467 -3.31152,103.3934 -0.75931,13.7678 -1.01641,31.531 -0.57134,39.4739 0.9135,16.3032 -0.32475,44.2412 -1.91515,43.21 -0.57544,-0.3731 -1.04627,-0.066 -1.04627,0.6811 0,2.133 -279.888671,1.8896 -281.872032,-0.2452 -1.056008,-1.1366 -1.552452,-9.0924 -1.702188,-27.2788 -0.116262,-14.1207 -0.561556,-33.4725 -0.989548,-43.0039 -0.427981,-9.5316 -0.938926,-21.3737 -1.135422,-26.316 -0.495988,-12.4749 -0.851914,-12.9203 -2.051721,-2.5674 -1.670832,14.4174 -2.047797,18.386 -3.292174,34.6601 -0.647841,8.4723 -1.47966,16.2708 -1.848498,17.33 -0.368837,1.0589 -0.986352,7.1245 -1.372257,13.4788 -1.562065,25.721 -2.275558,32.0811 -3.775458,33.6546 -1.180642,1.2387 -8.116889,1.6472 -27.965062,1.6472 l -26.394991,0 0.03891,-48.4598 z m 369.122091,46.7356 c -1.29683,-3.5455 -2.06516,-16.4796 -2.75716,-46.4146 -0.39171,-16.9448 -0.96554,-40.0516 -1.27518,-51.3481 -0.30964,-11.2966 -0.76781,-28.6266 -1.01818,-38.5111 -0.25036,-9.8845 -0.86935,-33.008 -1.37557,-51.3857 -0.50621,-18.3778 -0.5477,-35.4979 -0.0924,-38.045 0.77147,-4.3143 1.54768,-4.9933 11.34385,-9.9247 5.78364,-2.9115 11.96488,-5.6525 13.73611,-6.091 1.77122,-0.4385 5.69821,-2.1557 8.72664,-3.8159 9.49333,-5.2045 21.11202,-10.4728 42.55387,-19.2952 4.89754,-2.0151 10.40378,-4.9428 12.23609,-6.5061 l 3.33147,-2.8422 -6.72985,-0.1753 c -3.70141,-0.097 -13.88796,-0.3527 -22.63676,-0.5694 -8.7488,-0.2168 -42.61217,-1.056 -75.25195,-1.8651 -32.63976,-0.8091 -72.55999,-2.0904 -88.71163,-2.8473 -16.15164,-0.757 -35.42348,-1.5077 -42.82631,-1.6684 -7.40284,-0.1607 -27.77593,-0.7122 -45.27353,-1.2254 -17.4976,-0.5134 -40.89913,-1.1319 -52.00338,-1.3746 -11.10424,-0.2425 -36.98358,-0.9127 -57.509614,-1.4892 -20.526035,-0.5765 -42.550994,-1.0538 -48.94435,-1.0604 -7.227321,-0.012 -12.202831,-0.5847 -13.153796,-1.5253 -1.212989,-1.1999 -1.52951,-51.076 -1.52951,-241.0152 l 0,-239.5021 367.08266,0 367.08264,0 0,326.6284 0,326.6287 -2.57877,-0.521 c -1.41834,-0.2866 -6.07704,-3.2861 -10.35268,-6.6657 -4.27564,-3.3796 -9.17206,-7.1826 -10.88091,-8.4512 -2.72597,-2.0236 -3.10703,-3.2329 -3.10703,-9.8612 0,-6.8467 -0.32801,-7.7999 -3.49894,-10.1688 -3.41161,-2.5484 -3.50408,-2.927 -3.70638,-15.1708 -0.24952,-15.1023 -0.31553,-7.7667 0.47905,-53.2365 0.65422,-37.4375 0.62083,-38.156 -1.88712,-40.6073 -1.40422,-1.3725 -3.48206,-4.1515 -4.61743,-6.1758 -1.13535,-2.0242 -3.16555,-5.6086 -4.51151,-7.9653 -1.34598,-2.3568 -5.9353,-8.711 -10.19854,-14.1208 -4.26325,-5.4096 -8.52664,-11.3877 -9.47428,-13.2846 -0.9476,-1.8968 -3.68476,-5.6516 -6.08254,-8.344 -2.39778,-2.6923 -5.21101,-6.5692 -6.25157,-8.615 -1.04056,-2.0457 -5.00187,-8.0128 -8.80288,-13.2598 -3.801,-5.247 -9.19203,-13.1046 -11.98006,-17.4614 -2.78801,-4.3567 -6.3085,-9.3233 -7.82332,-11.037 l -2.75422,-3.1155 -4.26726,5.0411 c -2.347,2.7726 -7.63652,8.796 -11.75452,13.3853 -4.118,4.5891 -9.68971,11.2059 -12.38159,14.7037 -2.69188,3.4979 -6.34505,7.8305 -8.11814,9.6278 -1.77309,1.7975 -9.20651,10.3944 -16.51872,19.1043 -7.31219,8.7099 -15.6139,18.5303 -18.44822,21.8229 -5.27163,6.1241 -6.24466,8.92 -3.94441,11.3332 0.87449,0.9174 1.28881,16.4322 1.25997,47.1811 -0.0427,45.5977 -0.0562,45.8335 -2.83244,49.917 -2.23106,3.2814 -2.81664,5.9327 -2.92512,13.2431 -0.0746,5.0273 -0.51774,9.7891 -0.98478,10.5819 -0.46705,0.7928 -5.36165,5.5733 -10.87686,10.623 -5.51523,5.0499 -17.24548,16.4627 -26.06721,25.3619 -8.82175,8.8992 -24.21004,24.2676 -34.19622,34.1521 -15.24199,15.0868 -37.02052,37.0552 -69.61363,70.2203 -3.32954,3.3881 -6.77093,6.16 -7.64755,6.16 -0.87659,0 -1.59381,0.5778 -1.59381,1.2837 0,2.0967 -25.29299,1.6691 -26.06467,-0.4405 z m 255.72745,-393.3108 c -0.31023,-1.2491 -0.58446,-0.538 -0.60941,1.5801 -0.025,2.1182 0.22889,3.1401 0.56408,2.271 0.33518,-0.8691 0.35557,-2.6021 0.0455,-3.8511 z m 4.67831,-61.6422 c 4.50693,-5.3721 3.41829,-14.4416 -1.73347,-14.4416 -3.35121,0 -8.68722,4.942 -8.68722,8.0459 0,2.2347 5.4377,9.9259 7.01748,9.9259 0.24286,0 1.77432,-1.5886 3.40321,-3.5302 z"
         id="path3409"
         inkscape:connector-curvature="0" />
      <path
         style="fill:#2779fd;stroke:none;stroke-width:11.30333424;stroke-miterlimit:4;stroke-dasharray:none;stroke-opacity:1"
         d="m 22.246409,-1394.3356 3.151529,-48.2076 16.518719,-6.0178 c 9.085296,-3.3098 22.014923,-8.092 28.732505,-10.6271 14.550477,-5.4908 17.766362,-5.8024 17.760445,-1.7207 -0.0021,1.5886 -1.348245,18.4853 -2.99099,37.5483 -1.642746,19.063 -3.597287,42.7473 -4.343422,52.6318 -0.746134,9.8845 -1.627633,19.8492 -1.958885,22.1438 l -8.691101,64.2018 -52.948097,-1.7152 z m 73.363148,31.6301 c -1.178466,-9.9833 -0.561763,-34.7564 -1.194367,-54.8783 -1.372959,-43.6719 -1.177563,-51.3564 1.340252,-52.7091 1.009487,-0.5426 6.791038,-2.7817 12.847908,-4.9762 6.05686,-2.1945 12.66434,-4.6048 14.68329,-5.356 2.01896,-0.7511 6.64593,-2.2234 10.28216,-3.2717 3.63622,-1.0484 11.89558,-4.117 18.35414,-6.8193 6.45854,-2.7022 16.69841,-6.4808 22.75527,-8.3966 14.89459,-4.7111 21.12186,-6.9351 26.91939,-9.614 2.69195,-1.2438 13.15381,-5.1393 23.24858,-8.6569 30.44438,-10.6082 48.72187,-17.1928 52.96261,-19.08 2.21003,-0.9836 5.03228,-1.7882 6.27168,-1.7882 1.2394,0 5.21273,-1.3611 8.82966,-3.0248 3.61691,-1.6636 17.58867,-6.936 31.04837,-11.7161 13.4597,-4.7802 28.05123,-10.1154 32.42563,-11.8562 12.70393,-5.0552 23.73987,-8.0347 24.9825,-6.7449 0.68035,0.7062 0.49883,25.8186 -0.46107,63.7875 -2.62051,103.6543 -3.34085,157.4376 -2.14318,160.0182 0.77311,1.6658 0.70229,2.1341 -0.23121,1.5289 -0.74012,-0.4798 -7.81675,60.5166 -7.81675,60.5166 l -266.16296,-1.2133 z m 298.243693,-13.479 c -0.46703,-17.4743 -1.6472,-61.5214 -2.62256,-97.8822 -0.97538,-36.361 -1.78144,-73.9704 -1.79127,-83.5766 l -0.0177,-17.466 10.18801,-5.3199 c 5.60342,-2.9257 11.1728,-5.3197 12.37641,-5.3197 1.20361,0 4.7407,-1.4 7.86021,-3.1111 8.68362,-4.7634 20.66858,-10.3892 30.14401,-14.1502 19.29612,-7.6586 23.72117,-9.6747 28.13901,-12.8199 2.54547,-1.8124 5.10191,-3.2951 5.68099,-3.2951 0.57907,0 1.05285,-0.7742 1.05285,-1.7202 0,-1.8211 5.07042,-1.6168 -117.46645,-4.7308 -27.92887,-0.7096 -67.02318,-1.871 -86.87622,-2.5809 -46.19743,-1.6515 -223.881797,-6.3118 -241.968651,-6.3463 l -13.765599,-0.026 -16.986532,-491.2531 748.863972,1.4462 16.01097,341.7946 c 0,0 -13.78529,321.3675 -15.9916,320.1289 -1.24766,-0.7006 -4.469,-3.1759 -7.15852,-5.501 -2.68954,-2.3248 -7.51514,-6.1407 -10.72358,-8.4794 -5.66144,-4.1267 -5.8107,-4.4019 -5.05964,-9.3294 1.0439,-6.8488 -0.22693,-11.4109 -3.54763,-12.7354 -2.23326,-0.8907 -2.91408,-2.4588 -3.61191,-8.3183 -0.58821,-4.9391 -0.39556,-7.8076 0.60964,-9.0784 1.14649,-1.4493 1.13288,-2.2832 -0.0619,-3.7936 -1.03621,-1.3099 -1.26794,-3.9044 -0.71656,-8.0231 0.95027,-7.0985 0.95015,-7.1759 -0.0219,-13.4623 -0.40886,-2.6442 -0.36087,-5.8213 0.10654,-7.0604 0.46749,-1.2389 0.84392,-14.6374 0.83653,-29.7743 -0.0129,-26.3098 -0.12482,-27.61 -2.543,-29.5253 -1.39127,-1.1018 -3.49731,-3.7363 -4.68008,-5.8545 -1.18279,-2.1181 -3.25177,-5.7941 -4.59773,-8.169 -1.34598,-2.3748 -6.16393,-8.8863 -10.70659,-14.47 -4.54264,-5.5837 -8.25935,-10.6436 -8.25935,-11.2443 0,-0.6007 -3.02843,-4.9681 -6.72985,-9.7056 -3.70142,-4.7374 -6.72985,-9.0114 -6.72985,-9.4976 0,-1.0075 -9.45587,-14.7733 -16.02843,-23.3341 -2.42227,-3.155 -5.44239,-7.7583 -6.71139,-10.2294 -1.26901,-2.4712 -3.63001,-6.0514 -5.24668,-7.9561 l -2.93943,-3.4635 0.84743,-43.3918 0.84745,-43.3918 3.14008,-2.961 c 2.6357,-2.4855 3.02421,-3.7104 2.41861,-7.6255 -0.92548,-5.9831 -4.50465,-9.8801 -8.00426,-8.7147 -4.35962,1.4517 -9.92608,7.1591 -9.92608,10.1776 0,1.5715 1.9415,4.8175 4.3402,7.2565 3.75799,3.8214 4.25515,5.0175 3.70614,8.9168 -0.34871,2.477 -0.95085,22.0082 -1.33808,43.4029 l -0.70406,38.899 -4.03483,5.3886 c -2.21916,2.9637 -7.49698,9.1434 -11.72849,13.7327 -4.23151,4.5891 -9.12686,10.3659 -10.87856,12.837 -1.75168,2.4711 -5.12058,6.5253 -7.48643,9.0093 -2.36583,2.4841 -10.08308,11.349 -17.14942,19.7 -7.06634,8.3512 -15.16688,17.8721 -18.00122,21.1577 -4.95731,5.7468 -6.82287,11.8615 -4.14807,13.5956 0.61602,0.3994 1.10396,20.6083 1.10991,45.9683 l 0.0112,45.2554 -3.12004,4.3265 c -2.75116,3.8152 -3.0922,5.4306 -2.88449,13.6633 l 0.23555,9.3366 -11.37919,10.5966 c -6.25857,5.8282 -18.58522,17.8762 -27.39255,26.7735 -8.80734,8.8971 -24.20465,24.264 -34.21625,34.1485 -10.01158,9.8845 -27.85978,27.7922 -39.66262,39.7948 -11.80285,12.0026 -25.30166,25.7222 -29.99737,30.4879 l -8.53768,8.665 -15.76659,11.5214 -7.75906,-11.5214 -0.84915,-31.7716 z"
         id="path3407"
         inkscape:connector-curvature="0"
         sodipodi:nodetypes="ccsscssscccssccsssssssscsscsscccscssccsssssssscccccccssssscsscssscssssssscccsssscsscsscssscccsscsssssccccc" />
      <path
         style="fill:#7a8290;stroke-width:13.2473259;stroke-linecap:round;stroke-miterlimit:4;stroke-dasharray:none"
         d="m 73.202803,-1347.3012 c 0.305479,-1.5886 0.803619,-6.0886 1.106979,-10.0004 1.651417,-21.2941 3.111113,-38.114 5.565745,-64.1334 2.878984,-30.5174 2.908305,-31.9766 0.66074,-32.8814 -2.337883,-0.9412 -11.689501,1.8613 -32.330094,9.6888 -7.645019,2.8992 -16.073589,5.7835 -18.730159,6.4098 -4.508431,1.0627 -4.805083,0.9563 -4.454101,-1.5982 0.312284,-2.2729 3.176177,-3.7561 16.894744,-8.7498 9.085296,-3.3073 22.014923,-8.0872 28.732505,-10.6223 14.550477,-5.4908 17.766362,-5.8024 17.760445,-1.7207 -0.0021,1.5886 -1.348245,18.4853 -2.99099,37.5483 -1.642746,19.063 -3.597287,42.7473 -4.343422,52.6318 -1.966581,26.0525 -2.021572,26.3159 -5.494483,26.3159 -2.390789,0 -2.830594,-0.5341 -2.377909,-2.8884 z m 22.406754,-15.4043 c -0.02429,-10.0611 -0.561763,-34.7564 -1.194367,-54.8783 -1.372959,-43.6719 -1.177563,-51.3564 1.340252,-52.7091 1.009487,-0.5426 6.791038,-2.7817 12.847908,-4.9762 6.05686,-2.1945 12.66434,-4.6048 14.68329,-5.356 2.01896,-0.7511 6.64593,-2.2234 10.28216,-3.2717 3.63622,-1.0484 11.89558,-4.117 18.35414,-6.8193 6.45854,-2.7022 16.69841,-6.4808 22.75527,-8.3966 14.89459,-4.7111 21.12186,-6.9351 26.91939,-9.614 2.69195,-1.2438 13.15381,-5.1393 23.24858,-8.6569 30.44438,-10.6082 48.72187,-17.1928 52.96261,-19.08 2.21003,-0.9836 5.03228,-1.7882 6.27168,-1.7882 1.2394,0 5.21273,-1.3611 8.82966,-3.0248 3.61691,-1.6636 17.58867,-6.936 31.04837,-11.7161 13.4597,-4.7802 28.05123,-10.1154 32.42563,-11.8562 12.70393,-5.0552 23.73987,-8.0347 24.9825,-6.7449 0.68035,0.7062 0.49883,25.8186 -0.46107,63.7875 -2.62051,103.6543 -3.34085,157.4376 -2.14318,160.0182 0.77311,1.6658 0.70229,2.1341 -0.23121,1.5289 -0.74012,-0.4798 -1.34569,-0.2608 -1.34569,0.487 0,0.7476 -0.96359,1.3593 -2.14131,1.3592 -1.99647,-10e-5 -2.1368,-2.8008 -2.07457,-41.3994 0.0367,-22.7696 0.72266,-55.2631 1.52431,-72.2081 0.80163,-16.9448 1.59753,-47.5611 1.76865,-68.0361 l 0.31111,-37.2275 -2.6795,-0.4001 c -2.24435,-0.335 -19.62559,5.6983 -51.15929,17.7586 -3.36491,1.2867 -9.69709,3.6005 -14.0715,5.1412 -31.00856,10.9222 -71.23538,25.3599 -89.32344,32.0585 -11.77723,4.3616 -25.81815,9.3732 -31.20203,11.1371 -5.38388,1.7639 -14.46917,4.9556 -20.18955,7.0927 -5.72037,2.1371 -21.96377,8.0475 -36.09645,13.134 -28.50292,10.2586 -30.75544,11.2916 -31.67599,14.5265 -1.571833,5.5233 -0.684463,55.0838 1.03865,58.0088 0.48529,0.8238 0.4819,14.7539 -0.007,30.9559 -0.83948,27.7893 -1.02198,29.4581 -3.221628,29.4581 -2.182078,0 -2.334565,-1.174 -2.375927,-18.2927 z m 298.243693,-13.479 c -0.46703,-17.4743 -1.6472,-61.5214 -2.62256,-97.8822 -0.97538,-36.361 -1.78144,-73.9704 -1.79127,-83.5766 l -0.0177,-17.466 10.18801,-5.3199 c 5.60342,-2.9257 11.1728,-5.3197 12.37641,-5.3197 1.20361,0 4.7407,-1.4 7.86021,-3.1111 8.68362,-4.7634 20.66858,-10.3892 30.14401,-14.1502 19.29612,-7.6586 23.72117,-9.6747 28.13901,-12.8199 2.54547,-1.8124 5.10191,-3.2951 5.68099,-3.2951 0.57907,0 1.05285,-0.7742 1.05285,-1.7202 0,-1.8211 5.07042,-1.6168 -117.46645,-4.7308 -27.92887,-0.7096 -67.02318,-1.871 -86.87622,-2.5809 -46.19743,-1.6515 -223.881797,-6.3118 -241.968651,-6.3463 -12.716533,-0.025 -13.765599,-0.2127 -13.765599,-2.4738 0,-2.17 1.305617,-2.5503 11.518517,-3.3535 6.335184,-0.4984 12.077297,-0.5438 12.760251,-0.1003 0.682952,0.4428 16.285674,1.1168 34.672717,1.4979 45.090135,0.9344 73.179775,1.5908 107.459315,2.5116 15.81514,0.4248 37.56478,0.9784 48.33255,1.2305 10.76776,0.252 22.60617,0.7864 26.30759,1.1877 3.70141,0.4012 34.81167,1.3255 69.1339,2.054 34.32223,0.7287 70.93872,1.6316 81.36999,2.0068 10.43126,0.3751 29.15248,0.9082 41.6027,1.1847 23.76115,0.5275 37.39278,2.4566 38.48638,5.4466 0.35829,0.9795 -0.98253,3.3466 -2.97976,5.2604 -8.28318,7.937 -24.2013,15.9514 -53.86076,27.1175 -22.61856,8.5151 -39.61954,16.5694 -42.68293,20.221 -2.78506,3.3199 -2.87811,4.024 -2.07736,15.7218 0.93542,13.6652 1.37851,31.4666 3.16042,126.9672 0.6767,36.2671 1.58258,69.916 2.01308,74.7757 0.77742,8.7754 0.76206,8.8354 -2.25879,8.8354 l -3.04154,0 -0.84915,-31.7716 z m 21.25522,29.5252 c -0.006,-1.9782 24.7031,-28.3 53.34166,-56.8186 5.3257,-5.3034 16.01525,-15.9443 23.75458,-23.6463 7.73932,-7.702 20.40368,-20.4072 28.143,-28.2335 7.73933,-7.8263 20.4859,-20.183 28.32574,-27.4592 7.83982,-7.2763 14.57744,-14.494 14.9725,-16.0395 0.39504,-1.5455 0.74447,-5.6982 0.7765,-9.2285 0.0322,-3.5301 1.07931,-8.6836 2.32731,-11.4519 1.73622,-3.8514 1.99283,-5.8649 1.09262,-8.574 -0.78636,-2.3666 -0.74106,-4.3942 0.1366,-6.1146 1.83095,-3.5892 1.57146,-9.3369 -0.55464,-12.2855 -1.57278,-2.1813 -1.56804,-2.8376 0.039,-5.4106 2.36587,-3.7881 2.3133,-6.8564 -0.18145,-10.5932 -1.86462,-2.7929 -1.86462,-3.2696 0,-6.5812 2.38734,-4.2399 2.56131,-8.0599 0.52307,-11.484 -1.17154,-1.9681 -1.1589,-3.4508 0.0596,-6.9859 1.30236,-3.7784 1.24799,-5.0937 -0.34407,-8.3235 -1.47563,-2.9937 -1.60166,-4.627 -0.57399,-7.4384 0.72424,-1.9812 0.98569,-5.8045 0.58101,-8.496 -1.29709,-8.6273 1.24442,-14.8014 9.59691,-23.3139 10.20599,-10.4017 36.00151,-40.9503 40.83239,-48.3561 2.13828,-3.2781 7.14466,-9.0548 11.1253,-12.837 11.67638,-11.0948 12.60844,-13.5258 13.10778,-34.1888 0.23418,-9.6898 0.69499,-27.5436 1.02406,-39.6753 0.59828,-22.0576 0.59825,-22.0577 -2.55486,-26.9324 -1.73425,-2.681 -3.41974,-6.9596 -3.74557,-9.5083 -1.08596,-8.494 9.51116,-17.4604 18.50451,-15.6566 8.70121,1.7449 12.1634,15.2503 6.42116,25.0476 l -2.81818,4.8083 0.57614,40.1213 0.57616,40.1214 3.46082,6.4424 c 1.90348,3.5433 5.82036,9.3637 8.70418,12.9342 2.88382,3.5706 7.99642,10.6744 11.36134,15.7863 3.36493,5.1118 8.3392,12.2888 11.05393,15.9489 2.71475,3.6601 6.24089,8.9653 7.83586,11.7896 1.59499,2.8241 4.96191,7.4454 7.48205,10.2695 2.52014,2.8243 6.6433,8.6008 9.16258,12.837 2.51927,4.2363 6.34818,10.0129 8.5087,12.8371 5.52845,7.2266 8.30687,13.3105 7.23429,15.8412 -1.40287,3.31 -1.58864,23.6684 -0.24044,26.3493 0.81104,1.6127 0.74018,4.1366 -0.21674,7.7224 -1.03737,3.8869 -1.06261,6.317 -0.0933,8.9914 0.97403,2.6878 0.94467,4.7776 -0.11011,7.8378 -1.01732,2.9514 -1.08297,5.6413 -0.22429,9.1903 0.81525,3.3697 0.80214,5.986 -0.04,7.9658 -0.87439,2.0559 -0.82849,4.6167 0.15163,8.4614 1.04754,4.109 1.05379,6.4907 0.0246,9.3514 -1.19458,3.3203 -1.00113,4.3979 1.43335,7.9848 1.62026,2.3871 3.03527,6.6837 3.3351,10.1268 0.89699,10.3001 1.37512,11.2189 8.61066,16.5471 9.04425,6.66 11.63854,9.7305 11.13652,13.1805 -0.38942,2.6764 -0.60212,2.6213 -5.80555,-1.4987 -2.97071,-2.3523 -8.47696,-6.6216 -12.23609,-9.4873 -6.15499,-4.6923 -6.81442,-5.6497 -6.63013,-9.6277 0.39204,-8.4613 -0.78476,-12.8123 -3.78929,-14.0107 -2.3369,-0.9323 -2.99385,-2.415 -3.70115,-8.3539 -0.58818,-4.9391 -0.39557,-7.8078 0.60964,-9.0784 1.14649,-1.4492 1.13287,-2.2832 -0.0619,-3.7936 -1.03621,-1.3098 -1.26795,-3.9042 -0.71655,-8.0231 0.95026,-7.0985 0.95014,-7.1759 -0.0219,-13.4624 -0.40884,-2.6442 -0.36086,-5.8214 0.10653,-7.0603 0.46749,-1.239 0.84393,-14.6374 0.83653,-29.7744 -0.0129,-26.3096 -0.12481,-27.6098 -2.543,-29.5251 -1.39126,-1.1019 -3.49729,-3.7365 -4.68007,-5.8546 -1.1828,-2.1182 -3.25177,-5.7941 -4.59774,-8.1689 -1.34596,-2.3748 -6.16393,-8.8863 -10.70658,-14.47 -4.54265,-5.5838 -8.25936,-10.6437 -8.25936,-11.2444 0,-0.6006 -3.02843,-4.9681 -6.72984,-9.7056 -3.70143,-4.7375 -6.72986,-9.0114 -6.72986,-9.4975 0,-1.0076 -9.45587,-14.7734 -16.02842,-23.3342 -2.42226,-3.1551 -5.4424,-7.7581 -6.7114,-10.2293 -1.269,-2.4711 -3.62999,-6.0514 -5.24669,-7.9563 l -2.93941,-3.4633 0.84743,-43.392 0.84745,-43.3917 3.14008,-2.961 c 2.6357,-2.4855 3.0242,-3.7103 2.4186,-7.6255 -0.92548,-5.983 -4.50464,-9.88 -8.00426,-8.7147 -4.35962,1.4516 -9.92608,7.1592 -9.92608,10.1777 0,1.5713 1.9415,4.8174 4.3402,7.2565 3.75799,3.8213 4.25516,5.0174 3.70617,8.9168 -0.34873,2.4769 -0.95089,22.0081 -1.3381,43.4026 l -0.70407,38.8992 -4.03483,5.3887 c -2.21916,2.9636 -7.49698,9.1432 -11.72849,13.7325 -4.23151,4.5893 -9.12684,10.3659 -10.87855,12.8371 -1.75168,2.4711 -5.12059,6.5253 -7.48643,9.0094 -2.36584,2.484 -10.08307,11.3489 -17.14942,19.7 -7.06634,8.351 -15.16689,17.8719 -18.00123,21.1577 -4.95731,5.7466 -6.82287,11.8612 -4.14804,13.5956 0.616,0.3994 1.10393,20.6082 1.10989,45.9681 l 0.0112,45.2554 -3.12005,4.3267 c -2.75117,3.8152 -3.0922,5.4306 -2.88449,13.6633 l 0.23555,9.3364 -11.3792,10.5968 c -6.25856,5.8282 -18.5852,17.8762 -27.39254,26.7733 -8.80735,8.8973 -24.20464,24.2641 -34.21625,34.1486 -10.01158,9.8845 -27.85977,27.7922 -39.66263,39.7948 -11.80284,12.0025 -25.30166,25.7222 -29.99737,30.4879 -8.68613,8.8156 -11.64134,10.4429 -11.65725,6.4185 z"
         id="path3405"
         inkscape:connector-curvature="0" />
      <path
         style="fill:#5f6f89;stroke-width:13.2473259;stroke-linecap:round;stroke-miterlimit:4;stroke-dasharray:none"
         d="m 73.202803,-1347.3012 c 0.305479,-1.5886 0.803619,-6.0886 1.106979,-10.0004 1.651417,-21.2941 3.111113,-38.114 5.565745,-64.1334 2.878984,-30.5174 2.908305,-31.9766 0.66074,-32.8814 -2.337883,-0.9412 -11.689501,1.8613 -32.330094,9.6888 -7.645019,2.8992 -16.073589,5.7835 -18.730159,6.4098 -4.394234,1.0359 -4.796193,0.9137 -4.454101,-1.3523 0.295843,-1.9599 4.028901,-3.8084 17.506548,-8.6689 9.421789,-3.3979 23.111884,-8.3614 30.422434,-11.0302 14.978698,-5.4682 16.152878,-5.1642 14.740933,3.8161 -0.444028,2.8242 -1.014988,8.312 -1.268789,12.1951 -0.253812,3.8832 -0.670085,9.6599 -0.92507,12.8371 -0.254984,3.1771 -0.800473,10.6868 -1.212187,16.6882 -0.411716,6.0011 -1.1291,13.5108 -1.594185,16.6881 -0.465086,3.1771 -0.999723,8.3761 -1.188083,11.5532 -0.18836,3.1772 -0.619834,8.9539 -0.958831,12.8371 -0.338996,3.8832 -0.883262,11.1041 -1.209478,16.0463 -0.813585,12.3261 -0.771704,12.1952 -3.902981,12.1952 -2.2368,0 -2.675533,-0.5684 -2.229421,-2.8884 z m 22.531133,-25.674 c -0.04214,-15.7092 -0.400039,-36.072 -0.795346,-45.2505 -0.889623,-20.6557 -0.557217,-49.7764 0.581059,-50.9041 0.977414,-0.9684 16.867211,-7.0701 24.096171,-9.2528 2.69194,-0.8129 5.44507,-1.8366 6.11805,-2.2749 0.67298,-0.4385 4.52734,-1.7675 8.56526,-2.9536 4.0379,-1.1861 11.47132,-3.9342 16.51871,-6.1068 9.29818,-4.0023 16.68614,-6.6097 29.97843,-10.58 8.32598,-2.4869 15.65834,-5.3312 20.2896,-7.8703 1.7375,-0.9528 5.31656,-2.2837 7.95346,-2.9574 5.35932,-1.3696 17.22108,-5.539 39.05541,-13.7279 8.07582,-3.0288 19.36363,-7.0694 25.08399,-8.9788 10.92624,-3.6474 41.63311,-14.821 48.94435,-17.81 2.35545,-0.9629 10.89012,-4.058 18.96594,-6.8779 8.07582,-2.8199 18.40346,-6.5837 22.9503,-8.3643 4.54684,-1.7802 10.4865,-3.6305 13.19924,-4.1113 l 4.93224,-0.8741 -0.65969,38.311 c -0.99953,58.0482 -1.76725,82.6253 -3.24185,103.7799 -0.76733,11.0081 -0.97732,26.7888 -0.49029,36.8441 0.46855,9.6736 0.45594,24.5486 -0.028,33.0554 -0.7412,13.0282 -1.19276,15.4667 -2.86402,15.4665 -1.79008,-10e-5 -1.97755,-4.0484 -1.91734,-41.3994 0.0368,-22.7696 0.72266,-55.2631 1.52431,-72.2081 0.80162,-16.9448 1.59752,-47.5611 1.76862,-68.0361 l 0.31114,-37.2275 -2.67951,-0.4001 c -2.24434,-0.335 -19.62558,5.6983 -51.15928,17.7586 -3.36492,1.2867 -9.6971,3.6005 -14.0715,5.1412 -31.00856,10.9222 -71.23539,25.3599 -89.32344,32.0585 -11.77723,4.3616 -25.81816,9.3732 -31.20203,11.1371 -5.38388,1.7639 -14.46918,4.9556 -20.18955,7.0927 -5.72037,2.1371 -21.96378,8.0475 -36.09646,13.134 -28.50291,10.2586 -30.75543,11.2916 -31.67598,14.5265 -1.571844,5.5233 -0.684463,55.0838 1.03864,58.0088 0.48529,0.8238 0.48191,14.7539 -0.007,30.9559 -0.82829,27.4195 -1.04581,29.4581 -3.143212,29.4581 -2.118897,0 -2.257911,-1.704 -2.329935,-28.5624 z m 299.101374,23.7485 c 0.0146,-2.6476 -0.43713,-20.1221 -1.00406,-38.8321 -0.56694,-18.7099 -1.20733,-42.1054 -1.42313,-51.9899 -0.21579,-9.8845 -0.68187,-28.3698 -1.03573,-41.0784 -1.5074,-54.1353 -1.92992,-91.2409 -1.05437,-92.5934 1.18292,-1.8272 20.79906,-12.0284 23.12984,-12.0284 0.95182,0 5.43355,-1.925 9.95939,-4.2779 4.52586,-2.3526 12.08319,-5.8793 16.79409,-7.837 4.71089,-1.9574 9.94181,-4.2981 11.62428,-5.2016 1.68246,-0.9034 4.98621,-2.0719 7.34165,-2.5966 2.35545,-0.5249 5.36874,-1.7469 6.69622,-2.7157 1.32745,-0.9689 3.31805,-1.7616 4.42351,-1.7616 1.10547,0 3.56146,-1.2802 5.45775,-2.8451 1.8963,-1.565 5.10385,-3.7313 7.12791,-4.8139 7.07844,-3.7867 5.47598,-5.1674 -6.16699,-5.314 -20.13168,-0.2536 -73.07374,-1.5773 -122.15695,-3.0545 -10.09478,-0.3039 -35.14817,-0.9381 -55.6742,-1.4092 -20.52605,-0.4713 -37.77781,-1.1364 -38.33726,-1.478 -0.55944,-0.3417 -10.74599,-0.8252 -22.63676,-1.0745 -11.89077,-0.2493 -34.28393,-0.7856 -49.76259,-1.1918 -15.47865,-0.4061 -38.05423,-0.9725 -50.16796,-1.2585 -12.11372,-0.2858 -37.16712,-0.9626 -55.6742,-1.5041 -18.507084,-0.5415 -39.017827,-0.8297 -45.57943,-0.6407 -11.154682,0.3213 -11.930186,0.1796 -11.930186,-2.1788 0,-2.2647 1.177201,-2.6149 11.518518,-3.4283 6.335184,-0.4984 12.077296,-0.5438 12.76025,-0.1003 0.682953,0.4428 16.285675,1.1168 34.672717,1.4979 45.090141,0.9344 73.179761,1.5908 107.459301,2.5116 15.81515,0.4248 37.56481,0.9784 48.33256,1.2305 10.76776,0.252 22.60618,0.7864 26.30759,1.1877 3.70142,0.4012 34.81167,1.3255 69.1339,2.054 34.32223,0.7287 70.93872,1.6316 81.36999,2.0068 10.43127,0.3751 29.15248,0.9082 41.6027,1.1847 23.76117,0.5275 37.39279,2.4566 38.48639,5.4466 0.35829,0.9795 -0.98253,3.3466 -2.97976,5.2604 -8.2832,7.937 -24.20132,15.9514 -53.86075,27.1175 -22.61857,8.5151 -39.61954,16.5694 -42.68294,20.221 -2.78508,3.3199 -2.8781,4.024 -2.07737,15.7218 0.93542,13.6652 1.37853,31.4666 3.16043,126.9672 0.67669,36.2671 1.58257,69.916 2.01308,74.7757 0.77401,8.7372 0.7495,8.8354 -2.20572,8.8354 -2.64232,0 -2.98536,-0.5575 -2.96171,-4.8138 z m 20.27316,2.5674 c -0.006,-1.9782 24.7031,-28.3 53.34166,-56.8186 5.3257,-5.3034 16.01525,-15.9443 23.75458,-23.6463 7.73932,-7.702 20.40368,-20.4072 28.143,-28.2335 7.73933,-7.8263 20.4859,-20.183 28.32574,-27.4592 7.83982,-7.2763 14.57744,-14.494 14.9725,-16.0395 0.39504,-1.5455 0.74447,-5.6982 0.7765,-9.2285 0.0322,-3.5301 1.07931,-8.6836 2.32731,-11.4519 1.73622,-3.8514 1.99283,-5.8649 1.09262,-8.574 -0.78636,-2.3666 -0.74106,-4.3942 0.1366,-6.1146 1.83095,-3.5892 1.57146,-9.3369 -0.55464,-12.2855 -1.57278,-2.1813 -1.56804,-2.8376 0.039,-5.4106 2.36587,-3.7881 2.3133,-6.8564 -0.18145,-10.5932 -1.86462,-2.7929 -1.86462,-3.2696 0,-6.5812 2.38734,-4.2399 2.56131,-8.0599 0.52307,-11.484 -1.17154,-1.9681 -1.1589,-3.4508 0.0596,-6.9859 1.30236,-3.7784 1.24799,-5.0937 -0.34407,-8.3235 -1.47563,-2.9937 -1.60166,-4.627 -0.57399,-7.4384 0.72424,-1.9812 0.98569,-5.8045 0.58101,-8.496 -1.29709,-8.6273 1.24442,-14.8014 9.59691,-23.3139 10.20599,-10.4017 36.00151,-40.9503 40.83239,-48.3561 2.13828,-3.2781 7.14466,-9.0548 11.1253,-12.837 11.67638,-11.0948 12.60844,-13.5258 13.10778,-34.1888 0.23418,-9.6898 0.69499,-27.5436 1.02406,-39.6753 0.59828,-22.0576 0.59825,-22.0577 -2.55486,-26.9324 -1.73425,-2.681 -3.41974,-6.9596 -3.74557,-9.5083 -1.08596,-8.494 9.51116,-17.4604 18.50451,-15.6566 8.70121,1.7449 12.1634,15.2503 6.42116,25.0476 l -2.81818,4.8083 0.57614,40.1213 0.57616,40.1214 3.46082,6.4424 c 1.90348,3.5433 5.82036,9.3637 8.70418,12.9342 2.88382,3.5706 7.99642,10.6744 11.36134,15.7863 3.36493,5.1118 8.3392,12.2888 11.05393,15.9489 2.71475,3.6601 6.24089,8.9653 7.83586,11.7896 1.59499,2.8241 4.96191,7.4454 7.48205,10.2695 2.52014,2.8243 6.6433,8.6008 9.16258,12.837 2.51927,4.2363 6.34818,10.0129 8.5087,12.8371 5.52845,7.2266 8.30687,13.3105 7.23429,15.8412 -1.40287,3.31 -1.58864,23.6684 -0.24044,26.3493 0.81104,1.6127 0.74018,4.1366 -0.21674,7.7224 -1.03737,3.8869 -1.06261,6.317 -0.0933,8.9914 0.97403,2.6878 0.94467,4.7776 -0.11011,7.8378 -1.01732,2.9514 -1.08297,5.6413 -0.22429,9.1903 0.81525,3.3697 0.80214,5.986 -0.04,7.9658 -0.87439,2.0559 -0.82849,4.6167 0.15163,8.4614 1.04754,4.109 1.05379,6.4907 0.0246,9.3514 -1.19458,3.3203 -1.00113,4.3979 1.43335,7.9848 1.62026,2.3871 3.03527,6.6837 3.3351,10.1268 0.88369,10.1473 1.35358,11.1388 7.3777,15.567 9.0229,6.6325 12.57705,10.5193 12.57705,13.7542 0,2.6435 -1.32105,1.9117 -12.23609,-6.7782 l -12.23609,-9.7416 0,-7.9678 c -8e-5,-8.2156 -1.30516,-11.0485 -5.08998,-11.0485 -1.58176,0 -2.10011,-0.937 -1.95307,-3.5302 0.11011,-1.9415 -0.20609,-4.769 -0.70261,-6.2833 -0.60036,-1.8308 -0.25446,-3.4332 1.03271,-4.7836 1.38522,-1.4532 1.60557,-2.6778 0.77505,-4.3072 -0.68947,-1.3528 -0.98715,-19.3426 -0.73346,-44.3275 l 0.42696,-42.0508 -2.80289,-2.8787 c -1.54157,-1.5835 -5.47675,-7.2116 -8.74485,-12.5067 -3.26807,-5.2954 -8.64035,-12.805 -11.93837,-16.6882 -3.29802,-3.8832 -6.61227,-8.5046 -7.36498,-10.2696 -0.75273,-1.7652 -3.77103,-6.0674 -6.70736,-9.5608 -2.93631,-3.4932 -6.37589,-8.4034 -7.64353,-10.9114 -1.2676,-2.5081 -5.34638,-8.6037 -9.06392,-13.5459 -3.71755,-4.9423 -9.84275,-13.8255 -13.61154,-19.7404 l -6.85234,-10.7543 0.054,-18.4499 c 0.0297,-10.1474 0.0783,-29.1419 0.10789,-42.2101 l 0.0541,-23.7601 3.50508,-3.8479 c 3.10417,-3.4077 3.40332,-4.4314 2.6156,-8.9506 -0.4892,-2.8067 -1.58326,-5.9802 -2.43128,-7.0521 -2.38837,-3.019 -7.66279,-2.3184 -11.90251,1.5812 -5.89412,5.4213 -6.10669,8.3006 -1.04662,14.1766 l 4.32032,5.0169 -0.68669,26.1865 c -0.37768,14.4026 -0.78053,33.9848 -0.89522,43.5164 -0.17426,14.4827 -0.56122,17.7517 -2.35523,19.8973 -1.18069,1.4121 -6.33057,7.1889 -11.44416,12.8371 -5.11358,5.6484 -10.84202,12.4492 -12.72985,15.1131 -3.48043,4.9111 -14.12945,17.3667 -35.82619,41.9039 -6.58843,7.4511 -12.29302,14.8602 -12.67688,16.4647 -0.40568,1.6957 0.15749,4.2869 1.34492,6.1883 1.69312,2.7108 1.80579,4.0245 0.65816,7.6727 -0.76161,2.421 -0.9965,5.685 -0.522,7.2534 1.34747,4.4541 1.63255,40.9205 0.36182,46.285 -0.77653,3.2783 -0.69923,5.6705 0.24294,7.5176 1.01375,1.9872 1.02541,4.1943 0.0439,8.2843 -0.99279,4.1364 -0.97005,6.423 0.0881,8.8595 1.25138,2.8814 0.97542,3.9518 -2.25057,8.73 -3.40799,5.0477 -3.63598,6.0788 -3.11789,14.099 l 0.55899,8.6532 -7.76674,7.3931 c -7.54234,7.1795 -15.60492,15.0416 -43.0206,41.9503 -7.251,7.1169 -20.05455,19.872 -28.45232,28.3443 -8.39779,8.4724 -23.58139,23.7805 -33.74136,34.0181 -10.15997,10.2376 -23.06931,23.3795 -28.68742,29.2044 -10.40404,10.7867 -12.78303,12.3376 -12.79881,8.3439 z"
         id="path3403"
         inkscape:connector-curvature="0" />
      <path
         style="fill:#566172;stroke-width:13.2473259;stroke-linecap:round;stroke-miterlimit:4;stroke-dasharray:none"
         d="m 73.202803,-1347.3012 c 0.305479,-1.5886 0.803619,-6.0886 1.106979,-10.0004 1.651417,-21.2941 3.111113,-38.114 5.565745,-64.1334 2.878984,-30.5174 2.908305,-31.9766 0.66074,-32.8814 -2.337883,-0.9412 -11.689501,1.8613 -32.330094,9.6888 -7.645019,2.8992 -16.073589,5.7835 -18.730159,6.4098 -4.469147,1.0535 -4.802024,0.9407 -4.454101,-1.5082 0.223734,-1.5747 1.461186,-2.818 3.055424,-3.0695 4.07765,-0.6432 26.508742,-8.2972 27.991682,-9.5513 1.698511,-1.4364 30.272644,-11.4847 30.87167,-10.8562 0.251923,0.2643 -0.117331,6.7375 -0.820578,14.3849 -0.703237,7.6473 -1.603956,18.5257 -2.001586,24.1739 -0.39763,5.6482 -1.763938,21.823 -3.036242,35.9438 -1.272304,14.1206 -2.435478,29.862 -2.58483,34.9807 -0.255249,8.7482 -0.438991,9.3069 -3.060805,9.3069 -2.241388,0 -2.680162,-0.5672 -2.233845,-2.8884 z m 23.022616,0.6419 c 1.230665,-4.3545 0.131904,-82.005 -1.239726,-87.6127 -0.431728,-1.7651 -0.657121,-5.8088 -0.500856,-8.986 0.156254,-3.1771 0.368412,-10.3711 0.47145,-15.9867 l 0.187352,-10.2098 4.873301,-1.0646 c 2.68031,-0.5852 5.40591,-1.6231 6.05686,-2.3059 0.65096,-0.683 2.03704,-1.2454 3.08017,-1.2496 1.04312,0 3.47374,-0.871 5.40138,-1.9256 1.92764,-1.0547 4.32224,-1.9176 5.32132,-1.9176 0.99909,0 3.55161,-0.7857 5.67228,-1.7459 2.12065,-0.9602 7.15949,-2.7453 11.19739,-3.9667 4.03792,-1.2215 10.83613,-3.9275 15.10715,-6.0131 4.27102,-2.0859 9.50194,-4.1372 11.62428,-4.5583 2.12234,-0.4212 4.94709,-1.3525 6.27722,-2.0695 2.30942,-1.245 4.95609,-2.0539 15.93571,-4.8713 4.96856,-1.2748 11.46662,-3.965 15.9069,-6.5852 1.34599,-0.7943 4.37442,-1.8778 6.72986,-2.4078 5.54564,-1.2476 20.25718,-6.4768 37.93186,-13.4828 16.96534,-6.7249 36.08143,-13.3498 38.52038,-13.3498 0.97664,0 3.85921,-0.9465 6.40574,-2.1035 8.06846,-3.6655 9.27024,-4.158 21.76058,-8.9169 6.72985,-2.5642 14.71389,-5.4054 17.74232,-6.3141 3.02843,-0.9087 10.46186,-3.5103 16.51872,-5.7816 21.90196,-8.2126 31.72313,-11.5756 32.75384,-11.2152 2.04872,0.7165 0.61796,122.2494 -1.5374,130.5912 -1.02078,3.9508 -1.45512,17.4532 -1.38335,43.004 0.13947,49.6442 -0.0181,53.2934 -2.30189,53.2921 -1.59489,-8e-4 -1.82666,-5.426 -1.76866,-41.4002 0.0367,-22.7696 0.72266,-55.2631 1.52431,-72.2081 0.80163,-16.9448 1.59753,-47.5611 1.76865,-68.0361 l 0.31111,-37.2275 -2.6795,-0.4001 c -2.24435,-0.335 -19.62559,5.6983 -51.15929,17.7586 -3.36491,1.2867 -9.69709,3.6005 -14.0715,5.1412 -31.00856,10.9222 -71.23538,25.3599 -89.32344,32.0585 -11.77723,4.3616 -25.81815,9.3732 -31.20203,11.1371 -5.38388,1.7639 -14.46917,4.9556 -20.18955,7.0927 -5.72037,2.1371 -21.96377,8.0475 -36.09645,13.134 -28.50292,10.2586 -30.75544,11.2916 -31.67599,14.5265 -1.571833,5.5233 -0.684463,55.0838 1.03865,58.0088 0.48529,0.8238 0.4819,14.7539 -0.007,30.9559 -0.84378,27.9315 -1.01237,29.4581 -3.253234,29.4581 -1.676925,0 -2.178944,-0.6525 -1.728449,-2.2465 z m 298.666441,-18.613 c -0.0345,-20.0392 -1.10187,-47.7299 -2.4122,-62.5812 -0.34261,-3.8831 -0.0872,-10.4545 0.56757,-14.6028 0.82239,-5.2103 0.78249,-8.3422 -0.12901,-10.129 -0.81769,-1.6029 -1.49163,-16.0653 -1.77212,-38.029 -0.24893,-19.4932 -0.64334,-45.2628 -0.87647,-57.2653 -0.23313,-12.0027 -0.19353,-22.9783 0.088,-24.3904 0.52518,-2.6343 17.33744,-12.1951 21.44461,-12.1951 1.1156,0 5.75926,-1.9592 10.31929,-4.3535 14.48909,-7.6081 33.92076,-16.1859 36.66662,-16.1859 1.72638,0 17.97133,-7.7664 18.73328,-8.9561 0.33648,-0.5254 2.53898,-1.9829 4.89442,-3.2391 4.24867,-2.2656 6.06328,-4.1201 6.09932,-6.2334 0.0104,-0.6042 -10.03016,-1.0946 -22.31212,-1.0896 -12.28197,0.012 -31.96678,-0.2945 -43.74402,-0.6658 -11.77723,-0.3712 -33.25157,-0.9434 -47.72076,-1.2718 -34.4053,-0.7804 -84.64678,-2.3788 -130.31433,-4.1455 -20.18954,-0.7811 -47.17013,-1.6737 -59.95683,-1.9837 -78.46444,-1.9023 -114.136854,-2.582 -135.515246,-2.582 -21.681906,0 -24.166781,-0.2185 -24.166274,-2.1267 4.69e-4,-1.7649 1.959855,-2.2808 11.519081,-3.0325 6.335185,-0.4984 12.077298,-0.5438 12.760251,-0.1003 0.682954,0.4428 16.285676,1.1168 34.672718,1.4979 45.09013,0.9344 73.17976,1.5908 107.45932,2.5116 15.81513,0.4248 37.56479,0.9784 48.33254,1.2305 10.76776,0.252 22.60618,0.7864 26.3076,1.1877 3.70141,0.4012 34.81166,1.3255 69.13389,2.054 34.32223,0.7287 70.93873,1.6316 81.36998,2.0068 10.43127,0.3751 29.15249,0.9082 41.6027,1.1847 23.76118,0.5275 37.39279,2.4566 38.4864,5.4466 0.35829,0.9795 -0.98254,3.3466 -2.97976,5.2604 -8.28319,7.937 -24.20132,15.9514 -53.86076,27.1175 -22.61856,8.5151 -39.61953,16.5694 -42.68294,20.221 -2.78507,3.3199 -2.8781,4.024 -2.07737,15.7218 0.93543,13.6652 1.37853,31.4666 3.16044,126.9672 0.67669,36.2671 1.58258,69.916 2.01308,74.7757 0.77007,8.6925 0.73535,8.8354 -2.1461,8.8361 l -2.92883,8e-4 -0.0361,-20.8609 z m 20.21661,18.613 c -0.006,-1.9782 24.7031,-28.3 53.34166,-56.8186 5.3257,-5.3034 16.01525,-15.9443 23.75458,-23.6463 7.73932,-7.702 20.40368,-20.4072 28.143,-28.2335 7.73933,-7.8263 20.4859,-20.183 28.32574,-27.4592 7.83982,-7.2763 14.57744,-14.494 14.9725,-16.0395 0.39504,-1.5455 0.74447,-5.6982 0.7765,-9.2285 0.0322,-3.5301 1.07931,-8.6836 2.32731,-11.4519 1.73622,-3.8514 1.99283,-5.8649 1.09262,-8.574 -0.78636,-2.3666 -0.74106,-4.3942 0.1366,-6.1146 1.83095,-3.5892 1.57146,-9.3369 -0.55464,-12.2855 -1.57278,-2.1813 -1.56804,-2.8376 0.039,-5.4106 2.36587,-3.7881 2.3133,-6.8564 -0.18145,-10.5932 -1.86462,-2.7929 -1.86462,-3.2696 0,-6.5812 2.38734,-4.2399 2.56131,-8.0599 0.52307,-11.484 -1.17154,-1.9681 -1.1589,-3.4508 0.0596,-6.9859 1.30236,-3.7784 1.24799,-5.0937 -0.34407,-8.3235 -1.47563,-2.9937 -1.60166,-4.627 -0.57399,-7.4384 0.72424,-1.9812 0.98569,-5.8045 0.58101,-8.496 -1.29709,-8.6273 1.24442,-14.8014 9.59691,-23.3139 10.20599,-10.4017 36.00151,-40.9503 40.83239,-48.3561 2.13828,-3.2781 7.14466,-9.0548 11.1253,-12.837 11.67638,-11.0948 12.60844,-13.5258 13.10778,-34.1888 0.23418,-9.6898 0.69499,-27.5436 1.02406,-39.6753 0.59828,-22.0576 0.59825,-22.0577 -2.55486,-26.9324 -1.73425,-2.681 -3.41974,-6.9596 -3.74557,-9.5083 -1.08596,-8.494 9.51116,-17.4604 18.50451,-15.6566 8.70121,1.7449 12.1634,15.2503 6.42116,25.0476 l -2.81818,4.8083 0.57614,40.1213 0.57616,40.1214 3.46082,6.4424 c 1.90348,3.5433 5.82036,9.3637 8.70418,12.9342 2.88382,3.5706 7.99642,10.6744 11.36134,15.7863 3.36493,5.1118 8.3392,12.2888 11.05393,15.9489 2.71475,3.6601 6.24089,8.9653 7.83586,11.7896 1.59499,2.8241 4.96191,7.4454 7.48205,10.2695 2.52014,2.8243 6.6433,8.6008 9.16258,12.837 2.51927,4.2363 6.34818,10.0129 8.5087,12.8371 5.52845,7.2266 8.30687,13.3105 7.23429,15.8412 -1.40287,3.31 -1.58864,23.6684 -0.24044,26.3493 0.81104,1.6127 0.74018,4.1366 -0.21674,7.7224 -1.03737,3.8869 -1.06261,6.317 -0.0933,8.9914 0.97403,2.6878 0.94467,4.7776 -0.11011,7.8378 -1.01732,2.9514 -1.08297,5.6413 -0.22429,9.1903 0.81525,3.3697 0.80214,5.986 -0.04,7.9658 -0.87439,2.0559 -0.82849,4.6167 0.15163,8.4614 1.04754,4.109 1.05379,6.4907 0.0246,9.3514 -1.19458,3.3203 -1.00113,4.3979 1.43335,7.9848 1.62026,2.3871 3.03527,6.6837 3.3351,10.1268 0.88369,10.1473 1.35358,11.1388 7.3777,15.567 9.16289,6.7354 12.57705,10.5131 12.57705,13.916 0,2.9839 -0.28995,2.8679 -6.42395,-2.5746 -3.53316,-3.1347 -9.08328,-7.5969 -12.3336,-9.9157 l -5.90963,-4.2162 0.78558,-5.9925 c 0.96402,-7.3535 -0.77139,-12.6577 -4.32575,-13.2214 -2.17339,-0.3448 -2.72464,-1.4466 -3.1002,-6.1961 -0.25122,-3.1771 0.16571,-7.0566 0.92652,-8.6212 1.01863,-2.0947 1.02336,-3.2995 0.018,-4.5704 -0.93868,-1.1867 -1.17779,-8.3207 -0.76515,-22.8295 0.33011,-11.6069 0.67436,-30.5869 0.76502,-42.1775 l 0.16479,-21.0739 -3.25493,-2.7226 c -1.79032,-1.4977 -3.25505,-3.148 -3.25505,-3.6673 0,-1.9122 -12.20552,-20.2062 -16.90352,-25.3356 -2.66678,-2.9115 -5.87367,-7.4108 -7.12639,-9.9979 -1.25271,-2.5874 -4.60557,-7.2415 -7.45076,-10.3425 -2.8452,-3.1011 -5.53954,-6.8558 -5.98742,-8.3441 -0.44785,-1.4881 -2.66261,-5.0759 -4.92166,-7.9729 -2.25906,-2.8969 -4.10738,-5.8547 -4.10738,-6.5731 0,-0.7185 -2.20355,-3.5473 -4.8968,-6.2864 -2.69323,-2.739 -5.76186,-6.7131 -6.81916,-8.8312 -3.81746,-7.6475 -5.11988,-9.775 -7.85181,-12.826 l -2.77764,-3.1017 0.89773,-43.3843 c 0.54044,-26.1169 1.39434,-44.0228 2.14548,-44.9889 0.68625,-0.8824 2.00624,-1.6045 2.9333,-1.6045 2.57582,0 2.09263,-8.9117 -0.74822,-13.7999 -3.09113,-5.3188 -6.59397,-5.4013 -13.28951,-0.3128 -6.5061,4.9444 -6.83132,9.4546 -1.15003,15.949 3.84084,4.3905 3.92033,4.726 3.58245,15.1266 -0.7939,24.438 -1.18661,43.7252 -1.21514,59.6793 -0.028,15.7061 -0.21529,17.0712 -2.551,18.6015 -1.38639,0.9084 -2.5207,2.3462 -2.5207,3.1953 0,0.8491 -4.1504,5.7647 -9.22309,10.9236 -5.07273,5.1589 -10.71663,11.8338 -12.542,14.8333 -1.82539,2.9993 -3.65025,5.4544 -4.05525,5.4558 -0.60561,0 -23.39742,26.4378 -39.94863,46.3359 -3.88725,4.6732 -5.22079,10.4748 -2.77258,12.0621 0.66227,0.4295 1.11161,4.3628 0.99852,8.7408 -0.11306,4.3779 -0.15265,18.358 -0.0878,31.0666 0.27972,54.9011 0.50672,50.8479 -3.12735,55.8412 -2.96477,4.0735 -3.23054,5.3451 -2.84686,13.6206 l 0.42319,9.1277 -10.21206,9.3732 c -9.97704,9.1575 -35.57253,34.5098 -67.36351,66.7235 -8.70965,8.8255 -16.26518,16.2108 -16.79009,16.412 -0.52489,0.2011 -9.32408,8.9788 -19.55372,19.506 -10.22964,10.5272 -19.12986,19.6052 -19.77828,20.1736 -0.6484,0.5683 -4.73455,4.9325 -9.08035,9.6982 -8.13106,8.9168 -10.40115,10.3156 -10.41655,6.4185 z"
         id="path3401"
         inkscape:connector-curvature="0" />
      <path
         style="fill:#20509d;stroke-width:13.2473259;stroke-linecap:round;stroke-miterlimit:4;stroke-dasharray:none"
         d="m 73.202803,-1347.3012 c 0.305479,-1.5886 0.803619,-6.0886 1.106979,-10.0004 1.651417,-21.2941 3.111113,-38.114 5.565745,-64.1334 2.878984,-30.5174 2.908305,-31.9766 0.66074,-32.8814 -2.337883,-0.9412 -11.689501,1.8613 -32.330094,9.6888 -7.645019,2.8992 -16.073589,5.7835 -18.730159,6.4098 -4.521587,1.0658 -4.806107,0.9617 -4.454101,-1.6298 0.238368,-1.7549 1.121575,-2.6396 2.412569,-2.4164 1.1201,0.1935 11.857268,-3.3416 23.860373,-7.8559 28.002923,-10.5315 34.691235,-12.8009 35.433146,-12.0226 0.331586,0.3479 0.04152,6.6167 -0.644603,13.9305 -0.686121,7.3141 -1.568551,17.6307 -1.960965,22.926 -0.392409,5.2951 -1.80706,21.4698 -3.14367,35.9437 -1.336608,14.4736 -2.397977,28.0488 -2.358594,30.1669 0.03938,2.1182 -0.252486,6.3062 -0.648599,9.3069 -0.55674,4.2174 -1.242683,5.4557 -3.02219,5.4557 -1.736073,0 -2.165447,-0.71 -1.746577,-2.8884 z m 23.077182,0.7386 c 0.848935,-2.321 0.96147,-55.5218 0.135246,-63.939 -1.069346,-10.894 -1.684409,-47.8057 -0.887216,-53.2443 0.735643,-5.0186 1.292351,-5.8355 4.510065,-6.6175 2.01895,-0.4906 6.69926,-2.1522 10.40067,-3.6924 3.70143,-1.5401 8.38173,-3.2772 10.40068,-3.8602 2.01895,-0.5831 5.3227,-1.6763 7.34165,-2.4296 30.34117,-11.3189 57.01385,-20.679 58.92767,-20.679 1.472,0 4.00927,-1.0659 15.79288,-6.6347 2.73618,-1.2931 6.34277,-2.3512 8.01464,-2.3512 1.67189,0 3.56289,-0.5379 4.20222,-1.1956 1.04532,-1.0753 22.9433,-9.3982 35.42348,-13.4637 2.69194,-0.8769 5.72037,-1.9603 6.72984,-2.4076 5.02218,-2.2253 13.34607,-5.0676 17.53484,-5.9873 2.57783,-0.566 5.30341,-1.6757 6.05687,-2.4663 0.75346,-0.7904 2.53193,-1.4372 3.95221,-1.4372 1.42025,0 6.12808,-1.4874 10.46186,-3.3052 4.33375,-1.8179 12.00923,-4.698 17.05661,-6.4002 5.04739,-1.7025 10.27832,-3.6226 11.6243,-4.2671 1.34596,-0.6447 6.30159,-2.4322 11.01247,-3.9723 4.7109,-1.5402 14.89744,-5.3219 22.63676,-8.4038 7.73933,-3.0818 16.13863,-5.9885 18.66511,-6.4593 l 4.59358,-0.8561 -0.62743,41.5434 c -0.34509,22.8486 -1.29877,55.9848 -2.11929,73.6357 -0.82054,17.651 -1.4432,49.856 -1.38368,71.5665 0.0973,35.4834 -0.091,39.4738 -1.86248,39.4736 -1.77249,-10e-5 -1.96397,-4.1641 -1.90394,-41.3994 0.0367,-22.7696 0.72266,-55.2631 1.52431,-72.2081 0.80163,-16.9448 1.59753,-47.5611 1.76865,-68.0361 l 0.31111,-37.2275 -2.6795,-0.4001 c -2.24435,-0.335 -19.62559,5.6983 -51.15929,17.7586 -3.36491,1.2867 -9.69709,3.6005 -14.0715,5.1412 -31.00856,10.9222 -71.23538,25.3599 -89.32344,32.0585 -11.77723,4.3616 -25.81815,9.3732 -31.20203,11.1371 -5.38388,1.7639 -14.46917,4.9556 -20.18955,7.0927 -5.72037,2.1371 -21.96377,8.0475 -36.09645,13.134 -28.50292,10.2586 -30.75544,11.2915 -31.67599,14.5265 -1.571833,5.5231 -0.684463,55.0838 1.03864,58.0088 0.4853,0.8238 0.48191,14.7539 -0.007,30.9559 -0.85015,28.1423 -0.99762,29.4581 -3.301697,29.4581 -1.752955,0 -2.196973,-0.5874 -1.625421,-2.1498 z m 300.034605,-5.8733 c -0.40353,-4.4128 -1.02516,-21.3095 -1.38136,-37.5483 -0.35621,-16.2388 -0.9588,-33.5689 -1.33907,-38.5111 -0.38028,-4.9423 -0.0908,-11.7534 0.64338,-15.1358 0.9057,-4.1729 0.93859,-6.9267 0.10223,-8.566 -1.1973,-2.3472 -1.61966,-14.064 -3.12964,-86.8229 l -0.72193,-34.7862 7.11425,-3.5547 c 3.91282,-1.955 8.57574,-4.3533 10.36205,-5.3295 1.78629,-0.9761 4.02338,-1.7747 4.97134,-1.7747 0.94792,0 4.54799,-1.4296 8.00012,-3.1767 5.40311,-2.7346 13.44696,-6.1358 33.33687,-14.0956 24.94846,-9.9843 38.97923,-18.8215 34.49713,-21.7277 -0.54316,-0.3521 -14.99703,-0.9645 -32.11973,-1.3609 -17.12276,-0.3964 -41.31881,-1.0008 -53.76902,-1.3431 -12.45022,-0.3425 -33.64924,-0.9156 -47.10894,-1.2739 -92.22367,-2.4538 -119.7859,-3.2928 -127.86713,-3.8929 -5.04738,-0.3746 -24.04392,-0.9714 -42.21449,-1.326 -43.67516,-0.8521 -73.36899,-1.5926 -108.289388,-2.7002 -29.631992,-0.9398 -46.735856,-0.825 -50.473864,0.3388 -1.53081,0.4768 -2.141316,-0.056 -2.141316,-1.8674 0,-2.2794 1.157828,-2.6252 11.518518,-3.44 6.335184,-0.4984 12.077297,-0.5438 12.76025,-0.1003 0.682953,0.4428 16.285675,1.1168 34.672717,1.4979 45.090143,0.9344 73.179763,1.5908 107.459303,2.5116 15.81515,0.4248 37.56481,0.9784 48.33256,1.2305 10.76776,0.252 22.60617,0.7864 26.30759,1.1877 3.70142,0.4012 34.81167,1.3255 69.1339,2.054 34.32223,0.7287 70.93872,1.6316 81.36999,2.0068 10.43127,0.3751 29.15248,0.9082 41.6027,1.1847 23.76117,0.5275 37.39278,2.4566 38.48639,5.4466 0.35829,0.9795 -0.98253,3.3466 -2.97976,5.2604 -8.2832,7.937 -24.20132,15.9514 -53.86076,27.1175 -22.61856,8.5151 -39.61953,16.5694 -42.68293,20.221 -2.78508,3.3199 -2.8781,4.024 -2.07737,15.7218 0.93542,13.6652 1.37852,31.4666 3.16043,126.9672 0.67668,36.2671 1.58257,69.916 2.01308,74.7757 0.65787,7.4261 0.48467,8.8354 -1.08584,8.8354 -1.39812,0 -2.05332,-2.02 -2.60231,-8.0231 z m 18.79388,5.7766 c -0.006,-1.9782 24.7031,-28.3 53.34166,-56.8186 5.3257,-5.3034 16.01525,-15.9443 23.75458,-23.6463 7.73932,-7.702 20.40368,-20.4072 28.143,-28.2335 7.73933,-7.8263 20.4859,-20.183 28.32574,-27.4592 7.83982,-7.2763 14.57744,-14.494 14.9725,-16.0395 0.39504,-1.5455 0.74447,-5.6982 0.7765,-9.2285 0.0322,-3.5301 1.07931,-8.6836 2.32731,-11.4519 1.73622,-3.8514 1.99283,-5.8649 1.09262,-8.574 -0.78636,-2.3666 -0.74106,-4.3942 0.1366,-6.1146 1.83095,-3.5892 1.57146,-9.3369 -0.55464,-12.2855 -1.57278,-2.1813 -1.56804,-2.8376 0.039,-5.4106 2.36587,-3.7881 2.3133,-6.8564 -0.18145,-10.5932 -1.86462,-2.7929 -1.86462,-3.2696 0,-6.5812 2.38734,-4.2399 2.56131,-8.0599 0.52307,-11.484 -1.17154,-1.9681 -1.1589,-3.4508 0.0596,-6.9859 1.30236,-3.7784 1.24799,-5.0937 -0.34407,-8.3235 -1.47563,-2.9937 -1.60166,-4.627 -0.57399,-7.4384 0.72424,-1.9812 0.98569,-5.8045 0.58101,-8.496 -1.29709,-8.6273 1.24442,-14.8014 9.59691,-23.3139 10.20599,-10.4017 36.00151,-40.9503 40.83239,-48.3561 2.13828,-3.2781 7.14466,-9.0548 11.1253,-12.837 11.67638,-11.0948 12.60844,-13.5258 13.10778,-34.1888 0.23418,-9.6898 0.69499,-27.5436 1.02406,-39.6753 0.59828,-22.0576 0.59825,-22.0577 -2.55486,-26.9324 -1.73425,-2.681 -3.41974,-6.9596 -3.74557,-9.5083 -1.08596,-8.494 9.51116,-17.4604 18.50451,-15.6566 8.70121,1.7449 12.1634,15.2503 6.42116,25.0476 l -2.81818,4.8083 0.57614,40.1213 0.57616,40.1214 3.46082,6.4424 c 1.90348,3.5433 5.82036,9.3637 8.70418,12.9342 2.88382,3.5706 7.99642,10.6744 11.36134,15.7863 3.36493,5.1118 8.3392,12.2888 11.05393,15.9489 2.71475,3.6601 6.24089,8.9653 7.83586,11.7896 1.59499,2.8241 4.96191,7.4454 7.48205,10.2695 2.52014,2.8243 6.6433,8.6008 9.16258,12.837 2.51927,4.2363 6.34818,10.0129 8.5087,12.8371 5.52845,7.2266 8.30687,13.3105 7.23429,15.8412 -1.40287,3.31 -1.58864,23.6684 -0.24044,26.3493 0.81104,1.6127 0.74018,4.1366 -0.21674,7.7224 -1.03737,3.8869 -1.06261,6.317 -0.0933,8.9914 0.97403,2.6878 0.94467,4.7776 -0.11011,7.8378 -1.01732,2.9514 -1.08297,5.6413 -0.22429,9.1903 0.81525,3.3697 0.80214,5.986 -0.04,7.9658 -0.87439,2.0559 -0.82849,4.6167 0.15163,8.4614 1.04754,4.109 1.05379,6.4907 0.0246,9.3514 -1.19458,3.3203 -1.00113,4.3979 1.43335,7.9848 1.62026,2.3871 3.03527,6.6837 3.3351,10.1268 0.88369,10.1473 1.35358,11.1388 7.3777,15.567 9.15296,6.7281 12.57705,10.5141 12.57705,13.9064 0,3.0157 -0.14723,2.9646 -4.58853,-1.5899 -2.52369,-2.588 -7.45505,-6.7116 -10.95858,-9.1635 -7.91309,-5.5377 -8.18052,-6.0037 -7.84681,-13.6767 0.35589,-8.1826 -0.64391,-11.1485 -4.24197,-12.5837 -2.4707,-0.9855 -2.95442,-2.0536 -2.95442,-6.5244 0,-3.5943 0.69632,-5.8801 2.12507,-6.9761 1.96838,-1.51 1.97793,-1.8044 0.12964,-3.9927 -1.5855,-1.8771 -1.99066,-5.2023 -1.97212,-16.1856 0.0129,-7.6028 0.50661,-14.1365 1.09727,-14.5196 0.59146,-0.3835 0.61423,-1.6706 0.0508,-2.865 -1.26477,-2.68 -1.09747,-45.2191 0.18635,-47.3813 0.99582,-1.6772 -2.22244,-9.3445 -3.92226,-9.3445 -0.56038,0 -3.71234,-4.4613 -7.00432,-9.9138 -3.29197,-5.4526 -8.87763,-13.3931 -12.41256,-17.6454 -3.53495,-4.2524 -7.21243,-9.467 -8.17221,-11.5883 -0.95978,-2.1211 -4.26208,-6.7322 -7.33844,-10.2472 -3.07636,-3.5147 -5.5934,-7.0497 -5.5934,-7.8554 0,-0.8056 -2.20249,-4.367 -4.89443,-7.914 -2.69194,-3.5469 -4.89444,-6.8452 -4.89444,-7.3294 0,-0.4841 -2.67337,-4.1564 -5.94083,-8.1602 -3.26747,-4.004 -6.97589,-9.3018 -8.24092,-11.773 -1.26504,-2.4712 -3.40961,-5.9372 -4.76573,-7.7022 -2.39037,-3.1113 -2.44699,-4.5177 -1.85387,-46.0582 0.60938,-42.6787 0.62276,-42.8567 3.36493,-44.7653 5.72779,-3.9866 1.93897,-19.5749 -4.75778,-19.5749 -1.34138,0 -3.64156,0.6499 -5.11152,1.4441 -8.98246,4.8534 -10.76197,12.1675 -4.49339,18.4682 l 3.68557,3.7043 -0.63089,26.3819 c -0.34699,14.5099 -0.6546,33.6026 -0.6836,42.4281 -0.0501,15.2797 -0.21073,16.29 -3.36058,21.1467 -1.81932,2.8053 -6.66609,8.611 -10.77065,12.9015 -4.10452,4.2906 -9.23028,10.3609 -11.39057,13.4894 -2.16027,3.1287 -8.28838,10.6094 -13.61799,16.6238 -39.83058,44.9479 -39.57821,44.5805 -34.58193,50.3724 1.95948,2.2716 1.95483,2.657 -0.0799,6.6208 -2.06296,4.0189 -2.0633,4.4232 -0.008,8.9456 1.84128,4.051 1.93207,5.3773 0.62717,9.1632 -1.09639,3.181 -1.16325,5.1373 -0.23754,6.952 1.61753,3.1709 1.65743,8.5576 0.0861,11.6377 -0.80451,1.5771 -0.75177,3.7116 0.15948,6.454 1.01396,3.0514 0.99244,5.3899 -0.0843,9.1602 -1.12967,3.9557 -1.11079,6.035 0.0862,9.5081 1.23702,3.589 1.22537,5.3353 -0.0604,9.0657 -1.15881,3.362 -1.22576,5.0054 -0.24581,6.0334 2.20471,2.3129 1.55639,5.4045 -2.16314,10.3147 -3.29422,4.3488 -3.47214,5.1871 -2.89553,13.6419 l 0.61438,9.0084 -7.14038,6.7529 c -17.92881,16.956 -49.80412,48.1971 -71.49757,70.0748 -20.81307,20.9899 -49.98672,50.4697 -61.48635,62.1317 -5.21562,5.2892 -9.48297,10.2756 -9.48297,11.0807 0,0.8051 -0.82593,1.4638 -1.83542,1.4638 -1.00947,0 -1.83941,-1.011 -1.84428,-2.2465 z"
         id="path3399"
         inkscape:connector-curvature="0" />
      <path
         style="fill:#003ea5;fill-opacity:1;stroke:#090f1d;stroke-width:13.28225327;stroke-linecap:round;stroke-miterlimit:4;stroke-dasharray:none;stroke-opacity:1"
         d="m 77.001288,-1351.4732 c 0.388528,-4.2361 0.91279,-7.9429 1.165026,-8.237 0.890464,-1.0385 0.200496,9.5644 -0.828384,12.73 -0.675716,2.079 -0.794273,0.4968 -0.336642,-4.493 z m 19.706823,-6.0963 c 0.537403,-20.7469 1.085507,-22.3728 1.298735,-3.8523 0.107698,9.355 -0.217152,17.0095 -0.72189,17.0102 -0.504738,8e-4 -0.764321,-5.9203 -0.576845,-13.1579 z m 278.030149,11.873 c 0,-0.7059 0.55062,-1.2837 1.22361,-1.2837 0.67299,0 1.22361,0.5778 1.22361,1.2837 0,0.706 -0.55062,1.2837 -1.22361,1.2837 -0.67299,0 -1.22361,-0.5777 -1.22361,-1.2837 z m 42.21451,0 c 0.41593,-0.7059 0.99904,-1.2837 1.29582,-1.2837 0.29678,0 0.53959,0.5778 0.53959,1.2837 0,0.706 -0.58312,1.2837 -1.29582,1.2837 -0.71271,0 -0.95553,-0.5777 -0.53959,-1.2837 z m -20.74573,-7.1187 c -0.46805,-3.2745 -0.57569,-6.2424 -0.2392,-6.5954 0.33649,-0.3531 0.99476,2.0373 1.4628,5.3118 0.46805,3.2744 0.5757,6.2422 0.23921,6.5953 -0.3365,0.3531 -0.99476,-2.0373 -1.46281,-5.3117 z m 37.87625,-11.4641 c 34.77507,-36.11 69.98268,-71.464 68.50102,-68.7858 -1.03179,1.865 -12.37493,13.5398 -47.05137,48.4268 -10.4112,10.4744 -21.42369,21.6441 -24.47218,24.8216 -3.0485,3.1777 -21.67316,31.3112 -23.69211,33.0375 -2.01896,1.7265 17.96584,-28.4154 26.71464,-37.5001 z m -58.54377,-3.561 c -0.38907,-4.4129 -0.25324,-11.7781 0.30184,-16.3673 0.9203,-7.6083 1.02405,-6.9008 1.17671,8.0231 0.0921,9.0021 -0.0439,16.3673 -0.30184,16.3673 -0.25809,0 -0.7876,-3.6104 -1.17671,-8.0231 z m -296.547925,-3.5303 c 0,-3.8832 0.229386,-5.4716 0.509743,-3.5301 0.280359,1.9415 0.280359,5.1187 0,7.0604 -0.280357,1.9415 -0.509743,0.353 -0.509743,-3.5303 z m 1.223608,-15.4044 c 0,-3.8832 0.229387,-5.4717 0.509743,-3.5302 0.280361,1.9415 0.280361,5.1188 0,7.0604 -0.280356,1.9415 -0.509743,0.353 -0.509743,-3.5302 z m 16.536461,-9.284 c -0.45202,-15.2434 0.718568,-19.3133 1.871376,-6.5063 1.098564,12.2042 0.993491,18.0828 -0.338644,18.9466 -0.669473,0.434 -1.303582,-4.7126 -1.532732,-12.4403 z m 297.727826,2.2878 c -0.0938,-4.377 0.289,-7.1174 0.89634,-6.4184 0.58291,0.6706 0.65648,4.1078 0.16349,7.638 l -0.89634,6.4186 z m -19.52265,-14.8267 c 0.014,-8.1196 0.42553,-16.2068 0.91462,-17.9719 0.48909,-1.7651 0.66764,4.3004 0.39675,13.479 -0.62668,21.2344 -1.34437,23.6933 -1.31137,4.4929 z m -293.534731,7.0604 c 0.0091,-3.5303 0.246819,-4.8221 0.528071,-2.8707 0.281252,1.9513 0.273735,4.8396 -0.0167,6.4185 -0.290439,1.5788 -0.520554,-0.017 -0.51137,-3.5478 z m 312.538641,-19.522 c -0.40735,-9.738 -0.32123,-19.7274 0.1914,-22.1985 0.64772,-3.1221 1.20223,1.9349 1.81761,16.5759 0.4977,11.8414 0.41389,21.5633 -0.19141,22.1982 -0.62019,0.6508 -1.39107,-6.3793 -1.8176,-16.5756 z m -311.331733,4.7594 c 0,-3.1772 0.238624,-4.477 0.530273,-2.8885 0.291651,1.5888 0.291651,4.1881 0,5.7768 -0.291649,1.5886 -0.530273,0.2887 -0.530273,-2.8883 z m 13.37267,-3.9784 c -0.135432,-4.6592 -0.497981,-13.0354 -0.805662,-18.6137 l -0.559418,-10.1424 1.208287,8.9859 c 0.664552,4.9423 1.0271,13.3184 0.805662,18.6137 l -0.402623,9.6278 z m -12.173754,-8.2168 c 0.01358,-2.8241 0.264158,-3.8283 0.556837,-2.2315 0.292683,1.5968 0.281567,3.9076 -0.02469,5.1348 -0.306262,1.2273 -0.545726,-0.079 -0.53215,-2.9033 z m 423.152707,-9.1258 c 1.63151,-1.8421 12.59833,-12.6732 24.37068,-24.0694 38.07602,-36.8594 34.73161,-32.962 35.59738,-41.4825 l 4.8967,-16.2506 -3.95683,16.2961 0.17989,7.5249 -6.97689,6.5959 c -10.97934,10.3797 -38.06776,36.7749 -47.39162,46.1788 -8.48043,8.5532 -12.31549,11.525 -6.71931,5.2068 z m -421.871002,-6.9205 c 0,-3.8832 0.229389,-5.4717 0.509741,-3.5302 0.280363,1.9415 -9.027281,154.2326 -9.30764,156.1743 -0.280357,1.9415 8.797899,-148.7609 8.797899,-152.6441 z m 291.560992,-1.9256 c -0.69997,-5.0262 -0.52911,-13.7905 0.49175,-25.2264 0.86042,-9.6381 1.23867,-19.4586 0.84055,-21.823 -0.3981,-2.3642 -0.25064,-6.3205 0.32772,-8.7916 1.28476,-5.4895 1.38702,17.0794 0.20358,44.9296 -0.73602,17.321 -0.86544,18.0787 -1.8636,10.9114 z m -349.056721,3.9356 c 0.839188,0.3379 4.766266,-0.5554 8.726842,-1.9848 3.960577,-1.4295 7.416831,-2.3729 7.680563,-2.0962 0.681609,0.7151 -14.351632,5.9221 -17.097765,5.9221 0,0 -0.97397,-1.9409 0.69036,-1.8411 z m 19.197184,-5.7606 c 2.29941,-1.3847 37.736252,-14.2212 39.259134,-14.2212 1.522279,0 1.42933,8.6337 -0.103692,9.6277 -0.693979,0.4499 -1.223607,-0.6285 -1.223607,-2.4916 0,-2.778 -0.554258,-3.2849 -3.590879,-3.2849 -1.974985,0 -10.575673,2.5993 -19.112637,5.7765 -15.315495,5.7 -18.822933,6.7578 -15.228355,4.5935 z m 48.451361,-11.0119 c 0.868522,-10.5175 1.031315,-10.9116 4.508297,-10.9116 l 2.647259,0 -2.71948,1.9984 c -2.042784,1.5011 -2.740873,3.3378 -2.805475,7.3813 -0.04733,2.9606 3.536225,167.7129 2.907402,169.1248 -0.762193,1.7116 -5.032683,-161.6025 -4.538003,-167.5929 z m 298.574826,6.3194 c -0.4073,-1.1137 -1.0112,-15.4108 -1.34197,-31.7717 -0.52218,-25.8284 -0.37752,-29.3304 1.09806,-26.5853 1.2953,2.4097 1.73503,9.9655 1.84907,31.7717 0.0823,15.7354 -0.0786,28.6098 -0.3575,28.6098 -0.27893,0 -0.84036,-0.911 -1.24766,-2.0245 z m 360.21973,-12.916 c -2.35545,-2.4576 -7.1678,-6.4827 -10.6941,-8.9446 -7.69612,-5.3731 -8.59827,-7.1128 -7.5839,-14.6259 l 0.77992,-5.7767 0.18378,6.713 0.18377,6.7127 9.48296,7.8445 c 5.21564,4.3145 10.24245,8.2905 11.17071,8.8355 0.92824,0.5451 65.59816,54.2313 65.34292,54.979 -0.25528,0.7477 -66.51062,-53.2798 -68.86606,-55.7375 z m -648.5127,-6.2405 c 1.68247,-1.0091 3.88496,-1.8324 4.89444,-1.8297 1.00949,0 -0.0173,0.8486 -2.28179,1.8799 -5.21056,2.3733 -6.60889,2.3464 -2.61265,-0.051 z m 11.01249,-4.493 c 1.00947,-0.6843 2.93667,-1.2126 4.28263,-1.1737 2.44721,0.071 2.44721,0.071 0,1.1737 -1.34596,0.6069 -3.27316,1.1351 -4.28263,1.1739 -1.63148,0.062 -1.63148,-0.067 0,-1.1739 z m 9.78887,-3.2093 c 1.68246,-1.0089 4.16027,-1.811 5.50624,-1.7823 1.60242,0.034 0.96881,0.6494 -1.83542,1.7823 -5.66157,2.2874 -7.48478,2.2874 -3.67082,0 z m 9.78886,-3.2092 c 1.00948,-0.6843 2.66135,-1.2126 3.67084,-1.1738 1.21021,0.046 1.00181,0.4464 -0.6118,1.1738 -3.36381,1.5166 -5.29575,1.5166 -3.05904,0 z m 15.90692,-5.5471 c 0,-1.0898 13.64875,-6.1543 15.15762,-5.6243 0.7486,0.263 -1.66733,1.524 -5.36874,2.8025 -3.70143,1.2783 -7.41813,2.5907 -8.25937,2.9165 -0.84123,0.3258 -1.52951,0.2831 -1.52951,-0.095 z m 17.13052,-6.523 c 0,-0.7404 16.57518,-5.9222 18.54408,-5.7974 0.90502,0.058 -2.48421,1.4907 -7.5316,3.185 -9.3364,3.134 -11.01248,3.5316 -11.01248,2.6124 z m 565.30729,-3.1521 c 0,-0.8412 -1.37657,-2.0786 -3.05901,-2.7497 -2.58708,-1.0318 -3.05904,-2.045 -3.05904,-6.5661 0,-3.5943 0.69632,-5.8801 2.12507,-6.9761 1.96837,-1.51 1.97793,-1.8046 0.12964,-3.9927 -1.5855,-1.8771 -1.99066,-5.2023 -1.97212,-16.1856 0.0129,-7.6028 0.50662,-14.1365 1.09728,-14.5196 0.59069,-0.383 0.46392,-1.8922 -0.2817,-3.3539 -0.89661,-1.7575 -1.04841,-5.9693 -0.44833,-12.4381 0.49905,-5.3793 1.17947,-8.9143 1.51205,-7.8552 0.33256,1.0591 1.37265,2.8536 2.31128,3.988 1.46511,1.7706 1.44251,2.2924 -0.15966,3.6874 -2.24242,1.9524 -2.48839,10.4141 -0.36741,12.6393 1.18276,1.2407 1.18276,2.1034 0,4.0903 -1.89241,3.179 -1.92335,9.1568 -0.0694,13.4255 1.21063,2.7874 1.08658,3.5541 -0.81053,5.0095 -2.14847,1.6482 -2.15364,1.995 -0.12674,8.4962 1.49429,4.793 1.73168,7.1782 0.81054,8.1447 -2.20298,2.3112 -1.46541,8.85 1.35332,11.9978 1.4608,1.6314 2.28674,3.3534 1.83541,3.8269 -0.45129,0.4733 -0.82054,0.1725 -0.82054,-0.6686 z m -542.05872,-4.6752 c 1.68247,-1.009 3.88496,-1.8323 4.89444,-1.8298 1.00947,0 -0.0173,0.8487 -2.2818,1.88 -5.21055,2.3734 -6.60888,2.3465 -2.61264,-0.051 z m 8.03963,-3.3556 c 0.78537,-1.333 8.83993,-4.0065 10.41339,-3.4562 0.71563,0.2503 -1.46054,1.3441 -4.83599,2.4308 -3.37544,1.0866 -5.88527,1.5482 -5.5774,1.0254 z m 15.74872,-5.5595 c 1.30635,-1.0979 3.23352,-1.9508 4.28262,-1.895 1.64772,0.088 1.65753,0.1985 0.072,0.8153 -1.00948,0.3927 -2.93666,1.2454 -4.28262,1.8951 -2.40807,1.1621 -2.40921,1.149 -0.072,-0.8154 z m 9.8609,-3.9168 c 4.12982,-2.0418 8.80106,-2.7045 5.50624,-0.7812 -1.00949,0.5894 -3.48728,1.4146 -5.50624,1.8338 l -3.67083,0.7625 z m 165.67265,-5.1399 c -0.70984,-10.8259 -0.56077,-35.3594 0.20137,-33.1392 1.4527,4.2319 2.41876,30.4972 1.2661,34.423 l -1.13078,3.8509 z M 569.8,-1518.961 c 2.31152,-3.7833 2.50021,-7.9194 0.45895,-10.0609 -1.15804,-1.2149 -1.00008,-2.406 0.72553,-5.4706 2.45393,-4.3582 1.90963,-9.2538 -1.4656,-13.1822 -1.89586,-2.2065 -1.8795,-2.4776 0.2483,-4.11 2.86744,-2.1997 2.93787,-7.6103 0.14124,-10.8523 -2.08659,-2.4189 -1.81466,-6.4238 0.43621,-6.4238 2.51108,0 2.70853,-6.6878 0.32267,-10.9301 -2.08271,-3.7033 -2.17578,-4.5793 -0.70314,-6.6177 2.27674,-3.1516 2.20884,-8.0632 -0.14925,-10.7968 -1.75189,-2.0308 -1.74007,-2.6046 0.1318,-6.4022 1.76971,-3.5904 1.83978,-4.8593 0.50291,-9.109 -0.8543,-2.7157 -1.1889,-5.3199 -0.7436,-5.787 0.44532,-0.4672 0.80965,0.2123 0.80965,1.5098 0,1.2976 0.93628,3.4447 2.08063,4.7714 1.95946,2.2716 1.9548,2.657 -0.0799,6.6208 -2.06295,4.0189 -2.06329,4.4232 -0.008,8.9456 1.84129,4.051 1.93208,5.3773 0.62717,9.1632 -1.0964,3.181 -1.16324,5.1373 -0.23754,6.952 1.61752,3.1709 1.65741,8.5576 0.0861,11.6377 -0.80449,1.5771 -0.75176,3.7116 0.15948,6.454 1.01398,3.0514 0.99244,5.3899 -0.0843,9.1602 -1.12965,3.9557 -1.11078,6.035 0.0863,9.5081 1.23703,3.589 1.22539,5.3353 -0.0604,9.0657 -1.15882,3.362 -1.22575,5.0054 -0.24581,6.0334 2.19469,2.3026 1.55308,5.6561 -1.81613,9.4929 -2.77131,3.1558 -2.92281,3.2087 -1.22362,0.4278 z m -324.76427,-3.8864 c 3.02842,-1.3333 6.60749,-2.4374 7.95345,-2.4537 1.34597,-0.016 -0.58121,1.0876 -4.28263,2.4537 -8.58252,3.1672 -10.86565,3.1672 -3.67082,0 z m 11.51846,-3.5302 c 1.21287,-1.2778 12.36856,-5.3536 18.25246,-6.6688 2.57783,-0.576 5.30341,-1.694 6.05687,-2.4846 0.75346,-0.7904 2.57929,-1.4372 4.05744,-1.4372 1.47812,0 6.73659,-1.731 11.68545,-3.8467 9.97671,-4.2652 14.39185,-5.2023 6.25653,-1.3281 -5.0989,2.4282 -44.75271,16.7281 -46.38726,16.7281 -0.45944,0 -0.42411,-0.4332 0.0787,-0.9627 z m 122.31528,-0.9139 c -0.37754,-1.032 -0.15509,-5.5091 0.4943,-9.9487 l 1.18069,-8.072 0.15594,9.9486 c 0.15058,9.609 -0.39268,12.0042 -1.83093,8.0721 z m -70.20609,-17.8692 c 0,-0.382 2.34016,-1.3463 5.20035,-2.143 2.86018,-0.7969 6.8522,-2.1955 8.87115,-3.1085 6.53796,-2.956 20.36583,-7.3382 21.01307,-6.6592 0.34627,0.3633 -1.21158,1.239 -3.4619,1.9461 -2.2503,0.7071 -8.49646,2.9834 -13.88034,5.0585 -10.43478,4.0218 -17.74233,6.0424 -17.74233,4.9061 z m 70.22861,-11.7049 0.12891,-10.2696 -4.29598,0.1192 c -2.36277,0.065 -9.72884,2.2545 -16.36901,4.864 -6.64014,2.6096 -12.28359,4.5239 -12.54098,4.2538 -0.72224,-0.7577 25.27694,-10.8877 30.45284,-11.8653 l 4.58853,-0.8667 -4.28148,276.7903 c -0.0796,4.4913 3.58612,-258.7252 3.09011,-256.6071 -0.59568,2.5437 -0.85808,0.3647 -0.77294,-6.4186 z m 11.89795,-8.512 -0.14477,-8.5119 7.03576,-3.513 c 3.86966,-1.9323 8.49726,-4.3117 10.28357,-5.2879 1.78629,-0.9761 4.02339,-1.7747 4.97133,-1.7747 0.94792,0 4.54801,-1.4296 8.00012,-3.1769 5.40312,-2.7344 13.44698,-6.1356 33.33689,-14.0954 19.66344,-7.8694 34.96674,-16.4551 35.88325,-20.132 0.64597,-2.5914 3.33815,-2.8249 4.12214,-0.3575 0.46053,1.4495 -519.041584,203.5924 -525.610905,206.1584 -2.495985,0.9749 487.653905,-184.6893 477.445525,-180.754 -10.20836,3.9352 -20.67021,8.2772 -23.24856,9.6486 -2.57835,1.3715 -9.09292,4.3098 -14.47679,6.5299 -13.42651,5.536 -12.16342,286.5462 -12.33732,291.5222 0,0 -3.66765,-273.713 -4.1814,-271.5949 -0.72665,2.9959 -0.9662,1.9612 -1.07884,-4.6609 z m 338.10852,-19.6951 c -1.06957,-5.9812 -0.32112,-6.6634 2.26724,-2.0663 1.78013,3.1616 1.8233,3.8754 0.31388,5.1896 -1.44785,1.2606 -1.8937,0.7211 -2.58112,-3.1233 z m 0.0601,-10.304 c 0.43119,-2.1181 0.86647,-4.8299 0.96732,-6.0264 0.13662,-1.6212 0.58417,-1.8264 1.75656,-0.8056 2.17904,1.8973 -4.18108,23.1815 -3.91964,18.328 l 0.4118,-7.6448 z m -3.22065,-13.7998 c -1.02708,-0.8825 -4.9928,-6.5146 -8.81272,-12.5161 -3.81994,-6.0013 -9.63995,-14.2807 -12.93341,-18.3984 -3.29345,-4.1179 -6.2733,-8.7393 -6.62191,-10.2697 -0.58068,-2.5493 -0.51353,-2.5866 0.80136,-0.4433 0.78933,1.2867 5.70251,8.1187 10.91814,15.1822 5.21564,7.0635 9.48297,13.3006 9.48297,13.8602 0,0.5596 2.24933,3.9812 4.99853,7.6035 5.03725,6.6372 5.60036,7.9318 2.16704,4.9816 z M 572.17658,-1624.26 c 1.1123,-1.7651 6.56223,-8.1976 12.11094,-14.2944 15.92281,-17.4955 28.19575,-31.9145 34.27057,-40.2629 5.58247,-7.6719 22.92694,-26.3872 22.92694,-24.7392 0,0.4765 -3.81152,4.8809 -8.47005,9.7876 -4.65853,4.9068 -10.19622,11.4335 -12.30595,14.5038 -2.10976,3.0704 -7.79649,9.8591 -12.63721,15.0858 -4.84071,5.2268 -9.62723,10.7726 -10.63671,12.3241 -1.00948,1.5514 -7.56063,9.1171 -14.55816,16.8126 -6.9975,7.6956 -11.81267,12.5477 -10.70037,10.7826 z m -129.56192,-1.3413 c -0.44147,-0.7493 3.70645,-1.167 10.66829,-1.0742 17.30476,0.2308 20.49712,1.7382 4.31391,2.037 -8.03475,0.1484 -14.57521,-0.2719 -14.9822,-0.9628 z m -46.4632,-1.267 c -4.66324,-1.1929 18.04478,-1.2897 23.24856,-0.099 2.14951,0.4919 -1.14669,0.8812 -7.95347,0.9392 -6.39334,0.054 -13.27615,-0.3235 -15.29509,-0.8399 z m -53.22699,-1.2428 c -4.27082,-0.6966 -2.89815,-0.9126 6.11805,-0.963 7.46944,-0.041 10.5309,0.3027 8.56525,0.963 -3.62369,1.2175 -7.21873,1.2175 -14.6833,0 z m 19.90693,0.3942 c 1.19053,-0.3256 2.84241,-0.3042 3.67082,0.047 0.82843,0.3516 -0.14564,0.618 -2.1646,0.5918 -2.01895,-0.026 -2.69676,-0.314 -1.50622,-0.6394 z m -52.61517,-1.2837 c 1.19052,-0.3256 2.84239,-0.3041 3.67082,0.047 0.82842,0.3517 -0.14565,0.6181 -2.16461,0.5918 -2.01895,-0.026 -2.69675,-0.3138 -1.50621,-0.6393 z m -65.79227,-1.6779 -17.13053,-0.7526 16.51873,-0.1377 c 9.08529,-0.076 17.89527,0.3251 19.57773,0.8903 2.25335,0.7571 2.41448,0.9916 0.61181,0.8903 -1.34597,-0.076 -10.15596,-0.4763 -19.57774,-0.8903 z m 45.62044,0.3359 c 3.55574,-0.2602 9.06198,-0.2574 12.23609,0.011 3.17412,0.2635 0.26489,0.4762 -6.46497,0.473 -6.72984,0 -9.32684,-0.219 -5.77112,-0.4791 z m -108.33039,-2.5631 c 3.19668,-0.2645 8.4276,-0.2645 11.62428,0 3.19669,0.2644 0.58121,0.4808 -5.81215,0.4808 -6.39336,0 -9.0088,-0.2164 -5.81213,-0.4808 z m 24.49546,0.054 c 1.19053,-0.3255 2.84239,-0.3042 3.67082,0.047 0.82843,0.3516 -0.14565,0.6179 -2.16461,0.5916 -2.01894,-0.026 -2.69675,-0.3137 -1.50621,-0.6392 z m -77.11064,-1.3378 c 3.19666,-0.2644 8.42761,-0.2644 11.62428,0 3.19668,0.2645 0.58122,0.4808 -5.81215,0.4808 -6.39335,0 -9.00881,-0.2163 -5.81213,-0.4808 z m 23.24856,0.059 c 1.17773,-0.3228 3.10491,-0.3228 4.28264,0 1.17772,0.323 0.21412,0.5873 -2.14133,0.5873 -2.35544,0 -3.31903,-0.2643 -2.14131,-0.5873 z m -181.338709,-6.074 c 0,-1.1142 74.419236,1.2289 75.389647,2.2469 0.3504,0.3678 -1.753526,0.9765 -4.67539,1.3531 -11.334781,1.4609 -70.714257,-2.6651 -70.714257,-3.6 z m 115.851525,4.3714 c 8.230808,-0.5221 16.765474,-0.5432 18.965934,-0.047 2.20048,0.4963 -4.53383,0.9233 -14.965095,0.9492 l -18.965932,0.047 z m -37.272667,-0.869 c 1.190531,-0.3254 2.842402,-0.3039 3.670826,0.047 0.828422,0.3515 -0.145649,0.6177 -2.164604,0.5917 -2.018953,-0.026 446.138459,10.6503 447.328999,10.3248 z m 640.593371,-22.5378 c -3.70473,-4.7964 -6.50951,-9.9488 -5.4157,-9.9488 0.20741,0 2.94266,3.466 6.07838,7.7023 6.43394,8.6921 5.84862,10.6762 -0.66268,2.2465 z m -10.80868,-16.4264 c -2.15662,-2.8568 -3.65624,-5.4719 -3.33246,-5.8117 0.52851,-0.5544 5.19797,5.2886 7.51279,9.401 1.90463,3.3837 -0.4284,1.3805 -4.18033,-3.5893 z m -10.02356,-14.3825 c -5.53717,-6.9583 -9.50948,-13.0524 -9.50948,-14.5892 0,-0.8345 1.23642,0.7936 11.56744,15.2311 5.8178,8.1303 4.62716,7.7589 -2.05796,-0.6419 z m -26.42744,-18.2928 c 1.90418,-4.9687 3.45826,-6.8787 3.45826,-4.25 0,1.122 -1.11017,3.4038 -2.46706,5.0707 l -2.46703,3.0305 z m 13.95148,-0.5345 c -1.92767,-2.2346 -2.10901,-6.2384 -1.97884,-43.6899 0.0789,-22.6763 0.63095,-42.5752 1.22696,-44.22 0.59602,-1.6446 4.92176,-8.7846 6.03763,-9.2339 1.72782,-0.6956 -1.26191,5.2309 -3.36054,8.7933 -2.3595,4.0054 -2.44623,5.9111 -2.03939,44.8095 0.27938,26.7113 0.89448,41.5467 1.79584,43.3138 1.70827,3.3485 1.08375,3.433 -1.68166,0.2272 z m -11.30544,-2.0649 c 0,-5.2953 0.21596,-22.1921 0.47997,-19.5444 0.26399,2.6476 1.72655,-67.4477 1.46255,-64.8001 -0.26399,2.6476 -1.94252,89.6396 -1.94252,84.3445 z m 1.22361,-45.5394 c 0,-5.2954 0.21597,-7.4615 0.47998,-4.814 0.26397,2.6478 0.26397,6.9802 0,9.6278 -0.26401,2.6478 -0.47998,0.4815 -0.47998,-4.8138 z m -0.31479,-17.4371 c 0.0588,-1.4954 0.34866,-1.7994 0.73926,-0.7755 0.35346,0.9268 0.31,2.0339 -0.0965,2.4605 -0.4066,0.4265 -0.6958,-0.3317 -0.64268,-1.685 z m -1.32424,-21.3716 c -3.74367,-5.9083 -6.80838,-15.2044 -3.53795,-11.8993 1.84585,1.8653 6.07602,12.5654 5.82527,13.3547 -0.25077,0.7892 -1.28005,0.1343 -2.28732,-1.4554 z m 16.00755,-13.2883 c 0.0587,-1.4954 0.34866,-1.7996 0.73926,-0.7755 0.35347,0.9266 0.31,2.0339 -0.0965,2.4605 -0.4066,0.4265 -0.69579,-0.3318 -0.64267,-1.685 z m -16.30116,-7.9162 c 1.58472,-1.5885 3.5389,-2.8707 4.34259,-2.8492 11.95857,10.7654 0.36004,0.6801 -0.98593,1.4634 -1.34597,0.7834 -3.30014,2.0656 -4.34261,2.8493 -1.04245,0.7837 -0.59878,0.1251 0.98595,-1.4635 z"
         id="path3397"
         inkscape:connector-curvature="0"
         sodipodi:nodetypes="sccsssssssssssssssscscssssscssssssssssssssssssccsccscssssssssscssssssscsscsssssssscccssssssssssssscscccsscsssssscsssssssssscsscccsscccccccscccsccscccccsccssssccsscsccsccscccccccssscscccccccccccscccccccssscscssscsssscsscscscssccsccssccccscccsscsscccscscscscscssccscscccssccsscssscscscssssssscsscscssccsssccsssscssscsssscccccsccsccccccccccsccccscccccsssscccccssssssssscssscscscccccssssccscssssssccsssccsscsssssssssccccccscccccccccscc" />
      <g
         transform="matrix(0.8742547,0,0,0.92687231,239.8999,-3029.2624)"
         id="layer1-4"
         inkscape:label="Layer 1"
         style="stroke:#00123d;stroke-opacity:1">
        <path
           sodipodi:nodetypes="cssscccccccsscccscsscccsscccccccccsssscccccccccss"
           inkscape:connector-curvature="0"
           id="path3445-8-7"
           d="m 157.78306,1343.561 c -5.55425,-12.1548 -13.9751,-32.4122 -18.71309,-45.017 -12.13762,-32.2902 -14.55566,-35.0183 -17.12729,-19.3244 -1.15144,7.0273 -2.172,28.6628 -2.2676,48.0787 l -0.17383,35.3026 -33.964181,-0.9254 -33.964077,-0.9259 0,-140.7815 0,-140.7809 33.836007,-0.9248 33.836221,-0.9242 5.13999,10.7462 c 2.82723,5.9109 12.31915,29.1625 21.09372,51.6711 l 15.95367,40.9245 0.92234,-52.3833 0.92231,-52.3837 32.96487,-0.9349 c 24.34082,-0.6904 33.60909,0.1683 35.42737,3.2742 2.81942,4.819 3.50955,274.3536 0.72252,282.2297 -1.50813,4.2619 -7.37941,5.1788 -33.1714,5.1788 l -31.33898,0 -10.09848,-22.0998 z m -495.86037,10.0531 c -0.79673,-2.2513 -1.09379,-65.9714 -0.66016,-141.5999 l 0.78853,-137.506 33.96424,-0.9258 33.96399,-0.9255 0,113.059 0,113.0599 49.81413,0 49.81407,0 0,29.4659 0,29.466 -83.11824,0 c -63.72026,0 -83.45622,-0.9553 -84.56656,-4.0936 z m 196.48194,2.8074 c -0.79659,-2.2513 -1.09362,-65.9714 -0.65996,-141.5999 l 0.78847,-137.506 33.96411,-0.9258 33.964126,-0.9255 0,113.059 0,113.0599 49.814008,0 49.814167,0 0,29.4659 0,29.466 -83.118236,0 c -63.720285,0 -83.456205,-0.9553 -84.566685,-4.0936 z"
           style="fill:#ffffff;fill-opacity:1;stroke:#00123d;stroke-width:13.79316044;stroke-miterlimit:9.5;stroke-dasharray:none;stroke-opacity:1"
           inkscape:transform-center-x="-807.2236"
           inkscape:transform-center-y="-1451.1592" />
      </g>
      <g
         transform="matrix(1.0237886,0,0,1.0854059,-390.45093,-3234.2335)"
         id="layer1-7"
         inkscape:label="Layer 1"
         style="fill:#ff7f2a">
        <path
           sodipodi:nodetypes="cccccscss"
           inkscape:connector-curvature="0"
           id="path3445-1-8"
           d="M 910.00196,1246.4399 C 777.85308,1047.223 1087.9862,892.42168 1157.487,1098.6638 c 15.8813,49.7308 19.0752,98.139 -22.2972,149.6505 l -121.0244,156.8939 z m 139.81144,-66.2609 c 17.7231,-12.7925 20.376,-54.6455 4.6498,-73.3499 -24.5083,-29.1511 -82.12395,-4.9568 -82.12395,34.4864 0,41.4302 43.61005,63.307 77.47415,38.8635 z"
           style="fill:#ff7f2a;fill-opacity:1;stroke:#00034b;stroke-width:11.22998142;stroke-miterlimit:9.5;stroke-dasharray:none;stroke-opacity:1" />
      </g>
    </g>
  </g>
</svg>
