<?xml version="1.0" encoding="UTF-8" standalone="no"?>
<!-- Created with Inkscape (http://www.inkscape.org/) -->

<svg
   xmlns:dc="http://purl.org/dc/elements/1.1/"
   xmlns:cc="http://creativecommons.org/ns#"
   xmlns:rdf="http://www.w3.org/1999/02/22-rdf-syntax-ns#"
   xmlns:svg="http://www.w3.org/2000/svg"
   xmlns="http://www.w3.org/2000/svg"
   xmlns:sodipodi="http://sodipodi.sourceforge.net/DTD/sodipodi-0.dtd"
   xmlns:inkscape="http://www.inkscape.org/namespaces/inkscape"
   width="1024"
   height="1024"
   viewBox="0 0 1024 1024"
   id="svg2"
   version="1.1"
   inkscape:version="0.91 r13725"
   inkscape:export-filename="/home/zen/Developpement/Ionic/llnmaps-v2/resources/iconIOS.png"
   inkscape:export-xdpi="90"
   inkscape:export-ydpi="90"
   sodipodi:docname="iconv2-ios.svg">
  <defs
     id="defs4">
    <filter
       id="filter3337"
       style="color-interpolation-filters:sRGB"
       x="-0.25"
       y="-0.25"
       width="1.5"
       height="1.5"
       inkscape:menu-tooltip="Strongly raised border around a flat surface"
       inkscape:menu="Bevels"
       inkscape:label="Raised Border">
      <feGaussianBlur
         id="feGaussianBlur3339"
         result="result1"
         stdDeviation="4" />
      <feComposite
         id="feComposite3341"
         operator="in"
         result="result4"
         in2="result1"
         in="result1" />
      <feGaussianBlur
         id="feGaussianBlur3343"
         in="result4"
         result="result6"
         stdDeviation="2" />
      <feComposite
         id="feComposite3345"
         result="result8"
         in2="result4"
         in="result6"
         operator="xor" />
      <feComposite
         id="feComposite3347"
         in2="result8"
         in="result4"
         result="fbSourceGraphic"
         operator="atop" />
      <feSpecularLighting
         id="feSpecularLighting3349"
         in="fbSourceGraphic"
         result="result1"
         lighting-color="#ffffff"
         surfaceScale="3"
         specularConstant="1.29999995"
         specularExponent="10">
        <feDistantLight
           id="feDistantLight3351"
           elevation="55"
           azimuth="235" />
      </feSpecularLighting>
      <feComposite
         id="feComposite3353"
         in2="fbSourceGraphic"
         in="result1"
         result="result2"
         operator="atop" />
      <feComposite
         id="feComposite3355"
         in2="result2"
         in="fbSourceGraphic"
         result="result4"
         operator="arithmetic"
         k2="1"
         k3="1"
         k1="0"
         k4="0" />
      <feComposite
         id="feComposite3357"
         in2="SourceGraphic"
         in="result4"
         operator="over" />
      <feBlend
         id="feBlend3359"
         in2="result2"
         mode="multiply" />
    </filter>
    <filter
       id="filter3337-6"
       style="color-interpolation-filters:sRGB"
       x="-0.25"
       y="-0.25"
       width="1.5"
       height="1.5"
       inkscape:menu-tooltip="Strongly raised border around a flat surface"
       inkscape:menu="Bevels"
       inkscape:label="Raised Border">
      <feGaussianBlur
         id="feGaussianBlur3339-3"
         result="result1"
         stdDeviation="4" />
      <feComposite
         id="feComposite3341-0"
         operator="in"
         result="result4"
         in2="result1"
         in="result1" />
      <feGaussianBlur
         id="feGaussianBlur3343-2"
         in="result4"
         result="result6"
         stdDeviation="2" />
      <feComposite
         id="feComposite3345-2"
         result="result8"
         in2="result4"
         in="result6"
         operator="xor" />
      <feComposite
         id="feComposite3347-8"
         in2="result8"
         in="result4"
         result="fbSourceGraphic"
         operator="atop" />
      <feSpecularLighting
         id="feSpecularLighting3349-5"
         in="fbSourceGraphic"
         result="result1"
         lighting-color="#ffffff"
         surfaceScale="3"
         specularConstant="1.29999995"
         specularExponent="10">
        <feDistantLight
           id="feDistantLight3351-2"
           elevation="55"
           azimuth="235" />
      </feSpecularLighting>
      <feComposite
         id="feComposite3353-4"
         in2="fbSourceGraphic"
         in="result1"
         result="result2"
         operator="atop" />
      <feComposite
         id="feComposite3355-4"
         in2="result2"
         in="fbSourceGraphic"
         result="result4"
         operator="arithmetic"
         k2="1"
         k3="1"
         k1="0"
         k4="0" />
      <feComposite
         id="feComposite3357-6"
         in2="SourceGraphic"
         in="result4"
         operator="over" />
      <feBlend
         id="feBlend3359-8"
         in2="result2"
         mode="multiply" />
    </filter>
    <filter
       id="filter3337-2"
       style="color-interpolation-filters:sRGB"
       x="-0.25"
       y="-0.25"
       width="1.5"
       height="1.5"
       inkscape:menu-tooltip="Strongly raised border around a flat surface"
       inkscape:menu="Bevels"
       inkscape:label="Raised Border">
      <feGaussianBlur
         id="feGaussianBlur3339-4"
         result="result1"
         stdDeviation="4" />
      <feComposite
         id="feComposite3341-4"
         operator="in"
         result="result4"
         in2="result1"
         in="result1" />
      <feGaussianBlur
         id="feGaussianBlur3343-8"
         in="result4"
         result="result6"
         stdDeviation="2" />
      <feComposite
         id="feComposite3345-21"
         result="result8"
         in2="result4"
         in="result6"
         operator="xor" />
      <feComposite
         id="feComposite3347-3"
         in2="result8"
         in="result4"
         result="fbSourceGraphic"
         operator="atop" />
      <feSpecularLighting
         id="feSpecularLighting3349-2"
         in="fbSourceGraphic"
         result="result1"
         lighting-color="#ffffff"
         surfaceScale="3"
         specularConstant="1.29999995"
         specularExponent="10">
        <feDistantLight
           id="feDistantLight3351-1"
           elevation="55"
           azimuth="235" />
      </feSpecularLighting>
      <feComposite
         id="feComposite3353-2"
         in2="fbSourceGraphic"
         in="result1"
         result="result2"
         operator="atop" />
      <feComposite
         id="feComposite3355-6"
         in2="result2"
         in="fbSourceGraphic"
         result="result4"
         operator="arithmetic"
         k2="1"
         k3="1"
         k1="0"
         k4="0" />
      <feComposite
         id="feComposite3357-68"
         in2="SourceGraphic"
         in="result4"
         operator="over" />
      <feBlend
         id="feBlend3359-86"
         in2="result2"
         mode="multiply" />
    </filter>
  </defs>
  <sodipodi:namedview
     id="base"
     pagecolor="#ffffff"
     bordercolor="#666666"
     borderopacity="1.0"
     inkscape:pageopacity="0.0"
     inkscape:pageshadow="2"
     inkscape:zoom="0.45254834"
     inkscape:cx="843.33941"
     inkscape:cy="722.91325"
     inkscape:document-units="px"
     inkscape:current-layer="g3395"
     showgrid="false"
     fit-margin-top="0"
     fit-margin-left="0"
     fit-margin-right="0"
     fit-margin-bottom="0"
     inkscape:window-width="1855"
     inkscape:window-height="1056"
     inkscape:window-x="65"
     inkscape:window-y="24"
     inkscape:window-maximized="1"
     units="px" />
  <metadata
     id="metadata7">
    <rdf:RDF>
      <cc:Work
         rdf:about="">
        <dc:format>image/svg+xml</dc:format>
        <dc:type
           rdf:resource="http://purl.org/dc/dcmitype/StillImage" />
        <dc:title></dc:title>
      </cc:Work>
    </rdf:RDF>
  </metadata>
  <g
     inkscape:label="Layer 1"
     inkscape:groupmode="layer"
     id="layer1"
     transform="translate(111.01398,119.23136)">
    <g
       id="g3395"
       transform="matrix(0.95614192,0,0,0.94615499,29.526173,2020.1729)">
      <rect
         style="opacity:1;fill:#2779fd;fill-opacity:1;fill-rule:nonzero;stroke:#000000;stroke-width:0.05388835;stroke-linecap:round;stroke-linejoin:round;stroke-miterlimit:4;stroke-dasharray:none;stroke-opacity:1"
         id="rect3382"
         width="1091.2688"
         height="1095.9186"
         x="-160.45593"
         y="-2263.9243"
         rx="5.8006024"
         ry="5.8618302" />
      <path
         style="fill:#fbfbfb"
         d="m -55.219297,-1713.5572 0,-427.2826 458.835337,0 458.83534,0 0,427.2826 0,427.2826 -458.83534,0 -458.835337,0 0,-427.2826 z"
         id="path3411"
         inkscape:connector-curvature="0" />
      <path
         style="fill:#2779fd;stroke:none;stroke-width:11.30333424;stroke-miterlimit:4;stroke-dasharray:none;stroke-opacity:1"
         d="m 3.0669263,-1397.2043 0.3475298,-51.2769 17.9151259,-6.289 c 9.85332,-3.459 23.875952,-8.4567 31.161403,-11.1061 15.780509,-5.7383 19.26824,-6.064 19.261829,-1.7983 -0.0021,1.6602 -1.462228,19.3187 -3.243844,39.2408 -1.781616,19.9223 -3.901375,44.6741 -4.710591,55.0041 -0.809203,10.3301 -1.76522,20.7439 -2.124478,23.142 l -0.65319,4.3602 -29.150659,0 -29.1506564,0 z m 76.4944767,32.1594 c -0.0264,-10.5145 -0.609261,-36.3229 -1.295332,-57.3518 -1.489021,-45.6405 -1.277116,-53.6712 1.453548,-55.085 1.094817,-0.5668 7.365116,-2.9072 13.934005,-5.2005 6.568876,-2.2934 13.734926,-4.8122 15.924566,-5.5973 2.18962,-0.7851 7.20773,-2.3236 11.15133,-3.4193 3.94361,-1.0954 12.90117,-4.3025 19.90569,-7.1266 7.00454,-2.824 18.11003,-6.7729 24.6789,-8.775 16.15371,-4.9235 22.90739,-7.2477 29.19502,-10.0473 2.91951,-1.2999 14.26575,-5.3711 25.2139,-9.0472 33.01799,-11.0864 52.84057,-17.9677 57.43979,-19.9401 2.39685,-1.0277 5.45766,-1.8688 6.80186,-1.8688 1.34416,0 5.65339,-1.4225 9.57606,-3.1611 3.92267,-1.7386 19.07553,-7.2485 33.67304,-12.2442 14.5975,-4.9956 30.42255,-10.5714 35.16673,-12.3906 13.77786,-5.2829 25.74672,-8.3967 27.09438,-7.0488 0.73787,0.7381 0.541,26.9823 -0.50003,66.6627 -2.84203,108.3265 -3.62325,164.5339 -2.32435,167.2308 0.83845,1.7408 0.76165,2.2304 -0.25075,1.5978 -0.8027,-0.5015 -1.45946,-0.2726 -1.45946,0.5089 0,0.9916 -46.10136,1.4208 -152.66549,1.4208 l -152.665473,0 z m 323.455677,-14.0863 c -0.5065,-18.262 -1.78643,-64.2945 -2.84427,-102.2943 -1.05782,-38 -1.93204,-77.3046 -1.94269,-87.3439 l -0.0194,-18.2529 11.04925,-5.5598 c 6.0771,-3.0577 12.11728,-5.5594 13.42265,-5.5594 1.30537,0 5.14147,-1.4632 8.52468,-3.2515 9.41768,-4.978 22.41578,-10.8576 32.69221,-14.7879 20.92732,-8.0039 25.72643,-10.1108 30.51775,-13.3979 2.76064,-1.8938 5.5332,-3.4434 6.16122,-3.4434 0.62801,0 1.14186,-0.8092 1.14186,-1.7979 0,-1.903 5.49904,-1.6896 -127.39647,-4.9438 -30.28982,-0.7418 -72.68894,-1.9556 -94.2203,-2.6972 -50.1027,-1.7262 -242.807586,-6.5965 -262.423409,-6.6327 l -14.9292737,-0.027 c 0,-167.2483 0,-334.4967 0,-501.745 265.4092827,0 530.8185727,0 796.2278527,0 l 0,341.4753 c 0,332.0912 -0.0675,341.4386 -2.46024,340.1441 -1.35313,-0.7322 -4.8468,-3.3191 -7.76369,-5.7489 -2.91689,-2.4298 -8.15042,-6.4176 -11.63008,-8.8616 -6.14005,-4.3128 -6.30191,-4.6005 -5.48736,-9.75 1.13213,-7.1576 -0.24612,-11.9253 -3.84753,-13.3095 -2.42205,-0.931 -3.16042,-2.5696 -3.91724,-8.6932 -0.63793,-5.1617 -0.429,-8.1596 0.66117,-9.4876 1.24341,-1.5145 1.22865,-2.386 -0.0671,-3.9645 -1.12379,-1.3691 -1.37511,-4.0805 -0.77713,-8.3849 1.03061,-7.4184 1.03047,-7.4993 -0.0237,-14.069 -0.44341,-2.7634 -0.39137,-6.0837 0.11557,-7.3787 0.50702,-1.2947 0.91527,-15.2971 0.90727,-31.1163 -0.014,-27.4957 -0.1354,-28.8543 -2.75799,-30.8559 -1.50887,-1.1517 -3.79294,-3.9049 -5.07571,-6.1186 -1.28279,-2.2135 -3.52667,-6.0553 -4.98642,-8.5371 -1.45973,-2.4818 -6.68499,-9.2868 -11.61164,-15.1222 -4.92665,-5.8354 -8.95757,-11.1234 -8.95757,-11.7512 0,-0.6278 -3.28445,-5.1921 -7.29876,-10.1429 -4.01431,-4.9512 -7.29875,-9.4177 -7.29875,-9.9258 0,-1.0529 -10.25522,-15.4393 -17.38338,-24.3859 -2.62704,-3.2973 -5.90247,-8.1079 -7.27874,-10.6904 -1.37628,-2.5825 -3.93687,-6.3243 -5.69022,-8.3148 l -3.18791,-3.6196 0.91907,-45.3476 0.91908,-45.3476 3.40555,-3.0946 c 2.85849,-2.5975 3.27985,-3.8778 2.62305,-7.9693 -1.00372,-6.2528 -4.88545,-10.3252 -8.6809,-9.1074 -4.72815,1.517 -10.76518,7.4818 -10.76518,10.6364 0,1.6422 2.10563,5.0345 4.70711,7.5836 4.07566,3.9935 4.61485,5.2436 4.01944,9.3187 -0.3782,2.5886 -1.03123,23.0001 -1.4512,45.359 l -0.76358,40.6525 -4.37592,5.6316 c -2.40674,3.0972 -8.13075,9.5555 -12.71995,14.3515 -4.58923,4.7962 -9.8984,10.8331 -11.79817,13.4157 -1.89977,2.5824 -5.55346,6.8195 -8.1193,9.4155 -2.56582,2.5959 -10.93546,11.8604 -18.59915,20.588 -7.66369,8.7275 -16.44902,18.6776 -19.52294,22.1113 -5.37638,6.0058 -7.39965,12.3959 -4.49873,14.2085 0.66809,0.4172 1.19728,21.5371 1.20373,48.0399 l 0.0121,47.2953 -3.38379,4.5216 c -2.98375,3.9871 -3.35361,5.6753 -3.12833,14.2792 l 0.25546,9.7573 -12.34113,11.0743 c -6.78764,6.0909 -20.15631,18.6821 -29.70817,27.9802 -9.55187,9.2983 -26.25079,25.3578 -37.10872,35.6879 -10.85791,10.33 -30.2149,29.0448 -43.01549,41.5885 -12.80058,12.5436 -27.44054,26.8815 -32.53321,31.8621 l -9.25938,9.0555 -12.75718,0 -12.75724,0 -0.92091,-33.2037 z"
         id="path3407"
         inkscape:connector-curvature="0"
         sodipodi:nodetypes="ccsscsssccccssccsssssssscsscsscsscscssccssssssssccccsccssssscsscssscssssssscccsssscsscsscssscccsscsssssccccc" />
      <path
         style="fill:#7a8290;stroke-width:13.2473259;stroke-linecap:round;stroke-miterlimit:4;stroke-dasharray:none"
         d="m 52.806981,-1338.9199 c 0.331303,-1.6603 0.871553,-6.3634 1.200559,-10.4513 1.79102,-22.254 3.37411,-39.832 6.036242,-67.0241 3.122361,-31.8931 3.154162,-33.4179 0.716597,-34.3636 -2.535515,-0.9836 -12.677671,1.9453 -35.063114,10.1254 -8.291287,3.03 -17.4323669,6.0444 -20.3135101,6.6988 -4.88955136,1.1106 -5.21127933,0.9994 -4.83062729,-1.6702 0.33868313,-2.3754 3.44467469,-3.9254 18.32293939,-9.1442 9.853319,-3.4563 23.875953,-8.4516 31.161402,-11.101 15.780501,-5.7383 19.268233,-6.0641 19.261822,-1.7983 -0.0021,1.6601 -1.462217,19.3184 -3.243834,39.2406 -1.781616,19.9224 -3.901385,44.6743 -4.710591,55.0043 -2.132826,27.2267 -2.192466,27.5021 -5.958958,27.5021 -2.592896,0 -3.069879,-0.5585 -2.578927,-3.0185 z m 24.300909,-16.0988 c -0.02637,-10.5146 -0.609261,-36.323 -1.295331,-57.3519 -1.489031,-45.6404 -1.277117,-53.6713 1.453552,-55.085 1.094813,-0.5668 7.365111,-2.9072 13.933991,-5.2004 6.568879,-2.2934 13.734918,-4.8124 15.924568,-5.5973 2.18962,-0.7851 7.20774,-2.3238 11.15134,-3.4193 3.94361,-1.0956 12.90117,-4.3026 19.9057,-7.1266 7.00452,-2.824 18.11001,-6.773 24.6789,-8.775 16.1537,-4.9236 22.90739,-7.2478 29.195,-10.0474 2.91952,-1.3 14.26578,-5.3712 25.21391,-9.0473 33.018,-11.0863 52.84058,-17.9676 57.43979,-19.94 2.39686,-1.0278 5.45767,-1.8688 6.80185,-1.8688 1.34418,0 5.6534,-1.4225 9.57608,-3.1611 3.92267,-1.7386 19.07553,-7.2484 33.67303,-12.2441 14.5975,-4.9957 30.42255,-10.5715 35.16673,-12.3906 13.77787,-5.2833 25.74673,-8.3969 27.09439,-7.049 0.73787,0.7381 0.54099,26.9823 -0.50003,66.6627 -2.84203,108.3265 -3.62326,164.5339 -2.32436,167.2309 0.83845,1.7409 0.76164,2.2302 -0.25074,1.5978 -0.8027,-0.5016 -1.45946,-0.2726 -1.45946,0.5089 0,0.7813 -1.04505,1.4206 -2.32234,1.4204 -2.16523,-2e-4 -2.31742,-2.927 -2.24994,-43.2654 0.0398,-23.7959 0.78376,-57.754 1.65317,-75.4627 0.86941,-17.7086 1.73259,-49.705 1.91816,-71.1029 l 0.33742,-38.9053 -2.90602,-0.4182 c -2.43407,-0.3502 -21.28462,5.9551 -55.48402,18.5588 -3.64937,1.345 -10.51685,3.763 -15.26103,5.3732 -33.62988,11.4145 -77.25727,26.5029 -96.8744,33.5034 -12.77283,4.5582 -28.00068,9.7958 -33.83967,11.6391 -5.83901,1.8434 -15.69235,5.1789 -21.89627,7.4125 -6.20396,2.2333 -23.82049,8.4101 -39.14789,13.7259 -30.9124,10.7211 -33.355321,11.8007 -34.353709,15.1812 -1.704711,5.7723 -0.742318,57.5668 1.126459,60.6237 0.526312,0.8609 0.522641,15.4188 -0.0081,32.3511 -0.910443,29.042 -1.108365,30.786 -3.493963,30.786 -2.366535,0 -2.531913,-1.2269 -2.576771,-19.1173 z m 323.45568,-14.0864 c -0.5065,-18.2621 -1.78644,-64.2947 -2.84427,-102.2944 -1.05782,-37.9998 -1.93204,-77.3045 -1.94268,-87.3437 l -0.0194,-18.2531 11.04925,-5.5597 c 6.07711,-3.0576 12.11728,-5.5595 13.42264,-5.5595 1.30538,0 5.14148,-1.4632 8.5247,-3.2515 9.41767,-4.9779 22.41577,-10.8573 32.69221,-14.7879 20.92732,-8.0037 25.72642,-10.1107 30.51774,-13.3977 2.76064,-1.8941 5.53321,-3.4435 6.16121,-3.4435 0.62803,0 1.14187,-0.8091 1.14187,-1.7979 0,-1.9029 5.49905,-1.6895 -127.39646,-4.9439 -30.28983,-0.7417 -72.68896,-1.9555 -94.2203,-2.6972 -50.1027,-1.7262 -242.8076,-6.5963 -262.423425,-6.6325 -13.7915245,-0.025 -14.92927345,-0.2222 -14.92927345,-2.5853 0,-2.268 1.41598805,-2.6653 12.49223345,-3.5048 6.870729,-0.5206 13.098251,-0.5682 13.838938,-0.1053 0.740685,0.4627 17.662382,1.1671 37.603771,1.5653 48.901816,0.9766 79.366016,1.6627 116.543376,2.6249 17.15208,0.444 40.74033,1.0225 52.41832,1.2859 11.67802,0.2633 24.51719,0.8219 28.53151,1.2413 4.01432,0.4192 37.75447,1.3853 74.97813,2.1467 37.22365,0.7613 76.93551,1.705 88.24859,2.097 11.31306,0.3921 31.61688,0.9493 45.11958,1.2382 25.76979,0.5515 40.55377,2.5675 41.73982,5.692 0.38859,1.0238 -1.06559,3.4976 -3.23166,5.4975 -8.98341,8.295 -26.24715,16.6705 -58.41386,28.3398 -24.53062,8.8992 -42.96877,17.3164 -46.29113,21.1325 -3.0205,3.4694 -3.12142,4.2052 -2.25298,16.4304 1.0145,14.2812 1.49505,32.8848 3.4276,132.6902 0.73389,37.9017 1.71635,73.0675 2.18326,78.146 0.84313,9.1711 0.82646,9.2339 -2.44975,9.2339 l -3.29865,0 -0.92094,-33.2037 z m 23.05202,30.8558 c -0.007,-2.0673 26.79138,-29.5754 57.85091,-59.3795 5.77589,-5.5425 17.36909,-16.663 25.76266,-24.7123 8.39356,-8.0492 22.12849,-21.327 30.52207,-29.506 8.39355,-8.1791 22.21767,-21.0927 30.72025,-28.6969 8.50255,-7.6043 15.80974,-15.1473 16.23818,-16.7624 0.42845,-1.6152 0.80741,-5.9553 0.84215,-9.6446 0.0349,-3.6892 1.17056,-9.0749 2.52406,-11.9681 1.88299,-4.0249 2.16128,-6.1291 1.18498,-8.9605 -0.85283,-2.4732 -0.8037,-4.5922 0.14816,-6.3901 1.98571,-3.7511 1.70429,-9.7577 -0.60153,-12.8393 -1.70574,-2.2795 -1.70061,-2.9656 0.0422,-5.6544 2.56587,-3.9589 2.50886,-7.1655 -0.19679,-11.0707 -2.02224,-2.9187 -2.02224,-3.4171 0,-6.8778 2.58915,-4.4311 2.77785,-8.4233 0.5673,-12.0015 -1.27057,-2.0568 -1.25687,-3.6066 0.0647,-7.3009 1.41244,-3.9488 1.35349,-5.3232 -0.37316,-8.6987 -1.60037,-3.1286 -1.73706,-4.8355 -0.62252,-7.7737 0.78547,-2.0705 1.06902,-6.0661 0.63014,-8.879 -1.40676,-9.016 1.3496,-15.4684 10.40818,-24.3646 11.06875,-10.8706 39.04489,-42.7961 44.28414,-50.5358 2.31904,-3.4258 7.74863,-9.4629 12.06578,-13.4156 12.66345,-11.5949 13.6743,-14.1354 14.21585,-35.7298 0.25398,-10.1266 0.75374,-28.7853 1.11062,-41.4638 0.64885,-23.0517 0.64883,-23.0518 -2.77083,-28.1461 -1.88084,-2.8019 -3.70883,-7.2735 -4.06221,-9.9368 -1.17777,-8.8772 10.31521,-18.2475 20.06878,-16.3625 9.43678,1.8237 13.19164,15.9377 6.96398,26.1767 l -3.05642,5.0249 0.62485,41.9298 0.62487,41.9297 3.75339,6.7328 c 2.06438,3.7031 6.31236,9.7859 9.43998,13.5173 3.1276,3.7315 8.67241,11.1556 12.32176,16.4979 3.64939,5.3422 9.04416,12.8427 11.98838,16.6678 2.94425,3.8251 6.76846,9.3694 8.49826,12.3209 1.72981,2.9513 5.38135,7.781 8.11455,10.7324 2.73318,2.9515 7.20489,8.9886 9.93713,13.4157 2.73224,4.4272 6.88484,10.4642 9.22799,13.4156 5.9958,7.5524 9.00909,13.9105 7.84584,16.5554 -1.52147,3.4591 -1.72294,24.735 -0.26077,27.5368 0.87959,1.6853 0.80278,4.3232 -0.23507,8.0705 -1.12505,4.0622 -1.15243,6.6017 -0.10133,9.3968 1.05637,2.8088 1.02453,4.9929 -0.11944,8.1909 -1.10332,3.0845 -1.17452,5.8957 -0.24323,9.6046 0.88416,3.5216 0.86993,6.2558 -0.0434,8.3248 -0.94832,2.1486 -0.89854,4.8249 0.16443,8.8428 1.1361,4.2942 1.14288,6.7833 0.0267,9.7729 -1.29557,3.4699 -1.08577,4.5961 1.55452,8.3447 1.75722,2.4947 3.29185,6.9851 3.61702,10.5831 0.97282,10.7645 1.49136,11.7248 9.33857,17.293 9.80879,6.9604 12.6224,10.1693 12.07792,13.7747 -0.42233,2.7969 -0.653,2.7396 -6.29629,-1.5663 -3.22186,-2.4582 -9.19357,-6.9199 -13.27047,-9.9149 -6.67532,-4.9038 -7.39049,-5.9044 -7.1906,-10.0617 0.42516,-8.8427 -0.8511,-13.3898 -4.10964,-14.6421 -2.53446,-0.9741 -3.24693,-2.5238 -4.01402,-8.7305 -0.63792,-5.1618 -0.42901,-8.1597 0.66119,-9.4876 1.24339,-1.5146 1.22862,-2.3861 -0.0671,-3.9646 -1.12381,-1.369 -1.37513,-4.0802 -0.77713,-8.3847 1.03059,-7.4185 1.03047,-7.4994 -0.0239,-14.0692 -0.44339,-2.7634 -0.39136,-6.0837 0.11558,-7.3785 0.50701,-1.2949 0.91526,-15.2973 0.90724,-31.1164 -0.014,-27.4956 -0.13537,-28.8543 -2.75797,-30.856 -1.50889,-1.1515 -3.79296,-3.9049 -5.0757,-6.1185 -1.28278,-2.2135 -3.52666,-6.0552 -4.98641,-8.5372 -1.45977,-2.4817 -6.68501,-9.2867 -11.61165,-15.1221 -4.92668,-5.8354 -8.95758,-11.1234 -8.95758,-11.7512 0,-0.6278 -3.28444,-5.192 -7.29876,-10.1431 -4.01431,-4.951 -7.29874,-9.4174 -7.29874,-9.9255 0,-1.0531 -10.25521,-15.4393 -17.3834,-24.386 -2.62701,-3.2972 -5.90246,-8.108 -7.27872,-10.6905 -1.37629,-2.5825 -3.93688,-6.3241 -5.69022,-8.3149 l -3.18792,-3.6194 0.91909,-45.3477 0.91908,-45.3477 3.40551,-3.0943 c 2.85852,-2.5977 3.27986,-3.8777 2.62307,-7.9693 -1.00372,-6.2529 -4.88544,-10.3253 -8.68089,-9.1075 -4.72816,1.5171 -10.76518,7.4818 -10.76518,10.6363 0,1.6423 2.10561,5.0347 4.70709,7.5837 4.07568,3.9937 4.61487,5.2436 4.01946,9.3187 -0.3782,2.5887 -1.03126,23.0002 -1.45122,45.359 l -0.76355,40.6525 -4.37592,5.6316 c -2.40678,3.0972 -8.13076,9.5554 -12.71998,14.3515 -4.5892,4.7961 -9.89838,10.8331 -11.79816,13.4157 -1.89976,2.5825 -5.55345,6.8195 -8.11929,9.4156 -2.56584,2.5958 -10.93546,11.8603 -18.59916,20.5878 -7.66369,8.7274 -16.449,18.6775 -19.52294,22.1114 -5.37639,6.0057 -7.39964,12.396 -4.49872,14.2085 0.6681,0.4173 1.19728,21.537 1.20374,48.04 l 0.0121,47.2951 -3.3838,4.5218 c -2.98375,3.9871 -3.3536,5.6754 -3.12833,14.279 l 0.25546,9.7574 -12.34114,11.0743 c -6.78763,6.091 -20.15631,18.6819 -29.70816,27.9802 -9.55186,9.2983 -26.25079,25.3577 -37.10872,35.6877 -10.85792,10.3302 -30.2149,29.045 -43.01549,41.5886 -12.80061,12.5436 -27.44053,26.8817 -32.53322,31.8622 -9.4204,9.213 -12.62543,10.9136 -12.64268,6.7077 z"
         id="path3405"
         inkscape:connector-curvature="0" />
      <path
         style="fill:#5f6f89;stroke-width:13.2473259;stroke-linecap:round;stroke-miterlimit:4;stroke-dasharray:none"
         d="m 52.806981,-1338.9199 c 0.331303,-1.6603 0.871553,-6.3634 1.200559,-10.4513 1.79102,-22.254 3.37411,-39.832 6.036242,-67.0241 3.122361,-31.8931 3.154162,-33.4179 0.716597,-34.3636 -2.535515,-0.9836 -12.677671,1.9453 -35.063114,10.1254 -8.291287,3.03 -17.4323669,6.0444 -20.3135101,6.6988 -4.76569981,1.0826 -5.20163859,0.9549 -4.83062729,-1.4132 0.32085227,-2.0483 4.36948419,-3.9802 18.98646139,-9.0597 10.218258,-3.5509 25.065643,-8.7382 32.994189,-11.5274 16.244927,-5.7146 17.518354,-5.397 15.987058,3.9881 -0.481566,2.9515 -1.100788,8.6866 -1.376052,12.745 -0.275263,4.0581 -0.726728,10.0953 -1.003267,13.4156 -0.27654,3.3204 -0.86814,11.1685 -1.314661,17.4403 -0.44652,6.2718 -1.22455,14.12 -1.728942,17.4404 -0.504404,3.3204 -1.084234,8.7536 -1.288526,12.074 -0.204277,3.3203 -0.672226,9.3575 -1.03988,13.4157 -0.367655,4.0582 -0.95793,11.6046 -1.311722,16.7695 -0.882362,12.8817 -0.836941,12.745 -4.232921,12.745 -2.425886,0 -2.901706,-0.5942 -2.417884,-3.0185 z m 24.435792,-26.8313 c -0.04572,-16.4175 -0.433848,-37.698 -0.862579,-47.2902 -0.964821,-21.5867 -0.604317,-52.0201 0.630186,-53.1986 1.060033,-1.0121 18.293079,-7.3887 26.13314,-9.6699 2.9195,-0.8495 5.90536,-1.9192 6.63523,-2.3776 0.72988,-0.458 4.91009,-1.8469 9.28932,-3.0865 4.37926,-1.2395 12.44107,-4.1114 17.91512,-6.3821 10.0842,-4.1828 18.09671,-6.9076 32.51264,-11.0568 9.02986,-2.5991 16.98203,-5.5715 22.00481,-8.2252 1.88438,-0.9956 5.76598,-2.3865 8.62579,-3.0907 5.81239,-1.4312 18.67686,-5.7886 42.35697,-14.3466 8.7585,-3.1654 21.0005,-7.388 27.20444,-9.3835 11.84989,-3.8117 45.15258,-15.4889 53.08187,-18.6128 2.55456,-1.0062 11.8107,-4.2408 20.56922,-7.1878 8.75851,-2.9471 19.9592,-6.8807 24.89039,-8.7413 4.93123,-1.8606 11.37298,-3.7941 14.31504,-4.2967 l 5.34918,-0.9134 -0.71544,40.0377 c -1.08403,60.6647 -1.91667,86.3496 -3.51591,108.4577 -0.8322,11.5042 -1.05994,27.9965 -0.53175,38.5049 0.50818,10.1096 0.49451,25.655 -0.0302,34.5452 -0.80384,13.6154 -1.29358,16.164 -3.10613,16.1636 -1.94139,-2e-4 -2.14471,-4.2307 -2.07941,-43.2654 0.0398,-23.7959 0.78374,-57.754 1.65315,-75.4627 0.86941,-17.7086 1.73258,-49.705 1.91815,-71.1029 l 0.33744,-38.9053 -2.90602,-0.4182 c -2.43406,-0.3502 -21.28463,5.9551 -55.48403,18.5588 -3.64937,1.345 -10.51685,3.763 -15.26102,5.3732 -33.62988,11.4145 -77.25726,26.5029 -96.87441,33.5034 -12.7728,4.5582 -28.00067,9.7958 -33.83968,11.6391 -5.839,1.8434 -15.69232,5.1789 -21.89625,7.4125 -6.20396,2.2333 -23.8205,8.4101 -39.14789,13.7259 -30.912408,10.7211 -33.355329,11.8007 -34.353718,15.1812 -1.704711,5.7723 -0.742308,57.5668 1.12646,60.6237 0.526302,0.8609 0.522652,15.4188 -0.0081,32.3511 -0.898312,28.6554 -1.134218,30.786 -3.408932,30.786 -2.298019,0 -2.448777,-1.781 -2.526894,-29.8498 z m 324.385867,24.8189 c 0.0159,-2.767 -0.47408,-21.0291 -1.08894,-40.5823 -0.61484,-19.5534 -1.30939,-44.0034 -1.54342,-54.3334 -0.23403,-10.33 -0.73951,-29.6485 -1.1233,-42.9301 -1.63481,-56.5754 -2.09305,-95.3534 -1.1435,-96.7669 1.28292,-1.9097 22.55732,-12.5705 25.08513,-12.5705 1.03229,0 5.89288,-2.0118 10.80131,-4.4707 4.90843,-2.4587 13.10463,-6.1443 18.21376,-8.1901 5.10914,-2.0457 10.78225,-4.4921 12.60694,-5.4362 1.8247,-0.9442 5.40772,-2.1653 7.96228,-2.7138 2.55457,-0.5483 5.8226,-1.8255 7.26228,-2.8379 1.43967,-1.0125 3.59855,-1.8411 4.79746,-1.8411 1.19892,0 3.86251,-1.3379 5.91911,-2.9734 2.0566,-1.6355 5.53531,-3.8992 7.73047,-5.0308 7.67682,-3.9573 5.9389,-5.4004 -6.68831,-5.5535 -21.83351,-0.265 -79.25102,-1.6484 -132.48348,-3.1923 -10.94813,-0.3176 -38.1194,-0.9803 -60.38061,-1.4726 -22.2612,-0.4925 -40.97133,-1.1875 -41.57808,-1.5446 -0.60674,-0.3572 -11.6544,-0.8625 -24.55037,-1.123 -12.89594,-0.2605 -37.18211,-0.8209 -53.96924,-1.2454 -16.78715,-0.4244 -41.27116,-1.0164 -54.40892,-1.3152 -13.13775,-0.2987 -40.30903,-1.0062 -60.380613,-1.5721 -20.071575,-0.5659 -42.316191,-0.867 -49.432478,-0.6696 -12.0976419,0.336 -12.93870314,0.1879 -12.93870314,-2.2769 0,-2.3668 1.27671454,-2.7329 12.49223514,-3.583 6.870728,-0.5206 13.098249,-0.5682 13.838936,-0.1053 0.740687,0.4627 17.662382,1.1671 37.603766,1.5653 48.901837,0.9766 79.366017,1.6627 116.543387,2.6249 17.15208,0.444 40.74032,1.0225 52.41832,1.2859 11.67801,0.2633 24.51718,0.8219 28.5315,1.2413 4.01432,0.4192 37.75448,1.3853 74.97813,2.1467 37.22365,0.7613 76.93552,1.705 88.2486,2.097 11.31306,0.3921 31.61688,0.9493 45.11958,1.2382 25.76978,0.5515 40.55376,2.5675 41.73982,5.692 0.38858,1.0238 -1.06559,3.4976 -3.23167,5.4975 -8.9834,8.295 -26.24715,16.6705 -58.41385,28.3398 -24.53062,8.8992 -42.96878,17.3164 -46.29113,21.1325 -3.02051,3.4694 -3.12142,4.2052 -2.25299,16.4304 1.01449,14.2812 1.49507,32.8848 3.42761,132.6902 0.7339,37.9017 1.71635,73.0675 2.18325,78.146 0.83943,9.1311 0.81285,9.2339 -2.39217,9.2339 -2.86571,0 -3.23774,-0.5828 -3.2121,-5.0309 z m 21.98695,2.683 c -0.007,-2.0673 26.79138,-29.5754 57.85091,-59.3795 5.77589,-5.5425 17.36909,-16.663 25.76266,-24.7123 8.39356,-8.0492 22.12849,-21.327 30.52207,-29.506 8.39355,-8.1791 22.21767,-21.0927 30.72025,-28.6969 8.50255,-7.6043 15.80974,-15.1473 16.23818,-16.7624 0.42845,-1.6152 0.80741,-5.9553 0.84215,-9.6446 0.0349,-3.6892 1.17056,-9.0749 2.52406,-11.9681 1.88299,-4.0249 2.16128,-6.1291 1.18498,-8.9605 -0.85283,-2.4732 -0.8037,-4.5922 0.14816,-6.3901 1.98571,-3.7511 1.70429,-9.7577 -0.60153,-12.8393 -1.70574,-2.2795 -1.70061,-2.9656 0.0422,-5.6544 2.56587,-3.9589 2.50886,-7.1655 -0.19679,-11.0707 -2.02224,-2.9187 -2.02224,-3.4171 0,-6.8778 2.58915,-4.4311 2.77785,-8.4233 0.5673,-12.0015 -1.27057,-2.0568 -1.25687,-3.6066 0.0647,-7.3009 1.41244,-3.9488 1.35349,-5.3232 -0.37316,-8.6987 -1.60037,-3.1286 -1.73706,-4.8355 -0.62252,-7.7737 0.78547,-2.0705 1.06902,-6.0661 0.63014,-8.879 -1.40676,-9.016 1.3496,-15.4684 10.40818,-24.3646 11.06875,-10.8706 39.04489,-42.7961 44.28414,-50.5358 2.31904,-3.4258 7.74863,-9.4629 12.06578,-13.4156 12.66345,-11.5949 13.6743,-14.1354 14.21585,-35.7298 0.25398,-10.1266 0.75374,-28.7853 1.11062,-41.4638 0.64885,-23.0517 0.64883,-23.0518 -2.77083,-28.1461 -1.88084,-2.8019 -3.70883,-7.2735 -4.06221,-9.9368 -1.17777,-8.8772 10.31521,-18.2475 20.06878,-16.3625 9.43678,1.8237 13.19164,15.9377 6.96398,26.1767 l -3.05642,5.0249 0.62485,41.9298 0.62487,41.9297 3.75339,6.7328 c 2.06438,3.7031 6.31236,9.7859 9.43998,13.5173 3.1276,3.7315 8.67241,11.1556 12.32176,16.4979 3.64939,5.3422 9.04416,12.8427 11.98838,16.6678 2.94425,3.8251 6.76846,9.3694 8.49826,12.3209 1.72981,2.9513 5.38135,7.781 8.11455,10.7324 2.73318,2.9515 7.20489,8.9886 9.93713,13.4157 2.73224,4.4272 6.88484,10.4642 9.22799,13.4156 5.9958,7.5524 9.00909,13.9105 7.84584,16.5554 -1.52147,3.4591 -1.72294,24.735 -0.26077,27.5368 0.87959,1.6853 0.80278,4.3232 -0.23507,8.0705 -1.12505,4.0622 -1.15243,6.6017 -0.10133,9.3968 1.05637,2.8088 1.02453,4.9929 -0.11944,8.1909 -1.10332,3.0845 -1.17452,5.8957 -0.24323,9.6046 0.88416,3.5216 0.86993,6.2558 -0.0434,8.3248 -0.94832,2.1486 -0.89854,4.8249 0.16443,8.8428 1.1361,4.2942 1.14288,6.7833 0.0267,9.7729 -1.29557,3.4699 -1.08577,4.5961 1.55452,8.3447 1.75722,2.4947 3.29185,6.9851 3.61702,10.5831 0.9584,10.6049 1.46801,11.641 8.00138,16.2687 9.78565,6.9316 13.64025,10.9936 13.64025,14.3743 0,2.7625 -1.43272,1.9979 -13.27047,-7.0837 l -13.27046,-10.1808 0,-8.3268 c -10e-5,-8.5859 -1.4155,-11.5465 -5.52025,-11.5465 -1.7155,0 -2.27766,-0.9793 -2.11821,-3.6894 0.11945,-2.0291 -0.22348,-4.9841 -0.76198,-6.5665 -0.65112,-1.9134 -0.27597,-3.588 1.12001,-4.9991 1.5023,-1.5188 1.74128,-2.7986 0.84058,-4.5014 -0.74778,-1.4138 -1.07059,-20.2146 -0.79549,-46.3256 l 0.46306,-43.9461 -3.03981,-3.0086 c -1.67191,-1.6547 -5.93975,-7.5364 -9.48411,-13.0703 -3.54434,-5.5341 -9.37076,-13.3822 -12.94757,-17.4404 -3.57685,-4.0582 -7.17125,-8.8878 -7.9876,-10.7325 -0.81635,-1.8447 -4.0898,-6.341 -7.27435,-9.9917 -3.18454,-3.6507 -6.91489,-8.7823 -8.28967,-11.4032 -1.37478,-2.6211 -5.79835,-8.9915 -9.83017,-14.1565 -4.0318,-5.1651 -10.67478,-14.4486 -14.76218,-20.6303 l -7.4316,-11.2389 0.0586,-19.2815 c 0.0322,-10.6048 0.0849,-30.4555 0.1171,-44.1127 l 0.0586,-24.8311 3.80137,-4.0213 c 3.36658,-3.5614 3.69103,-4.6312 2.8367,-9.3541 -0.53054,-2.9332 -1.7171,-6.2495 -2.63678,-7.3698 -2.59028,-3.1552 -8.31059,-2.4231 -12.90869,1.6523 -6.39238,5.6658 -6.62293,8.6748 -1.13512,14.8157 l 4.68555,5.243 -0.74475,27.3669 c -0.40959,15.0516 -0.84651,35.5165 -0.97087,45.4778 -0.18901,15.1355 -0.60869,18.5519 -2.55435,20.7943 -1.28049,1.4757 -6.86571,7.5126 -12.41158,13.4155 -5.54587,5.9029 -11.75856,13.0103 -13.80596,15.7943 -3.77465,5.1325 -15.32389,18.1496 -38.85477,43.7927 -7.14537,7.787 -13.3322,15.53 -13.74851,17.207 -0.43997,1.7721 0.17081,4.4801 1.45861,6.4671 1.83625,2.8331 1.95844,4.2058 0.7138,8.0186 -0.826,2.5301 -1.08074,5.9411 -0.56612,7.5803 1.46138,4.6548 1.77054,42.7646 0.39239,48.3711 -0.84218,3.426 -0.75833,5.9261 0.26349,7.8563 1.09945,2.0769 1.1121,4.3836 0.0476,8.6578 -1.07672,4.3229 -1.05206,6.7127 0.0955,9.259 1.35718,3.0111 1.05788,4.13 -2.44081,9.1235 -3.69607,5.2752 -3.94336,6.3526 -3.38146,14.7345 l 0.60624,9.0431 -8.4233,7.7264 c -8.17993,7.5033 -16.92405,15.7195 -46.65734,43.8411 -7.86396,7.4379 -21.74985,20.7677 -30.85754,29.622 -9.10769,8.8543 -25.57483,24.8525 -36.59367,35.5515 -11.01884,10.6989 -25.01946,24.4333 -31.11249,30.5205 -11.28356,11.273 -13.86366,12.8939 -13.88077,8.7201 z"
         id="path3403"
         inkscape:connector-curvature="0" />
      <path
         style="fill:#566172;stroke-width:13.2473259;stroke-linecap:round;stroke-miterlimit:4;stroke-dasharray:none"
         d="m 52.806981,-1338.9199 c 0.331303,-1.6603 0.871553,-6.3634 1.200559,-10.4513 1.79102,-22.254 3.37411,-39.832 6.036242,-67.0241 3.122361,-31.8931 3.154162,-33.4179 0.716597,-34.3636 -2.535515,-0.9836 -12.677671,1.9453 -35.063114,10.1254 -8.291287,3.03 -17.4323669,6.0444 -20.3135101,6.6988 -4.84694633,1.1011 -5.20796211,0.9831 -4.83062729,-1.5762 0.24264672,-1.6457 1.58470669,-2.9449 3.31371269,-3.2078 4.4223538,-0.6722 28.7496557,-8.6713 30.3579547,-9.9818 1.842094,-1.5012 32.83174,-12.0024 33.481404,-11.3456 0.273222,0.2762 -0.12725,7.0412 -0.889948,15.0332 -0.762686,7.9921 -1.739542,19.3608 -2.170784,25.2636 -0.431242,5.9029 -1.913054,22.8065 -3.292916,37.5638 -1.379857,14.7572 -2.641359,31.2082 -2.803337,36.5577 -0.276826,9.1425 -0.476101,9.7264 -3.31955,9.7264 -2.430863,0 -2.906728,-0.5931 -2.422683,-3.0185 z m 24.968828,0.6706 c 1.3347,-4.5506 0.143059,-85.7012 -1.344526,-91.5617 -0.468221,-1.8447 -0.712672,-6.0705 -0.543201,-9.3909 0.16947,-3.3204 0.399567,-10.8387 0.511315,-16.7073 l 0.203185,-10.6703 5.285263,-1.1122 c 2.906903,-0.6118 5.862893,-1.6964 6.568889,-2.4101 0.705986,-0.7137 2.209237,-1.3014 3.340549,-1.3059 1.131303,0 3.767394,-0.9102 5.857981,-2.0124 2.090585,-1.1022 4.687596,-2.0041 5.771146,-2.0041 1.08355,0 3.85185,-0.821 6.15179,-1.8245 2.29993,-1.0034 7.76471,-2.869 12.14396,-4.1455 4.37926,-1.2766 11.75217,-4.1045 16.38424,-6.2842 4.63207,-2.1799 10.30519,-4.3236 12.60693,-4.7637 2.30175,-0.4403 5.36531,-1.4135 6.80787,-2.1628 2.50467,-1.301 5.37506,-2.1465 17.28282,-5.0908 5.38859,-1.3323 12.43597,-4.1437 17.25159,-6.8821 1.45977,-0.8302 4.7442,-1.9624 7.29877,-2.5162 6.01444,-1.3039 21.96962,-6.7688 41.13845,-14.0906 18.39948,-7.0279 39.13155,-13.9516 41.77668,-13.9516 1.05919,0 4.18545,-0.9891 6.94725,-2.1983 8.75051,-3.8308 10.05389,-4.3453 23.6001,-9.3188 7.29876,-2.6797 15.95773,-5.649 19.24217,-6.5986 3.28443,-0.9497 11.34624,-3.6686 17.91513,-6.0423 23.75343,-8.5829 34.40482,-12.0973 35.52268,-11.7207 2.2219,0.7487 0.67018,127.7597 -1.66736,136.4776 -1.10707,4.1288 -1.57815,18.2397 -1.5003,44.9423 0.15126,51.8818 -0.0196,55.6955 -2.49647,55.6942 -1.72974,0 -1.98108,-5.6707 -1.91819,-43.2664 0.0398,-23.7959 0.78376,-57.754 1.65317,-75.4627 0.86941,-17.7086 1.73259,-49.705 1.91816,-71.1029 l 0.33742,-38.9053 -2.90602,-0.4182 c -2.43407,-0.3502 -21.28462,5.9551 -55.48402,18.5588 -3.64937,1.345 -10.51685,3.763 -15.26103,5.3732 -33.62988,11.4145 -77.25727,26.5029 -96.8744,33.5034 -12.77283,4.5582 -28.00068,9.7958 -33.83967,11.6391 -5.83901,1.8434 -15.69235,5.1789 -21.89627,7.4125 -6.20396,2.2333 -23.82049,8.4101 -39.14789,13.7259 -30.9124,10.7211 -33.355321,11.8007 -34.353709,15.1812 -1.704711,5.7723 -0.742318,57.5668 1.126459,60.6237 0.526312,0.8609 0.522641,15.4188 -0.0081,32.3511 -0.915101,29.1906 -1.097936,30.786 -3.528236,30.786 -1.818683,0 -2.363139,-0.6819 -1.874567,-2.3479 z m 323.914171,-19.4517 c -0.0375,-20.9427 -1.19501,-49.8814 -2.61611,-65.4022 -0.37158,-4.0584 -0.0945,-10.9256 0.61553,-15.2609 0.89194,-5.4452 0.84867,-8.7183 -0.1399,-10.5856 -0.88682,-1.6752 -1.61773,-16.7896 -1.92194,-39.7432 -0.26996,-20.3719 -0.69772,-47.303 -0.95055,-59.8466 -0.25283,-12.5435 -0.20989,-24.014 0.0953,-25.4896 0.5696,-2.7531 18.80307,-12.7449 23.25743,-12.7449 1.20991,0 6.24612,-2.0472 11.19164,-4.5496 15.71392,-7.951 36.78824,-16.9153 39.76623,-16.9153 1.87229,0 19.49052,-8.1166 20.31688,-9.3599 0.36495,-0.549 2.75363,-2.0723 5.30818,-3.385 4.60781,-2.3679 6.57583,-4.3058 6.61492,-6.5145 0.0106,-0.6315 -10.87805,-1.1438 -24.19828,-1.1386 -13.32021,0.012 -34.66909,-0.3079 -47.44192,-0.6959 -12.77281,-0.3879 -36.06247,-0.986 -51.7548,-1.329 -37.31375,-0.8158 -91.80238,-2.4861 -141.33045,-4.3324 -21.89627,-0.8165 -51.15764,-1.7493 -65.02526,-2.0732 -85.097419,-1.9881 -123.785408,-2.6983 -146.971018,-2.6983 -23.5147831,0 -26.20971721,-0.2285 -26.20916773,-2.2226 5.0869e-4,-1.8444 2.12553253,-2.3837 12.49284573,-3.1694 6.87073,-0.5206 13.098252,-0.5682 13.838939,-0.1053 0.740685,0.4627 17.66238,1.1671 37.603771,1.5653 48.90182,0.9766 79.36602,1.6627 116.54338,2.6249 17.15207,0.444 40.74033,1.0225 52.41833,1.2859 11.67801,0.2633 24.51718,0.8219 28.53149,1.2413 4.01432,0.4192 37.75447,1.3853 74.97813,2.1467 37.22365,0.7613 76.93553,1.705 88.24858,2.097 11.31308,0.3921 31.61689,0.9493 45.11959,1.2382 25.7698,0.5515 40.55377,2.5675 41.73982,5.692 0.38858,1.0238 -1.06558,3.4976 -3.23165,5.4975 -8.98341,8.295 -26.24716,16.6705 -58.41385,28.3398 -24.53064,8.8992 -42.96878,17.3164 -46.29115,21.1325 -3.0205,3.4694 -3.1214,4.2052 -2.25298,16.4304 1.01449,14.2812 1.49506,32.8848 3.42759,132.6902 0.73391,37.9017 1.71637,73.0675 2.18327,78.146 0.83516,9.0844 0.7975,9.2339 -2.32752,9.2345 l -3.17641,8e-4 -0.0391,-21.8012 z m 21.92561,19.4517 c -0.007,-2.0673 26.79138,-29.5754 57.85091,-59.3795 5.77589,-5.5425 17.36909,-16.663 25.76266,-24.7123 8.39356,-8.0492 22.12849,-21.327 30.52207,-29.506 8.39355,-8.1791 22.21767,-21.0927 30.72025,-28.6969 8.50255,-7.6043 15.80974,-15.1473 16.23818,-16.7624 0.42845,-1.6152 0.80741,-5.9553 0.84215,-9.6446 0.0349,-3.6892 1.17056,-9.0749 2.52406,-11.9681 1.88299,-4.0249 2.16128,-6.1291 1.18498,-8.9605 -0.85283,-2.4732 -0.8037,-4.5922 0.14816,-6.3901 1.98571,-3.7511 1.70429,-9.7577 -0.60153,-12.8393 -1.70574,-2.2795 -1.70061,-2.9656 0.0422,-5.6544 2.56587,-3.9589 2.50886,-7.1655 -0.19679,-11.0707 -2.02224,-2.9187 -2.02224,-3.4171 0,-6.8778 2.58915,-4.4311 2.77785,-8.4233 0.5673,-12.0015 -1.27057,-2.0568 -1.25687,-3.6066 0.0647,-7.3009 1.41244,-3.9488 1.35349,-5.3232 -0.37316,-8.6987 -1.60037,-3.1286 -1.73706,-4.8355 -0.62252,-7.7737 0.78547,-2.0705 1.06902,-6.0661 0.63014,-8.879 -1.40676,-9.016 1.3496,-15.4684 10.40818,-24.3646 11.06875,-10.8706 39.04489,-42.7961 44.28414,-50.5358 2.31904,-3.4258 7.74863,-9.4629 12.06578,-13.4156 12.66345,-11.5949 13.6743,-14.1354 14.21585,-35.7298 0.25398,-10.1266 0.75374,-28.7853 1.11062,-41.4638 0.64885,-23.0517 0.64883,-23.0518 -2.77083,-28.1461 -1.88084,-2.8019 -3.70883,-7.2735 -4.06221,-9.9368 -1.17777,-8.8772 10.31521,-18.2475 20.06878,-16.3625 9.43678,1.8237 13.19164,15.9377 6.96398,26.1767 l -3.05642,5.0249 0.62485,41.9298 0.62487,41.9297 3.75339,6.7328 c 2.06438,3.7031 6.31236,9.7859 9.43998,13.5173 3.1276,3.7315 8.67241,11.1556 12.32176,16.4979 3.64939,5.3422 9.04416,12.8427 11.98838,16.6678 2.94425,3.8251 6.76846,9.3694 8.49826,12.3209 1.72981,2.9513 5.38135,7.781 8.11455,10.7324 2.73318,2.9515 7.20489,8.9886 9.93713,13.4157 2.73224,4.4272 6.88484,10.4642 9.22799,13.4156 5.9958,7.5524 9.00909,13.9105 7.84584,16.5554 -1.52147,3.4591 -1.72294,24.735 -0.26077,27.5368 0.87959,1.6853 0.80278,4.3232 -0.23507,8.0705 -1.12505,4.0622 -1.15243,6.6017 -0.10133,9.3968 1.05637,2.8088 1.02453,4.9929 -0.11944,8.1909 -1.10332,3.0845 -1.17452,5.8957 -0.24323,9.6046 0.88416,3.5216 0.86993,6.2558 -0.0434,8.3248 -0.94832,2.1486 -0.89854,4.8249 0.16443,8.8428 1.1361,4.2942 1.14288,6.7833 0.0267,9.7729 -1.29557,3.4699 -1.08577,4.5961 1.55452,8.3447 1.75722,2.4947 3.29185,6.9851 3.61702,10.5831 0.9584,10.6049 1.46801,11.641 8.00138,16.2687 9.93748,7.0391 13.64025,10.987 13.64025,14.5435 0,3.1183 -0.31446,2.997 -6.967,-2.6907 -3.83184,-3.2761 -9.85113,-7.9393 -13.37621,-10.3627 l -6.40921,-4.4063 0.85199,-6.2625 c 1.04552,-7.685 -0.8366,-13.2283 -4.69144,-13.8174 -2.35711,-0.3603 -2.95497,-1.5117 -3.36226,-6.4753 -0.27248,-3.3203 0.17972,-7.3747 1.00483,-9.0099 1.10475,-2.1891 1.10988,-3.4482 0.0196,-4.7764 -1.01804,-1.2401 -1.27735,-8.6958 -0.82983,-23.8585 0.35802,-12.1301 0.73136,-31.9655 0.82968,-44.0785 l 0.17873,-22.0238 -3.53009,-2.8453 c -1.94165,-1.5654 -3.5302,-3.2898 -3.5302,-3.8327 0,-1.9984 -13.23732,-21.117 -18.33246,-26.4774 -2.89223,-3.0429 -6.3702,-7.7449 -7.72882,-10.4487 -1.35862,-2.704 -4.9949,-7.5678 -8.08061,-10.8086 -3.08573,-3.2409 -6.00782,-7.1649 -6.49357,-8.7202 -0.48573,-1.5553 -2.88769,-5.3047 -5.33772,-8.3322 -2.45002,-3.0274 -4.45459,-6.1188 -4.45459,-6.8696 0,-0.7508 -2.38983,-3.7071 -5.31075,-6.5696 -2.9209,-2.8626 -6.24893,-7.0156 -7.39562,-9.2292 -4.14018,-7.9923 -5.5527,-10.2156 -8.51556,-13.4041 l -3.01244,-3.2416 0.97363,-45.3397 c 0.58611,-27.2943 1.51221,-46.0072 2.32683,-47.0167 0.74426,-0.9225 2.17583,-1.6771 3.18127,-1.6771 2.79357,0 2.26954,-9.3132 -0.81146,-14.4216 -3.35246,-5.5587 -7.1514,-5.6449 -14.41294,-0.3271 -7.05609,5.1673 -7.40881,9.8808 -1.24725,16.668 4.16553,4.5884 4.25172,4.939 3.88528,15.8084 -0.86102,25.5395 -1.28692,45.6959 -1.31785,62.3692 -0.0304,16.4141 -0.23349,17.8408 -2.76664,19.4401 -1.50359,0.9491 -2.7338,2.4517 -2.7338,3.3392 0,0.8874 -4.50124,6.0246 -10.00277,11.4159 -5.50156,5.3915 -11.62255,12.3673 -13.60224,15.502 -1.97968,3.1345 -3.95882,5.7001 -4.39805,5.7016 -0.6568,0 -25.37532,27.6294 -43.32567,48.4244 -4.21586,4.8839 -5.66213,10.947 -3.00697,12.6059 0.71825,0.4488 1.20557,4.5595 1.08292,9.1348 -0.1226,4.5753 -0.16554,19.1855 -0.0952,32.4669 0.30337,57.3757 0.54956,53.1399 -3.39173,58.3581 -3.21537,4.2571 -3.50363,5.586 -3.08751,14.2344 l 0.45897,9.5392 -11.07532,9.7958 c -10.82047,9.5702 -38.57966,36.0652 -73.05809,69.731 -9.44591,9.2232 -17.64016,16.9415 -18.20943,17.1517 -0.56928,0.2102 -10.11229,9.3834 -21.20671,20.3851 -11.0944,11.0018 -20.747,20.489 -21.45023,21.083 -0.70322,0.5938 -5.13478,5.1549 -9.84795,10.1354 -8.81843,9.3187 -11.28041,10.7806 -11.29713,6.7077 z"
         id="path3401"
         inkscape:connector-curvature="0" />
      <path
         style="fill:#20509d;stroke-width:13.2473259;stroke-linecap:round;stroke-miterlimit:4;stroke-dasharray:none"
         d="m 52.806981,-1338.9199 c 0.331303,-1.6603 0.871553,-6.3634 1.200559,-10.4513 1.79102,-22.254 3.37411,-39.832 6.036242,-67.0241 3.122361,-31.8931 3.154162,-33.4179 0.716597,-34.3636 -2.535515,-0.9836 -12.677671,1.9453 -35.063114,10.1254 -8.291287,3.03 -17.4323669,6.0444 -20.3135101,6.6988 -4.90381828,1.1139 -5.21239051,1.0052 -4.83062729,-1.7033 0.25851822,-1.8339 1.21638569,-2.7585 2.61651649,-2.5253 1.2147862,0.2022 12.8596189,-3.4922 25.8774059,-8.21 30.370143,-11.0062 37.623846,-13.3778 38.428478,-12.5644 0.359621,0.3635 0.04498,6.9149 -0.699094,14.5584 -0.744123,7.6437 -1.70115,18.4252 -2.126735,23.9592 -0.425574,5.534 -1.959817,22.4376 -3.409417,37.5639 -1.4496,15.1261 -2.60069,29.3132 -2.557976,31.5267 0.04271,2.2136 -0.273833,6.5905 -0.703431,9.7264 -0.603803,4.4075 -1.347732,5.7017 -3.27767,5.7017 -1.882832,0 -2.348502,-0.7422 -1.894224,-3.0185 z m 25.028009,0.7717 c 0.920697,-2.4255 1.042744,-58.0243 0.146684,-66.8209 -1.159745,-11.3851 -1.826803,-49.9605 -0.962225,-55.6443 0.797837,-5.2449 1.401612,-6.0986 4.891323,-6.9159 2.189623,-0.5128 7.265577,-2.2493 11.279899,-3.8587 4.014321,-1.6096 9.090259,-3.425 11.279899,-4.0343 2.18962,-0.6093 5.77265,-1.7518 7.96228,-2.5389 32.90604,-11.8291 61.83351,-21.6112 63.9091,-21.6112 1.59643,0 4.34819,-1.1139 17.12793,-6.9338 2.96748,-1.3513 6.87896,-2.457 8.69216,-2.457 1.81323,0 3.86408,-0.5624 4.55745,-1.2496 1.13369,-1.1237 24.88281,-9.8219 38.418,-14.0705 2.9195,-0.9166 6.20393,-2.0489 7.29875,-2.5162 5.44672,-2.3256 14.47428,-5.296 19.01715,-6.2571 2.79575,-0.5916 5.75175,-1.7514 6.56889,-2.5775 0.81714,-0.8262 2.74598,-1.5021 4.2863,-1.5021 1.54032,0 6.64611,-1.5543 11.34625,-3.4542 4.70011,-1.8997 13.02442,-4.9096 18.49849,-6.6887 5.47408,-1.7791 11.14719,-3.7857 12.60695,-4.4593 1.45975,-0.6737 6.8343,-2.5418 11.94342,-4.1515 5.10914,-1.6096 16.1568,-5.5616 24.55036,-8.7825 8.39357,-3.2206 17.50289,-6.2583 20.24295,-6.7505 l 4.9819,-0.8948 -0.68047,43.4159 c -0.37426,23.8787 -1.40856,58.5084 -2.29844,76.9549 -0.88991,18.4465 -1.56519,52.1031 -1.50064,74.7923 0.10557,37.0827 -0.0987,41.2532 -2.01995,41.2528 -1.9223,-2e-4 -2.12997,-4.3516 -2.06488,-43.2654 0.0398,-23.7959 0.78376,-57.754 1.65317,-75.4627 0.86941,-17.7086 1.73259,-49.705 1.91816,-71.1029 l 0.33742,-38.9053 -2.90602,-0.4182 c -2.43407,-0.3502 -21.28462,5.9551 -55.48402,18.5588 -3.64937,1.345 -10.51685,3.763 -15.26103,5.3732 -33.62988,11.4145 -77.25727,26.5029 -96.8744,33.5034 -12.77283,4.5582 -28.00068,9.7958 -33.83967,11.6391 -5.83901,1.8434 -15.69235,5.1789 -21.89627,7.4125 -6.20396,2.2333 -23.82049,8.4101 -39.14789,13.7259 -30.9124,10.7211 -33.355321,11.8005 -34.353709,15.1812 -1.704711,5.7722 -0.742318,57.5668 1.126459,60.6237 0.526312,0.8609 0.522641,15.4188 -0.0081,32.3511 -0.922013,29.411 -1.081941,30.786 -3.580799,30.786 -1.901131,0 -2.382695,-0.6138 -1.762824,-2.2468 z m 325.398,-6.138 c -0.43766,-4.6117 -1.11183,-22.27 -1.49813,-39.2409 -0.38634,-16.9707 -1.03985,-35.0818 -1.45228,-40.2468 -0.41244,-5.165 -0.0985,-12.2832 0.69777,-15.8182 0.98226,-4.3608 1.01792,-7.2388 0.11095,-8.9521 -1.29852,-2.4528 -1.75657,-14.6978 -3.39419,-90.7363 l -0.78298,-36.3539 7.71565,-3.7151 c 4.24361,-2.043 9.30069,-4.5495 11.23801,-5.5695 1.93729,-1.0203 4.36351,-1.855 5.39157,-1.855 1.02807,0 4.93248,-1.4939 8.67643,-3.3197 5.85986,-2.8578 14.5837,-6.4123 36.15501,-14.731 27.05746,-10.4344 42.27433,-19.6699 37.41333,-22.7069 -0.58908,-0.3681 -16.26479,-1.0082 -34.83496,-1.4225 -18.57025,-0.4141 -44.81169,-1.0458 -58.31438,-1.4036 -13.50269,-0.3578 -36.49378,-0.9568 -51.09129,-1.3312 -100.0198,-2.5643 -129.91198,-3.4414 -138.67634,-4.0683 -5.47407,-0.3917 -26.07647,-1.0153 -45.78312,-1.3858 -47.36721,-0.8906 -79.571227,-1.6646 -117.443603,-2.8219 -32.136928,-0.9822 -50.6866629,-0.8623 -54.7406652,0.354 -1.66021689,0.4981 -2.32233146,-0.058 -2.32233146,-1.9514 0,-2.3823 1.25570406,-2.7437 12.49223366,-3.5954 6.870728,-0.5206 13.098249,-0.5682 13.838938,-0.1053 0.740687,0.4627 17.662381,1.1671 37.603774,1.5653 48.901824,0.9766 79.366004,1.6627 116.543374,2.6249 17.15208,0.444 40.74032,1.0225 52.41832,1.2859 11.67801,0.2633 24.5172,0.8219 28.53151,1.2413 4.01431,0.4192 37.75448,1.3853 74.97813,2.1467 37.22365,0.7613 76.93551,1.705 88.24859,2.097 11.31307,0.3921 31.61688,0.9493 45.11958,1.2382 25.76979,0.5515 40.55376,2.5675 41.73982,5.692 0.38859,1.0238 -1.06559,3.4976 -3.23167,5.4975 -8.9834,8.295 -26.24715,16.6705 -58.41385,28.3398 -24.53061,8.8992 -42.96877,17.3164 -46.29113,21.1325 -3.02051,3.4694 -3.12141,4.2052 -2.25297,16.4304 1.01448,14.2812 1.49505,32.8848 3.42759,132.6902 0.7339,37.9017 1.71636,73.0675 2.18325,78.146 0.71349,7.761 0.52565,9.2339 -1.17764,9.2339 -1.5163,0 -2.22689,-2.1112 -2.82226,-8.3848 z m 20.3826,6.0369 c -0.007,-2.0673 26.79138,-29.5754 57.85091,-59.3795 5.77589,-5.5425 17.36909,-16.663 25.76266,-24.7123 8.39356,-8.0492 22.12849,-21.327 30.52207,-29.506 8.39355,-8.1791 22.21767,-21.0927 30.72025,-28.6969 8.50255,-7.6043 15.80974,-15.1473 16.23818,-16.7624 0.42845,-1.6152 0.80741,-5.9553 0.84215,-9.6446 0.0349,-3.6892 1.17056,-9.0749 2.52406,-11.9681 1.88299,-4.0249 2.16128,-6.1291 1.18498,-8.9605 -0.85283,-2.4732 -0.8037,-4.5922 0.14816,-6.3901 1.98571,-3.7511 1.70429,-9.7577 -0.60153,-12.8393 -1.70574,-2.2795 -1.70061,-2.9656 0.0422,-5.6544 2.56587,-3.9589 2.50886,-7.1655 -0.19679,-11.0707 -2.02224,-2.9187 -2.02224,-3.4171 0,-6.8778 2.58915,-4.4311 2.77785,-8.4233 0.5673,-12.0015 -1.27057,-2.0568 -1.25687,-3.6066 0.0647,-7.3009 1.41244,-3.9488 1.35349,-5.3232 -0.37316,-8.6987 -1.60037,-3.1286 -1.73706,-4.8355 -0.62252,-7.7737 0.78547,-2.0705 1.06902,-6.0661 0.63014,-8.879 -1.40676,-9.016 1.3496,-15.4684 10.40818,-24.3646 11.06875,-10.8706 39.04489,-42.7961 44.28414,-50.5358 2.31904,-3.4258 7.74863,-9.4629 12.06578,-13.4156 12.66345,-11.5949 13.6743,-14.1354 14.21585,-35.7298 0.25398,-10.1266 0.75374,-28.7853 1.11062,-41.4638 0.64885,-23.0517 0.64883,-23.0518 -2.77083,-28.1461 -1.88084,-2.8019 -3.70883,-7.2735 -4.06221,-9.9368 -1.17777,-8.8772 10.31521,-18.2475 20.06878,-16.3625 9.43678,1.8237 13.19164,15.9377 6.96398,26.1767 l -3.05642,5.0249 0.62485,41.9298 0.62487,41.9297 3.75339,6.7328 c 2.06438,3.7031 6.31236,9.7859 9.43998,13.5173 3.1276,3.7315 8.67241,11.1556 12.32176,16.4979 3.64939,5.3422 9.04416,12.8427 11.98838,16.6678 2.94425,3.8251 6.76846,9.3694 8.49826,12.3209 1.72981,2.9513 5.38135,7.781 8.11455,10.7324 2.73318,2.9515 7.20489,8.9886 9.93713,13.4157 2.73224,4.4272 6.88484,10.4642 9.22799,13.4156 5.9958,7.5524 9.00909,13.9105 7.84584,16.5554 -1.52147,3.4591 -1.72294,24.735 -0.26077,27.5368 0.87959,1.6853 0.80278,4.3232 -0.23507,8.0705 -1.12505,4.0622 -1.15243,6.6017 -0.10133,9.3968 1.05637,2.8088 1.02453,4.9929 -0.11944,8.1909 -1.10332,3.0845 -1.17452,5.8957 -0.24323,9.6046 0.88416,3.5216 0.86993,6.2558 -0.0434,8.3248 -0.94832,2.1486 -0.89854,4.8249 0.16443,8.8428 1.1361,4.2942 1.14288,6.7833 0.0267,9.7729 -1.29557,3.4699 -1.08577,4.5961 1.55452,8.3447 1.75722,2.4947 3.29185,6.9851 3.61702,10.5831 0.9584,10.6049 1.46801,11.641 8.00138,16.2687 9.92671,7.0314 13.64025,10.988 13.64025,14.5334 0,3.1516 -0.15968,3.0981 -4.97642,-1.6616 -2.73704,-2.7047 -8.08526,-7.014 -11.88497,-9.5765 -8.58203,-5.7873 -8.87206,-6.2744 -8.51014,-14.293 0.38597,-8.5517 -0.69835,-11.6512 -4.60057,-13.1512 -2.67955,-1.0299 -3.20417,-2.1461 -3.20417,-6.8183 0,-3.7564 0.75518,-6.1453 2.30471,-7.2907 2.13478,-1.578 2.14514,-1.8856 0.1406,-4.1725 -1.71952,-1.9617 -2.15893,-5.4369 -2.13883,-16.9153 0.014,-7.9454 0.54944,-14.7736 1.19004,-15.1741 0.64145,-0.4006 0.66614,-1.7458 0.0549,-2.994 -1.37169,-2.8009 -1.19023,-47.2572 0.2021,-49.5169 1.08001,-1.7528 -2.4103,-9.7659 -4.2538,-9.7659 -0.60777,0 -4.02619,-4.6622 -7.59645,-10.3606 -3.57025,-5.6983 -9.62809,-13.9965 -13.46187,-18.4406 -3.83377,-4.4439 -7.82212,-9.8937 -8.86303,-12.1105 -1.04089,-2.217 -4.62236,-7.0359 -7.95879,-10.7092 -3.33642,-3.6732 -6.06624,-7.3675 -6.06624,-8.2095 0,-0.8419 -2.38868,-4.5638 -5.30818,-8.2707 -2.9195,-3.7067 -5.30818,-7.1538 -5.30818,-7.6597 0,-0.506 -2.89936,-4.3438 -6.44304,-8.5281 -3.54369,-4.1844 -7.56559,-9.721 -8.93757,-12.3036 -1.37198,-2.5825 -3.69784,-6.2047 -5.1686,-8.0494 -2.59244,-3.2515 -2.65384,-4.7213 -2.01058,-48.1343 0.66089,-44.6025 0.67541,-44.7884 3.64936,-46.7829 6.212,-4.1665 2.1029,-20.4574 -5.15996,-20.4574 -1.45478,0 -3.94941,0.6792 -5.54364,1.5093 -9.74176,5.0723 -11.67171,12.7159 -4.87321,19.3004 l 3.99711,3.8715 -0.68422,27.571 c -0.37632,15.1639 -0.70994,35.1173 -0.74139,44.3406 -0.0544,15.9684 -0.22854,17.0241 -3.64465,22.0998 -1.97312,2.9316 -7.22962,8.9991 -11.68114,13.483 -4.45151,4.484 -10.01057,10.8279 -12.35348,14.0975 -2.34289,3.2697 -8.98903,11.0876 -14.76919,17.373 -43.19765,46.974 -42.92395,46.5899 -37.5053,52.6429 2.12512,2.3739 2.12007,2.7767 -0.0868,6.9195 -2.23734,4.1999 -2.23771,4.6225 -0.008,9.3487 1.99693,4.2335 2.0954,5.6196 0.68018,9.576 -1.18906,3.3243 -1.26157,5.3691 -0.2576,7.2655 1.75424,3.3137 1.79752,8.9433 0.0934,12.162 -0.87251,1.6483 -0.81531,3.879 0.17296,6.7449 1.09969,3.1891 1.07633,5.6329 -0.0914,9.5732 -1.22514,4.134 -1.20468,6.3071 0.0935,9.9367 1.34158,3.7507 1.32898,5.5758 -0.0656,9.4744 -1.25677,3.5135 -1.32937,5.2308 -0.26659,6.3052 2.39109,2.4172 1.68796,5.6481 -2.34599,10.7797 -3.5727,4.545 -3.76567,5.4208 -3.14031,14.2568 l 0.66632,9.4144 -7.744,7.0574 c -19.44439,17.7203 -54.01429,50.3694 -77.5416,73.2332 -22.5725,21.936 -54.21233,52.7446 -66.68408,64.9323 -5.65654,5.5275 -10.28461,10.7388 -10.28461,11.5801 0,0.8415 -0.89576,1.5299 -1.99057,1.5299 -1.09483,0 -1.99491,-1.0565 -2.0002,-2.3479 z"
         id="path3399"
         inkscape:connector-curvature="0" />
      <rect
         style="opacity:1;fill:#2779fd;fill-opacity:1;fill-rule:nonzero;stroke:#000000;stroke-width:0.05611338;stroke-linecap:round;stroke-linejoin:round;stroke-miterlimit:4;stroke-dasharray:none;stroke-opacity:1"
         id="rect4199"
         width="218.59705"
         height="556.53058"
         x="-96.788109"
         y="-2206.77"
         rx="6.0666723"
         ry="6.1954231" />
      <path
         style="fill:#003ea5;fill-opacity:1;stroke:#090f1d;stroke-width:14.14057064;stroke-linecap:round;stroke-miterlimit:4;stroke-dasharray:none;stroke-opacity:1"
         d="m 56.926572,-1343.2801 c 0.421372,-4.4271 0.989953,-8.3009 1.26351,-8.6083 0.96574,-1.0854 0.217445,9.9955 -0.898412,13.3037 -0.732838,2.1728 -0.861416,0.5192 -0.365098,-4.6954 z m 21.372737,-6.3712 c 0.582838,-21.682 1.177268,-23.3811 1.408515,-4.026 0.116807,9.7769 -0.235498,17.7764 -0.782902,17.7771 -0.547412,7e-4 -0.828937,-6.1873 -0.625613,-13.7511 z m 301.533401,12.4083 c 0,-0.7379 0.59716,-1.3417 1.32704,-1.3417 0.72987,0 1.32705,0.6038 1.32705,1.3417 0,0.7379 -0.59718,1.3416 -1.32705,1.3416 -0.72988,0 -1.32704,-0.6037 -1.32704,-1.3416 z m 45.7831,0 c 0.45109,-0.7379 1.08351,-1.3417 1.40537,-1.3417 0.32185,0 0.5852,0.6038 0.5852,1.3417 0,0.7379 -0.63243,1.3416 -1.40537,1.3416 -0.77296,0 -1.0363,-0.6037 -0.5852,-1.3416 z m -22.49947,-7.4396 c -0.50762,-3.4221 -0.62436,-6.5238 -0.25942,-6.8928 0.36493,-0.369 1.07884,2.1291 1.58645,5.5512 0.50762,3.4221 0.62437,6.5238 0.25943,6.8928 -0.36493,0.3689 -1.07885,-2.1291 -1.58646,-5.5512 z m 41.0781,-11.9808 c 37.71477,-37.7377 75.89868,-74.6852 74.29175,-71.8863 -1.11901,1.9491 -13.42105,14.1501 -51.02886,50.6096 -11.2913,10.9466 -23.23472,22.6196 -26.54091,25.9405 -3.30621,3.3208 -23.50531,32.7225 -25.69494,34.5266 -2.18961,1.8043 19.4846,-29.6963 28.97296,-39.1904 z m -63.49274,-3.7217 c -0.42197,-4.6116 -0.27465,-12.3088 0.32734,-17.1048 0.99809,-7.9513 1.11063,-7.2119 1.27619,8.3848 0.0997,9.4076 -0.0476,17.1049 -0.32736,17.1049 -0.2799,0 -0.85418,-3.7732 -1.27617,-8.3849 z m -321.616572,-3.6892 c 0,-4.0584 0.248777,-5.7183 0.552834,-3.6894 0.304061,2.0291 0.304061,5.3496 0,7.3786 -0.304057,2.0293 -0.552834,0.3689 -0.552834,-3.6892 z m 1.327045,-16.0988 c 0,-4.0583 0.248779,-5.7184 0.552836,-3.6892 0.30406,2.0289 0.30406,5.3494 0,7.3785 -0.304057,2.0291 -0.552836,0.3689 -0.552836,-3.6893 z m 17.934365,-9.7024 c -0.490231,-15.9307 0.779314,-20.1839 2.029574,-6.7997 1.191438,12.7543 1.077485,18.8979 -0.367261,19.8006 -0.726068,0.4538 -1.413775,-4.925 -1.662313,-13.0009 z m 322.896222,2.3909 c -0.10174,-4.5744 0.31342,-7.4383 0.9721,-6.7078 0.63218,0.701 0.71199,4.2929 0.17731,7.9822 l -0.9721,6.7079 z m -21.173,-15.495 c 0.0152,-8.4855 0.46149,-16.9373 0.99193,-18.782 0.53045,-1.8447 0.72407,4.4942 0.43029,14.0864 -0.67966,22.1917 -1.45802,24.7615 -1.42222,4.6956 z m -318.348654,7.3786 c 0.0099,-3.6894 0.267683,-5.0394 0.572708,-3.0001 0.305034,2.0392 0.296878,5.0578 -0.01808,6.7077 -0.314986,1.6501 -0.564556,-0.018 -0.554598,-3.7076 z m 338.959044,-20.4019 c -0.44179,-10.1769 -0.34837,-20.6166 0.20759,-23.199 0.70247,-3.2631 1.30387,2.022 1.97126,17.3228 0.53979,12.3752 0.44888,22.5353 -0.2076,23.1989 -0.67261,0.6801 -1.50865,-6.667 -1.97125,-17.3227 z m -337.650114,4.9739 c 0,-3.3205 0.258794,-4.6789 0.575099,-3.0185 0.316305,1.6601 0.316305,4.3767 0,6.037 -0.316305,1.6602 -0.575099,0.3018 -0.575099,-3.0185 z m 14.503131,-4.1577 c -0.146877,-4.8693 -0.540076,-13.623 -0.873765,-19.4526 l -0.606709,-10.5997 1.310419,9.391 c 0.72074,5.165 1.113929,13.9187 0.873774,19.4527 l -0.436653,10.0617 z m -13.202867,-8.5872 c 0.01467,-2.9515 0.286492,-4.001 0.603913,-2.3321 0.317421,1.6687 0.305373,4.0836 -0.02679,5.3663 -0.332147,1.2826 -0.591855,-0.083 -0.57713,-3.0342 z m 458.92385,-9.5372 c 1.76946,-1.925 13.66334,-13.2444 26.43086,-25.1544 41.29478,-38.5206 37.66765,-34.4477 38.6066,-43.3521 l 5.31065,-16.9832 -4.29132,17.0308 0.1951,7.864 -7.56668,6.8932 c -11.90747,10.8475 -41.28581,38.4325 -51.39787,48.2601 -9.19732,8.9388 -13.35658,12.0446 -7.28734,5.4416 z m -457.533784,-7.2325 c 0,-4.0582 0.248766,-5.7183 0.552823,-3.6892 0.304066,2.0291 -9.790397,161.1844 -10.094459,163.2136 -0.304057,2.029 9.541636,-155.4661 9.541636,-159.5244 z m 316.208044,-2.0122 c -0.75913,-5.2529 -0.57383,-14.4123 0.53333,-26.3635 0.93315,-10.0727 1.34338,-20.3357 0.91161,-22.8066 -0.43176,-2.4708 -0.27183,-6.6056 0.35544,-9.1879 1.39334,-5.7368 1.50424,17.8492 0.22077,46.9547 -0.79825,18.1016 -0.93861,18.8936 -2.02115,11.4033 z m -378.5641721,4.113 c 0.9101266,0.3532 5.16918,-0.5804 9.4645651,-2.0744 4.295382,-1.4939 8.043809,-2.4798 8.329836,-2.1906 0.739229,0.7473 -15.5648459,6.189 -18.5431223,6.189 0,0 -1.0563016,-2.0283 0.7487212,-1.924 z m 20.8200151,-6.0203 c 2.49379,-1.4471 40.926277,-14.8623 42.577901,-14.8623 1.650954,0 1.550148,9.0229 -0.112417,10.0617 -0.75265,0.4702 -1.327048,-0.6568 -1.327048,-2.6039 0,-2.9032 -0.601115,-3.4332 -3.894435,-3.4332 -2.141941,0 -11.469686,2.7168 -20.72832,6.0371 -16.610189,5.9567 -20.414129,7.0624 -16.515682,4.8006 z m 52.547195,-11.5083 c 0.941939,-10.9916 1.118491,-11.4033 4.889398,-11.4033 l 2.871051,0 -2.949374,2.0883 c -2.215476,1.5688 -2.972576,3.4882 -3.042634,7.714 -0.05136,3.0942 3.835169,175.2722 3.15318,176.7479 -0.826624,1.7888 -5.458124,-168.8865 -4.921621,-175.1469 z m 323.814802,6.6042 c -0.44172,-1.1638 -1.09667,-16.1055 -1.45542,-33.2037 -0.56632,-26.9926 -0.40944,-30.6525 1.1909,-27.7836 1.4048,2.5184 1.8817,10.4147 2.00537,33.2037 0.0892,16.4446 -0.0854,29.8995 -0.38771,29.8995 -0.3025,0 -0.9114,-0.9522 -1.35314,-2.1159 z m 390.67085,-13.4981 c -2.55456,-2.5683 -7.77371,-6.7749 -11.59813,-9.3479 -8.34671,-5.6152 -9.32511,-7.4333 -8.225,-15.2849 l 0.84586,-6.0372 0.19931,7.0155 0.19931,7.0153 10.28461,8.1982 c 5.65653,4.509 11.10828,8.6641 12.115,9.2337 1.00671,0.5696 71.14353,56.6756 70.86668,57.457 -0.27686,0.7814 -72.13309,-55.6813 -74.68764,-58.2497 z m -703.334611,-6.5217 c 1.824688,-1.0546 4.213365,-1.9152 5.308182,-1.9125 1.094817,0 -0.01886,0.887 -2.474697,1.9649 -5.651015,2.4803 -7.16756,2.4521 -2.833485,-0.052 z m 11.943415,-4.6956 c 1.094806,-0.7153 3.184896,-1.2673 4.644666,-1.2267 2.6541,0.073 2.6541,0.073 0,1.2267 -1.45977,0.6341 -3.54986,1.1863 -4.644666,1.2267 -1.769393,0.065 -1.769393,-0.071 0,-1.2267 z m 10.616366,-3.3539 c 1.82471,-1.0544 4.51195,-1.8927 5.9717,-1.8629 1.73789,0.036 1.05074,0.6789 -1.99055,1.8629 -6.14019,2.3904 -8.11753,2.3904 -3.98115,0 z m 10.61638,-3.3539 c 1.09481,-0.7152 2.88632,-1.2673 3.98113,-1.2268 1.31252,0.048 1.08652,0.4664 -0.66351,1.2268 -3.64817,1.5848 -5.74341,1.5848 -3.31762,0 z m 17.25161,-5.7973 c 0,-1.1388 14.80253,-6.4315 16.43895,-5.8776 0.81189,0.2748 -1.80828,1.5927 -5.82259,2.9286 -4.01432,1.3361 -8.04522,2.7078 -8.95756,3.0482 -0.91234,0.3403 -1.6588,0.2958 -1.6588,-0.099 z m 18.57864,-6.817 c 0,-0.7737 17.97637,-6.1891 20.11171,-6.0586 0.98152,0.06 -2.69422,1.5579 -8.16829,3.3286 -10.12566,3.2752 -11.94342,3.6907 -11.94342,2.73 z m 613.09545,-3.2941 c 0,-0.8791 -1.49293,-2.1721 -3.31761,-2.8736 -2.80577,-1.0784 -3.31762,-2.137 -3.31762,-6.862 0,-3.7564 0.75518,-6.1453 2.3047,-7.2907 2.13478,-1.578 2.14514,-1.8857 0.1406,-4.1725 -1.71953,-1.9617 -2.15893,-5.4369 -2.13884,-16.9153 0.014,-7.9454 0.54945,-14.7736 1.19006,-15.1741 0.6406,-0.4001 0.50312,-1.9774 -0.30551,-3.505 -0.97243,-1.8368 -1.13705,-6.2384 -0.48625,-12.9987 0.54124,-5.6218 1.27918,-9.316 1.63986,-8.2092 0.36069,1.1067 1.48871,2.9823 2.50669,4.1677 1.58895,1.8503 1.56445,2.3957 -0.17316,3.8535 -2.43199,2.0406 -2.69875,10.8835 -0.39849,13.2089 1.28276,1.2968 1.28276,2.1984 0,4.2749 -2.05237,3.3223 -2.08593,9.5695 -0.0753,14.0305 1.31296,2.9131 1.17841,3.7144 -0.87907,5.2354 -2.33009,1.7225 -2.3357,2.0849 -0.13744,8.8792 1.6206,5.009 1.87806,7.5018 0.87906,8.5118 -2.38922,2.4154 -1.58929,9.2489 1.46773,12.5385 1.58427,1.7048 2.48003,3.5046 1.99056,3.9994 -0.48945,0.4948 -0.88992,0.1804 -0.88992,-0.6987 z m -587.88158,-4.8858 c 1.82469,-1.0546 4.21338,-1.9151 5.3082,-1.9125 1.09481,0 -0.0189,0.887 -2.4747,1.965 -5.65102,2.4802 -7.16755,2.452 -2.8335,-0.052 z m 8.71927,-3.5068 c 0.85175,-1.3933 9.58722,-4.1872 11.29367,-3.6121 0.77614,0.2615 -1.584,1.4046 -5.24479,2.5403 -3.66078,1.1356 -6.38277,1.618 -6.04888,1.0718 z m 17.08002,-5.8102 c 1.41678,-1.1475 3.50688,-2.0386 4.64467,-1.9804 1.78699,0.091 1.79763,0.2074 0.0782,0.852 -1.09479,0.4104 -3.18489,1.3016 -4.64464,1.9805 -2.61162,1.2144 -2.61286,1.2009 -0.0782,-0.8521 z m 10.6945,-4.0934 c 4.47894,-2.1338 9.54506,-2.8262 5.9717,-0.8164 -1.09481,0.616 -3.78208,1.4783 -5.9717,1.9165 l -3.98115,0.7967 z m 179.67777,-5.3716 c -0.76985,-11.3139 -0.60818,-36.9531 0.2184,-34.6329 1.57549,4.4227 2.62321,31.8718 1.3731,35.9745 l -1.22634,4.0247 z m 193.10962,2.0492 c 2.50694,-3.9537 2.71157,-8.2761 0.49776,-10.5142 -1.25595,-1.2697 -1.08464,-2.5144 0.78686,-5.7173 2.66137,-4.5546 2.07106,-9.6709 -1.58951,-13.7763 -2.05613,-2.3062 -2.03835,-2.5893 0.26929,-4.2953 3.10986,-2.2988 3.18624,-7.9533 0.1532,-11.3415 -2.26301,-2.5279 -1.96808,-6.7132 0.47309,-6.7132 2.72335,0 2.93747,-6.9894 0.34993,-11.4228 -2.25877,-3.8702 -2.3597,-4.7855 -0.76257,-6.916 2.4692,-3.2937 2.39555,-8.4266 -0.16187,-11.2832 -1.89999,-2.1225 -1.88716,-2.7222 0.14295,-6.691 1.91929,-3.7521 1.9953,-5.0784 0.54542,-9.5196 -0.92653,-2.8382 -1.28942,-5.5596 -0.80647,-6.0477 0.48294,-0.4884 0.8781,0.2216 0.8781,1.5778 0,1.3561 1.01542,3.6 2.25651,4.9864 2.12512,2.3739 2.12007,2.7767 -0.0868,6.9195 -2.23734,4.1999 -2.23771,4.6225 -0.008,9.3487 1.99693,4.2335 2.09541,5.6196 0.68019,9.576 -1.18908,3.3243 -1.26158,5.3691 -0.25762,7.2655 1.75424,3.3137 1.79752,8.9433 0.0934,12.162 -0.87251,1.6483 -0.81531,3.879 0.17297,6.7449 1.09968,3.1891 1.07634,5.6329 -0.0914,9.5732 -1.22516,4.134 -1.20469,6.3071 0.0935,9.9367 1.34157,3.7507 1.32896,5.5758 -0.0656,9.4744 -1.25678,3.5135 -1.32937,5.2308 -0.26659,6.3052 2.38022,2.4062 1.68437,5.911 -1.96966,9.9207 -3.00558,3.2982 -3.16987,3.3535 -1.32706,0.4471 z m -352.21817,-4.0615 c 3.28444,-1.3933 7.16606,-2.5473 8.62581,-2.5643 1.45974,-0.018 -0.63035,1.1368 -4.64468,2.5643 -9.30803,3.31 -11.78416,3.31 -3.98113,0 z m 12.49217,-3.6893 c 1.3154,-1.3354 13.41415,-5.5949 19.79544,-6.9692 2.79575,-0.6023 5.75175,-1.7706 6.56889,-2.5967 0.81714,-0.8262 2.79734,-1.5021 4.40043,-1.5021 1.60309,0 7.30607,-1.8091 12.67328,-4.0201 10.82008,-4.4573 15.60846,-5.4369 6.78542,-1.3879 -5.52993,2.5376 -48.53588,17.4821 -50.3086,17.4821 -0.49828,0 -0.45997,-0.4527 0.0853,-1.0061 z m 132.65521,-0.9552 c -0.40947,-1.0786 -0.16823,-5.7573 0.53605,-10.397 l 1.28053,-8.4358 0.16911,10.397 c 0.16331,10.0422 -0.42588,12.5452 -1.98569,8.4358 z m -76.14096,-18.6746 c 0,-0.3991 2.53797,-1.4068 5.63993,-2.2395 3.10198,-0.8327 7.43148,-2.2945 9.6211,-3.2485 7.09064,-3.0894 22.08744,-7.6691 22.78941,-6.9595 0.37554,0.3797 -1.31401,1.2948 -3.75456,2.0339 -2.44053,0.7388 -9.21472,3.1177 -15.05372,5.2864 -11.31689,4.2031 -19.24216,6.3149 -19.24216,5.1272 z m 76.16539,-12.2324 0.13977,-10.7326 -4.65912,0.1246 c -2.56253,0.069 -10.55127,2.3561 -17.75277,5.0833 -7.20148,2.7274 -13.32199,4.7278 -13.60113,4.4457 -0.78328,-0.7919 27.41373,-11.3787 33.02717,-12.4002 l 4.97642,-0.9058 -4.64342,289.2662 c -0.0865,4.6938 3.88927,-270.3868 3.35133,-268.1734 -0.64603,2.6584 -0.93061,0.3813 -0.83825,-6.7078 z m 12.90372,-8.8957 -0.15702,-8.8954 7.63053,-3.6715 c 4.19679,-2.0192 9.21558,-4.506 11.15288,-5.526 1.9373,-1.0203 4.36352,-1.855 5.3916,-1.855 1.02806,0 4.93246,-1.4939 8.6764,-3.3198 5.85988,-2.8577 14.58372,-6.4123 36.15501,-14.7309 21.32568,-8.2241 37.92266,-17.1968 38.91663,-21.0392 0.70059,-2.7085 3.62035,-2.9526 4.47062,-0.3739 0.49945,1.5149 -562.918691,212.769 -570.043347,215.4507 -2.706983,1.0189 528.877657,-193.0139 517.806317,-188.9011 -11.07133,4.1127 -22.41758,8.6502 -25.21389,10.0835 -2.79628,1.4332 -9.86157,4.5042 -15.70057,6.8241 -14.56152,5.7856 -13.19165,299.4621 -13.38026,304.6622 0,0 -3.97769,-286.0503 -4.53486,-283.8368 -0.78808,3.1312 -1.04789,2.0497 -1.17004,-4.8709 z m 366.69046,-20.5826 c -1.15997,-6.2508 -0.34825,-6.9637 2.45892,-2.1595 1.9306,3.304 1.97743,4.05 0.34041,5.4234 -1.57025,1.3173 -2.05378,0.7537 -2.79933,-3.2639 z m 0.0652,-10.7686 c 0.46765,-2.2135 0.93972,-5.0476 1.0491,-6.2979 0.14816,-1.6943 0.63355,-1.9088 1.90506,-0.8421 2.36323,1.9828 -4.53453,24.2264 -4.251,19.1541 l 0.44661,-7.9893 z m -3.4929,-14.4217 c -1.1139,-0.9225 -5.41487,-6.8084 -9.55772,-13.0802 -4.14283,-6.2719 -10.45485,-14.9244 -14.02672,-19.2278 -3.57184,-4.3035 -6.80359,-9.1332 -7.18169,-10.7325 -0.62978,-2.6644 -0.55693,-2.7033 0.86911,-0.4634 0.85606,1.3447 6.18457,8.4847 11.84109,15.8666 5.65654,7.382 10.28461,13.9001 10.28461,14.4849 0,0.5847 2.43948,4.1605 5.42108,7.9462 5.46307,6.9364 6.0738,8.2893 2.35024,5.2062 z m -166.54261,-15.7635 c 1.20632,-1.8446 7.11695,-8.5669 13.13472,-14.9386 17.26886,-18.2843 30.57928,-33.3531 37.16764,-42.0778 6.05438,-8.0176 24.86506,-27.5766 24.86506,-25.8543 0,0.498 -4.13373,5.1008 -9.18605,10.2288 -5.05234,5.1279 -11.05816,11.9489 -13.34625,15.1576 -2.2881,3.2086 -8.45556,10.3034 -13.70549,15.7656 -5.24992,5.4626 -10.44106,11.2583 -11.53588,12.8796 -1.09483,1.6213 -8.19978,9.5283 -15.78883,17.5706 -7.58902,8.0423 -12.81124,13.1131 -11.60492,11.2685 z m -140.51442,-1.4017 c -0.47879,-0.7832 4.01977,-1.2197 11.57014,-1.1227 18.76761,0.2412 22.22984,1.8166 4.67856,2.1289 -8.71395,0.155 -15.80732,-0.2841 -16.2487,-1.0062 z m -50.39097,-1.324 c -5.05743,-1.2468 19.5702,-1.3481 25.21389,-0.104 2.3312,0.514 -1.24365,0.9206 -8.62581,0.9813 -6.93381,0.058 -14.39846,-0.3381 -16.58808,-0.8777 z m -57.72653,-1.2989 c -4.63184,-0.728 -3.14313,-0.9538 6.63523,-1.0064 8.10089,-0.043 11.42114,0.3162 9.28935,1.0064 -3.93004,1.2723 -7.82897,1.2723 -15.92458,0 z m 21.58978,0.4119 c 1.29116,-0.3402 3.08269,-0.3178 3.98112,0.049 0.89847,0.3674 -0.15795,0.6459 -2.34758,0.6184 -2.18963,-0.027 -2.92473,-0.3281 -1.63354,-0.6681 z m -57.063,-1.3417 c 1.29116,-0.3401 3.08268,-0.3176 3.98113,0.049 0.89846,0.3675 -0.15795,0.6458 -2.34758,0.6186 -2.18963,-0.027 -2.92472,-0.3282 -1.63355,-0.6684 z m -71.35401,-1.7534 -18.57864,-0.7866 17.91512,-0.1438 c 9.85331,-0.08 19.40805,0.3398 21.23274,0.9304 2.44383,0.7913 2.61858,1.0362 0.66352,0.9304 -1.45975,-0.08 -11.01448,-0.4977 -21.23274,-0.9304 z m 49.47696,0.351 c 3.85633,-0.2718 9.82804,-0.2689 13.27048,0.011 3.44245,0.2755 0.28727,0.4978 -7.01149,0.4942 -7.29875,0 -10.11529,-0.2288 -6.25899,-0.5006 z m -117.48809,-2.6787 c 3.46691,-0.2763 9.14004,-0.2763 12.60694,0 3.46692,0.2764 0.63035,0.5026 -6.30347,0.5026 -6.93381,0 -9.77037,-0.2262 -6.30347,-0.5026 z m 26.5662,0.058 c 1.29116,-0.3403 3.08268,-0.3179 3.98112,0.049 0.89846,0.3675 -0.15795,0.6459 -2.34758,0.6184 -2.18964,-0.027 -2.92472,-0.3281 -1.63354,-0.6681 z m -83.62919,-1.3982 c 3.4669,-0.2764 9.14004,-0.2764 12.60694,0 3.46691,0.2764 0.63033,0.5026 -6.30348,0.5026 -6.9338,0 -9.77036,-0.2262 -6.30346,-0.5026 z m 25.21388,0.061 c 1.27729,-0.3375 3.36738,-0.3375 4.64466,0 1.27729,0.3373 0.23223,0.6135 -2.32232,0.6135 -2.55458,0 -3.59961,-0.2762 -2.32234,-0.6135 z m -196.668156,-6.3478 c 0,-1.1644 80.710254,1.2842 81.7627,2.348 0.38002,0.3842 -1.90176,1.0206 -5.070627,1.4142 -12.2929631,1.5266 -76.692073,-2.7852 -76.692073,-3.7622 z m 125.645022,4.5683 c 8.926591,-0.5456 18.182733,-0.5676 20.569218,-0.049 2.386476,0.5185 -4.917107,0.965 -16.230168,0.9919 l -20.569221,0.049 z m -40.423514,-0.9081 c 1.291174,-0.3401 3.082685,-0.3177 3.981141,0.049 0.898452,0.3674 -0.157963,0.6458 -2.347588,0.6184 -2.189626,-0.027 483.852705,11.1304 485.143885,10.7904 z m 694.745818,-23.5538 c -4.0179,-5.0125 -7.05979,-10.397 -5.87351,-10.397 0.22493,0 3.19141,3.6222 6.59221,8.0493 6.97783,9.0838 6.34303,11.1575 -0.7187,2.3477 z m -11.72239,-17.1667 c -2.33894,-2.9856 -3.96532,-5.7188 -3.61418,-6.0737 0.57319,-0.5795 5.63739,5.527 8.1479,9.8248 2.06564,3.5363 -0.46461,1.4426 -4.53372,-3.7511 z m -10.8709,-15.0308 c -6.00526,-7.2719 -10.31338,-13.6407 -10.31338,-15.2468 0,-0.8721 1.34097,0.8293 12.54532,15.9176 6.3096,8.4968 5.0183,8.1087 -2.23194,-0.6708 z m -28.66149,-19.1173 c 2.06514,-5.1927 3.7506,-7.1888 3.7506,-4.4416 0,1.1725 -1.20401,3.5572 -2.67559,5.2991 l -2.6756,3.1671 z m 15.13088,-0.5586 c -2.09063,-2.3354 -2.28729,-6.5195 -2.14613,-45.6592 0.0856,-23.6984 0.68428,-44.4944 1.33068,-46.2131 0.64642,-1.7188 5.33783,-9.1808 6.54802,-9.6503 1.87389,-0.7268 -1.36857,5.4667 -3.64462,9.1898 -2.55894,4.1858 -2.65303,6.1775 -2.21179,46.8291 0.30301,27.9155 0.97011,43.4195 1.94766,45.2662 1.85267,3.4994 1.17536,3.5878 -1.82382,0.2375 z m -12.26115,-2.1579 c 0,-5.5341 0.23424,-23.1924 0.52055,-20.4255 0.28629,2.7669 1.87249,-70.4879 1.58619,-67.7209 -0.28631,2.7669 -2.10674,93.6803 -2.10674,88.1464 z m 1.32705,-47.5921 c 0,-5.534 0.23423,-7.7979 0.52054,-5.031 0.2863,2.767 0.2863,7.2948 0,10.0618 -0.28631,2.7671 -0.52054,0.503 -0.52054,-5.0308 z m -0.3414,-18.223 c 0.0638,-1.5629 0.37814,-1.8806 0.80174,-0.8105 0.38336,0.9685 0.33621,2.1255 -0.10473,2.5714 -0.44097,0.4456 -0.75462,-0.3467 -0.697,-1.7609 z m -1.43618,-22.335 c -4.06015,-6.1746 -7.38393,-15.8896 -3.83704,-12.4357 2.00189,1.9495 6.58966,13.1319 6.31771,13.9566 -0.27197,0.8249 -1.38825,0.1405 -2.48067,-1.5209 z m 17.36074,-13.8873 c 0.0638,-1.5628 0.37813,-1.8807 0.80175,-0.8106 0.38334,0.9687 0.33621,2.1257 -0.10473,2.5715 -0.44096,0.4457 -0.7546,-0.3466 -0.69699,-1.7609 z m -17.67918,-8.2729 c 1.71869,-1.6602 3.83806,-3.0003 4.7097,-2.9778 12.96948,11.2507 0.39047,0.7108 -1.06928,1.5294 -1.45976,0.8187 -3.57911,2.1587 -4.7097,2.9778 -1.13058,0.819 -0.6494,0.1306 1.06928,-1.5294 z"
         id="path3397"
         inkscape:connector-curvature="0"
         sodipodi:nodetypes="sccsssssssssssssssscscssssscssssssssssssssssssccsccscssssssssscssssssscsscsssssssscccssssssssssssscscccsscsssssscsssssssssscsscccsscccccccscccsccscccccsccssssccsscsccsccscccccccssscscccccccccccscccccccssscscssscsssscsscscscssccsccssccccscccsscsscccscscscscscssccscscccssccsscssscscscssssssscsscscssccsssccsssscssscsssscccccsccsccccccccccsccccscccccsssscccccssssssssscssscscscccccssssccscssssssccsssccsscsssssssssccccccscccccccccscc" />
      <g
         transform="matrix(0.9481597,0,0,0.96864991,233.59579,-3096.6937)"
         id="layer1-4"
         inkscape:label="Layer 1"
         style="stroke:#00123d;stroke-opacity:1">
        <path
           sodipodi:nodetypes="cssscccccccsscccscsscccsscccccccccsssscccccccccss"
           inkscape:connector-curvature="0"
           id="path3445-8-7"
           d="m 157.78306,1343.561 c -5.55425,-12.1548 -13.9751,-32.4122 -18.71309,-45.017 -12.13762,-32.2902 -14.55566,-35.0183 -17.12729,-19.3244 -1.15144,7.0273 -2.172,28.6628 -2.2676,48.0787 l -0.17383,35.3026 -33.964181,-0.9254 -33.964077,-0.9259 0,-140.7815 0,-140.7809 33.836007,-0.9248 33.836221,-0.9242 5.13999,10.7462 c 2.82723,5.9109 12.31915,29.1625 21.09372,51.6711 l 15.95367,40.9245 0.92234,-52.3833 0.92231,-52.3837 32.96487,-0.9349 c 24.34082,-0.6904 33.60909,0.1683 35.42737,3.2742 2.81942,4.819 3.50955,274.3536 0.72252,282.2297 -1.50813,4.2619 -7.37941,5.1788 -33.1714,5.1788 l -31.33898,0 -10.09848,-22.0998 z m -495.86037,10.0531 c -0.79673,-2.2513 -1.09379,-65.9714 -0.66016,-141.5999 l 0.78853,-137.506 33.96424,-0.9258 33.96399,-0.9255 0,113.059 0,113.0599 49.81413,0 49.81407,0 0,29.4659 0,29.466 -83.11824,0 c -63.72026,0 -83.45622,-0.9553 -84.56656,-4.0936 z m 196.48194,2.8074 c -0.79659,-2.2513 -1.09362,-65.9714 -0.65996,-141.5999 l 0.78847,-137.506 33.96411,-0.9258 33.964126,-0.9255 0,113.059 0,113.0599 49.814008,0 49.814167,0 0,29.4659 0,29.466 -83.118236,0 c -63.720285,0 -83.456205,-0.9553 -84.566685,-4.0936 z"
           style="fill:#ffffff;fill-opacity:1;stroke:#00123d;stroke-width:13.79316044;stroke-miterlimit:9.5;stroke-dasharray:none;stroke-opacity:1"
           inkscape:transform-center-x="-807.2236"
           inkscape:transform-center-y="-1451.1592" />
      </g>
      <path
         style="opacity:1;fill:#2779fd;fill-opacity:1;fill-rule:nonzero;stroke:#000000;stroke-width:0.0371493;stroke-linecap:round;stroke-linejoin:round;stroke-miterlimit:4;stroke-dasharray:none;stroke-opacity:1"
         d="m 796.17553,-2183.7386 67.30235,0 c 3.5681,0 6.44061,156.1533 6.44061,350.1195 l 0,8.862 c 0,193.9663 5.48829,417.9305 2.66761,415.6981 l -81.18152,-64.2491 c -2.82076,-2.2324 -1.66965,-157.4827 -1.66965,-351.449 l 0,-8.862 c 0,-193.9662 2.87251,-350.1195 6.4406,-350.1195 z"
         id="rect4199-6"
         inkscape:connector-curvature="0"
         sodipodi:nodetypes="sssssssss" />
      <g
         transform="matrix(1.1103344,0,0,1.1343292,-450.04165,-3310.9035)"
         id="layer1-7"
         inkscape:label="Layer 1"
         style="fill:#ff7f2a">
        <path
           sodipodi:nodetypes="cccccscss"
           inkscape:connector-curvature="0"
           id="path3445-1-8"
           d="M 910.00196,1246.4399 C 777.85308,1047.223 1087.9862,892.42168 1157.487,1098.6638 c 15.8813,49.7308 19.0752,98.139 -22.2972,149.6505 l -121.0244,156.8939 z m 139.81144,-66.2609 c 17.7231,-12.7925 20.376,-54.6455 4.6498,-73.3499 -24.5083,-29.1511 -82.12395,-4.9568 -82.12395,34.4864 0,41.4302 43.61005,63.307 77.47415,38.8635 z"
           style="fill:#ff7f2a;fill-opacity:1;stroke:#00034b;stroke-width:11.22998142;stroke-miterlimit:9.5;stroke-dasharray:none;stroke-opacity:1" />
      </g>
      <rect
         style="opacity:1;fill:#2779fd;fill-opacity:1;fill-rule:nonzero;stroke:#000000;stroke-width:0.05611338;stroke-linecap:round;stroke-linejoin:round;stroke-miterlimit:4;stroke-dasharray:none;stroke-opacity:1"
         id="rect4217"
         width="287.99298"
         height="92.164299"
         x="88.845901"
         y="-1363.1128"
         rx="6.3449469"
         ry="37.9827" />
      <path
         style="opacity:1;fill:#2779fd;fill-opacity:1;fill-rule:nonzero;stroke:#000000;stroke-width:0.05611338;stroke-linecap:round;stroke-linejoin:round;stroke-miterlimit:4;stroke-dasharray:none;stroke-opacity:1"
         d="m -68.056874,-1401.2192 91.738701,-33.6753 c 3.673028,-1.3482 -24.7232711,42.7967 -6.834164,58.1503 l 33.830499,29.0354 c 0,0 0.32498,72.1801 -3.575223,72.3293 l -92.606147,3.5447 c -3.900201,0.1493 -15.051215,2.9142 -13.984605,-20.9299 l 1.734899,-38.7836 c 1.066614,-23.8442 -13.976987,-68.3225 -10.30396,-69.6709 z"
         id="rect4219"
         inkscape:connector-curvature="0"
         sodipodi:nodetypes="ssscsssss" />
    </g>
  </g>
</svg>
