<?xml version="1.0" encoding="UTF-8" standalone="no"?>
<!-- Created with Inkscape (http://www.inkscape.org/) -->

<svg
   xmlns:dc="http://purl.org/dc/elements/1.1/"
   xmlns:cc="http://creativecommons.org/ns#"
   xmlns:rdf="http://www.w3.org/1999/02/22-rdf-syntax-ns#"
   xmlns:svg="http://www.w3.org/2000/svg"
   xmlns="http://www.w3.org/2000/svg"
   xmlns:sodipodi="http://sodipodi.sourceforge.net/DTD/sodipodi-0.dtd"
   xmlns:inkscape="http://www.inkscape.org/namespaces/inkscape"
   width="210mm"
   height="297mm"
   viewBox="0 0 744.09448819 1052.3622047"
   id="svg2"
   version="1.1"
   inkscape:version="0.91 r13725"
   sodipodi:docname="logo.svg">
  <defs
     id="defs4">
    <clipPath
       clipPathUnits="userSpaceOnUse"
       id="clipPath3349">
      <rect
         style="opacity:1;fill:#008000;fill-opacity:0.49771693;fill-rule:nonzero;stroke:#000000;stroke-width:1.5;stroke-miterlimit:4;stroke-dasharray:none;stroke-opacity:1"
         id="rect3351"
         width="363.65491"
         height="509.11688"
         x="264.65997"
         y="547.28589"
         rx="14.6992"
         ry="14.6992" />
    </clipPath>
  </defs>
  <sodipodi:namedview
     id="base"
     pagecolor="#ffffff"
     bordercolor="#666666"
     borderopacity="1.0"
     inkscape:pageopacity="0.0"
     inkscape:pageshadow="2"
     inkscape:zoom="0.49497475"
     inkscape:cx="294.85317"
     inkscape:cy="509.01799"
     inkscape:document-units="px"
     inkscape:current-layer="g3411"
     showgrid="false"
     inkscape:window-width="1855"
     inkscape:window-height="1056"
     inkscape:window-x="65"
     inkscape:window-y="24"
     inkscape:window-maximized="1" />
  <metadata
     id="metadata7">
    <rdf:RDF>
      <cc:Work
         rdf:about="">
        <dc:format>image/svg+xml</dc:format>
        <dc:type
           rdf:resource="http://purl.org/dc/dcmitype/StillImage" />
      </cc:Work>
    </rdf:RDF>
  </metadata>
  <g
     inkscape:label="Layer 1"
     inkscape:groupmode="layer"
     id="layer1">
    <g
       id="g3411"
       transform="translate(-86.873121,-40.406102)">
      <rect
         style="opacity:1;fill:#4a87ee;fill-opacity:1;fill-rule:nonzero;stroke:#000000;stroke-width:1.37527263;stroke-miterlimit:4;stroke-dasharray:none;stroke-opacity:1"
         id="rect4285"
         width="745.94769"
         height="1051.5781"
         x="87.934753"
         y="40.500008"
         rx="0"
         ry="0" />
      <path
         style="fill:#ffffff;fill-opacity:1;stroke:#00034b;stroke-opacity:1"
         d="m 258.0783,870.4721 c 0.59969,-1.806 42.6589,-2.38284 200.50889,-2.75039 176.80654,-0.41172 199.75002,-0.14933 199.75002,2.28529 0,2.43169 -23.23214,2.75038 -200.50888,2.75038 -159.59757,0 -200.35407,-0.46642 -199.75003,-2.28528 z m 83.67438,-50.18483 c -6.02205,-1.1904 -6.6874,-4.77826 -3.08279,-16.62384 5.70828,-18.75864 9.67579,-32.14243 13.66145,-46.08434 2.1559,-7.54151 4.77792,-15.97417 5.8267,-18.73933 l 1.90688,-5.02762 40.78401,0 36.06361,-0.57102 23.99961,28.68391 1.98485,-0.19676 -26.08958,-33.67263 c -11.77205,-15.19365 -9.01849,-34.98137 2.77085,-47.11421 9.04708,-9.31064 19.53501,-12.53389 29.76088,-9.1464 11.52173,3.81661 19.01646,11.37289 22.60082,22.78629 3.53784,11.26509 4.24937,22.23051 -4.9672,33.89889 l -25.74558,33.21767 2.05019,0.24648 23.87751,-28.63867 35.24005,0.50645 c 30.48351,0.43809 41.21962,0.57684 42.51564,2.28528 0.95351,1.2568 3.84784,9.27818 6.43182,17.82522 17.70831,58.57331 18.15908,60.41426 15.75108,64.32667 -1.19559,1.9426 -24.45961,2.44821 -121.30524,2.63674 -65.90429,0.12871 -121.72029,-0.14187 -124.03556,-0.59878 z m 185.46046,-6.80166 -0.72505,-18.35992 24.27735,-0.98207 25.24187,-0.63244 c 0,0 -3.38137,-13.99337 -1.77528,-8.05164 l -1.60609,-5.94173 -23.62649,0 -23.62651,0 -0.31154,-15.08287 c -0.1714,-8.29561 -0.39176,-16.72827 -0.48978,-18.73932 l -0.0656,-3.65646 -13.93831,0 -0.81619,12.79759 c -0.44888,7.03867 -1.36745,18.09758 -1.36745,18.09758 l -0.55132,5.48468 -60.60501,1.7084 c -32.31885,0.91105 -59.05599,1.23179 -59.41152,0.87492 -0.35552,-0.35687 1.35198,-9.13631 3.79445,-19.50996 2.44246,-10.3735 4.57094,-19.72224 4.57094,-20.13658 0,-0.41421 -4.22832,-0.23074 -9.23725,-0.23074 -7.70794,0 -8.71684,0.18174 -8.71684,0.18174 0,0 -3.57712,18.3379 -8.62749,33.64046 -1.32744,4.02209 -2.95099,9.98665 -3.60788,13.25464 l -1.19437,5.94173 71.18042,0 c 59.18122,0 70.81244,0.85164 70.81244,0.85164 0,0 -0.37688,6.72616 -0.7778,9.92627 l -1.14579,9.14557 z M 467.95341,713.04626 c 3.94816,-2.89781 4.53917,-12.37841 1.03581,-16.61536 -5.45978,-6.60327 -18.29484,-1.12268 -18.29484,7.81194 0,9.3848 9.71505,14.34031 17.25903,8.80342 z M 334.9329,645.53862 c -0.49345,-1.29073 -0.67263,-17.12771 -0.3982,-35.19337 l 0.49899,-32.8465 9.10715,0 9.10713,0 6.375,13.15196 c 3.50625,7.23364 7.19718,13.1982 8.20209,13.25465 1.00487,0.0571 4.69326,-5.86202 8.19642,-13.15197 l 6.36934,-13.25464 9.10715,0 9.10714,0 0,34.7363 0,34.73632 -6.83036,0.56733 -6.83035,0.56748 -0.10594,-22.5062 -0.10593,-22.50606 -6.30661,13.25464 c -5.91854,12.43897 -6.67111,13.25465 -12.22972,13.25465 -6.24837,0 -6.94911,-0.88106 -15.2689,-19.19639 l -3.32189,-7.3129 -0.51142,22.39578 -0.51143,22.39578 -6.37608,0 c -3.50969,0 -6.77945,-1.05511 -7.27328,-2.34686 z m 73.86863,-0.54203 c 0,-1.7102 1.56614,-6.49036 3.48035,-10.62258 4.00345,-8.64254 7.89797,-17.5602 17.37302,-39.78032 6.41422,-15.04221 7.04817,-15.84883 13.00483,-16.54677 3.44404,-0.40367 7.02977,-0.25756 7.96827,0.32469 0.93849,0.58225 4.26213,7.20556 7.38586,14.71855 5.65112,13.59191 9.69098,23.1411 12.73997,30.11425 11.32607,25.90276 11.24766,25.08357 2.32955,24.33429 -5.72009,-0.4806 -7.30761,-1.62654 -10.37194,-7.4871 l -3.6181,-6.91976 -16.33606,0.52097 -16.33608,0.52097 -2.13092,6.39879 c -1.8562,5.57375 -2.99201,6.47192 -8.80983,6.96613 -5.2946,0.44989 -6.67892,-0.0775 -6.67892,-2.54211 z m 43.71428,-30.95817 c 0,-1.52197 -0.81929,-4.19571 -1.82064,-5.94174 -1.00134,-1.74603 -2.66357,-5.55108 -3.69381,-8.45577 -1.03024,-2.90469 -2.43435,-4.71785 -3.12024,-4.02941 -1.38624,1.39135 -7.75433,17.66564 -7.75668,19.82295 -7.9e-4,0.75411 3.68691,1.37117 8.19495,1.37117 6.10408,0 8.19642,-0.70642 8.19642,-2.7672 z m 33.20136,-1.23925 0.49507,-35.30042 18.32993,0.0892 c 21.68702,0.10676 27.67226,3.01993 31.76363,15.46314 3.77812,11.49047 -0.28509,21.47596 -10.96778,26.95333 -4.58936,2.35314 -11.32798,4.1135 -15.74624,4.1135 l -7.72358,0 -0.54227,11.42642 -0.54227,11.42642 -7.78077,0.56412 -7.78078,0.56411 0.49506,-35.30042 z m 33.82721,-5.50033 c 1.20213,-1.20663 2.1857,-4.3329 2.1857,-6.94726 0,-6.73884 -3.20719,-9.14113 -12.20356,-9.14113 l -7.83215,0 0,9.14113 0,9.14113 7.83215,0 c 4.30767,0 8.81571,-0.98724 10.01786,-2.19387 z M 552.13872,644.48 c -6.15467,-4.07328 -9.41663,-8.60129 -11.04659,-15.33385 -1.15287,-4.76216 -0.87937,-5.02762 5.17849,-5.02762 4.81006,0 7.60269,1.35961 11.26435,5.48468 3.98746,4.49188 6.29151,5.48468 12.72936,5.48468 6.87645,0 8.00446,-0.57523 9.00946,-4.5944 1.54808,-6.19111 -1.61291,-9.49172 -10.54016,-11.0055 -4.08628,-0.69296 -10.80114,-3.02885 -14.92192,-5.19099 -8.71309,-4.57144 -12.03342,-13.11526 -9.09437,-23.40145 5.31511,-18.60184 39.4108,-19.34074 47.08568,-1.0203 1.5413,3.67913 1.84145,6.67084 0.79613,7.93524 -2.50022,3.02418 -11.11938,0.75221 -15.68388,-4.13428 -4.67261,-5.00203 -13.48506,-5.72439 -17.0619,-1.39852 -3.86561,4.67529 0.0931,8.37811 13.68714,12.80286 16.54045,5.38376 22.01505,10.94771 21.77553,22.13047 -0.15683,7.31773 -1.09787,9.33492 -6.80362,14.58339 -6.14341,5.65097 -7.51168,6.09019 -18.94307,6.07893 -8.9159,-0.0146 -13.73354,-0.94658 -17.43063,-3.39334 z M 257.62299,531.79307 c 0,-2.44514 22.75386,-2.70563 200.35723,-2.29332 132.0483,0.30641 200.3572,1.0883 200.3572,2.29332 0,1.20488 -68.3089,1.98677 -200.3572,2.29318 -177.60337,0.41231 -200.35723,0.15183 -200.35723,-2.29318 z m 343.66745,-62.61682 c -3.35092,-6.7873 -8.43137,-18.09945 -11.28991,-25.13813 -7.32278,-18.03114 -8.78159,-19.55455 -10.33314,-10.79089 -0.6947,3.92395 -1.31031,16.00544 -1.36806,26.84776 l -0.10491,19.71331 -20.49107,-0.51693 -20.49107,-0.51693 0,-78.61375 0,-78.61376 20.41383,-0.51621 20.41383,-0.51622 3.10107,6.0009 c 1.70561,3.30048 7.43238,16.28467 12.72615,28.85372 l 9.62506,22.85284 0.55647,-29.25163 0.55644,-29.25163 19.88821,-0.52206 c 14.68517,-0.38546 20.27688,0.0929 21.37389,1.82823 1.70102,2.69094 2.11731,153.20196 0.43589,157.60003 -0.9099,2.38003 -4.45214,2.89188 -20.01282,2.89188 l -18.90723,0 -6.09258,-12.34053 z m -331.90568,8.22645 c -0.48064,-1.2572 -0.65983,-36.83907 -0.39819,-79.07081 l 0.4757,-76.78496 20.49107,-0.51694 20.49107,-0.51693 0,63.1337 0,63.13371 30.05357,0 30.05356,0 0,16.45404 0,16.45404 -50.14643,0 c -38.44344,0 -50.35039,-0.53347 -51.02035,-2.28585 z m 136.60711,0 c -0.48064,-1.2572 -0.65982,-36.83907 -0.39818,-79.07081 l 0.4757,-76.78496 20.49107,-0.51694 20.49107,-0.51693 0,63.1337 0,63.13371 30.05356,0 30.05357,0 0,16.45404 0,16.45404 -50.14643,0 c -38.44344,0 -50.35039,-0.53347 -51.02036,-2.28585 z M 258.07568,274.47813 c 0.98009,-2.95124 400.26145,-3.41518 400.26164,-0.4651 7e-5,1.20493 -68.36023,1.98679 -200.51157,2.29332 -160.13819,0.37144 -200.35831,0.003 -199.75007,-1.82822 z"
         id="path3445"
         inkscape:connector-curvature="0"
         sodipodi:nodetypes="csssccssscccccsscsscccscscscccccccccscccsccssssscsscscsccscsscscccscscccccccccssscccsccssscssssscccscssssscsscccssscccccccssscccssssscssccsssccscscsssssscssscccccccsscccscsscccsscccccccccsssscccccccccsscssc" />
    </g>
  </g>
</svg>
