<?xml version="1.0" encoding="UTF-8" standalone="no"?>
<!-- Created with Inkscape (http://www.inkscape.org/) -->

<svg
   xmlns:dc="http://purl.org/dc/elements/1.1/"
   xmlns:cc="http://creativecommons.org/ns#"
   xmlns:rdf="http://www.w3.org/1999/02/22-rdf-syntax-ns#"
   xmlns:svg="http://www.w3.org/2000/svg"
   xmlns="http://www.w3.org/2000/svg"
   xmlns:sodipodi="http://sodipodi.sourceforge.net/DTD/sodipodi-0.dtd"
   xmlns:inkscape="http://www.inkscape.org/namespaces/inkscape"
   width="210mm"
   height="297mm"
   viewBox="0 0 744.09448819 1052.3622047"
   id="svg2"
   version="1.1"
   inkscape:version="0.91 r13725"
   sodipodi:docname="splashscreen.svg"
   inkscape:export-filename="/home/zen/Developpement/Ionic/UCLCompanion/splashscreen.png"
   inkscape:export-xdpi="253.61296"
   inkscape:export-ydpi="253.61296">
  <defs
     id="defs4">
    <clipPath
       clipPathUnits="userSpaceOnUse"
       id="clipPath3349">
      <rect
         style="opacity:1;fill:#008000;fill-opacity:0.49771693;fill-rule:nonzero;stroke:#000000;stroke-width:1.5;stroke-miterlimit:4;stroke-dasharray:none;stroke-opacity:1"
         id="rect3351"
         width="363.65491"
         height="509.11688"
         x="264.65997"
         y="547.28589"
         rx="14.6992"
         ry="14.6992" />
    </clipPath>
  </defs>
  <sodipodi:namedview
     id="base"
     pagecolor="#ffffff"
     bordercolor="#666666"
     borderopacity="1.0"
     inkscape:pageopacity="0.0"
     inkscape:pageshadow="2"
     inkscape:zoom="0.49497475"
     inkscape:cx="360.5462"
     inkscape:cy="347.84778"
     inkscape:document-units="px"
     inkscape:current-layer="g3411"
     showgrid="false"
     inkscape:window-width="1855"
     inkscape:window-height="1056"
     inkscape:window-x="65"
     inkscape:window-y="24"
     inkscape:window-maximized="1"
     showguides="true"
     inkscape:guide-bbox="true">
    <sodipodi:guide
       position="-744.28572,725.7143"
       orientation="0,1"
       id="guide4142" />
    <sodipodi:guide
       position="-557.14286,324.28572"
       orientation="0,1"
       id="guide4144" />
    <sodipodi:guide
       position="250,890.00002"
       orientation="1,0"
       id="guide4148" />
    <sodipodi:guide
       position="500,900.00002"
       orientation="1,0"
       id="guide4150" />
    <sodipodi:guide
       position="-508.57143,1051.4286"
       orientation="0,1"
       id="guide4152" />
    <sodipodi:guide
       position="-852.85715,0"
       orientation="1,0"
       id="guide4154" />
    <sodipodi:guide
       position="-422.85715,1.4285715"
       orientation="0,1"
       id="guide4156" />
  </sodipodi:namedview>
  <metadata
     id="metadata7">
    <rdf:RDF>
      <cc:Work
         rdf:about="">
        <dc:format>image/svg+xml</dc:format>
        <dc:type
           rdf:resource="http://purl.org/dc/dcmitype/StillImage" />
      </cc:Work>
    </rdf:RDF>
  </metadata>
  <g
     inkscape:label="Layer 1"
     inkscape:groupmode="layer"
     id="layer1">
    <g
       id="g3411"
       transform="translate(-86.873121,-40.406102)">
      <rect
         style="opacity:1;fill:#4a87ee;fill-opacity:1;fill-rule:nonzero;stroke:#000000;stroke-width:1.38799167;stroke-miterlimit:4;stroke-dasharray:none;stroke-opacity:1"
         id="rect4285"
         width="751.64923"
         height="1062.994"
         x="82.22683"
         y="34.79208"
         rx="0"
         ry="0" />
      <path
         style="fill:#ffffff;fill-opacity:1;stroke:#00034b;stroke-width:0.63936955;stroke-opacity:1"
         d="m 333.45035,757.20224 c 0.38644,-1.1457 27.48913,-1.51164 129.2067,-1.7448 113.93305,-0.2612 128.71768,-0.0947 128.71768,1.44975 0,1.54263 -14.97064,1.7448 -129.20668,1.7448 -102.8437,0 -129.10694,-0.2959 -128.7177,-1.44975 z m -0.2934,-214.85268 c 0,-1.55116 14.66245,-1.71641 129.10897,-1.45485 85.09112,0.19438 129.10895,0.6904 129.10895,1.45485 0,0.76435 -44.01783,1.26037 -129.10895,1.45476 -114.44652,0.26156 -129.10897,0.0963 -129.10897,-1.45476 z m 0.29172,-163.23658 c 0.63156,-1.87221 257.92602,-2.16653 257.92613,-0.29505 5e-5,0.76439 -44.0509,1.26039 -129.20841,1.45485 -103.19207,0.23563 -129.10967,0.002 -128.71772,-1.1598 z"
         id="path3445"
         inkscape:connector-curvature="0"
         sodipodi:nodetypes="cssscssssscssc" />
      <path
         style="fill:#ffffff;fill-opacity:1;stroke:#000080;stroke-width:0.63936955;stroke-opacity:1"
         d="m 387.80548,610.85862 c -0.31797,-0.81882 -0.43343,-10.86555 -0.25659,-22.32612 l 0.32154,-20.8373 5.86859,0 5.86858,0 4.10802,8.34339 c 2.2594,4.58891 4.63781,8.37273 5.28537,8.40855 0.64753,0.0362 3.02431,-3.71878 5.28172,-8.34341 l 4.10437,-8.40853 5.86859,0 5.86859,0 0,22.03616 0,22.03618 -4.40145,0.35991 -4.40143,0.36 -0.0683,-14.27759 -0.0683,-14.27749 -4.06394,8.40853 c -3.81387,7.89109 -4.29882,8.40854 -7.88076,8.40854 -4.02641,0 -4.47796,-0.55892 -9.83918,-12.17788 l -2.14061,-4.63919 -0.32955,14.20753 -0.32957,14.20753 -4.1087,0 c -2.26162,0 -4.36864,-0.66934 -4.68686,-1.48881 z m 47.60049,-0.34385 c 0,-1.08492 1.00922,-4.11738 2.24272,-6.7388 2.5798,-5.48269 5.08941,-11.13992 11.19507,-25.23601 4.13328,-9.54255 4.5418,-10.05426 8.38023,-10.49702 2.21932,-0.25608 4.52994,-0.16339 5.1347,0.20598 0.60477,0.36937 2.7465,4.5711 4.75941,9.33722 3.64155,8.6225 6.24481,14.68035 8.20955,19.10401 7.29845,16.4323 7.24793,15.91263 1.50115,15.4373 -3.68599,-0.30489 -4.70897,-1.03186 -6.68361,-4.7497 l -2.33148,-4.38979 -10.52686,0.33049 -10.52687,0.3305 -1.37315,4.05929 c -1.19612,3.5359 -1.92803,4.10569 -5.677,4.41921 -3.4118,0.2854 -4.30386,-0.0492 -4.30386,-1.61268 z m 28.16922,-19.63938 c 0,-0.96551 -0.52795,-2.66169 -1.17321,-3.76935 -0.64526,-1.10765 -1.71639,-3.52152 -2.38027,-5.3642 -0.66388,-1.84269 -1.56867,-2.99294 -2.01066,-2.5562 -0.89328,0.88265 -4.99685,11.20681 -4.99836,12.57537 -5e-4,0.47839 2.37582,0.86985 5.28078,0.86985 3.93343,0 5.28172,-0.44814 5.28172,-1.75547 z m 21.39475,-0.78616 0.31902,-22.39403 11.81169,0.0566 c 13.97499,0.0678 17.83184,1.9158 20.4683,9.80958 2.43459,7.28938 -0.18372,13.62402 -7.06758,17.09877 -2.95735,1.4928 -7.29967,2.60954 -10.14678,2.60954 l -4.97702,0 -0.34944,7.24874 -0.34943,7.24875 -5.01388,0.35787 -5.01389,0.35785 0.31901,-22.39403 z m 21.79804,-3.48932 c 0.77465,-0.76547 1.40846,-2.74873 1.40846,-4.40724 0,-4.27501 -2.0667,-5.79899 -7.8639,-5.79899 l -5.04698,0 0,5.79899 0,5.79899 5.04698,0 c 2.77584,0 5.68079,-0.62629 6.45544,-1.39175 z m 21.0036,23.58714 c -3.96603,-2.58402 -6.06802,-5.45652 -7.11836,-9.72755 -0.7429,-3.02105 -0.56665,-3.18945 3.33699,-3.18945 3.09958,0 4.89913,0.86251 7.25868,3.47939 2.5695,2.84959 4.05421,3.4794 8.20272,3.4794 4.43115,0 5.15803,-0.36491 5.80565,-2.91462 0.99757,-3.92753 -1.03936,-6.02139 -6.79202,-6.98171 -2.63317,-0.43961 -6.96019,-1.92146 -9.6156,-3.29308 -5.61465,-2.90005 -7.75426,-8.32011 -5.86035,-14.84552 3.42503,-11.80071 25.39607,-12.26946 30.34172,-0.64726 0.99321,2.33398 1.18662,4.23188 0.51302,5.03399 -1.61112,1.91849 -7.16526,0.47719 -10.10659,-2.62272 -3.011,-3.17321 -8.68969,-3.63147 -10.99459,-0.8872 -2.49097,2.96593 0.06,5.31494 8.81991,8.12193 10.65857,3.41538 14.18636,6.94506 14.03202,14.03923 -0.10106,4.64225 -0.70746,5.92192 -4.38421,9.25147 -3.95877,3.58489 -4.84048,3.86353 -12.2068,3.85638 -5.74535,-0.009 -8.8498,-0.6005 -11.23219,-2.15268 z"
         id="path3445-5"
         inkscape:connector-curvature="0"
         sodipodi:nodetypes="cscccscscccccccccssscccsccssscssssscccscssssscsscccssscccccccssscccssssscssccsssccscscs" />
      <path
         style="fill:#ffffff;fill-opacity:1;stroke:#00034b;stroke-width:0.63936955;stroke-opacity:1"
         d="m 389.07684,727.38441 c -3.88057,-0.75517 -4.30932,-3.03125 -1.98653,-10.5459 3.67838,-11.90019 6.23502,-20.39066 8.80335,-29.23519 1.38925,-4.78422 3.07887,-10.13376 3.75469,-11.88794 l 1.22878,-3.18944 26.28097,0 c 0,0 39.01041,0.0177 78.32351,0 19.64338,0.27792 26.56166,0.36594 27.39681,1.44974 0.61444,0.7973 2.47953,5.88594 4.14463,11.30805 11.41112,37.15799 11.7016,38.32586 10.1499,40.80783 -0.77044,1.23236 -15.76163,1.55311 -78.16835,1.67271 -42.46833,0.0816 -78.43582,-0.09 -79.92776,-0.37986 z m 119.50958,-4.31487 -0.46722,-11.64724 15.64418,-0.62301 16.26571,-0.40121 c 0,0 -2.17894,-8.87718 -1.14399,-5.10784 l -1.03495,-3.76934 -15.22476,0 -15.22478,0 -0.20076,-9.56834 c -0.11045,-5.2626 -0.25244,-10.61214 -0.31561,-11.88793 l -0.0422,-2.31959 -8.98176,0 -0.52596,8.11858 c -0.28925,4.46522 -0.88117,11.48083 -0.88117,11.48083 l -0.35527,3.47939 -39.0535,1.08378 c -20.82606,0.57796 -38.05531,0.78143 -38.28441,0.55504 -0.2291,-0.2264 0.8712,-5.79593 2.44512,-12.37681 1.57391,-6.58079 2.94549,-12.51148 2.94549,-12.77434 0,-0.26276 -2.72471,-0.14638 -5.95244,-0.14638 -4.96694,0 -5.61707,0.1153 -5.61707,0.1153 0,0 -2.30508,11.63327 -5.55951,21.34098 -0.85539,2.55155 -1.90159,6.33538 -2.32489,8.40854 l -0.76964,3.76934 45.86822,0 c 38.13601,0 45.63111,0.54026 45.63111,0.54026 0,0 -0.24287,4.26697 -0.50122,6.29708 l -0.73834,5.8018 z"
         id="path3445-1"
         inkscape:connector-curvature="0"
         sodipodi:nodetypes="csssccccscscccccccccscccsccssssscsscscscc" />
      <path
         style="fill:#fe4848;fill-opacity:1;stroke:#00034b;stroke-width:0.63936955;stroke-opacity:1"
         d="m 449.03471,665.92646 c -18.97025,-28.62765 25.55008,-50.87281 35.52708,-21.23559 2.27976,7.1464 2.73827,14.10269 -3.20083,21.50493 l -17.37334,22.54587 z m 20.07029,-9.52171 c 2.54417,-1.83833 2.92501,-7.85268 0.66746,-10.54053 -3.51825,-4.18902 -11.78907,-0.71221 -11.78907,4.95577 0,5.95357 6.26032,9.09727 11.12161,5.58476 z"
         id="path3445-1-8"
         inkscape:connector-curvature="0"
         sodipodi:nodetypes="cccccscss" />
      <path
         style="fill:#ffffff;fill-opacity:1;stroke:#00034b;stroke-width:0.63936955;stroke-opacity:1"
         d="m 555.78212,501.25325 c -2.15931,-4.30576 -5.43312,-11.48201 -7.27514,-15.94723 -4.71876,-11.43868 -5.65881,-12.40511 -6.65862,-6.84558 -0.44765,2.48929 -0.84435,10.1536 -0.88156,17.0318 l -0.0676,12.50581 -13.20432,-0.32793 -13.20432,-0.32793 0,-49.87133 0,-49.87133 13.15454,-0.32748 13.15455,-0.32748 1.99831,3.80688 c 1.09908,2.09376 4.78937,10.33073 8.20065,18.30434 l 6.20233,14.49748 0.35859,-18.55677 0.35856,-18.55678 12.81584,-0.33118 c 9.46304,-0.24453 13.0663,0.0589 13.7732,1.1598 1.09611,1.70709 1.36438,97.18892 0.28089,99.97898 -0.58633,1.50986 -2.8689,1.83457 -12.89614,1.83457 l -12.1837,0 -3.92602,-7.82864 z m -213.87798,5.21873 c -0.30972,-0.79754 -0.42519,-23.37013 -0.25658,-50.16128 l 0.30653,-48.71117 13.20432,-0.32794 13.20432,-0.32793 0,40.05102 0,40.05104 19.36633,0 19.36633,0 0,10.43819 0,10.43818 -32.31405,0 c -24.77271,0 -32.44548,-0.33843 -32.8772,-1.45011 z m 88.02878,0 c -0.30972,-0.79754 -0.42518,-23.37013 -0.25658,-50.16128 l 0.30654,-48.71117 13.20432,-0.32794 13.20432,-0.32793 0,40.05102 0,40.05104 19.36633,0 19.36633,0 0,10.43819 0,10.43818 -32.31404,0 c -24.77272,0 -32.44549,-0.33843 -32.87722,-1.45011 z"
         id="path3445-8"
         inkscape:connector-curvature="0"
         sodipodi:nodetypes="cssscccccccsscccscsscccsscccccccccsssscccccccccss" />
    </g>
  </g>
</svg>
