<?xml version="1.0" encoding="UTF-8" standalone="no"?>
<!-- Created with Inkscape (http://www.inkscape.org/) -->

<svg
   xmlns:dc="http://purl.org/dc/elements/1.1/"
   xmlns:cc="http://creativecommons.org/ns#"
   xmlns:rdf="http://www.w3.org/1999/02/22-rdf-syntax-ns#"
   xmlns:svg="http://www.w3.org/2000/svg"
   xmlns="http://www.w3.org/2000/svg"
   xmlns:sodipodi="http://sodipodi.sourceforge.net/DTD/sodipodi-0.dtd"
   xmlns:inkscape="http://www.inkscape.org/namespaces/inkscape"
   width="212.52383mm"
   height="300.39224mm"
   viewBox="0 0 753.03721 1064.382"
   id="svg2"
   version="1.1"
   inkscape:version="0.91 r13725"
   sodipodi:docname="splashscreenv2.svg"
   inkscape:export-filename="/home/zen/Developpement/Ionic/UCLCompanion/splashscreenv2.png"
   inkscape:export-xdpi="253.61296"
   inkscape:export-ydpi="253.61296">
  <defs
     id="defs4">
    <clipPath
       clipPathUnits="userSpaceOnUse"
       id="clipPath3349">
      <rect
         style="opacity:1;fill:#008000;fill-opacity:0.49771693;fill-rule:nonzero;stroke:#000000;stroke-width:1.5;stroke-miterlimit:4;stroke-dasharray:none;stroke-opacity:1"
         id="rect3351"
         width="363.65491"
         height="509.11688"
         x="264.65997"
         y="547.28589"
         rx="14.6992"
         ry="14.6992" />
    </clipPath>
    <filter
       inkscape:label="Raised Border"
       inkscape:menu="Bevels"
       inkscape:menu-tooltip="Strongly raised border around a flat surface"
       height="1.5"
       width="1.5"
       y="-0.25"
       x="-0.25"
       style="color-interpolation-filters:sRGB"
       id="filter3337">
      <feGaussianBlur
         stdDeviation="4"
         result="result1"
         id="feGaussianBlur3339" />
      <feComposite
         in="result1"
         in2="result1"
         result="result4"
         operator="in"
         id="feComposite3341" />
      <feGaussianBlur
         stdDeviation="2"
         result="result6"
         in="result4"
         id="feGaussianBlur3343" />
      <feComposite
         operator="xor"
         in="result6"
         in2="result4"
         result="result8"
         id="feComposite3345" />
      <feComposite
         operator="atop"
         result="fbSourceGraphic"
         in="result4"
         in2="result8"
         id="feComposite3347" />
      <feSpecularLighting
         specularExponent="10"
         specularConstant="1.29999995"
         surfaceScale="3"
         lighting-color="#ffffff"
         result="result1"
         in="fbSourceGraphic"
         id="feSpecularLighting3349">
        <feDistantLight
           azimuth="235"
           elevation="55"
           id="feDistantLight3351" />
      </feSpecularLighting>
      <feComposite
         operator="atop"
         result="result2"
         in="result1"
         in2="fbSourceGraphic"
         id="feComposite3353" />
      <feComposite
         k4="0"
         k1="0"
         k3="1"
         k2="1"
         operator="arithmetic"
         result="result4"
         in="fbSourceGraphic"
         in2="result2"
         id="feComposite3355" />
      <feComposite
         operator="over"
         in="result4"
         in2="SourceGraphic"
         id="feComposite3357" />
      <feBlend
         mode="multiply"
         in2="result2"
         id="feBlend3359" />
    </filter>
    <filter
       inkscape:label="Raised Border"
       inkscape:menu="Bevels"
       inkscape:menu-tooltip="Strongly raised border around a flat surface"
       height="1.5"
       width="1.5"
       y="-0.25"
       x="-0.25"
       style="color-interpolation-filters:sRGB"
       id="filter3337-6">
      <feGaussianBlur
         stdDeviation="4"
         result="result1"
         id="feGaussianBlur3339-3" />
      <feComposite
         in="result1"
         in2="result1"
         result="result4"
         operator="in"
         id="feComposite3341-0" />
      <feGaussianBlur
         stdDeviation="2"
         result="result6"
         in="result4"
         id="feGaussianBlur3343-2" />
      <feComposite
         operator="xor"
         in="result6"
         in2="result4"
         result="result8"
         id="feComposite3345-2" />
      <feComposite
         operator="atop"
         result="fbSourceGraphic"
         in="result4"
         in2="result8"
         id="feComposite3347-8" />
      <feSpecularLighting
         specularExponent="10"
         specularConstant="1.29999995"
         surfaceScale="3"
         lighting-color="#ffffff"
         result="result1"
         in="fbSourceGraphic"
         id="feSpecularLighting3349-5">
        <feDistantLight
           azimuth="235"
           elevation="55"
           id="feDistantLight3351-2" />
      </feSpecularLighting>
      <feComposite
         operator="atop"
         result="result2"
         in="result1"
         in2="fbSourceGraphic"
         id="feComposite3353-4" />
      <feComposite
         k4="0"
         k1="0"
         k3="1"
         k2="1"
         operator="arithmetic"
         result="result4"
         in="fbSourceGraphic"
         in2="result2"
         id="feComposite3355-4" />
      <feComposite
         operator="over"
         in="result4"
         in2="SourceGraphic"
         id="feComposite3357-6" />
      <feBlend
         mode="multiply"
         in2="result2"
         id="feBlend3359-8" />
    </filter>
    <filter
       inkscape:label="Raised Border"
       inkscape:menu="Bevels"
       inkscape:menu-tooltip="Strongly raised border around a flat surface"
       height="1.5"
       width="1.5"
       y="-0.25"
       x="-0.25"
       style="color-interpolation-filters:sRGB"
       id="filter3337-2">
      <feGaussianBlur
         stdDeviation="4"
         result="result1"
         id="feGaussianBlur3339-4" />
      <feComposite
         in="result1"
         in2="result1"
         result="result4"
         operator="in"
         id="feComposite3341-4" />
      <feGaussianBlur
         stdDeviation="2"
         result="result6"
         in="result4"
         id="feGaussianBlur3343-8" />
      <feComposite
         operator="xor"
         in="result6"
         in2="result4"
         result="result8"
         id="feComposite3345-21" />
      <feComposite
         operator="atop"
         result="fbSourceGraphic"
         in="result4"
         in2="result8"
         id="feComposite3347-3" />
      <feSpecularLighting
         specularExponent="10"
         specularConstant="1.29999995"
         surfaceScale="3"
         lighting-color="#ffffff"
         result="result1"
         in="fbSourceGraphic"
         id="feSpecularLighting3349-2">
        <feDistantLight
           azimuth="235"
           elevation="55"
           id="feDistantLight3351-1" />
      </feSpecularLighting>
      <feComposite
         operator="atop"
         result="result2"
         in="result1"
         in2="fbSourceGraphic"
         id="feComposite3353-2" />
      <feComposite
         k3="1"
         k2="1"
         operator="arithmetic"
         result="result4"
         in="fbSourceGraphic"
         in2="result2"
         id="feComposite3355-6"
         k1="0"
         k4="0" />
      <feComposite
         operator="over"
         in="result4"
         in2="SourceGraphic"
         id="feComposite3357-68" />
      <feBlend
         mode="multiply"
         in2="result2"
         id="feBlend3359-86" />
    </filter>
  </defs>
  <sodipodi:namedview
     id="base"
     pagecolor="#ffffff"
     bordercolor="#666666"
     borderopacity="1.0"
     inkscape:pageopacity="0.0"
     inkscape:pageshadow="2"
     inkscape:zoom="0.49497475"
     inkscape:cx="164.77359"
     inkscape:cy="486.39873"
     inkscape:document-units="px"
     inkscape:current-layer="g3395"
     showgrid="false"
     inkscape:window-width="1855"
     inkscape:window-height="1056"
     inkscape:window-x="65"
     inkscape:window-y="24"
     inkscape:window-maximized="1"
     showguides="true"
     inkscape:guide-bbox="true"
     fit-margin-top="0"
     fit-margin-left="0"
     fit-margin-right="0"
     fit-margin-bottom="0">
    <sodipodi:guide
       position="-738.94541,731.4261"
       orientation="0,1"
       id="guide4142" />
    <sodipodi:guide
       position="-551.80255,329.99751"
       orientation="0,1"
       id="guide4144" />
    <sodipodi:guide
       position="255.34028,895.71182"
       orientation="1,0"
       id="guide4148" />
    <sodipodi:guide
       position="505.34027,905.71182"
       orientation="1,0"
       id="guide4150" />
    <sodipodi:guide
       position="-503.23112,1057.1404"
       orientation="0,1"
       id="guide4152" />
    <sodipodi:guide
       position="-847.51683,5.7117878"
       orientation="1,0"
       id="guide4154" />
    <sodipodi:guide
       position="-417.51685,7.1403593"
       orientation="0,1"
       id="guide4156" />
  </sodipodi:namedview>
  <metadata
     id="metadata7">
    <rdf:RDF>
      <cc:Work
         rdf:about="">
        <dc:format>image/svg+xml</dc:format>
        <dc:type
           rdf:resource="http://purl.org/dc/dcmitype/StillImage" />
        <dc:title />
      </cc:Work>
    </rdf:RDF>
  </metadata>
  <g
     inkscape:label="Layer 1"
     inkscape:groupmode="layer"
     id="layer1"
     transform="translate(5.3402873,6.3080179)">
    <g
       id="g3411"
       transform="translate(-86.873121,-40.406102)">
      <rect
         style="opacity:1;fill:#2779fd;fill-opacity:1;fill-rule:nonzero;stroke:#000000;stroke-width:1.41251993;stroke-miterlimit:4;stroke-dasharray:none;stroke-opacity:1"
         id="rect4285"
         width="771.0155"
         height="1073.2439"
         x="73.961502"
         y="33.262474"
         rx="0"
         ry="0" />
      <g
         transform="translate(-1360.5225,-902.31091)"
         id="layer1-6"
         inkscape:label="Layer 1">
        <g
           transform="matrix(1.0896087,0,0,1.0782277,-185.44052,2117.0218)"
           id="g3395">
          <path
             inkscape:connector-curvature="0"
             id="path3411"
             d="m 1487.1157,-438.17566 0,-341.04908 354.8031,0 354.8031,0 0,341.04908 0,341.049088 -354.8031,0 -354.8031,0 0,-341.049088 z"
             style="fill:#fbfbfb" />
          <path
             inkscape:connector-curvature="0"
             id="path3409"
             d="m 1487.1534,-140.04192 c 0.028,-31.94374 0.4059,-43.3758 1.4783,-44.71635 0.7924,-0.99049 7.8271,-3.90951 15.6328,-6.48676 7.8057,-2.57715 19.2481,-6.43363 25.4276,-8.56997 6.1795,-2.13633 12.948,-4.2421 15.0409,-4.67955 3.4935,-0.73021 3.946,-0.48593 5.5212,2.98159 l 1.7158,3.7769 0.096,-5.45796 c 0.1146,-6.48239 -2.0925,-5.31882 30.4848,-16.07041 12.2325,-4.03702 28.3611,-9.38131 35.8415,-11.87606 7.4806,-2.49467 17.5924,-5.81566 22.4709,-7.37985 4.8786,-1.56428 20.3125,-6.64345 34.2977,-11.28727 13.9852,-4.64382 33.4105,-11.06854 43.1676,-14.27731 9.7571,-3.20869 20.9335,-6.90439 24.8363,-8.21255 3.9028,-1.30818 20.1351,-6.73987 36.0716,-12.07042 15.9367,-5.33055 32.5225,-10.88056 36.8574,-12.33342 4.3351,-1.45278 9.7444,-2.97731 12.0206,-3.38785 6.9618,-1.25542 7.1704,-0.0382 6.2271,36.36793 -1.5895,61.3571 -1.8762,69.55991 -3.2007,91.56385 -0.7339,12.19256 -0.9824,27.92338 -0.5523,34.95754 0.883,14.43792 -0.3138,39.179447 -1.851,38.266161 -0.5562,-0.33041 -1.0113,-0.05914 -1.0113,0.603156 0,1.889049 -270.5258,1.673415 -272.4429,-0.217086 -1.0207,-1.006602 -1.5005,-8.052121 -1.6453,-24.157641 -0.1124,-12.50514 -0.5428,-29.6429 -0.9564,-38.08382 -0.4136,-8.44101 -0.9075,-18.92822 -1.0975,-23.30502 -0.4794,-11.04763 -0.8234,-11.44206 -1.9831,-2.27366 -1.6148,12.76779 -1.9792,16.28241 -3.1819,30.69442 -0.6262,7.50307 -1.4302,14.40928 -1.7867,15.3472 -0.3565,0.93785 -0.9534,6.30941 -1.3264,11.93672 -1.5098,22.77817 -2.1994,28.410572 -3.6491,29.804146 -1.1412,1.096908 -7.8454,1.458692 -27.0297,1.458692 l -25.512,0 0.038,-42.915348 z m 356.7743,41.388354 c -1.2535,-3.139744 -1.9961,-14.594164 -2.665,-41.104144 -0.3786,-15.00616 -0.9332,-35.4691 -1.2325,-45.47321 -0.2993,-10.0041 -0.7422,-25.35131 -0.9841,-34.1049 -0.242,-8.7536 -0.8402,-29.23155 -1.3296,-45.50651 -0.4893,-16.27504 -0.5293,-31.43644 -0.089,-33.69218 0.7457,-3.82058 1.496,-4.42191 10.9643,-8.78916 5.5902,-2.57833 11.5647,-5.00569 13.2766,-5.39403 1.712,-0.38835 5.5076,-1.90906 8.4348,-3.37939 9.1759,-4.60907 20.4057,-9.27453 41.1304,-17.08756 4.7337,-1.78455 10.0557,-4.37734 11.8268,-5.76173 l 3.22,-2.51694 -6.5047,-0.15534 c -3.5777,-0.0855 -13.4234,-0.3123 -21.8796,-0.5042 -8.4561,-0.1919 -41.1867,-0.9352 -72.7346,-1.65177 -31.5479,-0.71648 -70.1328,-1.85122 -85.7441,-2.52149 -15.6113,-0.67037 -34.2385,-1.33518 -41.3936,-1.47752 -7.1553,-0.14233 -26.8468,-0.63071 -43.7591,-1.08526 -16.9123,-0.45455 -39.531,-1.00223 -50.2638,-1.21714 -10.7329,-0.2149 -35.7464,-0.80842 -55.5858,-1.3189 -19.8395,-0.51057 -41.1276,-0.93321 -47.3071,-0.93911 -6.9856,-0.009 -11.7946,-0.51776 -12.7138,-1.35074 -1.1724,-1.06262 -1.4783,-45.2323 -1.4783,-213.43989 l 0,-212.10006 354.8031,0 354.8031,0 0,289.25801 0,289.258 -2.4925,-0.46136 c -1.3709,-0.25375 -5.8737,-2.9102 -10.0064,-5.90306 -4.1326,-2.99296 -8.8653,-6.36081 -10.517,-7.48427 -2.6347,-1.792 -3.003,-2.86299 -3.003,-8.73294 0,-6.0633 -0.3171,-6.90756 -3.3819,-9.00533 -3.2975,-2.25693 -3.3869,-2.59216 -3.5824,-13.43515 -0.2411,-13.3744 -0.305,-6.8781 0.463,-47.14544 0.6324,-33.15425 0.6002,-33.79051 -1.824,-35.96132 -1.3572,-1.2155 -3.3655,-3.67659 -4.463,-5.46923 -1.0972,-1.79265 -3.0595,-4.96696 -4.3605,-7.054 -1.3009,-2.08703 -5.7368,-7.71434 -9.8574,-12.50512 -4.1207,-4.79079 -8.2415,-10.08488 -9.1573,-11.76465 -0.916,-1.67988 -3.5616,-5.00506 -5.8792,-7.3894 -2.3175,-2.38434 -5.0366,-5.81758 -6.0424,-7.62932 -1.0057,-1.81174 -4.8345,-7.09599 -8.5083,-11.74272 -3.674,-4.64673 -8.8846,-11.60531 -11.5794,-15.46363 -2.6947,-3.85822 -6.0974,-8.25656 -7.5616,-9.77419 l -2.662,-2.75913 -4.1245,4.46438 c -2.2686,2.45546 -7.3812,7.78965 -11.3614,11.85387 -3.9802,4.06412 -9.3656,9.92379 -11.9674,13.02143 -2.6018,3.09764 -6.1328,6.93448 -7.8466,8.52623 -1.7137,1.59183 -8.8985,9.20514 -15.9662,16.91849 -7.0675,7.71344 -15.0915,16.41019 -17.8311,19.32611 -5.0952,5.4235 -6.0357,7.89943 -3.8124,10.03648 0.8452,0.81252 1.2457,14.55216 1.2179,41.78297 -0.042,40.38076 -0.054,40.58957 -2.7378,44.20587 -2.1564,2.90601 -2.7223,5.25389 -2.8272,11.728 -0.072,4.45201 -0.5005,8.66901 -0.9519,9.37112 -0.4514,0.7021 -5.1823,4.93557 -10.5129,9.40768 -5.3308,4.4721 -16.6687,14.57917 -25.1953,22.46013 -8.5267,7.88096 -23.4002,21.491 -33.0522,30.24459 -14.7322,13.36067 -35.7822,32.81556 -67.285,62.18617 -3.2182,3.00041 -6.5445,5.455239 -7.3917,5.455239 -0.8473,0 -1.5405,0.511574 -1.5405,1.136829 0,1.856757 -24.4469,1.478149 -25.1928,-0.390164 z m 247.173,-348.310884 c -0.3,-1.10608 -0.565,-0.47637 -0.5891,1.3994 -0.024,1.87577 0.2213,2.78078 0.5452,2.0111 0.324,-0.76968 0.3437,-2.3044 0.044,-3.4105 z m 4.5217,-54.58949 c 4.3562,-4.75741 3.304,-12.78934 -1.6755,-12.78934 -3.2392,0 -8.3966,4.3767 -8.3966,7.12547 0,1.9789 5.2558,8.79015 6.7827,8.79015 0.2348,0 1.7151,-1.40685 3.2894,-3.12628 z"
             style="fill:#9ea2a8" />
          <path
             sodipodi:nodetypes="ccsscsssccccssccsssssssscsscsscsscscssccssssssssccccsccssssscsscssscssssssscccsssscsscsscssscccsscsssssccccc"
             inkscape:connector-curvature="0"
             id="path3407"
             d="m 1487.3974,-140.57804 0.3097,-43.45157 15.9661,-5.32927 c 8.7814,-2.93112 21.2785,-7.16613 27.7714,-9.41114 14.0638,-4.86264 17.172,-5.13866 17.1663,-1.5239 0,1.40685 -1.3031,16.37035 -2.8909,33.25228 -1.5878,16.88193 -3.477,37.85645 -4.1981,46.61005 -0.7213,8.75359 -1.5733,17.57821 -1.8935,19.61031 l -0.582,3.694708 -25.9795,0 -25.9793,0 z m 68.1726,27.25164 c -0.024,-8.90994 -0.543,-30.77973 -1.1544,-48.5995 -1.327,-38.67524 -1.1382,-45.48048 1.2954,-46.67853 0.9757,-0.48037 6.5638,-2.46346 12.4181,-4.40681 5.8542,-1.94343 12.2407,-4.07785 14.1921,-4.74312 1.9514,-0.66527 6.4237,-1.96908 9.9383,-2.89746 3.5145,-0.92838 11.4976,-3.64596 17.7402,-6.03903 6.2424,-2.39307 16.1397,-5.73926 21.9939,-7.43587 14.3964,-4.17216 20.4154,-6.1417 26.0189,-8.51404 2.602,-1.10154 12.7138,-4.55141 22.4709,-7.66651 29.4261,-9.39449 47.0921,-15.2257 51.191,-16.89703 2.1361,-0.87099 4.8639,-1.58364 6.0618,-1.58364 1.1979,0 5.0384,-1.20541 8.5343,-2.67865 3.4959,-1.47333 17.0003,-6.14234 30.0097,-10.37562 13.0095,-4.23328 27.1129,-8.95813 31.3409,-10.49967 12.2791,-4.47684 22.9458,-7.11548 24.1469,-5.97319 0.6576,0.62536 0.4822,22.86457 -0.4456,56.48937 -2.5329,91.79496 -3.2291,139.4246 -2.0715,141.70999 0.7471,1.475241 0.6788,1.889955 -0.2235,1.354007 -0.7154,-0.424994 -1.3007,-0.231005 -1.3007,0.43118 0,0.840347 -41.0859,1.203951 -136.057,1.203951 l -136.0569,0 z m 288.2669,-11.93673 c -0.4514,-15.47507 -1.5921,-54.48263 -2.5348,-86.6833 -0.9428,-32.20076 -1.7219,-65.50716 -1.7313,-74.01438 l -0.017,-15.46754 9.8471,-4.7112 c 5.416,-2.59106 10.7991,-4.71112 11.9625,-4.71112 1.1634,0 4.5821,-1.23987 7.5972,-2.75522 8.3931,-4.21827 19.9773,-9.2005 29.1357,-12.53114 18.6507,-6.78242 22.9276,-8.56779 27.1977,-11.35321 2.4604,-1.60492 4.9313,-2.91801 5.4909,-2.91801 0.5597,0 1.0176,-0.68555 1.0176,-1.52345 0,-1.61265 4.9009,-1.43176 -113.5369,-4.18944 -26.9947,-0.62853 -64.7812,-1.65705 -83.9701,-2.28558 -44.652,-1.46269 -216.3926,-5.58975 -233.8743,-5.6203 l -13.3052,-0.0228 c 0,-141.72481 0,-283.44971 0,-425.17452 236.5355,0 473.0708,0 709.6062,0 l 0,289.36332 c 0,281.41142 -0.06,289.33231 -2.1925,288.23531 -1.206,-0.62035 -4.3195,-2.81252 -6.9192,-4.87155 -2.5995,-2.05893 -7.2637,-5.43813 -10.3648,-7.50925 -5.4721,-3.6546 -5.6163,-3.89834 -4.8904,-8.26203 1.009,-6.06522 -0.2193,-10.10533 -3.4289,-11.27836 -2.1586,-0.78887 -2.8167,-2.17744 -3.4911,-7.36657 -0.5685,-4.37398 -0.3824,-6.91438 0.5892,-8.03966 1.1082,-1.28344 1.095,-2.02202 -0.059,-3.35956 -1.0015,-1.16002 -1.2254,-3.4577 -0.6926,-7.10519 0.9186,-6.28632 0.9185,-6.35489 -0.021,-11.92208 -0.3951,-2.34169 -0.3487,-5.1553 0.1031,-6.25257 0.4519,-1.09718 0.8157,-12.96268 0.8086,-26.36773 -0.012,-23.29966 -0.1207,-24.45094 -2.458,-26.14709 -1.3447,-0.97586 -3.3802,-3.309 -4.5235,-5.18477 -1.1433,-1.87577 -3.143,-5.1312 -4.4439,-7.23433 -1.301,-2.10305 -5.9578,-7.86959 -10.3485,-12.81445 -4.3906,-4.94485 -7.9831,-9.42586 -7.9831,-9.95781 0,-0.53194 -2.9271,-4.39972 -6.5047,-8.59516 -3.5776,-4.19546 -6.5047,-7.98037 -6.5047,-8.41091 0,-0.89228 -9.1395,-13.0831 -15.4922,-20.66439 -2.3412,-2.79406 -5.2604,-6.87064 -6.487,-9.05899 -1.2265,-2.18844 -3.5085,-5.35912 -5.0711,-7.04599 l -2.8412,-3.06707 0.8193,-38.42723 0.819,-38.42723 3.035,-2.62225 c 2.5475,-2.20109 2.923,-3.2859 2.3378,-6.75305 -0.8946,-5.29854 -4.3539,-8.7496 -7.7365,-7.71762 -4.2138,1.28552 -9.5941,6.34005 -9.5941,9.01315 0,1.39166 1.8766,4.26629 4.195,6.42637 3.6322,3.38402 4.1128,4.44337 3.5822,7.8966 -0.337,2.19354 -0.9191,19.49009 -1.2933,38.43687 l -0.6805,34.4485 -3.8999,4.77214 c -2.1449,2.62462 -7.2462,8.09724 -11.3361,12.16145 -4.09,4.06413 -8.8216,9.17986 -10.5147,11.3683 -1.6932,2.18836 -4.9492,5.77874 -7.236,7.97855 -2.2867,2.19981 -9.7458,10.05049 -16.5757,17.44607 -6.83,7.39558 -14.6596,15.82723 -17.3991,18.73696 -4.7915,5.08928 -6.5946,10.50423 -4.0092,12.04013 0.5953,0.35369 1.067,18.2503 1.0727,40.7088 l 0.01,40.07754 -3.0156,3.83166 c -2.6591,3.37866 -2.9888,4.80916 -2.788,12.09997 l 0.2276,8.2683 -10.9984,9.38431 c -6.0494,5.16139 -17.9636,15.83095 -26.4763,23.71018 -8.5128,7.87924 -23.395,21.48792 -33.0717,30.24151 -9.6766,8.75359 -26.9278,24.61237 -38.3358,35.24173 -11.408,10.62937 -24.4552,22.77927 -28.9938,26.99973 l -8.2521,7.673604 -11.3694,0 -11.3693,0 -0.8208,-28.136554 z"
             style="fill:#2779fd;stroke:none;stroke-width:11.30333424;stroke-miterlimit:4;stroke-dasharray:none;stroke-opacity:1" />
          <path
             inkscape:connector-curvature="0"
             id="path3405"
             d="m 1533.9128,-99.684447 c 0.2952,-1.406843 0.7767,-5.392113 1.0699,-8.856273 1.5962,-18.85782 3.0071,-33.7533 5.3796,-56.79567 2.7826,-27.02591 2.8111,-28.31808 0.6386,-29.11941 -2.2596,-0.83352 -11.2984,1.64841 -31.2486,8.58026 -7.3893,2.5675 -15.5359,5.12191 -18.1035,5.6765 -4.3576,0.94112 -4.6443,0.84689 -4.3051,-1.4154 0.3018,-2.01282 3.0698,-3.32636 16.3295,-7.74872 8.7814,-2.92884 21.2785,-7.16185 27.7714,-9.40686 14.0638,-4.86264 17.172,-5.13866 17.1663,-1.5239 0,1.40685 -1.3031,16.37035 -2.8909,33.25228 -1.5878,16.88193 -3.477,37.85645 -4.1981,46.61005 -1.9008,23.071737 -1.954,23.305018 -5.3107,23.305018 -2.3108,0 -2.7359,-0.473105 -2.2984,-2.557875 z M 1555.57,-113.3264 c -0.024,-8.90994 -0.543,-30.77973 -1.1544,-48.5995 -1.327,-38.67524 -1.1382,-45.48048 1.2954,-46.67853 0.9757,-0.48037 6.5638,-2.46346 12.4181,-4.40681 5.8542,-1.94343 12.2407,-4.07785 14.1921,-4.74312 1.9514,-0.66527 6.4237,-1.96908 9.9383,-2.89746 3.5145,-0.92838 11.4976,-3.64596 17.7402,-6.03903 6.2424,-2.39307 16.1397,-5.73926 21.9939,-7.43587 14.3964,-4.17216 20.4154,-6.1417 26.0189,-8.51404 2.602,-1.10154 12.7138,-4.55141 22.4709,-7.66651 29.4261,-9.39449 47.0921,-15.2257 51.191,-16.89703 2.1361,-0.87099 4.8639,-1.58364 6.0618,-1.58364 1.1979,0 5.0384,-1.20541 8.5343,-2.67865 3.4959,-1.47333 17.0003,-6.14234 30.0097,-10.37562 13.0095,-4.23328 27.1129,-8.95813 31.3409,-10.49967 12.2791,-4.47684 22.9458,-7.11548 24.1469,-5.97319 0.6576,0.62536 0.4822,22.86457 -0.4456,56.48937 -2.5329,91.79496 -3.2291,139.4246 -2.0715,141.70999 0.7471,1.475241 0.6788,1.889955 -0.2235,1.354007 -0.7154,-0.424994 -1.3007,-0.231005 -1.3007,0.43118 0,0.662185 -0.9313,1.203854 -2.0697,1.203767 -1.9296,-1.84e-4 -2.0652,-2.480385 -2.0051,-36.662784 0.035,-20.16445 0.6985,-48.94036 1.4733,-63.94652 0.7748,-15.00616 1.5441,-42.11956 1.7094,-60.252 l 0.3007,-32.96807 -2.5898,-0.35433 c -2.1692,-0.29676 -18.9691,5.04634 -49.448,15.72672 -3.2523,1.13966 -9.3726,3.18859 -13.6007,4.55306 -29.9712,9.6726 -68.8524,22.45831 -86.3354,28.39056 -11.3833,3.8625 -24.9545,8.30077 -30.1584,9.86286 -5.2037,1.56211 -13.985,4.38862 -19.5141,6.28122 -5.529,1.8926 -21.229,7.12674 -34.889,11.63132 -27.5493,9.08491 -29.7265,9.99974 -30.6163,12.86437 -1.5193,4.89137 -0.6616,48.78157 1.0039,51.3719 0.4691,0.72958 0.4658,13.06592 -0.01,27.41417 -0.8114,24.609917 -0.9878,26.087708 -3.1138,26.087708 -2.1091,0 -2.2566,-1.039699 -2.2965,-16.199828 z m 288.2669,-11.93673 c -0.4514,-15.47507 -1.5921,-54.48263 -2.5348,-86.6833 -0.9428,-32.20076 -1.7219,-65.50716 -1.7313,-74.01438 l -0.017,-15.46754 9.8471,-4.7112 c 5.416,-2.59106 10.7991,-4.71112 11.9625,-4.71112 1.1634,0 4.5821,-1.23987 7.5972,-2.75522 8.3931,-4.21827 19.9773,-9.2005 29.1357,-12.53114 18.6507,-6.78242 22.9276,-8.56779 27.1977,-11.35321 2.4604,-1.60492 4.9313,-2.91801 5.4909,-2.91801 0.5597,0 1.0176,-0.68555 1.0176,-1.52345 0,-1.61265 4.9009,-1.43176 -113.5369,-4.18944 -26.9947,-0.62853 -64.7812,-1.65705 -83.9701,-2.28558 -44.652,-1.46269 -216.3926,-5.58975 -233.8743,-5.6203 -12.2912,-0.0219 -13.3052,-0.18836 -13.3052,-2.19082 0,-1.92178 1.262,-2.25847 11.1332,-2.96985 6.1233,-0.44127 11.6732,-0.48146 12.3334,-0.0891 0.6601,0.39216 15.7408,0.98903 33.513,1.32645 43.5817,0.82752 70.7316,1.40894 103.8645,2.22427 15.2861,0.37625 36.3082,0.86654 46.7158,1.08973 10.4075,0.22318 21.8499,0.69646 25.4275,1.05179 3.5775,0.35532 33.6472,1.17394 66.8212,1.81911 33.1741,0.64517 68.5657,1.44487 78.6481,1.7771 10.0823,0.33223 28.1772,0.80432 40.2109,1.04915 22.9664,0.46729 36.142,2.17562 37.199,4.82343 0.3463,0.86745 -0.9496,2.96377 -2.8801,4.65855 -8.0061,7.02898 -23.3918,14.12635 -52.0589,24.01486 -21.862,7.54101 -38.2943,14.67375 -41.2551,17.90754 -2.692,2.94002 -2.7819,3.56355 -2.008,13.92299 0.9041,12.10169 1.3324,27.86634 3.0548,112.44051 0.6541,32.11764 1.5296,61.91678 1.9457,66.22037 0.7514,7.771361 0.7366,7.824571 -2.1832,7.824571 l -2.9398,0 -0.8208,-28.136551 z m 20.5442,26.147107 c -0.01,-1.751897 23.8768,-25.062017 51.5573,-50.317847 5.1476,-4.69665 15.4795,-14.12006 22.9599,-20.94086 7.4805,-6.82089 19.7212,-18.07233 27.2016,-25.00317 7.4805,-6.93094 19.8007,-17.8738 27.3782,-24.31753 7.5775,-6.44374 14.0899,-12.83572 14.4717,-14.20438 0.3818,-1.36865 0.7196,-5.04634 0.7505,-8.17262 0.032,-3.12629 1.0432,-7.69007 2.2494,-10.14171 1.6783,-3.41068 1.9262,-5.19387 1.0561,-7.59303 -0.76,-2.09576 -0.7163,-3.89132 0.132,-5.41495 1.7698,-3.17858 1.5189,-8.26867 -0.5361,-10.87992 -1.5201,-1.93161 -1.5155,-2.51294 0.038,-4.79151 2.2867,-3.35465 2.2359,-6.07195 -0.1753,-9.38112 -1.8024,-2.47338 -1.8024,-2.89565 0,-5.8283 2.3074,-3.75482 2.4756,-7.13775 0.5055,-10.17009 -1.1324,-1.74289 -1.1201,-3.05607 0.058,-6.18663 1.2587,-3.34619 1.2062,-4.51085 -0.3327,-7.37121 -1.4261,-2.65117 -1.548,-4.09759 -0.5547,-6.58733 0.7,-1.75455 0.9527,-5.14039 0.5616,-7.524 -1.2538,-7.64014 1.2028,-13.10784 9.2759,-20.64648 9.8645,-9.21159 34.7971,-36.26498 39.4665,-42.82348 2.0667,-2.90301 6.9056,-8.01875 10.7531,-11.36831 11.2857,-9.8253 12.1866,-11.97828 12.6692,-30.27715 0.2263,-8.58107 0.6718,-24.39229 0.9899,-35.13597 0.5782,-19.53384 0.5782,-19.53392 -2.4694,-23.85079 -1.6762,-2.37434 -3.3053,-6.16353 -3.6203,-8.42046 -1.0496,-7.52226 9.193,-15.46271 17.8855,-13.86542 8.4101,1.54537 11.7565,13.50555 6.2064,22.18193 l -2.724,4.2581 0.5569,35.53096 0.5569,35.53085 3.3451,5.70534 c 1.8398,3.13793 5.6257,8.29241 8.413,11.45444 2.7873,3.16202 7.7289,9.45306 10.9813,13.9801 3.2523,4.52695 8.0602,10.88283 10.6841,14.12416 2.6239,3.24132 6.0321,7.93962 7.5738,10.44064 1.5416,2.50104 4.7958,6.59362 7.2317,9.09465 2.4359,2.50103 6.4211,7.61676 8.856,11.3683 2.435,3.75154 6.1359,8.86728 8.2242,11.3683 5.3434,6.39981 8.029,11.78766 6.9922,14.02876 -1.3559,2.9312 -1.5355,20.96042 -0.2324,23.33458 0.7839,1.42823 0.7155,3.66342 -0.2095,6.8388 -1.0026,3.44233 -1.027,5.59431 -0.09,7.96282 0.9414,2.38016 0.9131,4.23092 -0.1065,6.94094 -0.9833,2.61381 -1.0467,4.99596 -0.2167,8.13889 0.7879,2.98413 0.7752,5.30108 -0.038,7.05435 -0.8451,1.82066 -0.8008,4.08858 0.1466,7.49325 1.0125,3.63886 1.0185,5.74818 0.024,8.28158 -1.1547,2.9404 -0.9677,3.8947 1.3854,7.07118 1.566,2.11405 2.9337,5.91907 3.2235,8.96814 0.8669,9.12165 1.3291,9.93535 8.3226,14.65392 8.7417,5.89806 11.2491,8.61717 10.764,11.67252 -0.3764,2.37007 -0.582,2.32141 -5.6113,-1.32727 -2.8714,-2.08313 -8.1934,-5.86395 -11.8269,-8.40182 -5.949,-4.15542 -6.5865,-5.00341 -6.4082,-8.52622 0.3789,-7.49317 -0.7586,-11.34639 -3.6626,-12.40764 -2.2587,-0.82552 -2.8938,-2.1386 -3.5773,-7.39813 -0.5686,-4.37398 -0.3823,-6.91438 0.5892,-8.03966 1.1082,-1.28343 1.095,-2.02201 -0.059,-3.35956 -1.0015,-1.16002 -1.2255,-3.45761 -0.6925,-7.10519 0.9183,-6.28631 0.9183,-6.35489 -0.021,-11.92208 -0.3953,-2.34168 -0.3489,-5.1553 0.1029,-6.25256 0.4518,-1.09718 0.8157,-12.96269 0.8085,-26.36774 -0.012,-23.29956 -0.1206,-24.45094 -2.4579,-26.14709 -1.3447,-0.97586 -3.3803,-3.309 -4.5235,-5.18477 -1.1432,-1.87577 -3.143,-5.1312 -4.444,-7.23433 -1.3009,-2.10305 -5.9576,-7.86959 -10.3484,-12.81444 -4.3906,-4.94485 -7.983,-9.42587 -7.983,-9.95782 0,-0.53194 -2.9271,-4.39971 -6.5048,-8.59516 -3.5775,-4.19545 -6.5047,-7.98036 -6.5047,-8.41091 0,-0.89228 -9.1395,-13.08309 -15.4923,-20.66439 -2.3412,-2.79406 -5.2603,-6.87054 -6.4867,-9.05899 -1.2266,-2.18835 -3.5087,-5.3591 -5.0713,-7.04598 l -2.841,-3.06708 0.819,-38.42723 0.8191,-38.42722 3.035,-2.62226 c 2.5476,-2.20109 2.9232,-3.28581 2.3378,-6.75305 -0.8945,-5.29854 -4.354,-8.74959 -7.7366,-7.71762 -4.2137,1.28553 -9.594,6.34006 -9.594,9.01315 0,1.39166 1.8766,4.26639 4.1951,6.42637 3.6322,3.38412 4.1128,4.44337 3.582,7.8966 -0.337,2.19354 -0.9189,19.4901 -1.2932,38.43687 l -0.6805,34.4485 -3.8999,4.77215 c -2.1449,2.62462 -7.2462,8.09723 -11.3362,12.16144 -4.0899,4.06413 -8.8216,9.17986 -10.5146,11.3683 -1.693,2.18836 -4.9493,5.77874 -7.236,7.97855 -2.2867,2.19982 -9.7458,10.05049 -16.5758,17.44607 -6.8299,7.39559 -14.6595,15.82723 -17.399,18.73697 -4.7915,5.08927 -6.5947,10.50422 -4.0093,12.04012 0.5954,0.35369 1.067,18.25031 1.0728,40.7088 l 0.01,40.07754 -3.0158,3.83167 c -2.6591,3.37866 -2.9886,4.80925 -2.788,12.09997 l 0.2278,8.2683 -10.9986,9.3843 c -6.0491,5.1614 -17.9634,15.83096 -26.4762,23.71019 -8.5126,7.87923 -23.3949,21.48791 -33.0716,30.2415 -9.6767,8.7536 -26.9278,24.61238 -38.3358,35.24175 -11.4081,10.62936 -24.4553,22.77925 -28.994,26.99971 -8.3956,7.807028 -11.2519,9.248073 -11.2673,5.684157 z"
             style="fill:#7a8290;stroke-width:13.2473259;stroke-linecap:round;stroke-miterlimit:4;stroke-dasharray:none" />
          <path
             inkscape:connector-curvature="0"
             id="path3403"
             d="m 1533.9128,-99.684447 c 0.2952,-1.406843 0.7767,-5.392113 1.0699,-8.856273 1.5962,-18.85782 3.0071,-33.7533 5.3796,-56.79567 2.7826,-27.02591 2.8111,-28.31808 0.6386,-29.11941 -2.2596,-0.83352 -11.2984,1.64841 -31.2486,8.58026 -7.3893,2.5675 -15.5359,5.12191 -18.1035,5.6765 -4.2472,0.91729 -4.6359,0.80915 -4.3051,-1.19767 0.2859,-1.73562 3.8941,-3.37265 16.9208,-7.67697 9.1066,-3.00905 22.3388,-7.40477 29.4048,-9.76828 14.4776,-4.84254 15.6125,-4.57333 14.2478,3.37957 -0.4291,2.50102 -0.981,7.36093 -1.2262,10.79989 -0.2454,3.43886 -0.6478,8.55459 -0.8943,11.36829 -0.2464,2.81362 -0.7736,9.46408 -1.1716,14.7788 -0.3979,5.31464 -1.0913,11.96509 -1.5409,14.77879 -0.4495,2.81362 -0.9663,7.41777 -1.1483,10.23147 -0.182,2.81362 -0.5991,7.92936 -0.9267,11.36831 -0.3277,3.43886 -0.8537,9.83358 -1.1691,14.21037 -0.7863,10.915759 -0.7459,10.799898 -3.7724,10.799898 -2.162,0 -2.586,-0.503393 -2.1548,-2.557875 z m 21.7774,-22.736593 c -0.04,-13.91199 -0.3867,-31.94494 -0.7687,-40.07327 -0.8599,-18.29242 -0.5386,-44.08137 0.5616,-45.08005 0.9447,-0.85763 16.303,-6.26112 23.2901,-8.19419 2.6019,-0.71984 5.2629,-1.62639 5.9133,-2.01464 0.6505,-0.38816 4.376,-1.56519 8.2788,-2.61553 3.9028,-1.05043 11.0877,-3.48406 15.9661,-5.40812 8.9872,-3.54446 16.1281,-5.8535 28.9756,-9.36949 8.0475,-2.20236 15.1346,-4.72121 19.611,-6.96995 1.6793,-0.84371 5.1387,-2.02229 7.6873,-2.61899 5.1801,-1.21286 16.645,-4.90519 37.749,-12.15726 7.8057,-2.68228 18.7159,-6.26048 24.2448,-7.95154 10.5608,-3.22996 40.2405,-13.1252 47.3071,-15.77219 2.2767,-0.85281 10.5259,-3.59375 18.3315,-6.09105 7.8057,-2.4973 17.7879,-5.83049 22.1826,-7.40723 4.3948,-1.57664 10.1357,-3.21513 12.7577,-3.64094 l 4.7673,-0.77414 -0.6376,33.92775 c -0.9661,51.40664 -1.7082,73.17185 -3.1335,91.90608 -0.7416,9.74865 -0.9446,23.72393 -0.4739,32.62867 0.453,8.56688 0.4407,21.73992 -0.027,29.27338 -0.7163,11.537551 -1.1528,13.697168 -2.7681,13.696984 -1.7302,-1.84e-4 -1.9115,-3.585204 -1.8532,-36.662784 0.035,-20.16445 0.6985,-48.94036 1.4733,-63.94652 0.7749,-15.00616 1.5441,-42.11956 1.7094,-60.252 l 0.3008,-32.96807 -2.5898,-0.35433 c -2.1694,-0.29676 -18.9692,5.04634 -49.448,15.72672 -3.2524,1.13966 -9.3727,3.18859 -13.6007,4.55306 -29.9714,9.6726 -68.8525,22.45831 -86.3355,28.39056 -11.3833,3.8625 -24.9544,8.30077 -30.1583,9.86286 -5.2037,1.56211 -13.9851,4.38862 -19.5142,6.28122 -5.529,1.8926 -21.2289,7.12674 -34.8889,11.63132 -27.5494,9.08491 -29.7266,9.99974 -30.6164,12.86437 -1.5193,4.89137 -0.6616,48.78157 1.0039,51.3719 0.4691,0.72958 0.4658,13.06592 -0.01,27.41417 -0.8006,24.282324 -1.011,26.087708 -3.0382,26.087708 -2.0479,0 -2.1823,-1.509077 -2.2519,-25.294468 z m 289.0959,21.03135 c 0.014,-2.34469 -0.4225,-17.81986 -0.9704,-34.38911 -0.548,-16.56935 -1.167,-37.28804 -1.3755,-46.04163 -0.2086,-8.75359 -0.6592,-25.12395 -1.0012,-36.37857 -1.4569,-47.9415 -1.8653,-80.80171 -1.019,-81.99947 1.1434,-1.61821 20.1032,-10.6522 22.3561,-10.6522 0.92,0 5.2517,-1.70479 9.6262,-3.78837 4.3744,-2.08358 11.6789,-5.20668 16.2323,-6.9403 4.5533,-1.73353 9.6092,-3.80656 11.2354,-4.60662 1.6262,-0.80006 4.8195,-1.83484 7.096,-2.29958 2.2767,-0.46473 5.1892,-1.54691 6.4724,-2.40489 1.283,-0.858 3.2069,-1.56001 4.2754,-1.56001 1.0685,0 3.4424,-1.13383 5.2753,-2.51967 1.8328,-1.38584 4.933,-3.30427 6.8894,-4.26311 6.8416,-3.35338 5.2928,-4.57625 -5.9607,-4.70602 -19.4582,-0.22446 -70.6293,-1.39676 -118.0707,-2.70502 -9.757,-0.26912 -33.9723,-0.83071 -53.8118,-1.24797 -19.8393,-0.41736 -36.514,-1.00632 -37.0547,-1.3089 -0.5408,-0.30258 -10.3865,-0.73076 -21.8796,-0.95157 -11.4929,-0.22073 -33.137,-0.69565 -48.098,-1.05535 -14.9608,-0.35969 -36.7812,-0.86126 -48.4896,-1.11445 -11.7086,-0.2532 -35.9238,-0.85263 -53.8118,-1.33219 -17.888,-0.47947 -37.7126,-0.73475 -44.0548,-0.56741 -10.7815,0.28466 -11.5311,0.15916 -11.5311,-1.92943 0,-2.00556 1.1378,-2.31577 11.1333,-3.03616 6.1232,-0.44127 11.6732,-0.48146 12.3334,-0.0891 0.66,0.39216 15.7408,0.98903 33.5128,1.32645 43.5818,0.82752 70.7317,1.40894 103.8646,2.22427 15.2861,0.37625 36.3081,0.86654 46.7157,1.08973 10.4076,0.22318 21.85,0.69646 25.4276,1.05179 3.5776,0.35532 33.6472,1.17394 66.8212,1.81911 33.1741,0.64517 68.5658,1.44487 78.6481,1.7771 10.0824,0.33223 28.1773,0.80432 40.2109,1.04915 22.9665,0.46729 36.142,2.17562 37.199,4.82343 0.3463,0.86745 -0.9496,2.96377 -2.88,4.65855 -8.0062,7.02898 -23.3918,14.12635 -52.0591,24.01486 -21.8619,7.54101 -38.2941,14.67375 -41.2551,17.90754 -2.6919,2.94002 -2.7818,3.56355 -2.0079,13.92299 0.9041,12.10169 1.3325,27.86634 3.0547,112.44051 0.6541,32.11764 1.5297,61.91678 1.9458,66.22037 0.7481,7.737529 0.7244,7.824571 -2.132,7.824571 -2.5539,0 -2.8854,-0.493751 -2.8626,-4.263121 z m 19.595,2.273667 c -0.01,-1.751897 23.8768,-25.062017 51.5573,-50.317847 5.1476,-4.69665 15.4795,-14.12006 22.9599,-20.94086 7.4805,-6.82089 19.7212,-18.07233 27.2016,-25.00317 7.4805,-6.93094 19.8007,-17.8738 27.3782,-24.31753 7.5775,-6.44374 14.0899,-12.83572 14.4717,-14.20438 0.3818,-1.36865 0.7196,-5.04634 0.7505,-8.17262 0.032,-3.12629 1.0432,-7.69007 2.2494,-10.14171 1.6783,-3.41068 1.9262,-5.19387 1.0561,-7.59303 -0.76,-2.09576 -0.7163,-3.89132 0.132,-5.41495 1.7698,-3.17858 1.5189,-8.26867 -0.5361,-10.87992 -1.5201,-1.93161 -1.5155,-2.51294 0.038,-4.79151 2.2867,-3.35465 2.2359,-6.07195 -0.1753,-9.38112 -1.8024,-2.47338 -1.8024,-2.89565 0,-5.8283 2.3074,-3.75482 2.4756,-7.13775 0.5055,-10.17009 -1.1324,-1.74289 -1.1201,-3.05607 0.058,-6.18663 1.2587,-3.34619 1.2062,-4.51085 -0.3327,-7.37121 -1.4261,-2.65117 -1.548,-4.09759 -0.5547,-6.58733 0.7,-1.75455 0.9527,-5.14039 0.5616,-7.524 -1.2538,-7.64014 1.2028,-13.10784 9.2759,-20.64648 9.8645,-9.21159 34.7971,-36.26498 39.4665,-42.82348 2.0667,-2.90301 6.9056,-8.01875 10.7531,-11.36831 11.2857,-9.8253 12.1866,-11.97828 12.6692,-30.27715 0.2263,-8.58107 0.6718,-24.39229 0.9899,-35.13597 0.5782,-19.53384 0.5782,-19.53392 -2.4694,-23.85079 -1.6762,-2.37434 -3.3053,-6.16353 -3.6203,-8.42046 -1.0496,-7.52226 9.193,-15.46271 17.8855,-13.86542 8.4101,1.54537 11.7565,13.50555 6.2064,22.18193 l -2.724,4.2581 0.5569,35.53096 0.5569,35.53085 3.3451,5.70534 c 1.8398,3.13793 5.6257,8.29241 8.413,11.45444 2.7873,3.16202 7.7289,9.45306 10.9813,13.9801 3.2523,4.52695 8.0602,10.88283 10.6841,14.12416 2.6239,3.24132 6.0321,7.93962 7.5738,10.44064 1.5416,2.50104 4.7958,6.59362 7.2317,9.09465 2.4359,2.50103 6.4211,7.61676 8.856,11.3683 2.435,3.75154 6.1359,8.86728 8.2242,11.3683 5.3434,6.39981 8.029,11.78766 6.9922,14.02876 -1.3559,2.9312 -1.5355,20.96042 -0.2324,23.33458 0.7839,1.42823 0.7155,3.66342 -0.2095,6.8388 -1.0026,3.44233 -1.027,5.59431 -0.09,7.96282 0.9414,2.38016 0.9131,4.23092 -0.1065,6.94094 -0.9833,2.61381 -1.0467,4.99596 -0.2167,8.13889 0.7879,2.98413 0.7752,5.30108 -0.038,7.05435 -0.8451,1.82066 -0.8008,4.08858 0.1466,7.49325 1.0125,3.63886 1.0185,5.74818 0.024,8.28158 -1.1547,2.9404 -0.9677,3.8947 1.3854,7.07118 1.566,2.11405 2.9337,5.91907 3.2235,8.96814 0.854,8.98642 1.3083,9.86441 7.1308,13.78593 8.7211,5.87368 12.1563,9.31582 12.1563,12.18063 0,2.34096 -1.2768,1.69288 -11.8267,-6.00273 l -11.8267,-8.62709 0,-7.05607 c -2e-4,-7.27563 -1.2615,-9.78447 -4.9197,-9.78447 -1.5289,0 -2.0299,-0.82971 -1.8877,-3.12629 0.1064,-1.71944 -0.1993,-4.22346 -0.6792,-5.56438 -0.5802,-1.62139 -0.2459,-3.04042 0.9982,-4.23628 1.3389,-1.28698 1.5518,-2.37143 0.7491,-3.81448 -0.6664,-1.19794 -0.9541,-17.12957 -0.7089,-39.25584 l 0.4126,-37.23964 -2.7091,-2.54942 c -1.4899,-1.40221 -5.2935,-6.38635 -8.4524,-11.07573 -3.1587,-4.68946 -8.3512,-11.33992 -11.5389,-14.77878 -3.1877,-3.43896 -6.3911,-7.53155 -7.1187,-9.09464 -0.7274,-1.56319 -3.6447,-5.37321 -6.4829,-8.46684 -2.838,-3.09364 -6.1626,-7.44206 -7.3879,-9.66307 -1.2252,-2.22109 -5.1675,-7.61931 -8.7607,-11.9961 -3.5931,-4.3768 -9.5134,-12.24357 -13.1562,-17.48181 l -6.6231,-9.52391 0.052,-16.33898 c 0.028,-8.98633 0.075,-25.80769 0.1042,-37.38061 l 0.052,-21.04173 3.3879,-3.40759 c 3.0002,-3.01787 3.2894,-3.92443 2.5281,-7.92661 -0.4729,-2.48557 -1.5304,-5.29581 -2.35,-6.24512 -2.3085,-2.67372 -7.4065,-2.05329 -11.5043,1.40022 -5.697,4.80106 -5.9025,7.35093 -1.0117,12.55461 l 4.1759,4.44292 -0.6638,23.19042 c -0.3651,12.75469 -0.7544,30.09653 -0.8653,38.53755 -0.1684,12.82572 -0.5424,15.72072 -2.2764,17.62086 -1.1412,1.25052 -6.1188,6.36626 -11.0614,11.3683 -4.9425,5.00206 -10.4793,11.0248 -12.304,13.38387 -3.364,4.34923 -13.6568,15.37976 -34.6277,37.10968 -6.368,6.59853 -11.8818,13.15995 -12.2528,14.5809 -0.3921,1.50171 0.1522,3.79647 1.2999,5.48015 1.6365,2.40081 1.7454,3.5641 0.6362,6.79489 -0.7363,2.14406 -0.9632,5.03461 -0.5046,6.42363 1.3024,3.94444 1.578,36.23851 0.3497,40.98928 -0.7505,2.90319 -0.6759,5.02179 0.2348,6.65746 0.9798,1.75981 0.9912,3.71452 0.043,7.33647 -0.9596,3.66314 -0.9375,5.68824 0.085,7.84594 1.2096,2.55169 0.9429,3.49972 -2.1753,7.73118 -3.2939,4.47011 -3.5143,5.38321 -3.0135,12.48585 l 0.5402,7.66315 -7.5068,6.54723 c -7.2901,6.35816 -15.083,13.32065 -41.5816,37.1507 -7.0084,6.30259 -19.3836,17.59823 -27.5005,25.10131 -8.1168,7.50308 -22.7925,21.05973 -32.6126,30.12599 -9.8201,9.06618 -22.2977,20.70451 -27.7278,25.8629 -10.056,9.552644 -12.3554,10.926121 -12.3706,7.389397 z"
             style="fill:#5f6f89;stroke-width:13.2473259;stroke-linecap:round;stroke-miterlimit:4;stroke-dasharray:none" />
          <path
             inkscape:connector-curvature="0"
             id="path3401"
             d="m 1533.9128,-99.684447 c 0.2952,-1.406843 0.7767,-5.392113 1.0699,-8.856273 1.5962,-18.85782 3.0071,-33.7533 5.3796,-56.79567 2.7826,-27.02591 2.8111,-28.31808 0.6386,-29.11941 -2.2596,-0.83352 -11.2984,1.64841 -31.2486,8.58026 -7.3893,2.5675 -15.5359,5.12191 -18.1035,5.6765 -4.3198,0.93293 -4.6415,0.83307 -4.3051,-1.33564 0.2162,-1.39466 1.4122,-2.49557 2.9531,-2.71829 3.9412,-0.56969 25.622,-7.34802 27.0553,-8.45856 1.6417,-1.27207 29.26,-10.17073 29.839,-9.61413 0.2435,0.234 -0.1134,5.96662 -0.7931,12.73904 -0.6797,6.77242 -1.5503,16.4061 -1.9347,21.40815 -0.3843,5.00206 -1.7048,19.32612 -2.9346,31.83125 -1.2298,12.50513 -2.354,26.44549 -2.4984,30.97863 -0.2467,7.747269 -0.4243,8.242018 -2.9584,8.242018 -2.1664,0 -2.5905,-0.502387 -2.1591,-2.557875 z m 22.2525,0.568424 c 1.1895,-3.856317 0.1275,-72.622547 -1.1983,-77.588667 -0.4174,-1.56319 -0.6351,-5.1442 -0.4841,-7.95781 0.1511,-2.8137 0.3561,-9.18459 0.4557,-14.15764 l 0.181,-9.0418 4.7104,-0.94265 c 2.5906,-0.5184 5.225,-1.43742 5.8542,-2.04221 0.6293,-0.60479 1.9689,-1.10281 2.9771,-1.10664 1.0083,0 3.3576,-0.77122 5.2207,-1.70524 1.8631,-0.93402 4.1777,-1.69824 5.1433,-1.69824 0.9657,0 3.4328,-0.69574 5.4825,-1.54609 2.0498,-0.85035 6.92,-2.43118 10.8229,-3.5129 3.9028,-1.08172 10.4736,-3.47806 14.6018,-5.32519 4.1281,-1.84721 9.184,-3.66368 11.2354,-4.03665 2.0513,-0.37306 4.7816,-1.19776 6.0672,-1.83275 2.2322,-1.10245 4.7903,-1.81893 15.4026,-4.31387 4.8024,-1.12901 11.0832,-3.51134 15.3748,-5.83184 1.301,-0.70347 4.2281,-1.66295 6.5047,-2.13224 5.3602,-1.10491 19.5796,-5.73581 36.6631,-11.94027 16.3978,-5.95544 34.8744,-11.82239 37.2318,-11.82239 0.9439,0 3.7301,-0.83826 6.1914,-1.86286 7.7986,-3.24615 8.9602,-3.68224 21.0326,-7.8967 6.5047,-2.27075 14.2218,-4.78696 17.1489,-5.59166 2.9271,-0.80468 10.1119,-3.10873 15.9661,-5.12009 21.1694,-7.27309 30.662,-10.25121 31.6581,-9.93199 1.9803,0.63444 0.5974,108.26244 -1.4859,115.64983 -0.9866,3.49871 -1.4064,15.45626 -1.3371,38.08382 0.1349,43.96413 -0.018,47.195824 -2.2249,47.19473 -1.5415,-8.14e-4 -1.7655,-4.80524 -1.7094,-36.66351 0.035,-20.16445 0.6985,-48.94036 1.4733,-63.94652 0.7748,-15.00616 1.5441,-42.11956 1.7094,-60.252 l 0.3007,-32.96807 -2.5898,-0.35433 c -2.1692,-0.29676 -18.9691,5.04634 -49.448,15.72672 -3.2523,1.13966 -9.3726,3.18859 -13.6007,4.55306 -29.9712,9.6726 -68.8524,22.45831 -86.3354,28.39056 -11.3833,3.8625 -24.9545,8.30077 -30.1584,9.86286 -5.2037,1.56211 -13.985,4.38862 -19.5141,6.28122 -5.529,1.8926 -21.229,7.12674 -34.889,11.63132 -27.5493,9.08491 -29.7265,9.99974 -30.6163,12.86437 -1.5193,4.89137 -0.6616,48.78157 1.0039,51.3719 0.4691,0.72958 0.4658,13.06592 -0.01,27.41417 -0.8156,24.735787 -0.9785,26.087708 -3.1445,26.087708 -1.6208,0 -2.106,-0.577873 -1.6706,-1.989451 z m 288.6755,-16.483407 c -0.033,-17.74656 -1.065,-42.26898 -2.3315,-55.42111 -0.3312,-3.43895 -0.084,-9.25835 0.5485,-12.93204 0.7949,-4.61425 0.7564,-7.38776 -0.1246,-8.97013 -0.7903,-1.4195 -1.4418,-14.22729 -1.7128,-33.67801 -0.2407,-17.26299 -0.622,-40.08409 -0.8472,-50.71346 -0.2254,-10.62936 -0.1871,-20.34925 0.085,-21.59976 0.5076,-2.33296 16.7574,-10.7999 20.7273,-10.7999 1.0782,0 5.5665,-1.73489 9.974,-3.85539 14.0044,-6.73759 32.7861,-14.33389 35.4401,-14.33389 1.6686,0 17.3702,-6.87791 18.1066,-7.93143 0.3252,-0.46529 2.454,-1.75609 4.7307,-2.86845 4.1066,-2.00646 5.8605,-3.64878 5.8953,-5.52027 0.01,-0.53513 -9.6946,-0.96931 -21.5657,-0.96494 -11.8712,0.009 -30.8975,-0.26083 -42.2807,-0.58961 -11.3834,-0.32877 -32.1393,-0.83553 -46.1245,-1.12628 -33.2544,-0.69119 -81.8152,-2.10668 -125.955,-3.67124 -19.5142,-0.69173 -45.5922,-1.48224 -57.9512,-1.7568 -75.8397,-1.68461 -110.3188,-2.28649 -130.982,-2.28649 -20.9567,0 -23.3584,-0.19363 -23.3579,-1.88341 5e-4,-1.56291 1.8943,-2.01983 11.1337,-2.68565 6.1232,-0.44127 11.6733,-0.48146 12.3335,-0.0891 0.6601,0.39216 15.7408,0.98903 33.5127,1.32645 43.5818,0.82752 70.7319,1.40894 103.8647,2.22427 15.2861,0.37625 36.3082,0.86654 46.7157,1.08973 10.4076,0.22318 21.85,0.69646 25.4276,1.05179 3.5776,0.35532 33.6472,1.17394 66.8213,1.81911 33.1741,0.64517 68.5656,1.44487 78.648,1.7771 10.0823,0.33223 28.1772,0.80432 40.211,1.04915 22.9663,0.46729 36.1418,2.17562 37.1989,4.82343 0.3464,0.86745 -0.9496,2.96377 -2.8801,4.65855 -8.0061,7.02898 -23.3917,14.12635 -52.0589,24.01486 -21.862,7.54101 -38.2943,14.67375 -41.2553,17.90754 -2.6918,2.94002 -2.7817,3.56355 -2.0077,13.92299 0.9041,12.10169 1.3323,27.86634 3.0547,112.44051 0.6539,32.11764 1.5296,61.91678 1.9457,66.22037 0.7442,7.697966 0.7107,7.824571 -2.0743,7.825201 l -2.8309,6.39e-4 -0.035,-18.47413 z m 19.5403,16.483407 c -0.01,-1.751897 23.8768,-25.062017 51.5573,-50.317847 5.1476,-4.69665 15.4795,-14.12006 22.9599,-20.94086 7.4805,-6.82089 19.7212,-18.07233 27.2016,-25.00317 7.4805,-6.93094 19.8007,-17.8738 27.3782,-24.31753 7.5775,-6.44374 14.0899,-12.83572 14.4717,-14.20438 0.3818,-1.36865 0.7196,-5.04634 0.7505,-8.17262 0.032,-3.12629 1.0432,-7.69007 2.2494,-10.14171 1.6783,-3.41068 1.9262,-5.19387 1.0561,-7.59303 -0.76,-2.09576 -0.7163,-3.89132 0.132,-5.41495 1.7698,-3.17858 1.5189,-8.26867 -0.5361,-10.87992 -1.5201,-1.93161 -1.5155,-2.51294 0.038,-4.79151 2.2867,-3.35465 2.2359,-6.07195 -0.1753,-9.38112 -1.8024,-2.47338 -1.8024,-2.89565 0,-5.8283 2.3074,-3.75482 2.4756,-7.13775 0.5055,-10.17009 -1.1324,-1.74289 -1.1201,-3.05607 0.058,-6.18663 1.2587,-3.34619 1.2062,-4.51085 -0.3327,-7.37121 -1.4261,-2.65117 -1.548,-4.09759 -0.5547,-6.58733 0.7,-1.75455 0.9527,-5.14039 0.5616,-7.524 -1.2538,-7.64014 1.2028,-13.10784 9.2759,-20.64648 9.8645,-9.21159 34.7971,-36.26498 39.4665,-42.82348 2.0667,-2.90301 6.9056,-8.01875 10.7531,-11.36831 11.2857,-9.8253 12.1866,-11.97828 12.6692,-30.27715 0.2263,-8.58107 0.6718,-24.39229 0.9899,-35.13597 0.5782,-19.53384 0.5782,-19.53392 -2.4694,-23.85079 -1.6762,-2.37434 -3.3053,-6.16353 -3.6203,-8.42046 -1.0496,-7.52226 9.193,-15.46271 17.8855,-13.86542 8.4101,1.54537 11.7565,13.50555 6.2064,22.18193 l -2.724,4.2581 0.5569,35.53096 0.5569,35.53085 3.3451,5.70534 c 1.8398,3.13793 5.6257,8.29241 8.413,11.45444 2.7873,3.16202 7.7289,9.45306 10.9813,13.9801 3.2523,4.52695 8.0602,10.88283 10.6841,14.12416 2.6239,3.24132 6.0321,7.93962 7.5738,10.44064 1.5416,2.50104 4.7958,6.59362 7.2317,9.09465 2.4359,2.50103 6.4211,7.61676 8.856,11.3683 2.435,3.75154 6.1359,8.86728 8.2242,11.3683 5.3434,6.39981 8.029,11.78766 6.9922,14.02876 -1.3559,2.9312 -1.5355,20.96042 -0.2324,23.33458 0.7839,1.42823 0.7155,3.66342 -0.2095,6.8388 -1.0026,3.44233 -1.027,5.59431 -0.09,7.96282 0.9414,2.38016 0.9131,4.23092 -0.1065,6.94094 -0.9833,2.61381 -1.0467,4.99596 -0.2167,8.13889 0.7879,2.98413 0.7752,5.30108 -0.038,7.05435 -0.8451,1.82066 -0.8008,4.08858 0.1466,7.49325 1.0125,3.63886 1.0185,5.74818 0.024,8.28158 -1.1547,2.9404 -0.9677,3.8947 1.3854,7.07118 1.566,2.11405 2.9337,5.91907 3.2235,8.96814 0.854,8.98642 1.3083,9.86441 7.1308,13.78593 8.8564,5.96481 12.1563,9.31027 12.1563,12.32388 0,2.64253 -0.2802,2.53967 -6.2089,-2.28003 -3.415,-2.77605 -8.7795,-6.72767 -11.9211,-8.78124 l -5.712,-3.73381 0.7594,-5.30681 c 0.9318,-6.51222 -0.7456,-11.2096 -4.181,-11.70881 -2.1007,-0.3053 -2.6335,-1.28098 -2.9965,-5.48707 -0.2428,-2.81361 0.1601,-6.24929 0.8954,-7.63486 0.9846,-1.85504 0.9892,-2.92201 0.017,-4.04757 -0.9072,-1.0508 -1.1384,-7.36875 -0.7395,-20.21748 0.3191,-10.27895 0.6519,-27.0873 0.7394,-37.35179 l 0.1593,-18.66275 -3.146,-2.41126 c -1.7305,-1.32627 -3.1461,-2.78769 -3.1461,-3.24761 0,-1.69342 -11.7973,-17.89434 -16.3381,-22.43684 -2.5777,-2.57852 -5.6772,-6.56288 -6.888,-8.85409 -1.2109,-2.2913 -4.4515,-6.41291 -7.2016,-9.15913 -2.75,-2.7463 -5.3542,-6.07149 -5.7872,-7.38939 -0.4328,-1.31791 -2.5734,-4.49521 -4.757,-7.06063 -2.1834,-2.56551 -3.9699,-5.18494 -3.9699,-5.8212 0,-0.63618 -2.1298,-3.14138 -4.733,-5.5671 -2.6032,-2.42564 -5.5691,-5.945 -6.5911,-7.82076 -3.6897,-6.7726 -4.9485,-8.65665 -7.5891,-11.35849 l -2.6847,-2.74693 0.8677,-38.4205 c 0.5223,-23.12887 1.3477,-38.9861 2.0737,-39.84154 0.6633,-0.7816 1.9391,-1.42104 2.8351,-1.42104 2.4897,0 2.0227,-7.89206 -0.7231,-12.22093 -2.9878,-4.71029 -6.3734,-4.78332 -12.845,-0.27711 -6.2884,4.3788 -6.6028,8.37298 -1.1115,14.12425 3.7124,3.88824 3.7891,4.18536 3.4625,13.39604 -0.7672,21.64189 -1.1469,38.72236 -1.1745,52.85107 -0.027,13.90916 -0.2081,15.11811 -2.4656,16.4733 -1.34,0.80442 -2.4363,2.07776 -2.4363,2.82971 0,0.75194 -4.0116,5.10519 -8.9147,9.67379 -4.9029,4.56869 -10.358,10.47994 -12.1224,13.13621 -1.7642,2.65618 -3.5282,4.83034 -3.9196,4.83153 -0.5854,0 -22.6147,23.41288 -38.6122,41.03439 -3.7572,4.1386 -5.0462,9.27644 -2.6799,10.6822 0.6401,0.38033 1.0745,3.86358 0.9651,7.74072 -0.1093,3.87705 -0.1475,16.25758 -0.085,27.51221 0.2704,48.61967 0.4898,45.0302 -3.0227,49.45211 -2.8656,3.60748 -3.1225,4.73358 -2.7516,12.06223 l 0.409,8.0834 -9.8704,8.30086 c -9.6434,8.1097 -34.3826,30.56137 -65.1102,59.08944 -8.4182,7.81566 -15.721,14.35608 -16.2284,14.53424 -0.5073,0.17808 -9.0122,7.95144 -18.8995,17.27418 -9.8875,9.32274 -18.49,17.36222 -19.1167,17.86552 -0.6268,0.5032 -4.5763,4.36815 -8.7766,8.58861 -7.859,7.896608 -10.0532,9.135387 -10.0681,5.684157 z"
             style="fill:#566172;stroke-width:13.2473259;stroke-linecap:round;stroke-miterlimit:4;stroke-dasharray:none" />
          <path
             inkscape:connector-curvature="0"
             id="path3399"
             d="m 1533.9128,-99.684447 c 0.2952,-1.406843 0.7767,-5.392113 1.0699,-8.856273 1.5962,-18.85782 3.0071,-33.7533 5.3796,-56.79567 2.7826,-27.02591 2.8111,-28.31808 0.6386,-29.11941 -2.2596,-0.83352 -11.2984,1.64841 -31.2486,8.58026 -7.3893,2.5675 -15.5359,5.12191 -18.1035,5.6765 -4.3703,0.94385 -4.6454,0.85171 -4.3051,-1.4434 0.2303,-1.5541 1.084,-2.33751 2.3318,-2.13998 1.0827,0.17143 11.4606,-2.95921 23.0622,-6.95694 27.0661,-9.32665 33.5308,-11.33638 34.2478,-10.6471 0.3205,0.30804 0.039,5.85958 -0.623,12.3367 -0.6631,6.4772 -1.5161,15.61341 -1.8954,20.30288 -0.3792,4.68938 -1.7466,19.01344 -3.0384,31.83125 -1.292,12.81771 -2.3178,24.83974 -2.2797,26.71551 0.038,1.87576 -0.244,5.58466 -0.627,8.24202 -0.538,3.734891 -1.2011,4.831528 -2.9211,4.831528 -1.678,0 -2.0929,-0.628809 -1.6881,-2.557875 z m 22.3052,0.653996 c 0.8205,-2.055379 0.9293,-49.169269 0.1308,-56.623419 -1.0336,-9.64769 -1.6281,-42.3362 -0.8576,-47.15254 0.711,-4.44446 1.2491,-5.16784 4.3591,-5.8604 1.9515,-0.43454 6.4752,-1.90606 10.0528,-3.26989 3.5776,-1.36392 8.1013,-2.90228 10.0527,-3.41859 1.9515,-0.51629 5.1446,-1.48452 7.0961,-2.15151 29.3262,-10.02394 55.1067,-18.31306 56.9565,-18.31306 1.4227,0 3.8751,-0.94403 15.2646,-5.87569 2.6446,-1.1452 6.1306,-2.08213 7.7465,-2.08213 1.6159,0 3.4437,-0.47647 4.0616,-1.05889 1.0104,-0.95221 22.1758,-8.32287 34.2385,-11.92326 2.6019,-0.77659 5.5291,-1.73607 6.5047,-2.13214 4.8542,-1.97072 12.8997,-4.48776 16.9484,-5.30227 2.4916,-0.5012 5.1259,-1.48406 5.8542,-2.18408 0.7282,-0.70001 2.4472,-1.27279 3.8199,-1.27279 1.3728,0 5.9232,-1.31718 10.112,-2.92703 4.1888,-1.60993 11.6075,-4.16052 16.486,-5.66805 4.8786,-1.50762 9.9344,-3.20804 11.2354,-3.77883 1.301,-0.57086 6.0908,-2.15387 10.6441,-3.5178 4.5533,-1.36402 14.3991,-4.71302 21.8796,-7.44224 7.4805,-2.72921 15.5987,-5.30336 18.0407,-5.72034 l 4.44,-0.75813 -0.6065,36.79019 c -0.3335,20.23458 -1.2554,49.57953 -2.0484,65.21095 -0.7931,15.63142 -1.3949,44.15166 -1.3374,63.37828 0.094,31.42363 -0.088,34.957538 -1.8002,34.957354 -1.7132,-1.84e-4 -1.8982,-3.687604 -1.8402,-36.662784 0.035,-20.16445 0.6985,-48.94036 1.4733,-63.94652 0.7748,-15.00616 1.5441,-42.11956 1.7094,-60.252 l 0.3007,-32.96807 -2.5898,-0.35433 c -2.1692,-0.29676 -18.9691,5.04634 -49.448,15.72672 -3.2523,1.13966 -9.3726,3.18859 -13.6007,4.55306 -29.9712,9.6726 -68.8524,22.45831 -86.3354,28.39056 -11.3833,3.8625 -24.9545,8.30077 -30.1584,9.86286 -5.2037,1.56211 -13.985,4.38862 -19.5141,6.28122 -5.529,1.8926 -21.229,7.12674 -34.889,11.63132 -27.5493,9.08491 -29.7265,9.99965 -30.6163,12.86437 -1.5193,4.89128 -0.6616,48.78157 1.0039,51.3719 0.4691,0.72958 0.4658,13.06592 -0.01,27.41417 -0.8217,24.922497 -0.9642,26.087708 -3.1913,26.087708 -1.6944,0 -2.1235,-0.520121 -1.571,-1.903879 z m 289.9979,-5.201309 c -0.39,-3.90788 -0.9908,-18.87138 -1.3351,-33.25229 -0.3443,-14.3809 -0.9267,-29.72811 -1.2944,-34.1049 -0.3675,-4.3768 -0.088,-10.40865 0.622,-13.40415 0.8753,-3.69542 0.9072,-6.13405 0.099,-7.58593 -1.1573,-2.07858 -1.5656,-12.45484 -3.025,-76.8891 l -0.6979,-30.8062 6.8763,-3.14802 c 3.782,-1.73134 8.2889,-3.8553 10.0156,-4.71975 1.7265,-0.86444 3.8887,-1.57174 4.8049,-1.57174 0.9162,0 4.3959,-1.26597 7.7325,-2.81315 5.2223,-2.42172 12.9972,-5.43369 32.2217,-12.48294 24.1138,-8.842 37.6753,-16.66803 33.3432,-19.24172 -0.525,-0.31185 -14.4954,-0.85417 -31.0453,-1.20522 -16.55,-0.35096 -39.9366,-0.88628 -51.9704,-1.18948 -12.0337,-0.30322 -32.5236,-0.8108 -45.5331,-1.12802 -89.1386,-2.17307 -115.7787,-2.9162 -123.5897,-3.4475 -4.8786,-0.33187 -23.2396,-0.86027 -40.8024,-1.1743 -42.214,-0.75468 -70.9146,-1.4104 -104.6669,-2.39126 -28.6407,-0.83234 -45.1724,-0.73066 -48.7854,0.30003 -1.4796,0.42209 -2.0697,-0.0491 -2.0697,-1.65376 0,-2.01865 1.1191,-2.32487 11.1333,-3.04653 6.1232,-0.44127 11.6732,-0.48146 12.3334,-0.0891 0.66,0.39216 15.7408,0.98903 33.5128,1.32645 43.5818,0.82752 70.7317,1.40894 103.8646,2.22427 15.2861,0.37625 36.3081,0.86654 46.7157,1.08973 10.4076,0.22318 21.85,0.69646 25.4276,1.05179 3.5776,0.35532 33.6472,1.17394 66.8212,1.81911 33.1741,0.64517 68.5658,1.44487 78.6481,1.7771 10.0824,0.33223 28.1773,0.80432 40.2109,1.04915 22.9665,0.46729 36.142,2.17562 37.199,4.82343 0.3463,0.86745 -0.9496,2.96377 -2.88,4.65855 -8.0062,7.02898 -23.3918,14.12635 -52.0591,24.01486 -21.8619,7.54101 -38.2941,14.67375 -41.2551,17.90754 -2.6919,2.94002 -2.7818,3.56355 -2.0079,13.92299 0.9041,12.10169 1.3325,27.86634 3.0547,112.44051 0.6541,32.11764 1.5297,61.91678 1.9458,66.22037 0.6359,6.576421 0.4685,7.824571 -1.0495,7.824571 -1.3513,0 -1.9846,-1.788918 -2.5153,-7.105191 z m 18.1652,5.115737 c -0.01,-1.751897 23.8768,-25.062017 51.5573,-50.317847 5.1476,-4.69665 15.4795,-14.12006 22.9599,-20.94086 7.4805,-6.82089 19.7212,-18.07233 27.2016,-25.00317 7.4805,-6.93094 19.8007,-17.8738 27.3782,-24.31753 7.5775,-6.44374 14.0899,-12.83572 14.4717,-14.20438 0.3818,-1.36865 0.7196,-5.04634 0.7505,-8.17262 0.032,-3.12629 1.0432,-7.69007 2.2494,-10.14171 1.6783,-3.41068 1.9262,-5.19387 1.0561,-7.59303 -0.76,-2.09576 -0.7163,-3.89132 0.132,-5.41495 1.7698,-3.17858 1.5189,-8.26867 -0.5361,-10.87992 -1.5201,-1.93161 -1.5155,-2.51294 0.038,-4.79151 2.2867,-3.35465 2.2359,-6.07195 -0.1753,-9.38112 -1.8024,-2.47338 -1.8024,-2.89565 0,-5.8283 2.3074,-3.75482 2.4756,-7.13775 0.5055,-10.17009 -1.1324,-1.74289 -1.1201,-3.05607 0.058,-6.18663 1.2587,-3.34619 1.2062,-4.51085 -0.3327,-7.37121 -1.4261,-2.65117 -1.548,-4.09759 -0.5547,-6.58733 0.7,-1.75455 0.9527,-5.14039 0.5616,-7.524 -1.2538,-7.64014 1.2028,-13.10784 9.2759,-20.64648 9.8645,-9.21159 34.7971,-36.26498 39.4665,-42.82348 2.0667,-2.90301 6.9056,-8.01875 10.7531,-11.36831 11.2857,-9.8253 12.1866,-11.97828 12.6692,-30.27715 0.2263,-8.58107 0.6718,-24.39229 0.9899,-35.13597 0.5782,-19.53384 0.5782,-19.53392 -2.4694,-23.85079 -1.6762,-2.37434 -3.3053,-6.16353 -3.6203,-8.42046 -1.0496,-7.52226 9.193,-15.46271 17.8855,-13.86542 8.4101,1.54537 11.7565,13.50555 6.2064,22.18193 l -2.724,4.2581 0.5569,35.53096 0.5569,35.53085 3.3451,5.70534 c 1.8398,3.13793 5.6257,8.29241 8.413,11.45444 2.7873,3.16202 7.7289,9.45306 10.9813,13.9801 3.2523,4.52695 8.0602,10.88283 10.6841,14.12416 2.6239,3.24132 6.0321,7.93962 7.5738,10.44064 1.5416,2.50104 4.7958,6.59362 7.2317,9.09465 2.4359,2.50103 6.4211,7.61676 8.856,11.3683 2.435,3.75154 6.1359,8.86728 8.2242,11.3683 5.3434,6.39981 8.029,11.78766 6.9922,14.02876 -1.3559,2.9312 -1.5355,20.96042 -0.2324,23.33458 0.7839,1.42823 0.7155,3.66342 -0.2095,6.8388 -1.0026,3.44233 -1.027,5.59431 -0.09,7.96282 0.9414,2.38016 0.9131,4.23092 -0.1065,6.94094 -0.9833,2.61381 -1.0467,4.99596 -0.2167,8.13889 0.7879,2.98413 0.7752,5.30108 -0.038,7.05435 -0.8451,1.82066 -0.8008,4.08858 0.1466,7.49325 1.0125,3.63886 1.0185,5.74818 0.024,8.28158 -1.1547,2.9404 -0.9677,3.8947 1.3854,7.07118 1.566,2.11405 2.9337,5.91907 3.2235,8.96814 0.854,8.98642 1.3083,9.86441 7.1308,13.78593 8.8469,5.95835 12.1563,9.31118 12.1563,12.31542 0,2.67055 -0.1422,2.62535 -4.4349,-1.40803 -2.4393,-2.29194 -7.2057,-5.94372 -10.592,-8.11506 -7.6484,-4.90411 -7.9069,-5.31692 -7.5844,-12.11188 0.3441,-7.24643 -0.6223,-9.87305 -4.1,-11.14403 -2.388,-0.87273 -2.8557,-1.81866 -2.8557,-5.77792 0,-3.18303 0.6732,-5.20732 2.054,-6.17799 1.9026,-1.33719 1.9118,-1.59793 0.1254,-3.53581 -1.5325,-1.66232 -1.9241,-4.60707 -1.9062,-14.3338 0.012,-6.73295 0.4897,-12.51914 1.0606,-12.85837 0.5717,-0.33959 0.5936,-1.47942 0.049,-2.53713 -1.2226,-2.37352 -1.0608,-40.04552 0.1801,-41.96031 0.9624,-1.48534 -2.1481,-8.2754 -3.7911,-8.2754 -0.5417,0 -3.5881,-3.95081 -6.77,-8.77951 -3.1819,-4.82881 -8.5806,-11.86069 -11.9973,-15.62651 -3.4168,-3.76582 -6.9712,-8.38389 -7.8989,-10.26239 -0.9276,-1.8785 -4.1195,-5.96209 -7.0929,-9.07482 -2.9735,-3.11264 -5.4063,-6.24311 -5.4063,-6.95667 0,-0.71347 -2.1289,-3.86731 -4.7307,-7.00851 -2.6019,-3.14111 -4.7307,-6.06204 -4.7307,-6.49085 0,-0.42872 -2.584,-3.68079 -5.7421,-7.2266 -3.1582,-3.54582 -6.7425,-8.23747 -7.9653,-10.42592 -1.2227,-2.18844 -3.2955,-5.25789 -4.6064,-6.82098 -2.3104,-2.75532 -2.365,-4.00091 -1.7917,-40.78865 0.589,-37.7957 0.6019,-37.95331 3.2523,-39.64345 5.5362,-3.53054 1.8742,-17.3353 -4.5986,-17.3353 -1.2965,0 -3.5198,0.5755 -4.9406,1.27888 -8.6819,4.29813 -10.402,10.77534 -4.343,16.35508 l 3.5623,3.28062 -0.6098,23.36341 c -0.3355,12.84982 -0.6327,29.75803 -0.6608,37.57379 -0.048,13.53155 -0.2036,14.42619 -3.2481,18.72723 -1.7585,2.48429 -6.4431,7.62577 -10.4104,11.42541 -3.9672,3.79966 -8.9214,9.1754 -11.0095,11.94609 -2.088,2.77069 -8.0112,9.39549 -13.1624,14.72177 -38.4982,39.80534 -38.2543,39.47984 -33.4251,44.60913 1.8939,2.01164 1.8894,2.35296 -0.078,5.86341 -1.9939,3.559 -1.9943,3.91706 -0.01,7.92207 1.7797,3.58738 1.8674,4.76204 0.6062,8.11478 -1.0597,2.81698 -1.1244,4.54951 -0.2297,6.15653 1.5635,2.80806 1.6021,7.57856 0.083,10.30623 -0.7776,1.39667 -0.7267,3.2869 0.154,5.71552 0.9802,2.7023 0.9593,4.77324 -0.081,8.11224 -1.0918,3.50308 -1.0736,5.34447 0.083,8.42019 1.1956,3.1783 1.1844,4.72485 -0.059,8.02848 -1.1202,2.97731 -1.1848,4.43263 -0.2377,5.3431 2.131,2.04829 1.5044,4.78615 -2.0908,9.13457 -3.1839,3.8513 -3.3559,4.59361 -2.7986,12.08105 l 0.5938,7.97772 -6.9014,5.98028 c -17.3291,15.01607 -48.1381,42.6827 -69.1059,62.05729 -20.1168,18.58836 -48.3146,44.69535 -59.4296,55.02304 -5.0412,4.6841 -9.1657,9.099916 -9.1657,9.812931 0,0.713025 -0.7983,1.296357 -1.774,1.296357 -0.9757,0 -1.778,-0.895282 -1.7826,-1.989451 z"
             style="fill:#20509d;stroke-width:13.2473259;stroke-linecap:round;stroke-miterlimit:4;stroke-dasharray:none" />
          <path
             sodipodi:nodetypes="sccsssssssssssssssscscssssscssssssssssssssssssccsccscssssssssscssssssscsscsssssssscccssssssssssssscscccsscsssssscsssssssssscsscccsscccccccscccsccscccccsccssssccsscsccsccscccccccssscscccccccccccscccccccssscscssscsssscsscscscssccsccssccccscccsscsscccscscscscscssccscscccssccsscssscscscssssssscsscscssccsssccsssscssscsssscccccsccsccccccccccsccccscccccsssscccccssssssssscssscscscccccssssccscssssssccsssccsscsssssssssccccccscccccccccscc"
             inkscape:connector-curvature="0"
             id="path3397"
             d="m 1537.5843,-103.37914 c 0.3755,-3.75154 0.8822,-7.03416 1.1259,-7.29463 0.8607,-0.91974 0.1939,8.47011 -0.8006,11.273539 -0.6531,1.84121 -0.7677,0.439903 -0.3253,-3.978909 z m 19.0476,-5.39885 c 0.5194,-18.37318 1.0491,-19.81304 1.2552,-3.41158 0.1041,8.28467 -0.2098,15.063452 -0.6978,15.064091 -0.4878,6.3e-4 -0.7387,-5.242971 -0.5574,-11.652511 z m 268.7294,10.514588 c 0,-0.625255 0.5322,-1.136829 1.1827,-1.136829 0.6505,0 1.1827,0.511574 1.1827,1.136829 0,0.625256 -0.5322,1.13683 -1.1827,1.13683 -0.6505,0 -1.1827,-0.511574 -1.1827,-1.13683 z m 40.8024,0 c 0.402,-0.625255 0.9656,-1.136829 1.2525,-1.136829 0.2869,0 0.5215,0.511574 0.5215,1.136829 0,0.625256 -0.5636,1.13683 -1.2524,1.13683 -0.6889,0 -0.9236,-0.511574 -0.5216,-1.13683 z m -20.0517,-6.304228 c -0.4524,-2.89983 -0.5564,-5.52827 -0.2312,-5.84085 0.3252,-0.31267 0.9615,1.80419 1.4139,4.70402 0.4524,2.89983 0.5564,5.52818 0.2311,5.840854 -0.3252,0.31258 -0.9614,-1.804194 -1.4138,-4.704024 z m 36.6091,-10.15243 c 33.6118,-31.97859 67.6417,-63.28762 66.2096,-60.91583 -0.9972,1.65168 -11.9609,11.99065 -45.4774,42.88615 -10.0629,9.27599 -20.707,19.16777 -23.6535,21.98174 -2.9465,2.81398 -20.9482,27.728756 -22.8996,29.257565 -1.9514,1.5289 17.3648,-25.164325 25.8209,-33.209625 z m -56.5852,-3.15367 c -0.3762,-3.90788 -0.2448,-10.43046 0.2916,-14.49459 0.8896,-6.73776 0.9899,-6.11123 1.1374,7.10519 0.089,7.97201 -0.043,14.49459 -0.2917,14.49459 -0.2495,0 -0.7612,-3.19731 -1.1373,-7.10519 z m -286.6279,-3.12628 c 0,-3.43895 0.2216,-4.84571 0.4927,-3.12629 0.2709,1.71944 0.2709,4.53314 0,6.25257 -0.2711,1.71944 -0.4927,0.31259 -0.4927,-3.12628 z m 1.1826,-13.64196 c 0,-3.43896 0.2217,-4.84572 0.4928,-3.12628 0.2709,1.71943 0.2709,4.53313 0,6.25256 -0.2711,1.71943 -0.4928,0.31258 -0.4928,-3.12628 z m 15.9833,-8.22183 c -0.4369,-13.49936 0.6945,-17.10357 1.8088,-5.76192 1.0618,10.80789 0.9603,16.01394 -0.3274,16.7789 -0.6471,0.38442 -1.2599,-4.17344 -1.4814,-11.01698 z m 287.7684,2.0261 c -0.091,-3.87623 0.2792,-6.30304 0.8663,-5.68415 0.5634,0.59397 0.6345,3.63786 0.158,6.76414 l -0.8663,5.68415 z m -18.8697,-13.13039 c 0.013,-7.1905 0.4113,-14.35253 0.8841,-15.91562 0.4727,-1.56319 0.6452,3.80838 0.3834,11.93671 -0.6056,18.805 -1.2993,20.98262 -1.2675,3.97891 z m -283.7154,6.25257 c 0.01,-3.12629 0.2385,-4.2703 0.5103,-2.54223 0.2719,1.72808 0.2647,4.28595 -0.016,5.68416 -0.2807,1.39821 -0.5032,-0.0155 -0.4942,-3.14193 z m 302.0836,-17.28837 c -0.3937,-8.62381 -0.3104,-17.47026 0.1851,-19.65861 0.6259,-2.76505 1.1619,1.71343 1.7568,14.6792 0.481,10.48667 0.4,19.0963 -0.1851,19.65861 -0.5993,0.57624 -1.3445,-5.64958 -1.7568,-14.6792 z m -300.9171,4.21482 c 0,-2.8137 0.2306,-3.96472 0.5125,-2.55786 0.282,1.40684 0.282,3.70888 0,5.11573 -0.2819,1.40685 -0.5125,0.25574 -0.5125,-2.55787 z m 12.9253,-3.52317 c -0.131,-4.12616 -0.4813,-11.54393 -0.7786,-16.48404 l -0.5408,-8.98196 1.1679,7.95781 c 0.6422,4.3768 0.9927,11.79457 0.7787,16.48404 l -0.3891,8.52622 z m -11.7665,-7.27671 c 0.013,-2.50104 0.2553,-3.39031 0.5382,-1.97618 0.2829,1.41412 0.2722,3.46042 -0.024,4.54732 -0.2961,1.0869 -0.5275,-0.07 -0.5143,-2.57114 z m 408.9975,-8.08169 c 1.5769,-1.63131 12.1769,-11.22324 23.5554,-21.31556 36.8024,-32.64213 33.5698,-29.19072 34.4066,-36.73636 l 4.7329,-14.39136 -3.8244,14.43174 0.1738,6.66392 -6.7435,5.84121 c -10.612,9.19214 -36.7943,32.56737 -45.8063,40.89534 -8.1966,7.57456 -11.9035,10.20637 -6.4945,4.61107 z m -407.7587,-6.12869 c 0,-3.43896 0.2218,-4.84572 0.4928,-3.12629 0.2709,1.71943 -8.7254,136.586431 -8.9963,138.305863 -0.271,1.719434 8.5035,-131.740703 8.5035,-135.179573 z m 281.8078,-1.70525 c -0.6765,-4.45119 -0.5114,-12.21274 0.4752,-22.34017 0.8317,-8.53551 1.1973,-17.23226 0.8125,-19.32612 -0.3848,-2.09376 -0.2422,-5.59747 0.3168,-7.78583 1.2418,-4.86136 1.3406,15.1253 0.1967,39.78906 -0.7113,15.33921 -0.8365,16.0103 -1.8012,9.66306 z m -337.3802,3.48534 c 0.8111,0.29922 4.6069,-0.49184 8.435,-1.75781 3.828,-1.26598 7.1687,-2.10132 7.4236,-1.85631 0.6587,0.63326 -13.8716,5.24451 -16.5258,5.24451 0,0 -0.9414,-1.71888 0.6672,-1.63039 z m 18.555,-5.10164 c 2.2224,-1.22614 36.4739,-12.59408 37.9458,-12.59408 1.4714,0 1.3816,7.64596 -0.1001,8.52623 -0.6708,0.39843 -1.1827,-0.5566 -1.1827,-2.20655 0,-2.46019 -0.5357,-2.90919 -3.4708,-2.90919 -1.9089,0 -10.2219,2.30204 -18.4733,5.11574 -14.8031,5.04771 -18.1932,5.98463 -14.7189,4.06785 z m 46.8306,-9.752 c 0.8395,-9.3141 0.9968,-9.66306 4.3575,-9.66306 l 2.5587,0 -2.6285,1.76972 c -1.9745,1.32937 -2.6492,2.95585 -2.7116,6.53678 -0.045,2.6219 3.4179,148.524238 2.8101,149.774751 -0.7367,1.515713 -4.8643,-143.113101 -4.3862,-148.418191 z m 288.587,5.59639 c -0.3937,-0.98614 -0.9774,-13.64761 -1.2971,-28.13655 -0.5047,-22.8733 -0.3649,-25.97467 1.0613,-23.54358 1.252,2.13406 1.677,8.82535 1.7873,28.13655 0.08,13.93508 -0.076,25.33658 -0.3455,25.33658 -0.2697,0 -0.8124,-0.80687 -1.206,-1.793 z m 348.1697,-11.43815 c -2.2766,-2.17644 -6.928,-5.741 -10.3363,-7.92126 -7.4387,-4.75831 -8.3106,-6.29903 -7.3302,-12.95249 l 0.7538,-5.11574 0.1776,5.94481 0.1776,5.9448 9.1658,6.94703 c 5.0412,3.82084 9.8998,7.34192 10.797,7.82458 0.8971,0.48265 63.4038,48.02643 63.1571,48.68862 -0.2467,0.66217 -64.2857,-47.18382 -66.5624,-49.36035 z m -626.8189,-5.52654 c 1.6263,-0.89355 3.7552,-1.62276 4.7308,-1.62049 0.9758,0 -0.017,0.75158 -2.2055,1.66496 -5.0362,2.10177 -6.3877,2.07794 -2.5253,-0.0445 z m 10.6442,-3.97891 c 0.9758,-0.60607 2.8384,-1.07389 4.1393,-1.03952 2.3654,0.0627 2.3654,0.0627 0,1.03952 -1.3009,0.5374 -3.1635,1.00514 -4.1393,1.03952 -1.5769,0.0555 -1.5769,-0.06 0,-1.03952 z m 9.4614,-2.84208 c 1.6262,-0.89355 4.0211,-1.60384 5.322,-1.57846 1.5489,0.03 0.9366,0.57514 -1.774,1.57846 -5.4721,2.02565 -7.2344,2.02565 -3.548,0 z m 9.4614,-2.84207 c 0.9757,-0.60607 2.5724,-1.0739 3.5481,-1.03952 1.1698,0.0409 0.9683,0.39525 -0.5914,1.03952 -3.2512,1.34301 -5.1185,1.34301 -2.9567,0 z m 15.3748,-4.91248 c 0,-0.96512 13.1923,-5.45014 14.6506,-4.98077 0.7235,0.23283 -1.6115,1.34965 -5.1892,2.48184 -3.5775,1.13211 -7.1699,2.29439 -7.983,2.58288 -0.813,0.28848 -1.4784,0.25065 -1.4784,-0.0836 z m 16.5575,-5.77673 c 0,-0.65563 16.0207,-5.2446 17.9237,-5.13402 0.8748,0.0509 -2.401,1.3201 -7.2796,2.82062 -9.0241,2.77541 -10.6441,3.12755 -10.6441,2.3134 z m 546.3968,-2.79142 c 0,-0.74494 -1.3305,-1.84066 -2.9567,-2.43499 -2.5005,-0.91383 -2.9567,-1.81102 -2.9567,-5.81494 0,-3.18303 0.673,-5.20732 2.054,-6.17799 1.9026,-1.33719 1.9118,-1.59802 0.1253,-3.53581 -1.5324,-1.66232 -1.924,-4.60707 -1.9062,-14.3338 0.012,-6.73295 0.4898,-12.51914 1.0607,-12.85837 0.5708,-0.33914 0.4483,-1.67569 -0.2723,-2.97013 -0.8667,-1.55645 -1.0134,-5.28644 -0.4333,-11.01506 0.4823,-4.76387 1.1399,-7.89433 1.4614,-6.9564 0.3214,0.93784 1.3267,2.52712 2.234,3.53172 1.4161,1.56791 1.3942,2.03011 -0.1543,3.26543 -2.1675,1.72908 -2.4053,9.2226 -0.3552,11.19314 1.1432,1.09891 1.1432,1.86285 0,3.62239 -1.8291,2.81535 -1.859,8.10915 -0.067,11.88943 1.1702,2.46856 1.0503,3.14748 -0.7834,4.43637 -2.0766,1.4596 -2.0816,1.76672 -0.1224,7.52417 1.4443,4.24457 1.6737,6.35698 0.7834,7.21279 -2.1293,2.04675 -1.4164,7.83749 1.308,10.62509 1.4119,1.44468 2.2102,2.96976 1.7741,3.38903 -0.4363,0.41926 -0.7932,0.15287 -0.7932,-0.59207 z m -523.9259,-4.14025 c 1.6261,-0.89354 3.755,-1.62275 4.7307,-1.62047 0.9757,0 -0.017,0.75158 -2.2055,1.66495 -5.0362,2.10177 -6.3878,2.07794 -2.5252,-0.0445 z m 7.7707,-2.97158 c 0.7591,-1.18066 8.5442,-3.54818 10.0651,-3.06089 0.6916,0.22164 -1.4118,1.19031 -4.6743,2.15271 -3.2625,0.96229 -5.6884,1.37101 -5.3908,0.90818 z m 15.2219,-4.92347 c 1.2626,-0.9724 3.1253,-1.72762 4.1394,-1.67824 1.5926,0.0773 1.602,0.1758 0.07,0.72203 -0.9758,0.34778 -2.8384,1.10291 -4.1394,1.67824 -2.3275,1.02914 -2.3286,1.01759 -0.07,-0.72203 z m 9.531,-3.4687 c 3.9917,-1.8082 8.5066,-2.39507 5.322,-0.69183 -0.9757,0.52194 -3.3706,1.2527 -5.322,1.62404 l -3.548,0.67509 z m 160.1307,-4.55187 c -0.6862,-9.5873 -0.5421,-31.31376 0.1946,-29.34759 1.4041,3.74763 2.3378,27.0079 1.2237,30.48443 l -1.093,3.41049 z m 172.1011,1.73654 c 2.2342,-3.35038 2.4167,-7.01325 0.4437,-8.90975 -1.1193,-1.0759 -0.9667,-2.1307 0.7012,-4.84472 2.3718,-3.85958 1.8458,-8.195 -1.4166,-11.67398 -1.8324,-1.95416 -1.8166,-2.19417 0.2401,-3.63976 2.7714,-1.94798 2.8395,-6.73959 0.1365,-9.61067 -2.0168,-2.14216 -1.754,-5.68879 0.4216,-5.68879 2.4271,0 2.6179,-5.9227 0.3118,-9.67961 -2.013,-3.27962 -2.103,-4.0553 -0.6796,-5.86058 2.2007,-2.79097 2.1349,-7.14058 -0.1442,-9.56139 -1.6933,-1.79855 -1.6818,-2.30668 0.1274,-5.66978 1.7105,-3.17958 1.7783,-4.30341 0.486,-8.06686 -0.8258,-2.40498 -1.1491,-4.71111 -0.7187,-5.12483 0.4304,-0.4138 0.7825,0.18799 0.7825,1.33709 0,1.1492 0.905,3.05062 2.011,4.22547 1.8941,2.01164 1.8895,2.35296 -0.078,5.86341 -1.994,3.559 -1.9943,3.91706 -0.01,7.92207 1.7797,3.58738 1.8675,4.76204 0.6062,8.11478 -1.0597,2.81698 -1.1244,4.54951 -0.2295,6.15653 1.5633,2.80806 1.6019,7.57856 0.083,10.30623 -0.7776,1.39667 -0.7266,3.2869 0.1542,5.71552 0.98,2.7023 0.9592,4.77324 -0.081,8.11224 -1.0919,3.50308 -1.0737,5.34447 0.083,8.42019 1.1956,3.1783 1.1843,4.72485 -0.059,8.02848 -1.12,2.97731 -1.1848,4.43263 -0.2375,5.3431 2.1212,2.03902 1.501,5.00896 -1.7554,8.40672 -2.6787,2.79479 -2.8251,2.84162 -1.1827,0.37889 z m -313.9004,-3.44178 c 2.9272,-1.18066 6.3865,-2.15853 7.6875,-2.17299 1.3009,-0.0145 -0.5618,0.96331 -4.1394,2.17299 -8.2954,2.80488 -10.5022,2.80488 -3.5481,0 z m 11.1332,-3.12628 c 1.1724,-1.13156 11.9549,-4.74105 17.642,-5.9057 2.4916,-0.51021 5.1259,-1.50034 5.8542,-2.20036 0.7282,-0.70001 2.493,-1.27279 3.9217,-1.27279 1.4287,0 6.5112,-1.533 11.2945,-3.40659 9.643,-3.77718 13.9105,-4.60715 6.0473,-1.1762 -4.9283,2.15043 -43.2557,14.81426 -44.8355,14.81426 -0.4441,0 -0.4099,-0.3837 0.075,-0.85262 z m 118.2237,-0.80934 c -0.3649,-0.91401 -0.15,-4.87873 0.4778,-8.81043 l 1.1412,-7.14848 0.1507,8.81043 c 0.1455,8.50959 -0.3796,10.63073 -1.7697,7.14848 z m -67.8576,-15.82476 c 0,-0.33823 2.2619,-1.19222 5.0263,-1.89778 2.7646,-0.70566 6.6231,-1.94434 8.5744,-2.75277 6.3193,-2.6179 19.6847,-6.49867 20.3102,-5.89733 0.3347,0.32177 -1.171,1.09727 -3.346,1.72344 -2.1751,0.62616 -8.2123,2.64199 -13.4162,4.47975 -10.0856,3.56164 -17.1487,5.3511 -17.1487,4.34469 z m 67.8794,-10.36563 0.1245,-9.09464 -4.1522,0.10559 c -2.2838,0.0582 -9.4034,1.99646 -15.8214,4.3075 -6.4181,2.31104 -11.8728,4.00628 -12.1215,3.76718 -0.6981,-0.67109 24.4313,-9.64214 29.4341,-10.50785 l 4.435,-0.76751 -4.1382,245.121803 c -0.077,3.977451 3.4662,-229.123593 2.9867,-227.247913 -0.5757,2.25274 -0.8294,0.32304 -0.747,-5.68416 z m 11.4998,-7.53809 -0.1398,-7.538 6.8003,-3.11119 c 3.7403,-1.71107 8.2131,-3.81838 9.9396,-4.68283 1.7266,-0.86444 3.8889,-1.57174 4.8051,-1.57174 0.9161,0 4.3959,-1.26597 7.7325,-2.81324 5.2223,-2.42163 12.9971,-5.43369 32.2216,-12.48285 19.0057,-6.96895 33.7971,-14.57235 34.6829,-17.8285 0.6244,-2.29503 3.2265,-2.50185 3.9844,-0.31668 0.445,1.28362 -501.6788,180.29873 -508.0284,182.57112 -2.4125,0.86336 471.341,-163.5584 461.4742,-160.07334 -9.8669,3.48498 -19.9789,7.3301 -22.4709,8.54469 -2.4921,1.2145 -8.7888,3.81675 -13.9926,5.78274 -12.9774,4.90274 -11.7565,253.761707 -11.9245,258.168334 0,0 -3.545,-242.396674 -4.0416,-240.520904 -0.7023,2.65318 -0.9338,1.73671 -1.0428,-4.12761 z m 326.7983,-17.4417 c -1.0338,-5.2969 -0.3104,-5.90097 2.1914,-1.82993 1.7205,2.79978 1.7622,3.43195 0.3034,4.59579 -1.3994,1.11637 -1.8304,0.63863 -2.4948,-2.76586 z m 0.058,-9.12511 c 0.4166,-1.87577 0.8373,-4.27739 0.9348,-5.33692 0.1321,-1.43568 0.5646,-1.61748 1.6979,-0.71347 2.1061,1.68023 -4.0413,20.52924 -3.7885,16.23103 l 0.3979,-6.77015 z m -3.113,-12.22092 c -0.9928,-0.7816 -4.8258,-5.76937 -8.518,-11.08411 -3.6921,-5.31472 -9.3174,-12.64673 -12.5007,-16.2934 -3.1833,-3.64678 -6.0634,-7.73937 -6.4003,-9.09465 -0.5614,-2.25775 -0.4964,-2.29067 0.7745,-0.39262 0.7629,1.13947 5.5117,7.18978 10.5528,13.44516 5.0413,6.25539 9.1658,11.77883 9.1658,12.2744 0,0.49548 2.1742,3.52563 4.8314,6.73359 4.8687,5.87786 5.413,7.02424 2.0945,4.41163 z m -148.4244,-13.35776 c 1.0751,-1.56319 6.3427,-7.25962 11.7057,-12.65893 15.3903,-15.4939 27.2526,-28.26314 33.1242,-35.65636 5.3957,-6.79406 22.1601,-23.36814 22.1601,-21.90863 0,0.42191 -3.6841,4.32232 -8.1869,8.66774 -4.5027,4.34533 -9.8551,10.12534 -11.8942,12.84436 -2.0392,2.71912 -7.5357,8.73104 -12.2144,13.35976 -4.6789,4.62881 -9.3053,9.5401 -10.2809,10.91403 -0.9758,1.37392 -7.3078,8.07404 -14.0712,14.88911 -6.7634,6.81507 -11.4176,11.11202 -10.3424,9.54892 z m -125.2279,-1.18786 c -0.4267,-0.66363 3.5825,-1.03351 10.3114,-0.9513 16.7259,0.20436 19.8115,1.53927 4.1696,1.80393 -7.766,0.13141 -14.0876,-0.24083 -14.481,-0.85263 z m -44.9089,-1.122 c -4.5072,-1.05643 17.4412,-1.1422 22.4709,-0.0882 2.0775,0.43555 -1.1085,0.78023 -7.6875,0.83162 -6.1795,0.0482 -12.832,-0.2864 -14.7834,-0.74376 z m -51.4464,-1.10063 c -4.1281,-0.61689 -2.8013,-0.80825 5.9133,-0.85281 7.2196,-0.0364 10.1786,0.26793 8.2787,0.85281 -3.5025,1.07817 -6.9773,1.07817 -14.192,0 z m 19.2409,0.34904 c 1.1508,-0.28829 2.7474,-0.26929 3.548,0.0418 0.8008,0.3114 -0.1407,0.54733 -2.0921,0.52413 -1.9514,-0.0227 -2.6065,-0.27802 -1.4559,-0.56623 z m -50.8551,-1.13682 c 1.1507,-0.28831 2.7473,-0.26929 3.5481,0.0418 0.8007,0.31139 -0.1408,0.54731 -2.0922,0.52412 -1.9514,-0.0227 -2.6065,-0.27802 -1.4559,-0.56623 z m -63.5914,-1.48589 -16.5574,-0.66654 15.9661,-0.12187 c 8.7813,-0.0673 17.2966,0.28785 18.9228,0.78841 2.178,0.67046 2.3337,0.87809 0.5914,0.78842 -1.301,-0.0673 -9.8163,-0.42181 -18.9229,-0.78842 z m 44.0944,0.2974 c 3.4368,-0.23036 8.7588,-0.22791 11.8268,0.009 3.0679,0.23337 0.256,0.42181 -6.2487,0.41891 -6.5047,0 -9.0149,-0.1939 -5.5781,-0.42427 z m -104.7066,-2.26984 c 3.0898,-0.23419 8.1457,-0.23419 11.2355,0 3.0897,0.23419 0.5617,0.42581 -5.6178,0.42581 -6.1795,0 -8.7074,-0.19162 -5.6177,-0.42581 z m 23.6761,0.0482 c 1.1507,-0.28821 2.7474,-0.26929 3.548,0.0418 0.8007,0.31139 -0.1407,0.54722 -2.0922,0.52403 -1.9514,-0.0228 -2.6065,-0.27793 -1.4558,-0.56614 z m -74.5311,-1.18467 c 3.0896,-0.23418 8.1456,-0.23418 11.2354,0 3.0897,0.23419 0.5616,0.42581 -5.6178,0.42581 -6.1795,0 -8.7075,-0.19162 -5.6176,-0.42581 z m 22.4708,0.0519 c 1.1383,-0.28594 3.0011,-0.28594 4.1394,0 1.1382,0.28593 0.2069,0.51994 -2.0697,0.51994 -2.2767,0 -3.208,-0.23401 -2.0697,-0.51994 z m -175.2727,-5.37912 c 0,-0.98668 71.9298,1.08827 72.8678,1.98981 0.3386,0.32559 -1.6949,0.86481 -4.519,1.19832 -10.9556,1.29371 -68.3488,-2.36015 -68.3488,-3.18813 z m 111.9761,3.87122 c 7.9555,-0.46228 16.2047,-0.48101 18.3315,-0.0418 2.1269,0.43937 -4.3822,0.81761 -14.4644,0.84054 l -18.3315,0.0418 z m -36.0258,-0.76949 c 1.1508,-0.28821 2.7474,-0.26921 3.5481,0.0418 0.8007,0.3114 -0.1408,0.54723 -2.0922,0.52413 -1.9515,-0.0227 431.2143,9.43178 432.3651,9.14357 z m 619.1644,-19.95929 c -3.5808,-4.24756 -6.2917,-8.81043 -5.2345,-8.81043 0.2004,0 2.8442,3.06944 5.875,6.82098 6.2187,7.69752 5.653,9.4547 -0.6405,1.98945 z m -10.4471,-14.54697 c -2.0845,-2.52994 -3.5339,-4.84589 -3.221,-5.14674 0.5109,-0.49102 5.0242,4.68346 7.2615,8.32541 1.8409,2.9966 -0.4141,1.2225 -4.0405,-3.17867 z m -9.6882,-12.73695 c -5.352,-6.16217 -9.1914,-11.55902 -9.1914,-12.91994 0,-0.73904 1.1951,0.70274 11.1804,13.48835 5.6233,7.20014 4.4724,6.87127 -1.989,-0.56841 z m -25.5435,-16.19983 c 1.8406,-4.40027 3.3427,-6.09169 3.3427,-3.76382 0,0.99368 -1.0731,3.01441 -2.3846,4.49048 l -2.3844,2.68382 z m 13.4848,-0.47338 c -1.8632,-1.979 -2.0385,-5.52463 -1.9126,-38.69115 0.077,-20.08189 0.6099,-37.70421 1.1858,-39.16062 0.5761,-1.45651 4.7571,-7.77965 5.8358,-8.17754 1.67,-0.61599 -1.2197,4.63245 -3.2481,7.78728 -2.2806,3.54701 -2.3644,5.23479 -1.9712,39.68266 0.2701,23.65525 0.8645,36.79328 1.7358,38.3581 1.6511,2.9655 1.0475,3.04025 -1.6255,0.20127 z m -10.9273,-1.82866 c 0,-4.68947 0.2089,-19.65297 0.464,-17.30828 0.2551,2.34468 1.6688,-59.7308 1.4136,-57.38611 -0.2552,2.34469 -1.8776,79.38377 -1.8776,74.69439 z m 1.1827,-40.3291 c 0,-4.68947 0.2088,-6.6078 0.464,-4.26311 0.2551,2.34469 0.2551,6.18153 0,8.52622 -0.2552,2.34469 -0.464,0.42627 -0.464,-4.26311 z m -0.3042,-15.44197 c 0.057,-1.32436 0.3369,-1.59366 0.7145,-0.68683 0.3417,0.8207 0.2997,1.80119 -0.094,2.17898 -0.3931,0.37771 -0.6725,-0.29375 -0.6212,-1.49215 z m -1.2799,-18.9265 c -3.6185,-5.23233 -6.5807,-13.4648 -3.4196,-10.53787 1.784,1.65195 5.8727,11.12784 5.6303,11.82676 -0.2423,0.69892 -1.2372,0.11896 -2.2107,-1.28889 z m 15.4721,-11.76792 c 0.057,-1.32436 0.3369,-1.59365 0.7145,-0.68682 0.3416,0.82069 0.2997,1.80119 -0.094,2.17897 -0.393,0.37771 -0.6725,-0.29375 -0.6213,-1.49215 z m -15.756,-7.01043 c 1.5317,-1.40684 3.4205,-2.54231 4.1974,-2.5233 11.5586,9.53373 0.348,0.60224 -0.9529,1.29599 -1.301,0.69373 -3.1898,1.8292 -4.1974,2.5233 -1.0076,0.69402 -0.5787,0.11077 0.9529,-1.29599 z"
             style="fill:#003ea5;fill-opacity:1;stroke:#090f1d;stroke-width:12.28850651;stroke-linecap:round;stroke-miterlimit:4;stroke-dasharray:none;stroke-opacity:1" />
          <g
             style="stroke:#00123d;stroke-opacity:1"
             inkscape:label="Layer 1"
             id="layer1-4"
             transform="matrix(0.46025259,0,0,0.42322532,1803.9766,-1336.631)">
            <path
               inkscape:transform-center-y="-1451.1592"
               inkscape:transform-center-x="-807.2236"
               style="fill:#ffffff;fill-opacity:1;stroke:#00123d;stroke-width:13.79316044;stroke-miterlimit:9.5;stroke-dasharray:none;stroke-opacity:1"
               d="m 157.78306,1343.561 c -5.55425,-12.1548 -13.9751,-32.4122 -18.71309,-45.017 -12.13762,-32.2902 -14.55566,-35.0183 -17.12729,-19.3244 -1.15144,7.0273 -2.172,28.6628 -2.2676,48.0787 l -0.17383,35.3026 -33.964181,-0.9254 -33.964077,-0.9259 0,-140.7815 0,-140.7809 33.836007,-0.9248 33.836221,-0.9242 5.13999,10.7462 c 2.82723,5.9109 12.31915,29.1625 21.09372,51.6711 l 15.95367,40.9245 0.92234,-52.3833 0.92231,-52.3837 32.96487,-0.9349 c 24.34082,-0.6904 33.60909,0.1683 35.42737,3.2742 2.81942,4.819 3.50955,274.3536 0.72252,282.2297 -1.50813,4.2619 -7.37941,5.1788 -33.1714,5.1788 l -31.33898,0 -10.09848,-22.0998 z m -495.86037,10.0531 c -0.79673,-2.2513 -1.09379,-65.9714 -0.66016,-141.5999 l 0.78853,-137.506 33.96424,-0.9258 33.96399,-0.9255 0,113.059 0,113.0599 49.81413,0 49.81407,0 0,29.4659 0,29.466 -83.11824,0 c -63.72026,0 -83.45622,-0.9553 -84.56656,-4.0936 z m 196.48194,2.8074 c -0.79659,-2.2513 -1.09362,-65.9714 -0.65996,-141.5999 l 0.78847,-137.506 33.96411,-0.9258 33.964126,-0.9255 0,113.059 0,113.0599 49.814008,0 49.814167,0 0,29.4659 0,29.466 -83.118236,0 c -63.720285,0 -83.456205,-0.9553 -84.566685,-4.0936 z"
               id="path3445-8-7"
               inkscape:connector-curvature="0"
               sodipodi:nodetypes="cssscccccccsscccscsscccsscccccccccsssscccccccccss" />
          </g>
          <path
             style="fill:#ffffff;fill-opacity:1;stroke:#00123d;stroke-width:1.93363881;stroke-miterlimit:4;stroke-dasharray:none;stroke-opacity:1"
             d="m 1691.6157,-597.46615 c -0.3398,-0.88424 -0.4633,-11.7337 -0.2743,-24.10997 l 0.3437,-22.50212 6.2713,0 6.2712,0 4.39,9.01 c 2.4143,4.95559 4.9559,9.04167 5.648,9.08041 0.6918,0.0388 3.2317,-4.0159 5.6441,-9.01002 l 4.386,-9.08039 6.2713,0 6.2713,0 0,23.79678 0,23.7969 -4.7034,0.38867 -4.7036,0.38878 -0.073,-15.41843 -0.073,-15.41823 -4.3429,9.0804 c -4.0755,8.52151 -4.5937,9.08031 -8.4214,9.08031 -4.3027,0 -4.7853,-0.60355 -10.5144,-13.15086 l -2.2875,-5.00985 -0.3522,15.34272 -0.3521,15.34272 -4.3907,0 c -2.4167,0 -4.6684,-0.72289 -5.0084,-1.60782 z m 50.8667,-0.37132 c 0,-1.17164 1.0785,-4.44635 2.3967,-7.27722 2.7568,-5.92074 5.4386,-12.02999 11.9633,-27.25235 4.4168,-10.30497 4.8534,-10.85753 8.9552,-11.33572 2.3716,-0.27648 4.8407,-0.17646 5.487,0.22244 0.6462,0.39889 2.9349,4.93639 5.086,10.08325 3.8914,9.31143 6.6734,15.85329 8.7729,20.63039 7.7992,17.74526 7.7453,17.18402 1.6042,16.67079 -3.939,-0.32931 -5.0321,-1.11433 -7.1423,-5.12919 l -2.4914,-4.74052 -11.2493,0.35689 -11.2491,0.35691 -1.4674,4.38362 c -1.2781,3.81838 -2.0604,4.43368 -6.0666,4.77229 -3.6459,0.30816 -4.5992,-0.0531 -4.5992,-1.74158 z m 30.1022,-21.20849 c 0,-1.04269 -0.5642,-2.87439 -1.2537,-4.07055 -0.6896,-1.19617 -1.8341,-3.80285 -2.5436,-5.79282 -0.7094,-1.98986 -1.6763,-3.232 -2.1487,-2.76037 -0.9546,0.95309 -5.3397,12.10214 -5.3413,13.5801 -5e-4,0.5166 2.5389,0.9393 5.6431,0.9393 4.2034,0 5.6442,-0.48391 5.6442,-1.89566 z m 22.8628,-0.84897 0.341,-24.18331 12.6222,0.0612 c 14.9339,0.0736 19.0555,2.06894 21.8729,10.5934 2.6014,7.87178 -0.1964,14.71251 -7.5527,18.46489 -3.1602,1.61212 -7.8006,2.81809 -10.843,2.81809 l -5.3185,0 -0.3734,7.82784 -0.3735,7.82795 -5.3579,0.38643 -5.3579,0.38642 0.3408,-24.18322 z m 23.2939,-3.76812 c 0.8277,-0.8267 1.505,-2.96839 1.505,-4.75941 0,-4.61658 -2.2085,-6.26232 -8.4035,-6.26232 l -5.3933,0 0,6.26232 0,6.26231 5.3933,0 c 2.9663,0 6.0706,-0.67629 6.8985,-1.5029 z m 22.4447,25.47165 c -4.2382,-2.79039 -6.4844,-5.89244 -7.6067,-10.50473 -0.7939,-3.26245 -0.6055,-3.44431 3.566,-3.44431 3.3121,0 5.2352,0.93142 7.7567,3.75738 2.7459,3.07731 4.3324,3.75749 8.7656,3.75749 4.7352,0 5.5119,-0.39409 6.204,-3.14751 1.0661,-4.24139 -1.1106,-6.50252 -7.258,-7.5396 -2.8139,-0.47471 -7.4379,-2.07497 -10.2754,-3.55621 -6,-3.13167 -8.2865,-8.98487 -6.2625,-16.03158 3.66,-12.74359 27.1386,-13.24976 32.4236,-0.69898 1.0614,2.52045 1.2681,4.56999 0.5482,5.43613 -1.7216,2.0718 -7.6569,0.51537 -10.8,-2.8322 -3.2176,-3.42675 -9.2861,-3.92168 -11.749,-0.9581 -2.6619,3.20289 0.064,5.73959 9.4251,8.77082 11.3899,3.68832 15.1598,7.49997 14.9948,15.16095 -0.108,5.01322 -0.756,6.39514 -4.685,9.99069 -4.2304,3.87131 -5.1726,4.17222 -13.0444,4.16445 -6.1396,-0.0102 -9.457,-0.64841 -12.003,-2.32469 z"
             id="path3445-5"
             inkscape:connector-curvature="0"
             sodipodi:nodetypes="cscccscscccccccccssscccsccssscssssscccscssssscsscccssscccccccssscccssssscssccsssccscscs" />
          <path
             style="fill:#ffffff;fill-opacity:1;stroke:#00034b;stroke-width:2.83115816;stroke-miterlimit:4;stroke-dasharray:none;stroke-opacity:1"
             d="m 1667.4079,-661.22169 c -5.4537,-1.07247 -6.0563,-4.30503 -2.7919,-14.97763 5.1697,-16.90122 8.7627,-28.95964 12.3724,-41.52103 1.9523,-6.79476 4.327,-14.39229 5.2768,-16.88376 l 1.7269,-4.5297 36.9354,0 c 0,0 54.8254,0.0256 110.0763,0 27.6068,0.39466 37.3298,0.51977 38.5036,2.05892 0.8634,1.13239 3.4848,8.35943 5.8248,16.06016 16.0373,52.77321 16.4455,54.43195 14.2647,57.95692 -1.0828,1.75024 -22.1514,2.20579 -109.8581,2.37564 -59.6851,0.11556 -110.2341,-0.12766 -112.3309,-0.53952 z m 167.9594,-6.12811 -0.6566,-16.54191 21.9864,-0.88473 22.8599,-0.56989 c 0,0 -3.0623,-12.60776 -1.6078,-7.25432 l -1.4545,-5.35344 -21.397,0 -21.397,0 -0.2821,-13.58925 c -0.1554,-7.47415 -0.3549,-15.07181 -0.4435,-16.88374 l -0.059,-3.29438 -12.6228,0 -0.7392,11.53032 c -0.4065,6.34164 -1.2385,16.30553 -1.2385,16.30553 l -0.4993,4.94158 -54.8859,1.53927 c -29.2691,0.82077 -53.4831,1.10982 -53.805,0.78826 -0.3221,-0.32157 1.2242,-8.23164 3.4362,-17.57809 2.212,-9.34629 4.1396,-17.76929 4.1396,-18.14258 0,-0.37317 -3.8294,-0.20789 -8.3655,-0.20789 -6.9805,0 -7.8944,0.16381 -7.8944,0.16381 0,0 -3.2395,16.52202 -7.8132,30.3092 -1.2022,3.62386 -2.6725,8.99786 -3.2675,11.94218 l -1.0817,5.35343 64.4635,0 c 53.5965,0 64.1301,0.76729 64.1301,0.76729 0,0 -0.3413,6.06011 -0.7043,8.9433 l -1.0377,8.23998 z"
             id="path3445-1"
             inkscape:connector-curvature="0"
             sodipodi:nodetypes="csssccccscscccccccccscccsccssssscsscscscc" />
          <g
             style="fill:#ff7f2a"
             inkscape:label="Layer 1"
             id="layer1-7"
             transform="matrix(0.3520219,0,0,0.35436774,1738.0213,-1002.4148)">
            <path
               style="fill:#ff7f2a;fill-opacity:1;stroke:#00034b;stroke-width:11.22998142;stroke-miterlimit:9.5;stroke-dasharray:none;stroke-opacity:1"
               d="M 910.00196,1246.4399 C 777.85308,1047.223 1087.9862,892.42168 1157.487,1098.6638 c 15.8813,49.7308 19.0752,98.139 -22.2972,149.6505 l -121.0244,156.8939 z m 139.81144,-66.2609 c 17.7231,-12.7925 20.376,-54.6455 4.6498,-73.3499 -24.5083,-29.1511 -82.12395,-4.9568 -82.12395,34.4864 0,41.4302 43.61005,63.307 77.47415,38.8635 z"
               id="path3445-1-8"
               inkscape:connector-curvature="0"
               sodipodi:nodetypes="cccccscss" />
          </g>
        </g>
      </g>
    </g>
  </g>
</svg>
